<?xml version="1.0" encoding="UTF-8"?>
<svg xmlns="http://www.w3.org/2000/svg" xmlns:xlink="http://www.w3.org/1999/xlink" width="601pt" height="744.096pt" viewBox="0 0 601 744.096" version="1.1">
<defs>
<clipPath id="clip1">
  <path d="M 0 520 L 601 520 L 601 744.097656 L 0 744.097656 Z M 0 520 "/>
</clipPath>
</defs>
<g id="surface1">
<path style=" stroke:none;fill-rule:nonzero;fill:rgb(89.646912%,89.459229%,89.505005%);fill-opacity:1;" d="M 306.164062 86.820312 C 302.917969 87.539062 299.851562 88.976562 300.707031 91.164062 C 302.445312 95.59375 305.246094 99.714844 308.222656 103.476562 C 308.910156 104.34375 312.148438 102.402344 311.53125 100.402344 C 310.097656 95.722656 307.964844 91.257812 306.164062 86.820312 M 400.800781 319.660156 C 402.316406 322.359375 400.566406 327.160156 404.746094 326.882812 C 408.84375 326.609375 409.21875 322.542969 408.339844 319.027344 C 407.605469 316.074219 408.523438 313.535156 409.417969 310.824219 C 409.789062 309.703125 408.910156 308.164062 408.601562 306.816406 C 407.859375 306.992188 406.65625 306.941406 406.441406 307.375 C 404.453125 311.449219 402.632812 315.605469 400.800781 319.660156 M 142.636719 188.734375 C 144.636719 182.371094 146.085938 176.835938 148.117188 171.527344 C 150.824219 164.464844 154.078125 157.613281 156.863281 150.578125 C 157.328125 149.394531 157.140625 147.230469 156.339844 146.4375 C 155.058594 145.160156 153.664062 146.59375 152.519531 147.589844 C 147.035156 152.363281 139.742188 180.808594 142.636719 188.734375 M 339.972656 89.445312 C 339.003906 92.199219 339.519531 94.402344 342.757812 95.625 C 346.078125 96.878906 349.226562 97.382812 352.070312 94.703125 C 354.945312 91.996094 351.414062 90.753906 350.636719 88.90625 C 349.785156 86.886719 349.671875 84.941406 351.339844 83.378906 C 353.839844 81.039062 355.890625 82.898438 357.964844 84.3125 C 359.671875 85.472656 361.394531 87.640625 363.515625 85.175781 C 365.480469 82.886719 364.171875 80.984375 362.460938 79.074219 C 359.78125 76.089844 357.367188 73.949219 352.710938 75.855469 C 348.992188 77.378906 344.675781 77.46875 340.613281 78.09375 C 338.542969 78.414062 335.707031 77.414062 334.742188 79.753906 C 333.460938 82.851562 337.191406 81.980469 338.410156 83.21875 C 340.199219 85.035156 340.054688 87.085938 339.972656 89.445312 M 323.21875 68.148438 C 326.929688 68.367188 328.632812 66.980469 327.113281 64.398438 C 325.1875 61.113281 326.015625 58.699219 327.832031 55.882812 C 329.175781 53.792969 330.378906 51.320312 326.792969 49.789062 C 323.691406 48.457031 321.949219 49.4375 320.617188 52.484375 C 318.683594 56.902344 316.308594 58.671875 310.40625 57.414062 C 307.105469 56.707031 306.882812 48.460938 302.246094 54.03125 C 299.558594 57.257812 297.179688 60.925781 295.488281 64.757812 C 293 70.398438 297.65625 72.691406 301.566406 74.179688 C 306.15625 75.925781 302.402344 71.539062 303.742188 70.390625 C 305.8125 68.621094 306.964844 65.90625 310.617188 66.613281 C 315.046875 67.46875 319.589844 67.730469 323.21875 68.148438 M 510.527344 319.152344 C 508.703125 315.695312 508.609375 310.730469 502.160156 312.917969 C 495.167969 315.292969 489.195312 313.183594 485.539062 306.757812 C 483.761719 303.632812 483.128906 304.601562 480.96875 306.214844 C 473.015625 312.171875 477.582031 318.832031 479.394531 325.453125 C 481.015625 331.367188 482.800781 336.472656 490.851562 335.484375 C 494.84375 334.992188 492.546875 338.085938 492.328125 339.988281 C 492.113281 341.84375 492.300781 343.828125 492.804688 345.617188 C 492.890625 345.925781 496.128906 346.121094 496.722656 345.398438 C 503.023438 337.671875 507.789062 329.089844 510.527344 319.152344 M 357.988281 57.183594 C 357.519531 62.820312 360.199219 64.707031 363.191406 65.785156 C 366.949219 67.140625 370.960938 69.230469 374.410156 64.664062 C 376.019531 62.53125 378.355469 60.628906 381.089844 63.269531 C 382.269531 64.410156 382.355469 65.953125 380.75 67.125 C 379.128906 68.304688 375.195312 68.15625 377.015625 71.476562 C 378.574219 74.316406 381.785156 73.691406 384.945312 73.738281 C 395.875 73.90625 408.246094 68.691406 416.488281 81.109375 C 417.527344 82.675781 420.222656 83.847656 422.234375 82.25 C 423.324219 81.386719 424.101562 79.453125 424.089844 78.011719 C 424.066406 75.21875 422.296875 73.472656 419.894531 71.792969 C 409.496094 64.519531 395.6875 66.292969 385.46875 58.480469 C 383.269531 56.796875 380.449219 55.589844 377.746094 54.398438 C 371.859375 51.800781 366.109375 53.070312 360.617188 52.429688 C 354.6875 51.746094 347.683594 49.777344 341.378906 47.613281 C 337.703125 46.347656 333.722656 47.53125 332.96875 50.679688 C 331.976562 54.808594 331.839844 60.257812 333.855469 63.632812 C 335.414062 66.246094 338.367188 61.527344 340.820312 60.320312 C 342.5 59.492188 344.734375 58.527344 346.28125 59.011719 C 348.53125 59.71875 347.277344 61.996094 347.019531 63.773438 C 346.882812 64.714844 347.3125 66.28125 348.007812 66.691406 C 349.339844 67.484375 349.851562 66.160156 350.421875 65.050781 C 351.710938 62.566406 353.066406 60.09375 354.660156 57.804688 C 355.304688 56.878906 356.648438 56.441406 357.671875 55.78125 C 357.898438 56.78125 358.125 57.78125 357.988281 57.183594 M 472.46875 283.203125 C 483.269531 279.851562 496.085938 278.175781 502.742188 265.847656 C 505.753906 260.273438 502.324219 253.152344 508.292969 247.617188 C 516.777344 239.757812 506.542969 230.746094 507.777344 221.867188 C 508.425781 217.199219 511.953125 212.109375 505.375 205.527344 C 500.855469 201.003906 497.164062 191.046875 494.59375 182.875 C 494.246094 181.769531 492.449219 180.417969 491.316406 180.410156 C 489.144531 180.398438 489.671875 182.640625 489.789062 183.914062 C 490.304688 189.480469 491.6875 195.035156 491.597656 200.574219 C 491.261719 221.652344 490.386719 242.761719 484.324219 263.113281 C 483.277344 266.632812 478.640625 269.105469 475.554688 271.949219 C 475.347656 272.140625 473.75 271.480469 473.667969 271.046875 C 472.9375 267.257812 470.988281 265.542969 467.378906 267.625 C 460.9375 271.34375 467.800781 275.84375 466.964844 280.054688 C 466.417969 282.820312 469.164062 283.292969 472.46875 283.203125 M 424.328125 286.726562 C 423.875 273.472656 414.753906 265.90625 409.210938 257.011719 C 399.226562 240.992188 381.148438 243.597656 365.164062 242.753906 C 344.992188 241.6875 324.996094 243.757812 305.058594 246.683594 C 301.21875 247.246094 302.023438 248.933594 302.8125 251.457031 C 305.394531 259.703125 309.871094 268.644531 309.867188 276.105469 C 309.863281 287.242188 317.355469 289.65625 323.109375 292.707031 C 333.644531 298.296875 345.535156 301.277344 356.695312 305.765625 C 363.851562 308.640625 384.527344 307.125 388.261719 302.386719 C 393.929688 295.203125 401.632812 295.121094 409.640625 294.972656 C 416.378906 294.851562 423.003906 293.949219 424.328125 286.726562 M 300.949219 274.132812 C 302.40625 269.8125 300.132812 267.183594 295.914062 266.496094 C 290.273438 265.570312 282.484375 270.035156 282.003906 271.839844 C 277.679688 288.085938 272.753906 304.171875 268.457031 320.382812 C 266.277344 328.59375 264.113281 333.820312 256.453125 336.667969 C 255.414062 337.054688 254.121094 338.984375 255.402344 339.058594 C 261.46875 339.417969 264.113281 345.761719 269.640625 346.671875 C 277.957031 348.046875 286.089844 349.984375 294.699219 350.203125 C 305.707031 350.488281 317.324219 348.308594 327.550781 354.886719 C 329.164062 355.925781 330.398438 354.480469 330.394531 353.214844 C 330.382812 346.167969 329.015625 339.449219 323.6875 334.320312 C 321.664062 332.375 315.804688 332.523438 318.007812 328.648438 C 319.957031 325.226562 324.425781 322.996094 329.609375 326.292969 C 332.488281 328.121094 335.042969 333.335938 339.824219 329.90625 C 342.835938 327.742188 345.171875 327.675781 347.523438 330.699219 C 347.976562 331.285156 349.066406 331.378906 349.863281 331.695312 C 349.84375 330.933594 350.035156 330.089844 349.765625 329.429688 C 349.160156 327.949219 346.050781 327.179688 348.0625 325.035156 C 349.832031 323.144531 352.378906 322.523438 354.953125 323.628906 C 356.902344 324.464844 358.484375 325.101562 358.585938 321.925781 C 358.664062 319.601562 358.738281 316.855469 361.808594 316.527344 C 364.867188 316.195312 366.574219 318.027344 367.53125 320.96875 C 368.394531 323.613281 370.832031 323.964844 373.3125 323.792969 C 374.789062 323.691406 376.125 323.15625 375.953125 321.472656 C 375.367188 315.832031 379.421875 314.5625 383.460938 313.164062 C 385.035156 312.621094 386.964844 312.03125 386.164062 309.800781 C 385.535156 308.046875 383.6875 307.925781 382.335938 308.691406 C 372.789062 314.097656 363.253906 311.34375 353.671875 308.929688 C 353.03125 308.765625 351.84375 309.109375 351.535156 309.605469 C 350.574219 311.175781 352.21875 311.332031 353.027344 312.066406 C 353.734375 312.707031 354.007812 313.832031 354.472656 314.742188 C 353.613281 315.078125 352.292969 315.945312 351.972656 315.667969 C 347.757812 311.996094 343.433594 312.613281 338.585938 314.371094 C 336.695312 315.058594 335.242188 313.304688 335.421875 310.578125 C 335.785156 304.984375 332.890625 303.777344 328.1875 306.125 C 326.039062 307.195312 323.636719 308.824219 322.316406 305.664062 C 319.539062 299.039062 315.132812 298.324219 308.984375 300.695312 C 306.066406 301.820312 302.996094 300.957031 301.082031 298.027344 C 299.59375 295.746094 299.824219 292.601562 301.777344 291.710938 C 308.539062 288.636719 305.066406 285.410156 302.441406 282.089844 C 300.589844 279.753906 300.941406 277.09375 300.949219 274.132812 M 511.28125 298.621094 C 512.492188 301.820312 513.574219 305.078125 514.992188 308.183594 C 515.480469 309.25 516.707031 310.175781 517.820312 310.636719 C 518.167969 310.785156 519.703125 309.296875 519.902344 308.386719 C 521.875 299.316406 523.023438 290.140625 522.132812 280.847656 C 521.855469 277.917969 519.875 276.433594 516.898438 276.949219 C 509.78125 278.179688 506.335938 286.683594 510.417969 292.476562 C 511.042969 293.363281 510.875 294.8125 511.070312 296.003906 C 509.550781 295.253906 508.40625 291.847656 506.929688 293.535156 C 504.671875 296.113281 503.550781 299.734375 502.15625 303 C 501.414062 304.738281 503.125 305.121094 504.214844 305.824219 C 512.855469 311.417969 515.265625 322.425781 509.714844 331.078125 C 506.9375 335.417969 503.394531 339.40625 501.363281 344.058594 C 498.21875 351.28125 493.53125 350.734375 488.191406 347.664062 C 485 345.828125 483.378906 346.738281 482.796875 349.828125 C 481.984375 354.148438 479.277344 355.859375 475.308594 356.621094 C 474.023438 356.867188 472.917969 358.027344 471.730469 358.773438 C 472.722656 360.011719 473.503906 361.542969 474.746094 362.445312 C 481.332031 367.246094 486.808594 372.996094 490.777344 380.148438 C 491.425781 381.316406 490.496094 383.921875 492.6875 383.476562 C 494.152344 383.179688 495.738281 381.433594 496.472656 379.945312 C 499.519531 373.773438 502.308594 367.464844 505.082031 361.164062 C 505.632812 359.914062 506.125 357.328125 505.9375 357.257812 C 503.449219 356.335938 503.660156 358.800781 502.898438 360.027344 C 501.269531 362.636719 499.390625 364.976562 496.171875 365.46875 C 495.585938 365.558594 494.175781 364.332031 494.214844 363.78125 C 494.542969 358.847656 493.65625 353.9375 500.574219 351.460938 C 505.371094 349.746094 511.875 347.03125 513.324219 341.789062 C 516.445312 330.507812 521.058594 318.820312 513.007812 307.285156 C 511.464844 305.070312 511.808594 301.542969 511.28125 298.621094 M 217 744 C 146.332031 744 75.667969 743.96875 5 744.09375 C 1.574219 744.101562 0.90625 743.421875 0.90625 740 C 1.007812 495 1.007812 250 0.90625 5 C 0.90625 1.578125 1.574219 0.902344 5 0.90625 C 202.332031 1.011719 399.667969 1.011719 597 0.90625 C 600.421875 0.902344 601.097656 1.574219 601.09375 5 C 600.984375 148.332031 601 291.664062 601 435 C 600.09375 436.335938 604.933594 451.089844 604.796875 452.5 C 602.003906 481.347656 610.539062 496.265625 602.277344 524 C 597.507812 540.015625 608.78125 610.164062 601.09375 625 C 603.46875 618.691406 550.675781 593.550781 552.964844 587.210938 C 553.523438 585.660156 572.066406 547.515625 570.003906 546.28125 C 568.0625 545.117188 566.53125 547.175781 565.816406 548.796875 C 562.265625 556.808594 556.578125 564.054688 556.699219 573.421875 C 556.742188 576.765625 554.472656 577.972656 551.824219 578.84375 C 550.9375 579.132812 550.007812 579.300781 549.101562 579.523438 C 549.308594 578.125 549.5 576.722656 549.726562 575.324219 C 550.0625 573.226562 553.457031 571.003906 550.925781 569.285156 C 548.292969 567.5 546.914062 570.917969 545.085938 572.492188 C 542.285156 574.90625 539.15625 573.761719 536.269531 572.230469 C 535.035156 571.574219 533.71875 570.480469 535.117188 569.148438 C 537.011719 567.34375 538.617188 565.96875 542.238281 566.417969 C 546.667969 566.96875 551.242188 563.84375 553.769531 559.714844 C 557.347656 553.871094 560.367188 547.675781 563.53125 541.582031 C 564.898438 538.953125 566.664062 539.183594 568.917969 540.273438 C 569.898438 540.746094 571.117188 542.578125 572.230469 540.617188 C 572.839844 539.542969 573.164062 538.101562 573.058594 536.878906 C 572.871094 534.722656 571.027344 535.695312 569.894531 535.722656 C 567.554688 535.78125 565.679688 535.257812 564.40625 533.082031 C 563.019531 530.707031 565.660156 530.039062 566.101562 528.542969 C 567.351562 524.304688 566.816406 519.546875 569.875 515.828125 C 560.414062 510.894531 564.628906 502.207031 564.503906 494.945312 C 564.433594 491.054688 565.894531 486.984375 567.371094 483.277344 C 568.097656 481.460938 571.007812 487.796875 572.425781 482.765625 C 573.539062 478.828125 568.902344 479.550781 567.757812 476.449219 C 573.058594 477.046875 572.691406 472.398438 574.832031 469.890625 C 580.621094 463.105469 575.730469 450.753906 587.300781 447.082031 C 589.453125 446.398438 590.375 442.445312 588.386719 440.03125 C 586.21875 437.398438 584.914062 440.578125 583.660156 441.589844 C 578.046875 446.09375 576.132812 452.824219 573.808594 459.207031 C 573 461.414062 573.777344 465.398438 572.546875 466.011719 C 569.679688 467.445312 570.445312 462.988281 568.667969 462.203125 C 567.441406 461.664062 565.878906 461.816406 564.464844 461.792969 C 562.433594 461.757812 559.453125 464.523438 558.695312 460.867188 C 558.097656 458 561.117188 457.667969 563.496094 457.113281 C 566.046875 456.519531 568.402344 455.121094 570.910156 454.289062 C 573.277344 453.503906 572.40625 452.207031 571.195312 451.59375 C 561.21875 446.542969 570.09375 445.429688 572.9375 443.121094 C 574.660156 441.71875 578.554688 442.6875 577.964844 438.824219 C 577.535156 436.003906 575.613281 434.6875 572.683594 434.488281 C 571.917969 434.4375 571.09375 433.113281 570.601562 432.210938 C 570.410156 431.867188 570.921875 430.898438 571.367188 430.492188 C 572.8125 429.179688 573.199219 430.707031 573.980469 431.484375 C 574.414062 431.917969 575.28125 431.917969 575.953125 432.113281 C 575.621094 427.742188 575.824219 423.234375 574.769531 419.046875 C 574.078125 416.304688 570.59375 416.007812 568.339844 417.191406 C 561.28125 420.910156 560.179688 415.363281 560.015625 411.214844 C 559.84375 406.832031 563.09375 399.949219 562.3125 398.320312 C 559.238281 391.910156 578.902344 384.503906 561.40625 379.882812 C 560.914062 379.753906 560.351562 377.625 560.722656 376.863281 C 562.710938 372.761719 564.359375 368.25 567.296875 364.90625 C 572.882812 358.550781 566.648438 353.089844 566.316406 347.34375 C 566.054688 342.84375 560.648438 346 557.453125 346.347656 C 554.773438 346.636719 552.113281 346.5 550.363281 344.074219 C 549.03125 342.238281 549.5 340.339844 550.671875 338.503906 C 552.378906 335.828125 554.417969 336.671875 556.761719 337.511719 C 557.769531 337.871094 559.601562 337.519531 560.277344 336.777344 C 560.957031 336.027344 561.097656 334.214844 560.671875 333.203125 C 560.269531 332.238281 558.636719 330.921875 557.886719 331.113281 C 554.03125 332.085938 551.09375 332.21875 549.941406 327.308594 C 548.714844 322.070312 549.835938 317.742188 554.015625 314.441406 C 555.746094 313.074219 558.488281 311.953125 555.226562 309.992188 C 550.257812 307.003906 547.894531 302.273438 544.988281 297.675781 C 543.363281 295.101562 541.066406 291.34375 536.839844 293.535156 C 535.691406 294.132812 535.136719 296.222656 533.394531 294.953125 C 531.789062 293.78125 532.148438 292.003906 532.847656 290.40625 C 534.429688 286.789062 536.058594 283.195312 537.6875 279.597656 C 538.273438 278.308594 540.054688 276.265625 538.519531 275.789062 C 536.28125 275.09375 533.53125 275.804688 531.050781 276.238281 C 530.390625 276.355469 529.648438 277.566406 529.417969 278.402344 C 526.335938 289.65625 525.703125 301.316406 522.839844 312.785156 C 517.1875 335.441406 511.285156 357.464844 499.851562 377.925781 C 497.105469 382.835938 494.09375 390.351562 489.226562 388.8125 C 482.152344 386.582031 471.59375 390.582031 468.042969 379.671875 C 467.425781 377.765625 465.683594 375.753906 463.15625 376.058594 C 460.765625 376.347656 460.941406 378.503906 460.714844 380.347656 C 457.722656 404.660156 453.628906 428.765625 447.425781 452.496094 C 443.960938 465.757812 438.75 478.882812 443.066406 493 C 436.726562 487.542969 433.789062 489.085938 432.679688 497.320312 C 432.027344 502.128906 430.125 506.9375 427.976562 511.347656 C 419.183594 529.390625 403.175781 540.789062 388.292969 553.046875 C 378.664062 560.976562 368.675781 568.664062 356.5625 572.746094 C 368.421875 564.421875 380.261719 556.066406 392.15625 547.789062 C 396.242188 544.949219 397.191406 542.386719 391.839844 540.074219 C 390.058594 539.304688 390.007812 538.855469 390.390625 536.582031 C 391.957031 527.246094 410.574219 529.585938 404.613281 515.46875 C 404.496094 515.191406 405.625 514.191406 406.324219 513.800781 C 408.96875 512.335938 409.871094 509.621094 411.449219 507.316406 C 416.914062 499.351562 416.191406 489.175781 421.21875 481.066406 C 423.089844 478.046875 420.980469 475.828125 418.183594 475.945312 C 410.769531 476.25 401.894531 473.199219 398.148438 483.609375 C 397.460938 485.527344 395.609375 487.03125 393.953125 489.164062 C 392.542969 482.925781 388.753906 484.765625 385.105469 486.222656 C 377.183594 489.394531 369.355469 492.828125 361.335938 495.734375 C 343.757812 502.101562 325.707031 498.929688 308.53125 495.28125 C 299.050781 493.265625 285.640625 496.976562 280.191406 483.585938 C 279.417969 481.683594 274.085938 481.203125 275.105469 480.414062 C 278.292969 477.957031 278.746094 472.734375 283.832031 472.273438 C 305.015625 470.367188 326.253906 468.804688 347.300781 465.871094 C 352.292969 465.175781 360.949219 470.257812 360.992188 465.300781 C 361.058594 457.367188 367.0625 456.339844 369.984375 452.046875 C 381.394531 435.28125 369.925781 403.996094 350.8125 395.015625 C 341.753906 390.761719 331.269531 392.507812 322.753906 384.816406 C 317.324219 379.910156 318.722656 378.632812 321.9375 375 C 325.328125 371.167969 331.503906 367.878906 328.355469 361.820312 C 324.773438 354.921875 317.085938 353.003906 310.210938 354.117188 C 295.910156 356.433594 281.5625 359.355469 268.761719 350.488281 C 257.863281 342.941406 245.015625 345.796875 233.480469 342.027344 C 229.21875 340.636719 224.671875 341.378906 224.433594 348.316406 C 224.226562 354.402344 224.070312 360.65625 219.988281 366.175781 C 218.125 368.699219 215.933594 369.050781 213.75 369.332031 C 211.09375 369.671875 210.1875 367.046875 209.910156 364.925781 C 209.238281 359.777344 207.417969 353.335938 203.667969 351.941406 C 196.679688 349.339844 193.839844 342.492188 187.617188 339.578125 C 185.457031 338.570312 183.589844 337.703125 181.75 339.503906 C 177.894531 343.28125 173.148438 346.964844 169.453125 340.886719 C 166.265625 335.640625 171.484375 331.289062 175.5625 328.988281 C 180.898438 325.976562 178.050781 324.652344 175.417969 322.507812 C 173.640625 321.058594 171.796875 319.59375 170.386719 317.816406 C 168.570312 315.519531 169.171875 312.820312 171.054688 311.015625 C 172.84375 309.296875 174.574219 311.675781 176.324219 312.007812 C 184.246094 313.511719 188.328125 323.265625 197.667969 321.675781 C 199.34375 321.390625 200.269531 323.304688 200.703125 325.09375 C 201.488281 328.316406 216.8125 333.105469 219.453125 331.011719 C 219.945312 330.621094 220.359375 330.074219 220.671875 329.519531 C 223.554688 324.433594 226.171875 319.183594 229.335938 314.285156 C 231.796875 310.476562 235.527344 311.839844 238.695312 313.363281 C 242.0625 314.984375 240.453125 317.621094 239.242188 319.738281 C 235.46875 326.308594 246.386719 330.519531 241.925781 337.121094 C 242.480469 337.421875 243.164062 338.097656 243.574219 337.960938 C 248.875 336.179688 250.992188 331.023438 254.238281 327.207031 C 256.273438 324.808594 258.03125 321.265625 256.09375 317.550781 C 255.453125 316.320312 254.160156 314.371094 254.566406 313.84375 C 256 312.003906 256.960938 314.476562 258.242188 314.792969 C 260.667969 315.386719 263.789062 316.296875 264.804688 313.316406 C 269.003906 301.007812 273.875 288.765625 276.292969 276.078125 C 277.492188 269.777344 281.859375 261.136719 273.472656 255.664062 C 266.027344 250.804688 259.378906 243.988281 249.261719 244.925781 C 245.335938 245.292969 241.105469 246.121094 237.460938 245.117188 C 216.519531 239.355469 195.996094 235.183594 176.464844 249.703125 C 171.253906 253.578125 169.894531 257.859375 168.734375 264.023438 C 167.433594 270.929688 163.46875 277.082031 170.230469 283.09375 C 170.464844 283.304688 170.054688 284.355469 169.820312 284.96875 C 166.902344 292.601562 169.765625 301.628906 164.011719 308.644531 C 163.078125 309.78125 162.511719 312.027344 162.953125 313.371094 C 167.050781 325.886719 158.316406 338.964844 164.671875 351.359375 C 165.007812 352.011719 164.40625 353.152344 164.238281 354.066406 C 163.679688 353.820312 162.746094 353.699219 162.617188 353.308594 C 160.144531 345.976562 153.167969 339.109375 160.09375 330.746094 C 161.589844 328.9375 161.300781 327.09375 160.480469 325.140625 C 157.480469 318 162.957031 309.386719 156.683594 302.722656 C 156.535156 302.566406 157.644531 300.660156 158.496094 300.226562 C 161.917969 298.492188 161.558594 295.96875 160.453125 293.0625 C 158.988281 289.195312 157.121094 285.386719 156.304688 281.375 C 150.96875 255.152344 144.0625 229.183594 143.183594 202.210938 C 143.136719 200.824219 142.21875 199.460938 141.707031 198.085938 C 140.800781 199.164062 139.628906 200.113281 139.035156 201.34375 C 134.453125 210.796875 137.152344 220.789062 138.015625 230.3125 C 139.132812 242.65625 140.097656 255.273438 145.050781 266.984375 C 144.90625 268.027344 144.761719 269.066406 144.617188 270.105469 C 138.71875 262.921875 133.980469 269.699219 129.121094 271.683594 C 124.09375 273.734375 125.753906 278.585938 128.839844 279.640625 C 134.636719 281.625 137.625 286.539062 142.253906 289.5625 C 143.257812 290.214844 144.839844 291.109375 145.617188 290.746094 C 147.269531 289.972656 146.769531 288.167969 146.148438 286.78125 C 144.035156 282.082031 143.140625 277.28125 144.617188 272.21875 C 146.835938 273.609375 145.898438 275.933594 146.28125 277.867188 C 144.914062 283.324219 150.296875 287.664062 148.75 293.246094 C 148.078125 295.675781 147.898438 298.828125 145.433594 299.472656 C 141.988281 300.378906 143.742188 296.363281 142.371094 294.933594 C 140.097656 292.566406 138.320312 289.722656 136.066406 287.332031 C 135.316406 286.53125 133.261719 285.832031 132.660156 286.269531 C 131.671875 286.988281 130.570312 288.976562 130.917969 289.898438 C 137.671875 307.742188 129.332031 327.875 139.621094 345.34375 C 142.378906 350.03125 143.839844 353.929688 150.265625 354.539062 C 152.949219 354.792969 155.589844 359.082031 157.558594 362.003906 C 158.90625 364.003906 156.355469 365.421875 155.15625 366.933594 C 152.527344 370.238281 149.339844 372.328125 144.9375 372.03125 C 145.570312 370.71875 146.078125 369.324219 146.863281 368.109375 C 148.566406 365.46875 150.902344 362.773438 147.925781 359.824219 C 146.050781 357.96875 142.019531 354.582031 141.230469 356.417969 C 139.378906 360.730469 139.179688 366.039062 139.488281 370.867188 C 139.644531 373.308594 143.015625 372.039062 145.027344 371.945312 C 144.988281 376.03125 145.023438 380.117188 144.90625 384.199219 C 144.542969 396.738281 152.847656 403.179688 164.625 399.226562 C 168.574219 397.898438 168.769531 400.589844 168.550781 402.777344 C 167.28125 415.664062 169.910156 428.171875 171.816406 440.765625 C 174.132812 456.082031 178.132812 470.394531 190.113281 481.601562 C 195.148438 486.3125 201.734375 492.6875 202.011719 498.570312 C 203.078125 521.253906 210.800781 542.316406 215.28125 564.132812 L 215.28125 565.863281 C 214.707031 569.574219 215.914062 572.730469 218.285156 575.523438 C 217.1875 580.746094 221.609375 583.636719 223.40625 587.632812 C 223.769531 588.988281 224.125 590.34375 226.027344 589.960938 C 235.589844 603.058594 249.089844 611.761719 261.46875 621.714844 C 263.238281 624.253906 265.722656 623.015625 267.984375 622.945312 C 268.6875 625.511719 269.390625 628.078125 270.089844 630.644531 C 265.152344 626.398438 260.214844 626.648438 256.589844 631.902344 C 252.644531 637.628906 249.804688 644.101562 246.058594 649.984375 C 237.820312 662.914062 232.175781 677.480469 221.589844 688.914062 C 220.21875 690.394531 218.816406 692.867188 216.246094 691.339844 C 213.570312 689.757812 213.46875 687.164062 214.261719 684.296875 C 214.953125 681.804688 216.320312 678.710938 215.464844 676.699219 C 208.488281 660.300781 209.90625 642.8125 208.378906 625.738281 C 206.753906 607.570312 211.84375 589.527344 209.78125 571.320312 C 209.113281 565.402344 207.945312 559.523438 209.570312 553.546875 C 210.023438 551.878906 209.378906 550.089844 207.421875 549.589844 C 205.480469 549.089844 204.355469 550.496094 203.453125 551.953125 C 199.035156 559.085938 194.824219 566.355469 190.1875 573.34375 C 185.964844 579.703125 183.015625 586.6875 174.960938 590.378906 C 156.917969 598.652344 139.730469 608.800781 121.628906 616.941406 C 109.214844 622.527344 99.832031 634.390625 84.734375 634.523438 C 81.84375 634.546875 82.8125 637.554688 83.988281 639.191406 C 87.566406 644.152344 91.152344 649.125 95.027344 653.851562 C 114.464844 677.570312 136.5 698.394531 162.0625 715.5625 C 179.351562 727.171875 197.992188 735.867188 217 744 "/>
<g clip-path="url(#clip1)" clip-rule="nonzero">
<path style=" stroke:none;fill-rule:nonzero;fill:rgb(13.816833%,12.24823%,12.637329%);fill-opacity:1;" d="M 0.9375 657.914062 C -0.242188 656.277344 81.84375 634.546875 84.734375 634.519531 C 99.832031 634.394531 109.214844 622.527344 121.628906 616.941406 C 139.730469 608.800781 156.917969 598.648438 174.960938 590.378906 C 183.015625 586.6875 185.964844 579.703125 190.1875 573.34375 C 194.824219 566.355469 199.035156 559.085938 203.453125 551.953125 C 204.355469 550.496094 205.480469 549.089844 207.421875 549.589844 C 209.378906 550.089844 210.023438 551.878906 209.570312 553.546875 C 207.945312 559.523438 209.113281 565.402344 209.78125 571.320312 C 211.84375 589.527344 206.753906 607.570312 208.378906 625.734375 C 209.90625 642.8125 208.488281 660.300781 215.464844 676.699219 C 216.320312 678.710938 214.953125 681.804688 214.261719 684.296875 C 213.46875 687.164062 213.570312 689.757812 216.246094 691.34375 C 218.816406 692.867188 220.21875 690.394531 221.589844 688.914062 C 232.175781 677.480469 237.820312 662.914062 246.058594 649.980469 C 249.804688 644.101562 252.644531 637.628906 256.589844 631.902344 C 260.214844 626.644531 265.152344 626.398438 270.089844 630.644531 C 270.84375 631.390625 271.59375 632.136719 272.347656 632.882812 C 284.363281 646.320312 294.21875 661.574219 307.734375 673.777344 C 321.261719 685.992188 321.046875 686.265625 331.863281 673.003906 C 333.101562 671.480469 334.015625 669.695312 335.082031 668.035156 L 336.035156 667.082031 C 336.816406 666.480469 337.746094 666 338.351562 665.257812 C 359.140625 639.648438 378.472656 612.8125 402.566406 589.976562 C 405.65625 587.046875 409.832031 583.972656 410.296875 578.820312 C 410.59375 578.769531 410.769531 578.59375 410.824219 578.296875 C 414.042969 577.925781 415.117188 575.40625 416.210938 572.90625 L 417.035156 572.082031 C 420.527344 568.234375 423.960938 564.355469 425.085938 559.050781 C 425.976562 558.324219 426.753906 557.691406 427.644531 556.964844 C 429.714844 556.828125 430.058594 555.535156 429.921875 553.925781 L 429.917969 553.933594 C 433.308594 552.699219 433.714844 549.757812 433.949219 546.71875 C 434.363281 546.105469 434.84375 545.402344 435.261719 544.789062 C 438.71875 543.195312 438.957031 538.890625 441.734375 536.789062 C 443.511719 535.441406 443.339844 530.097656 445.941406 532.339844 C 450.808594 536.53125 449.953125 531.921875 451.609375 530.054688 C 454.4375 526.867188 452.769531 515.769531 462.398438 523.429688 C 462.945312 523.867188 464.558594 523.234375 465.535156 522.792969 C 467.066406 522.101562 468.355469 519 470.085938 522.484375 C 471.367188 525.058594 469.476562 525.503906 467.605469 526.144531 C 464.285156 527.277344 464.71875 529.796875 465.761719 532.265625 C 467.285156 535.875 468.730469 533.089844 470.125 532.089844 C 472.445312 530.417969 474.652344 531.621094 476.738281 532.472656 C 484.867188 535.789062 489.917969 543.449219 495.320312 549.261719 C 501.34375 555.742188 515.722656 556.164062 513.199219 570.039062 C 513.132812 570.398438 515.695312 571.914062 516.765625 571.675781 C 519.628906 571.042969 521.4375 573.460938 523.519531 573.699219 C 534.898438 575.019531 540.804688 587.953125 552.964844 587.210938 C 571.964844 567.265625 601.09375 593 601.09375 633.578125 C 603 682.945312 620.046875 715.792969 601.085938 739.703125 C 575.667969 764.417969 514.722656 730.511719 481.554688 744 C 478.015625 745.441406 393.957031 739.535156 392 744 L 273 744 L 273.28125 741.136719 C 276.171875 739.15625 277.828125 736.226562 276.378906 733.09375 C 275.054688 730.230469 271.949219 731.132812 269.242188 731.640625 C 267.160156 732.03125 264.925781 731.527344 262.808594 731.808594 C 257.039062 732.570312 250.664062 729.910156 245.636719 734.941406 C 244.785156 735.179688 244.121094 735.367188 243.269531 735.605469 C 242.285156 735.269531 241.5625 735.535156 241.136719 736.472656 C 240.496094 736.980469 239.773438 737.550781 239.132812 738.058594 C 235.132812 738.570312 231.011719 738.90625 230 744 L 217 744 C 197.992188 735.863281 18.191406 751.609375 0.90625 740 "/>
</g>
<path style=" stroke:none;fill-rule:nonzero;fill:rgb(91.372681%,91.215515%,91.255188%);fill-opacity:1;" d="M 239.085938 738.0625 C 239.722656 737.652344 240.359375 737.242188 241 736.832031 C 241.539062 737.125 242.082031 737.421875 242.621094 737.71875 C 249.640625 738.15625 256.855469 739.785156 263.613281 738.667969 C 269.441406 737.703125 271.5 737.746094 270 744 L 234 744 C 235.695312 742.019531 237.390625 740.042969 239.085938 738.0625 "/>
<path style=" stroke:none;fill-rule:nonzero;fill:rgb(89.646912%,89.459229%,89.505005%);fill-opacity:1;" d="M 270 744 C 271.503906 737.746094 269.441406 737.703125 263.613281 738.667969 C 256.855469 739.785156 249.640625 738.15625 242.621094 737.714844 C 242.933594 737.050781 243.242188 736.382812 243.554688 735.714844 C 244.324219 735.382812 245.09375 735.050781 245.863281 734.71875 C 252.753906 735.226562 259.738281 736.652344 266.503906 735.949219 C 271.566406 735.425781 273.84375 735.625 273.28125 741.136719 C 273.1875 742.089844 273.09375 743.046875 273 744 Z M 270 744 "/>
<path style=" stroke:none;fill-rule:nonzero;fill:rgb(42.370605%,41.322327%,41.583252%);fill-opacity:1;" d="M 239.085938 738.0625 C 237.390625 740.042969 235.695312 742.019531 234 744 L 230 744 C 231.007812 738.925781 235.097656 738.574219 239.085938 738.0625 "/>
<path style=" stroke:none;fill-rule:nonzero;fill:rgb(42.370605%,41.322327%,41.583252%);fill-opacity:1;" d="M 154.039062 340.542969 C 153.921875 336.433594 153.65625 332.542969 155.667969 329.109375 C 157.007812 326.820312 157.269531 324.917969 155.308594 322.851562 C 153.378906 320.820312 151.3125 320.953125 148.96875 321.875 C 142.84375 324.289062 138.933594 327.398438 141.324219 335.230469 C 142.554688 339.261719 145.707031 340.1875 148.019531 342.492188 C 149.648438 344.121094 148.167969 348.953125 152.390625 347.632812 C 156.222656 346.4375 152.925781 342.640625 154.039062 340.542969 M 323.132812 366.859375 C 321.980469 362.910156 322.402344 357.863281 316.550781 357.105469 C 308.691406 356.089844 301.378906 358.324219 294.40625 361.613281 C 293.042969 362.257812 292.234375 364.300781 291.527344 365.859375 C 291.425781 366.078125 293.257812 367.527344 294.363281 367.882812 C 301.242188 370.085938 308.597656 369.9375 315.417969 373.214844 C 319.363281 375.109375 322.191406 371.257812 323.132812 366.859375 M 207.4375 245.003906 C 195.628906 244.980469 192.59375 246.300781 182.480469 252.378906 C 179.046875 254.445312 177.507812 256.550781 178.113281 260.230469 C 178.300781 261.359375 179.199219 263.234375 179.875 263.28125 C 183.09375 263.507812 184.519531 260.539062 186.699219 258.847656 C 188.695312 257.300781 190.917969 252.886719 193.367188 256.425781 C 197.035156 261.730469 201.382812 261.800781 206.722656 261.113281 C 209.226562 260.796875 212.679688 260.640625 212.65625 264.53125 C 212.636719 268.019531 210.023438 269.410156 206.753906 268.953125 C 201 268.148438 197.746094 272.515625 193.660156 275.109375 C 192.96875 275.550781 192.957031 277.054688 192.628906 278.070312 C 193.652344 277.957031 194.792969 278.097656 195.675781 277.6875 C 199.28125 276.03125 202.746094 274.066406 206.398438 272.535156 C 207.371094 272.125 209.269531 272.421875 209.957031 273.140625 C 211.269531 274.523438 209.699219 275.351562 208.652344 276.1875 C 206.070312 278.253906 203.496094 280.34375 201.003906 282.519531 C 198.28125 284.886719 195.65625 287.363281 192.988281 289.792969 C 195.488281 290.753906 198.011719 291.652344 200.476562 292.695312 C 202.171875 293.40625 203.851562 294.539062 205.632812 293.289062 C 207.683594 291.851562 206.507812 289.890625 205.898438 288.296875 C 204.242188 283.960938 206.308594 281.90625 210.199219 281.25 C 213.382812 280.710938 216.167969 279.492188 217.589844 285.042969 C 220.347656 295.800781 230.898438 291.308594 237.941406 293.261719 C 255.6875 298.171875 270.371094 288.25 272.882812 270.492188 C 273.394531 266.890625 273.023438 264.449219 268.195312 266.761719 C 264.917969 268.335938 259.519531 268.625 259.398438 264.371094 C 259.105469 254.289062 253.910156 251.070312 245.082031 250.878906 C 241.648438 250.804688 237.242188 252.027344 234.957031 250.359375 C 225.886719 243.746094 215.257812 247.765625 207.4375 245.003906 M 215.28125 564.132812 C 210.800781 542.316406 203.078125 521.253906 202.011719 498.570312 C 201.734375 492.6875 195.148438 486.3125 190.113281 481.601562 C 178.132812 470.394531 174.136719 456.082031 171.816406 440.765625 C 169.910156 428.171875 167.28125 415.664062 168.554688 402.777344 C 168.769531 400.589844 168.574219 397.898438 164.625 399.226562 C 152.847656 403.179688 144.546875 396.738281 144.90625 384.199219 C 145.023438 380.117188 144.988281 376.03125 145.027344 371.945312 L 144.9375 372.03125 C 149.339844 372.328125 152.527344 370.238281 155.152344 366.933594 C 156.355469 365.421875 158.90625 364.007812 157.558594 362.003906 C 155.589844 359.082031 152.949219 354.792969 150.265625 354.539062 C 143.84375 353.929688 142.378906 350.027344 139.617188 345.34375 C 129.332031 327.875 137.671875 307.746094 130.921875 289.898438 C 130.570312 288.976562 131.671875 286.988281 132.660156 286.269531 C 133.261719 285.832031 135.316406 286.53125 136.066406 287.332031 C 138.320312 289.722656 140.097656 292.566406 142.371094 294.933594 C 143.742188 296.363281 141.988281 300.378906 145.433594 299.472656 C 147.898438 298.828125 148.078125 295.675781 148.75 293.246094 C 150.300781 287.664062 144.914062 283.324219 146.28125 277.867188 C 147.832031 281.429688 149.425781 284.976562 150.90625 288.570312 C 151.613281 290.28125 151.300781 293.289062 153.9375 292.804688 C 156.59375 292.316406 155.59375 289.78125 155.183594 287.816406 C 153.296875 278.738281 152.074219 269.472656 149.457031 260.613281 C 147.460938 253.863281 148.101562 246.136719 141.871094 238.902344 C 143.054688 249.355469 144.054688 258.171875 145.050781 266.984375 C 140.097656 255.273438 139.132812 242.65625 138.015625 230.3125 C 137.152344 220.789062 134.453125 210.796875 139.035156 201.34375 C 139.628906 200.113281 140.800781 199.164062 141.707031 198.085938 C 142.21875 199.460938 143.136719 200.820312 143.183594 202.210938 C 144.058594 229.183594 150.96875 255.152344 156.304688 281.378906 C 157.121094 285.386719 158.988281 289.195312 160.457031 293.0625 C 161.558594 295.96875 161.917969 298.492188 158.5 300.226562 C 157.644531 300.660156 156.535156 302.566406 156.683594 302.722656 C 162.957031 309.386719 157.480469 318 160.480469 325.140625 C 161.304688 327.09375 161.589844 328.9375 160.09375 330.746094 C 153.171875 339.109375 160.144531 345.976562 162.617188 353.308594 C 162.75 353.699219 163.679688 353.820312 164.238281 354.0625 C 164.40625 353.152344 165.007812 352.011719 164.671875 351.355469 C 158.316406 338.964844 167.050781 325.890625 162.953125 313.371094 C 162.511719 312.023438 163.074219 309.78125 164.011719 308.644531 C 169.765625 301.628906 166.902344 292.601562 169.820312 284.96875 C 170.054688 284.355469 170.46875 283.304688 170.230469 283.09375 C 163.46875 277.082031 167.433594 270.929688 168.734375 264.019531 C 169.894531 257.859375 171.253906 253.578125 176.464844 249.703125 C 195.996094 235.183594 216.519531 239.355469 237.460938 245.117188 C 241.105469 246.121094 245.339844 245.292969 249.261719 244.925781 C 259.382812 243.984375 266.027344 250.804688 273.472656 255.664062 C 281.859375 261.136719 277.492188 269.777344 276.292969 276.078125 C 273.875 288.765625 269.003906 301.007812 264.804688 313.316406 C 263.789062 316.296875 260.667969 315.386719 258.242188 314.792969 C 256.960938 314.476562 256.003906 312.003906 254.566406 313.84375 C 254.15625 314.371094 255.453125 316.320312 256.09375 317.550781 C 258.03125 321.265625 256.273438 324.808594 254.238281 327.207031 C 250.992188 331.023438 248.875 336.179688 243.574219 337.960938 C 243.164062 338.097656 242.480469 337.421875 241.925781 337.121094 C 246.386719 330.519531 235.46875 326.308594 239.238281 319.738281 C 240.453125 317.621094 242.0625 314.980469 238.695312 313.363281 C 235.527344 311.839844 231.796875 310.476562 229.339844 314.28125 C 226.171875 319.183594 223.554688 324.433594 220.675781 329.519531 C 220.359375 330.074219 219.945312 330.621094 219.453125 331.011719 C 216.8125 333.105469 201.488281 328.316406 200.703125 325.09375 C 200.265625 323.304688 199.34375 321.390625 197.667969 321.675781 C 188.332031 323.265625 184.25 313.511719 176.324219 312.007812 C 174.574219 311.675781 172.84375 309.296875 171.054688 311.015625 C 169.171875 312.820312 168.570312 315.519531 170.386719 317.8125 C 171.796875 319.59375 173.640625 321.0625 175.417969 322.507812 C 178.054688 324.652344 180.898438 325.980469 175.5625 328.988281 C 171.484375 331.289062 166.265625 335.640625 169.457031 340.886719 C 173.148438 346.964844 177.894531 343.28125 181.75 339.503906 C 183.589844 337.703125 185.457031 338.566406 187.617188 339.578125 C 193.839844 342.488281 196.679688 349.339844 203.667969 351.941406 C 207.417969 353.335938 209.238281 359.777344 209.910156 364.925781 C 210.1875 367.046875 211.09375 369.671875 213.75 369.332031 C 215.933594 369.050781 218.125 368.695312 219.988281 366.175781 C 224.070312 360.65625 224.226562 354.402344 224.433594 348.3125 C 224.671875 341.378906 229.21875 340.636719 233.480469 342.027344 C 245.015625 345.796875 257.863281 342.9375 268.761719 350.488281 C 281.5625 359.355469 295.910156 356.433594 310.214844 354.117188 C 317.085938 353.003906 324.769531 354.921875 328.355469 361.820312 C 331.503906 367.878906 325.332031 371.167969 321.9375 375 C 318.722656 378.632812 317.324219 379.914062 322.757812 384.816406 C 331.269531 392.507812 341.753906 390.765625 350.8125 395.019531 C 369.925781 403.996094 381.394531 435.28125 369.980469 452.046875 C 367.0625 456.339844 361.058594 457.363281 360.988281 465.300781 C 360.949219 470.257812 352.292969 465.175781 347.304688 465.871094 C 326.253906 468.804688 305.015625 470.367188 283.832031 472.273438 C 278.746094 472.730469 278.292969 477.957031 275.105469 480.417969 C 274.085938 481.203125 279.417969 481.683594 280.191406 483.585938 C 285.640625 496.976562 299.050781 493.265625 308.53125 495.28125 C 325.707031 498.929688 343.757812 502.101562 361.335938 495.730469 C 369.355469 492.828125 377.183594 489.394531 385.105469 486.222656 C 388.753906 484.765625 392.542969 482.925781 393.953125 489.164062 C 395.609375 487.03125 397.460938 485.527344 398.148438 483.609375 C 401.894531 473.203125 410.769531 476.25 418.183594 475.941406 C 420.980469 475.828125 423.089844 478.046875 421.21875 481.066406 C 416.191406 489.175781 416.914062 499.351562 411.449219 507.316406 C 409.871094 509.621094 408.96875 512.335938 406.324219 513.800781 C 405.625 514.191406 404.496094 515.191406 404.613281 515.46875 C 410.574219 529.585938 391.957031 527.246094 390.390625 536.582031 C 390.007812 538.855469 390.058594 539.304688 391.839844 540.074219 C 397.191406 542.386719 396.242188 544.945312 392.15625 547.789062 C 380.261719 556.066406 368.421875 564.421875 356.5625 572.75 C 341.4375 582.570312 326.199219 592.195312 309.714844 599.648438 C 309.644531 596.503906 312.179688 595.578125 314.292969 594.359375 C 325.203125 588.089844 336.207031 581.976562 346.992188 575.5 C 348.996094 574.296875 353.945312 573.179688 351.625 570.136719 C 349.195312 566.953125 344.703125 569.117188 342.71875 572.09375 C 337.976562 579.210938 329.976562 580.699219 323.160156 583.941406 C 313.609375 588.484375 312.304688 577.347656 306.761719 574.082031 C 304.347656 572.660156 303.402344 570.265625 305.128906 567.675781 C 306.808594 565.152344 309.398438 564.332031 312.054688 565.769531 C 316.324219 568.089844 317.375 566.335938 316.988281 562.332031 C 316.296875 555.160156 317.089844 549.332031 326.714844 551.015625 C 328.722656 551.367188 329.214844 549.710938 329.742188 548.339844 C 331.472656 543.8125 332.320312 538.699219 335 534.839844 C 340.386719 527.070312 349.597656 527.8125 357.6875 526.890625 C 361.066406 526.503906 362.761719 524.820312 364.5 522.664062 C 365.566406 521.339844 365.914062 519.921875 364.617188 518.167969 C 360.789062 512.980469 356.460938 511.476562 349.523438 510.902344 C 342.339844 510.3125 335.261719 509.984375 328.019531 509.714844 C 316.015625 509.269531 303.988281 507.050781 292.054688 509.320312 C 276.824219 512.21875 264.234375 500.242188 249.265625 502.40625 C 248.921875 502.457031 248.519531 501.773438 248.082031 501.542969 C 241.757812 498.207031 235.324219 495.484375 230.199219 489.761719 C 227.640625 486.90625 222.703125 483.851562 216.53125 487.4375 C 210.65625 490.859375 207.21875 483.757812 203.164062 480.511719 C 202.023438 479.601562 200.988281 477.9375 202.300781 476.570312 C 205.851562 472.875 209.003906 477.53125 212.4375 477.316406 C 213.546875 477.25 214.667969 477.402344 215.785156 477.453125 C 215.53125 476.28125 215.453125 475.039062 214.992188 473.957031 C 214.167969 472.015625 213.558594 470.1875 215.28125 468.425781 C 217.238281 466.429688 218.4375 468.59375 220.023438 469.15625 C 221.691406 469.75 223.628906 470.15625 225.351562 469.929688 C 237.644531 468.332031 249.433594 473.957031 262.738281 468.390625 C 273.507812 463.882812 287.464844 469.476562 300.140625 466.304688 C 307.132812 464.550781 314.890625 463.089844 314.160156 455.386719 C 313.546875 448.902344 307.703125 444.472656 299.25 443.558594 C 289.53125 442.507812 279.65625 446.125 270.15625 442.011719 C 265.90625 440.171875 261.734375 437.539062 256.605469 440.171875 C 255.15625 440.914062 252.785156 439.214844 252.644531 437.230469 C 252.488281 434.953125 254.800781 434.414062 256.554688 434.203125 C 259.28125 433.878906 262.308594 434.894531 264.359375 432.117188 C 268.867188 426.007812 275.183594 426.671875 281.605469 427.347656 C 285.054688 427.707031 288.554688 427.835938 292.023438 427.726562 C 311.671875 427.121094 331.46875 424.476562 349.640625 435.644531 C 356.613281 439.929688 369.164062 436.671875 368.625 431.472656 C 367.890625 424.375 368.363281 415.984375 357.6875 414.710938 C 355.089844 414.402344 352.546875 411.808594 350.410156 409.804688 C 347.492188 407.0625 345.195312 405.898438 341 408.191406 C 335.273438 411.320312 328.902344 413.015625 325.171875 404.742188 C 324.207031 402.601562 322.433594 403.378906 320.855469 403.917969 C 314.355469 406.152344 312.972656 402.535156 313.8125 397.328125 C 315.652344 385.914062 309.339844 378.714844 300.355469 374.644531 C 295.417969 372.40625 290.769531 368.902344 286.242188 367.519531 C 272.757812 363.402344 262.273438 351.609375 247.007812 352.445312 C 244.058594 352.609375 240.214844 350.386719 239.214844 355.035156 C 237.945312 360.9375 237.160156 369.523438 242.863281 371.015625 C 253.195312 373.710938 246.148438 378.417969 244.589844 380.449219 C 238.605469 388.253906 230.835938 394.425781 222.546875 399.65625 C 208.585938 408.460938 202.253906 426.613281 211.402344 439.457031 C 216.367188 446.421875 214.304688 451.511719 212.738281 457.542969 C 212.222656 459.546875 209.40625 460.921875 208.792969 462.933594 C 205.777344 472.820312 205.078125 473.0625 197.496094 465.277344 C 193.523438 461.195312 188.945312 467.054688 184.925781 464.394531 C 184.667969 464.910156 184.0625 465.726562 184.203125 465.890625 C 187.164062 469.285156 186.632812 474.558594 190.632812 477.429688 C 198.746094 483.242188 207.679688 489.550781 207.867188 500.191406 C 208.128906 514.972656 209.34375 529.183594 214.679688 543.128906 C 217.199219 549.71875 219.1875 557.027344 215.28125 564.132812 "/>
<path style=" stroke:none;fill-rule:nonzero;fill:rgb(42.370605%,41.322327%,41.583252%);fill-opacity:1;" d="M 557.914062 580.027344 C 556.035156 582.265625 556.410156 586.054688 552.964844 587.210938 C 540.808594 587.953125 534.898438 575.019531 523.515625 573.699219 C 521.4375 573.460938 519.628906 571.042969 516.765625 571.675781 C 515.695312 571.914062 513.132812 570.398438 513.199219 570.039062 C 515.722656 556.164062 501.34375 555.742188 495.320312 549.261719 C 489.917969 543.449219 484.867188 535.792969 476.734375 532.472656 C 474.652344 531.621094 472.445312 530.417969 470.125 532.085938 C 468.730469 533.089844 467.285156 535.875 465.761719 532.265625 C 464.71875 529.796875 464.285156 527.277344 467.601562 526.140625 C 469.476562 525.503906 471.367188 525.058594 470.085938 522.484375 C 468.355469 519 467.0625 522.101562 465.535156 522.792969 C 464.558594 523.234375 462.945312 523.867188 462.398438 523.429688 C 452.769531 515.769531 454.4375 526.871094 451.609375 530.050781 C 449.953125 531.921875 450.808594 536.53125 445.941406 532.335938 C 443.339844 530.097656 443.511719 535.441406 441.734375 536.789062 C 438.867188 538.957031 438.707031 543.480469 434.90625 544.941406 C 435.890625 542.558594 436.742188 540.113281 437.878906 537.804688 C 441.945312 529.566406 447.164062 521.75 447.085938 512.035156 C 448.03125 510.574219 447.40625 509.492188 446.25 508.539062 C 445.859375 506.703125 445.472656 504.867188 445.085938 503.03125 C 444.804688 502.195312 444.519531 501.359375 444.238281 500.523438 C 444.1875 500.023438 444.136719 499.53125 444.085938 499.03125 C 445.03125 497.574219 444.40625 496.492188 443.25 495.539062 C 443.1875 494.691406 443.125 493.847656 443.0625 493 C 438.75 478.882812 443.960938 465.757812 447.425781 452.496094 C 453.628906 428.765625 457.722656 404.660156 460.714844 380.347656 C 460.9375 378.503906 460.765625 376.347656 463.15625 376.058594 C 465.683594 375.753906 467.425781 377.765625 468.046875 379.671875 C 471.59375 390.582031 482.15625 386.582031 489.226562 388.8125 C 494.09375 390.351562 497.105469 382.835938 499.851562 377.925781 C 511.285156 357.464844 517.1875 335.441406 522.839844 312.785156 C 525.703125 301.316406 526.339844 289.65625 529.417969 278.402344 C 529.648438 277.5625 530.386719 276.355469 531.050781 276.242188 C 533.53125 275.804688 536.28125 275.09375 538.519531 275.789062 C 540.054688 276.265625 538.273438 278.308594 537.6875 279.597656 C 536.058594 283.191406 534.429688 286.789062 532.847656 290.40625 C 532.148438 292.003906 531.789062 293.78125 533.394531 294.953125 C 535.136719 296.222656 535.691406 294.132812 536.839844 293.535156 C 541.066406 291.34375 543.363281 295.101562 544.988281 297.675781 C 547.894531 302.273438 550.257812 307.003906 555.222656 309.992188 C 558.488281 311.953125 555.75 313.074219 554.015625 314.441406 C 549.835938 317.742188 548.714844 322.070312 549.941406 327.308594 C 551.09375 332.21875 554.03125 332.085938 557.886719 331.113281 C 558.636719 330.921875 560.269531 332.238281 560.675781 333.203125 C 561.097656 334.214844 560.957031 336.027344 560.277344 336.777344 C 559.601562 337.519531 557.769531 337.871094 556.761719 337.511719 C 554.417969 336.671875 552.382812 335.828125 550.671875 338.503906 C 549.5 340.339844 549.035156 342.238281 550.359375 344.074219 C 552.113281 346.5 554.769531 346.636719 557.457031 346.347656 C 560.648438 346 566.054688 342.84375 566.316406 347.34375 C 566.648438 353.089844 572.882812 358.550781 567.296875 364.90625 C 564.359375 368.25 562.710938 372.761719 560.722656 376.863281 C 560.351562 377.625 560.914062 379.753906 561.40625 379.882812 C 578.902344 384.503906 559.238281 391.910156 562.3125 398.320312 C 563.09375 399.949219 559.84375 406.832031 560.015625 411.21875 C 560.179688 415.363281 561.28125 420.910156 568.339844 417.191406 C 570.59375 416.007812 574.078125 416.304688 574.769531 419.046875 C 575.824219 423.234375 575.621094 427.742188 575.953125 432.109375 C 575.28125 431.917969 574.414062 431.917969 573.976562 431.484375 C 573.199219 430.707031 572.8125 429.179688 571.367188 430.492188 C 570.921875 430.898438 570.410156 431.867188 570.601562 432.210938 C 571.09375 433.113281 571.917969 434.4375 572.683594 434.488281 C 575.613281 434.6875 577.535156 436.003906 577.964844 438.824219 C 578.554688 442.6875 574.664062 441.71875 572.9375 443.121094 C 570.09375 445.429688 561.21875 446.542969 571.195312 451.59375 C 572.40625 452.207031 573.277344 453.503906 570.910156 454.289062 C 568.402344 455.121094 566.050781 456.519531 563.5 457.113281 C 561.117188 457.667969 558.097656 458 558.695312 460.867188 C 559.453125 464.523438 562.433594 461.757812 564.464844 461.792969 C 565.878906 461.816406 567.441406 461.664062 568.667969 462.203125 C 570.449219 462.988281 569.679688 467.445312 572.550781 466.011719 C 573.773438 465.398438 573.003906 461.417969 573.804688 459.207031 C 576.132812 452.824219 578.046875 446.09375 583.660156 441.589844 C 584.917969 440.578125 586.21875 437.398438 588.386719 440.03125 C 590.378906 442.445312 589.453125 446.398438 587.300781 447.082031 C 575.730469 450.753906 580.621094 463.105469 574.832031 469.890625 C 572.691406 472.398438 573.058594 477.046875 567.757812 476.453125 C 568.902344 479.550781 573.539062 478.828125 572.425781 482.765625 C 571.007812 487.796875 568.097656 481.460938 567.371094 483.277344 C 565.894531 486.984375 564.433594 491.054688 564.503906 494.945312 C 564.628906 502.207031 560.414062 510.894531 569.878906 515.828125 C 566.816406 519.546875 567.351562 524.304688 566.101562 528.542969 C 565.664062 530.039062 563.019531 530.707031 564.410156 533.082031 C 565.679688 535.257812 567.554688 535.785156 569.894531 535.722656 C 571.027344 535.695312 572.871094 534.722656 573.058594 536.878906 C 573.167969 538.101562 572.839844 539.542969 572.230469 540.617188 C 571.117188 542.578125 569.898438 540.746094 568.917969 540.273438 C 566.664062 539.183594 564.898438 538.953125 563.53125 541.582031 C 560.367188 547.675781 557.347656 553.871094 553.769531 559.714844 C 551.242188 563.84375 546.667969 566.96875 542.238281 566.417969 C 538.617188 565.96875 537.011719 567.34375 535.117188 569.148438 C 533.71875 570.480469 535.035156 571.574219 536.269531 572.230469 C 539.15625 573.765625 542.289062 574.90625 545.089844 572.492188 C 546.917969 570.917969 548.292969 567.5 550.925781 569.285156 C 553.457031 571.003906 550.0625 573.226562 549.722656 575.328125 C 549.5 576.722656 549.304688 578.125 549.097656 579.523438 C 550.007812 579.300781 550.933594 579.132812 551.824219 578.84375 C 554.472656 577.976562 556.742188 576.765625 556.699219 573.421875 C 556.578125 564.054688 562.265625 556.808594 565.8125 548.796875 C 566.53125 547.175781 568.0625 545.117188 570.003906 546.28125 C 572.066406 547.515625 570.171875 549.542969 569.609375 551.09375 C 567.320312 557.433594 564.894531 563.722656 562.519531 570.03125 C 561.429688 572.617188 560.335938 575.199219 559.246094 577.78125 C 557.773438 577.921875 557.113281 578.539062 557.914062 580.027344 "/>
<path style=" stroke:none;fill-rule:nonzero;fill:rgb(13.816833%,12.24823%,12.637329%);fill-opacity:1;" d="M 291.554688 403.96875 C 288.785156 397.324219 282.496094 398.019531 277.226562 397.113281 C 275.480469 396.8125 273.519531 397.75 271.660156 398.125 C 272.4375 400.199219 272.980469 402.40625 274.039062 404.328125 C 277.769531 411.105469 284.4375 406.78125 289.632812 408.085938 C 289.882812 408.148438 290.753906 405.714844 291.554688 403.96875 M 215.28125 564.132812 C 219.1875 557.027344 217.199219 549.71875 214.679688 543.128906 C 209.34375 529.183594 208.128906 514.972656 207.867188 500.191406 C 207.679688 489.550781 198.746094 483.242188 190.632812 477.429688 C 186.632812 474.558594 187.164062 469.285156 184.203125 465.890625 C 184.058594 465.726562 184.667969 464.910156 184.925781 464.394531 C 188.945312 467.054688 193.519531 461.195312 197.496094 465.277344 C 205.078125 473.0625 205.78125 472.820312 208.792969 462.933594 C 209.40625 460.921875 212.222656 459.546875 212.742188 457.542969 C 214.304688 451.511719 216.367188 446.421875 211.40625 439.457031 C 202.253906 426.617188 208.585938 408.460938 222.546875 399.65625 C 230.835938 394.425781 238.605469 388.253906 244.589844 380.449219 C 246.148438 378.417969 253.191406 373.710938 242.867188 371.015625 C 237.160156 369.523438 237.945312 360.9375 239.214844 355.035156 C 240.214844 350.386719 244.054688 352.609375 247.007812 352.445312 C 262.273438 351.609375 272.757812 363.402344 286.242188 367.519531 C 290.769531 368.902344 295.417969 372.40625 300.355469 374.644531 C 309.339844 378.714844 315.652344 385.914062 313.8125 397.328125 C 312.972656 402.535156 314.355469 406.152344 320.855469 403.917969 C 322.433594 403.378906 324.207031 402.601562 325.171875 404.742188 C 328.902344 413.015625 335.273438 411.320312 341 408.191406 C 345.195312 405.898438 347.492188 407.0625 350.414062 409.804688 C 352.546875 411.808594 355.085938 414.402344 357.6875 414.710938 C 368.363281 415.984375 367.890625 424.375 368.625 431.472656 C 369.164062 436.671875 356.613281 439.929688 349.640625 435.644531 C 331.46875 424.476562 311.671875 427.121094 292.023438 427.726562 C 288.554688 427.835938 285.054688 427.707031 281.605469 427.34375 C 275.183594 426.671875 268.867188 426.007812 264.359375 432.117188 C 262.308594 434.894531 259.285156 433.878906 256.554688 434.203125 C 254.800781 434.414062 252.488281 434.953125 252.644531 437.230469 C 252.785156 439.214844 255.15625 440.914062 256.605469 440.171875 C 261.734375 437.539062 265.90625 440.171875 270.15625 442.011719 C 279.65625 446.125 289.53125 442.507812 299.246094 443.558594 C 307.703125 444.472656 313.546875 448.902344 314.160156 455.386719 C 314.890625 463.089844 307.132812 464.550781 300.140625 466.304688 C 287.464844 469.476562 273.507812 463.882812 262.738281 468.390625 C 249.433594 473.957031 237.644531 468.332031 225.351562 469.929688 C 223.628906 470.15625 221.691406 469.746094 220.023438 469.15625 C 218.4375 468.59375 217.238281 466.429688 215.28125 468.425781 C 213.558594 470.1875 214.167969 472.015625 214.996094 473.957031 C 215.453125 475.039062 215.535156 476.28125 215.785156 477.453125 C 214.667969 477.402344 213.546875 477.25 212.4375 477.316406 C 209.003906 477.53125 205.851562 472.875 202.300781 476.574219 C 200.988281 477.9375 202.023438 479.601562 203.164062 480.511719 C 207.21875 483.757812 210.65625 490.859375 216.53125 487.4375 C 222.703125 483.851562 227.640625 486.90625 230.199219 489.761719 C 235.324219 495.484375 241.757812 498.207031 248.082031 501.542969 C 248.519531 501.773438 248.921875 502.457031 249.265625 502.40625 C 264.234375 500.242188 276.828125 512.21875 292.054688 509.320312 C 303.988281 507.050781 316.011719 509.269531 328.015625 509.714844 C 335.261719 509.984375 342.335938 510.3125 349.523438 510.90625 C 356.460938 511.476562 360.789062 512.980469 364.621094 518.167969 C 365.914062 519.921875 365.566406 521.339844 364.5 522.664062 C 362.761719 524.820312 361.066406 526.503906 357.6875 526.890625 C 349.597656 527.8125 340.386719 527.070312 334.996094 534.839844 C 332.324219 538.699219 331.472656 543.8125 329.742188 548.339844 C 329.214844 549.710938 328.722656 551.367188 326.714844 551.015625 C 317.089844 549.332031 316.296875 555.160156 316.988281 562.332031 C 317.375 566.335938 316.328125 568.089844 312.054688 565.769531 C 309.398438 564.328125 306.808594 565.152344 305.128906 567.671875 C 303.398438 570.265625 304.347656 572.660156 306.761719 574.082031 C 312.304688 577.347656 313.609375 588.484375 323.160156 583.941406 C 329.976562 580.699219 337.976562 579.210938 342.71875 572.09375 C 344.703125 569.117188 349.195312 566.953125 351.625 570.136719 C 353.945312 573.179688 348.996094 574.296875 346.992188 575.5 C 336.207031 581.976562 325.203125 588.089844 314.292969 594.359375 C 312.175781 595.578125 309.644531 596.503906 309.714844 599.648438 C 309.078125 600.207031 308.4375 600.769531 307.796875 601.332031 C 305.914062 600.980469 304.558594 601.710938 303.65625 603.359375 C 299.835938 605.230469 296.015625 607.101562 292.199219 608.976562 C 288.914062 608.25 286.558594 609.160156 285.6875 612.675781 C 283.996094 613.367188 282.304688 614.058594 280.609375 614.746094 C 278.078125 613.804688 276.429688 615.167969 274.929688 616.921875 L 261.46875 621.714844 C 249.089844 611.761719 235.589844 603.058594 226.027344 589.960938 C 225.84375 588.40625 225.121094 587.464844 223.40625 587.632812 C 221.609375 583.636719 217.1875 580.746094 218.285156 575.523438 C 219.082031 571.746094 217.554688 568.6875 215.28125 565.863281 L 215.28125 564.132812 "/>
<path style=" stroke:none;fill-rule:nonzero;fill:rgb(91.372681%,91.215515%,91.255188%);fill-opacity:1;" d="M 280.609375 614.746094 C 282.304688 614.058594 283.996094 613.367188 285.6875 612.675781 C 288.207031 612.054688 290.699219 611.394531 292.195312 608.976562 C 296.015625 607.101562 299.835938 605.230469 303.65625 603.359375 C 305.753906 604.148438 307.273438 603.761719 307.796875 601.332031 C 308.4375 600.769531 309.078125 600.207031 309.714844 599.648438 C 326.203125 592.195312 341.4375 582.570312 356.5625 572.75 C 368.675781 568.664062 378.664062 560.976562 388.292969 553.046875 C 403.175781 540.789062 419.183594 529.390625 427.976562 511.351562 C 430.128906 506.9375 432.027344 502.128906 432.679688 497.316406 C 433.789062 489.085938 436.722656 487.542969 443.0625 493 C 443.125 493.847656 443.1875 494.691406 443.25 495.539062 C 443.527344 496.707031 443.808594 497.871094 444.085938 499.03125 C 444.136719 499.53125 444.1875 500.027344 444.238281 500.523438 C 444.519531 501.359375 444.804688 502.195312 445.085938 503.03125 C 445.472656 504.867188 445.859375 506.703125 446.25 508.539062 C 446.527344 509.707031 446.808594 510.871094 447.085938 512.035156 C 447.164062 521.75 441.945312 529.566406 437.878906 537.804688 C 436.742188 540.113281 435.890625 542.558594 434.90625 544.941406 C 434.582031 545.597656 434.257812 546.257812 433.933594 546.914062 C 431.058594 548.378906 430.023438 550.890625 429.917969 553.929688 L 429.921875 553.925781 C 428.296875 554.292969 427.539062 555.238281 427.910156 556.9375 C 426.96875 557.636719 426.03125 558.332031 425.089844 559.027344 C 421.675781 562.929688 417.84375 566.574219 417.035156 572.082031 C 416.761719 572.355469 416.484375 572.632812 416.210938 572.90625 C 414.414062 574.703125 412.617188 576.5 410.820312 578.296875 C 410.769531 578.59375 410.59375 578.769531 410.296875 578.824219 C 394.164062 596.738281 377.519531 614.226562 362.09375 632.734375 C 352.925781 643.734375 343.039062 654.367188 336.035156 667.082031 L 335.082031 668.035156 C 331.347656 672.171875 327.628906 676.324219 323.871094 680.4375 C 322.128906 682.34375 320.222656 683.457031 317.921875 681.191406 C 311.429688 674.792969 304.628906 668.675781 298.519531 661.929688 C 289.765625 652.277344 282.6875 641.117188 272.347656 632.882812 C 271.59375 632.136719 270.84375 631.390625 270.089844 630.644531 C 269.390625 628.078125 268.6875 625.511719 267.984375 622.945312 C 270.15625 621.882812 272.332031 620.820312 274.507812 619.757812 C 276.988281 619.90625 278.914062 618.984375 280.179688 616.808594 C 280.324219 616.121094 280.46875 615.433594 280.609375 614.746094 "/>
<path style=" stroke:none;fill-rule:nonzero;fill:rgb(82.745361%,82.43103%,82.50885%);fill-opacity:1;" d="M 300.949219 274.132812 C 300.941406 277.09375 300.589844 279.753906 302.441406 282.089844 C 305.066406 285.410156 308.539062 288.640625 301.777344 291.710938 C 299.824219 292.601562 299.59375 295.746094 301.082031 298.03125 C 302.996094 300.957031 306.066406 301.820312 308.984375 300.695312 C 315.132812 298.324219 319.539062 299.039062 322.316406 305.667969 C 323.636719 308.824219 326.039062 307.195312 328.1875 306.125 C 332.890625 303.777344 335.785156 304.984375 335.421875 310.578125 C 335.242188 313.304688 336.695312 315.058594 338.589844 314.371094 C 343.433594 312.613281 347.757812 311.996094 351.972656 315.667969 C 352.292969 315.945312 353.613281 315.078125 354.472656 314.742188 C 354.007812 313.832031 353.734375 312.710938 353.027344 312.0625 C 352.21875 311.332031 350.574219 311.175781 351.535156 309.605469 C 351.84375 309.109375 353.03125 308.765625 353.671875 308.929688 C 363.253906 311.34375 372.789062 314.097656 382.339844 308.691406 C 383.6875 307.925781 385.535156 308.046875 386.164062 309.800781 C 386.964844 312.03125 385.035156 312.621094 383.460938 313.167969 C 379.421875 314.5625 375.367188 315.832031 375.953125 321.472656 C 376.125 323.15625 374.789062 323.6875 373.3125 323.792969 C 370.832031 323.964844 368.394531 323.613281 367.53125 320.96875 C 366.570312 318.027344 364.867188 316.195312 361.808594 316.527344 C 358.738281 316.855469 358.664062 319.601562 358.589844 321.925781 C 358.484375 325.101562 356.902344 324.464844 354.953125 323.628906 C 352.378906 322.523438 349.832031 323.144531 348.0625 325.039062 C 346.050781 327.183594 349.160156 327.949219 349.765625 329.429688 C 350.035156 330.089844 349.84375 330.933594 349.863281 331.695312 C 349.066406 331.378906 347.976562 331.285156 347.523438 330.699219 C 345.171875 327.675781 342.839844 327.742188 339.824219 329.90625 C 335.042969 333.335938 332.488281 328.121094 329.609375 326.292969 C 324.425781 322.996094 319.957031 325.226562 318.011719 328.648438 C 315.804688 332.523438 321.664062 332.375 323.6875 334.320312 C 329.015625 339.449219 330.386719 346.167969 330.394531 353.214844 C 330.398438 354.480469 329.164062 355.925781 327.550781 354.886719 C 317.324219 348.308594 305.707031 350.488281 294.695312 350.203125 C 286.09375 349.984375 277.953125 348.046875 269.640625 346.675781 C 264.113281 345.761719 261.46875 339.417969 255.402344 339.058594 C 254.121094 338.984375 255.414062 337.054688 256.453125 336.667969 C 264.113281 333.820312 266.277344 328.597656 268.457031 320.382812 C 272.753906 304.171875 277.679688 288.089844 282.003906 271.839844 C 282.484375 270.035156 290.273438 265.570312 295.914062 266.496094 C 300.132812 267.183594 302.40625 269.8125 300.949219 274.132812 "/>
<path style=" stroke:none;fill-rule:nonzero;fill:rgb(42.370605%,41.322327%,41.583252%);fill-opacity:1;" d="M 390.835938 288.046875 C 394.496094 286.851562 400.601562 288.074219 402.339844 283.097656 C 403.957031 278.460938 399.664062 275.097656 396.074219 272.300781 C 395.433594 271.800781 395.007812 271.023438 394.375 270.503906 C 392.539062 269.003906 390.5 268.648438 388.382812 269.855469 C 387.75 270.21875 387.289062 270.890625 386.746094 271.421875 C 388.1875 272.445312 389.519531 273.699219 391.09375 274.433594 C 393.359375 275.492188 396.492188 276.253906 396.273438 279.019531 C 395.992188 282.613281 392.4375 281.859375 389.90625 282.039062 C 387.460938 282.210938 386.265625 283.585938 386.226562 285.859375 C 386.171875 288.859375 388.46875 288 390.835938 288.046875 M 343.867188 245.875 C 336.519531 246.117188 330.6875 246.453125 325.347656 249.023438 C 324.0625 249.640625 322.738281 251.285156 322.519531 252.628906 C 322.375 253.507812 324.003906 255.234375 325.175781 255.675781 C 338.519531 260.6875 338.132812 260.34375 329.367188 272.328125 C 326.167969 276.703125 323.769531 282.441406 332.363281 286.34375 C 337.769531 288.800781 341.703125 283.992188 344.296875 284.980469 C 351.433594 287.699219 350.253906 284.058594 350.136719 279.875 C 350.105469 278.820312 351.085938 276.921875 351.808594 276.820312 C 353.949219 276.507812 354.679688 278.671875 354.710938 280.132812 C 354.929688 291.171875 361.945312 292.242188 370.40625 290.890625 C 376.691406 289.886719 381.664062 285.296875 382.675781 280.019531 C 383.550781 275.472656 377.546875 274.113281 373.011719 273.714844 C 371.910156 273.617188 370.734375 273.03125 369.828125 272.355469 C 367.453125 270.589844 361.863281 271.152344 362.878906 267.503906 C 363.894531 263.847656 367.550781 268.359375 370.15625 267.914062 C 371.617188 267.660156 373.160156 267.707031 374.554688 267.273438 C 376.609375 266.632812 380.289062 267.980469 380.335938 264.910156 C 380.375 262.269531 376.714844 264.179688 375.03125 263.007812 C 373.605469 262.019531 372.082031 261.164062 370.605469 260.25 C 371.597656 259.285156 372.441406 258.011719 373.621094 257.421875 C 375.789062 256.335938 380.28125 257.414062 379.886719 254.367188 C 379.472656 251.144531 375.914062 248.550781 372.222656 248.109375 C 362.304688 246.929688 352.179688 248.589844 343.867188 245.875 M 424.328125 286.726562 C 423.003906 293.949219 416.378906 294.851562 409.636719 294.972656 C 401.632812 295.121094 393.929688 295.203125 388.261719 302.386719 C 384.527344 307.125 363.847656 308.640625 356.695312 305.765625 C 345.535156 301.277344 333.644531 298.296875 323.109375 292.707031 C 317.355469 289.65625 309.863281 287.242188 309.867188 276.105469 C 309.871094 268.644531 305.394531 259.703125 302.8125 251.457031 C 302.023438 248.933594 301.21875 247.246094 305.058594 246.683594 C 324.996094 243.757812 344.992188 241.6875 365.164062 242.753906 C 381.148438 243.597656 399.226562 240.992188 409.210938 257.011719 C 414.753906 265.90625 423.875 273.472656 424.328125 286.726562 "/>
<path style=" stroke:none;fill-rule:nonzero;fill:rgb(42.370605%,41.322327%,41.583252%);fill-opacity:1;" d="M 472.46875 283.203125 C 469.167969 283.292969 466.421875 282.820312 466.96875 280.054688 C 467.800781 275.84375 460.9375 271.34375 467.378906 267.625 C 470.988281 265.542969 472.9375 267.257812 473.667969 271.050781 C 473.75 271.480469 475.347656 272.140625 475.554688 271.949219 C 478.636719 269.105469 483.277344 266.632812 484.324219 263.113281 C 490.386719 242.765625 491.261719 221.652344 491.597656 200.574219 C 491.6875 195.035156 490.304688 189.480469 489.789062 183.914062 C 489.671875 182.640625 489.144531 180.398438 491.316406 180.410156 C 492.449219 180.417969 494.25 181.769531 494.597656 182.875 C 497.160156 191.046875 500.855469 201 505.375 205.527344 C 511.953125 212.109375 508.425781 217.199219 507.777344 221.867188 C 506.546875 230.746094 516.777344 239.757812 508.292969 247.617188 C 502.324219 253.148438 505.757812 260.273438 502.742188 265.847656 C 496.085938 278.175781 483.269531 279.855469 472.46875 283.203125 "/>
<path style=" stroke:none;fill-rule:nonzero;fill:rgb(82.745361%,82.43103%,82.50885%);fill-opacity:1;" d="M 511.28125 298.621094 C 511.808594 301.542969 511.464844 305.070312 513.007812 307.285156 C 521.058594 318.820312 516.445312 330.507812 513.324219 341.785156 C 511.875 347.03125 505.371094 349.746094 500.574219 351.460938 C 493.65625 353.9375 494.542969 358.847656 494.214844 363.78125 C 494.175781 364.332031 495.585938 365.5625 496.171875 365.472656 C 499.390625 364.976562 501.269531 362.636719 502.898438 360.027344 C 503.660156 358.800781 503.449219 356.335938 505.9375 357.261719 C 506.125 357.328125 505.632812 359.914062 505.082031 361.164062 C 502.308594 367.46875 499.519531 373.769531 496.472656 379.945312 C 495.738281 381.433594 494.152344 383.179688 492.6875 383.476562 C 490.496094 383.925781 491.425781 381.316406 490.777344 380.148438 C 486.808594 372.996094 481.332031 367.246094 474.742188 362.445312 C 473.503906 361.542969 472.722656 360.011719 471.730469 358.773438 C 472.914062 358.027344 474.023438 356.867188 475.304688 356.621094 C 479.277344 355.859375 481.984375 354.148438 482.796875 349.828125 C 483.378906 346.738281 485 345.828125 488.191406 347.664062 C 493.53125 350.734375 498.21875 351.28125 501.363281 344.058594 C 503.394531 339.402344 506.933594 335.417969 509.71875 331.078125 C 515.265625 322.425781 512.855469 311.417969 504.214844 305.824219 C 503.121094 305.121094 501.414062 304.738281 502.15625 303 C 503.550781 299.734375 504.671875 296.113281 506.929688 293.535156 C 508.40625 291.847656 509.550781 295.253906 511.070312 296.003906 C 511.140625 296.875 511.210938 297.746094 511.28125 298.621094 "/>
<path style=" stroke:none;fill-rule:nonzero;fill:rgb(42.370605%,41.322327%,41.583252%);fill-opacity:1;" d="M 357.988281 57.183594 C 358.125 57.78125 357.898438 56.78125 357.671875 55.78125 C 356.648438 56.441406 355.304688 56.878906 354.660156 57.804688 C 353.066406 60.097656 351.710938 62.566406 350.421875 65.050781 C 349.851562 66.160156 349.339844 67.484375 348.007812 66.691406 C 347.3125 66.28125 346.882812 64.714844 347.019531 63.773438 C 347.277344 61.996094 348.53125 59.71875 346.28125 59.011719 C 344.734375 58.523438 342.5 59.492188 340.820312 60.320312 C 338.367188 61.527344 335.414062 66.246094 333.855469 63.632812 C 331.839844 60.257812 331.976562 54.808594 332.96875 50.679688 C 333.722656 47.53125 337.703125 46.347656 341.378906 47.609375 C 347.683594 49.777344 354.6875 51.746094 360.617188 52.429688 C 366.109375 53.066406 371.859375 51.800781 377.746094 54.398438 C 380.449219 55.589844 383.269531 56.796875 385.472656 58.480469 C 395.6875 66.292969 409.496094 64.519531 419.894531 71.792969 C 422.296875 73.472656 424.066406 75.21875 424.089844 78.011719 C 424.101562 79.453125 423.324219 81.386719 422.234375 82.25 C 420.222656 83.847656 417.527344 82.675781 416.488281 81.109375 C 408.246094 68.6875 395.875 73.90625 384.945312 73.742188 C 381.785156 73.691406 378.574219 74.316406 377.015625 71.476562 C 375.195312 68.15625 379.128906 68.304688 380.75 67.125 C 382.355469 65.953125 382.269531 64.410156 381.089844 63.269531 C 378.355469 60.628906 376.019531 62.535156 374.410156 64.664062 C 370.960938 69.230469 366.949219 67.144531 363.191406 65.789062 C 360.199219 64.707031 357.519531 62.820312 357.988281 57.183594 "/>
<path style=" stroke:none;fill-rule:nonzero;fill:rgb(42.370605%,41.322327%,41.583252%);fill-opacity:1;" d="M 497.8125 328.015625 C 500.148438 328.339844 503.320312 328.375 502.359375 326.964844 C 498.910156 321.90625 496.632812 314.992188 489.210938 314.226562 C 484.648438 313.757812 481.085938 317.632812 481.605469 321.039062 C 483.230469 331.640625 491.144531 329.929688 497.8125 328.015625 M 510.527344 319.152344 C 507.789062 329.089844 503.023438 337.671875 496.722656 345.398438 C 496.132812 346.121094 492.890625 345.925781 492.804688 345.617188 C 492.300781 343.828125 492.113281 341.84375 492.328125 339.988281 C 492.546875 338.085938 494.84375 334.992188 490.851562 335.484375 C 482.804688 336.472656 481.015625 331.367188 479.394531 325.453125 C 477.582031 318.832031 473.015625 312.171875 480.96875 306.214844 C 483.128906 304.601562 483.761719 303.632812 485.539062 306.757812 C 489.191406 313.183594 495.167969 315.292969 502.160156 312.917969 C 508.605469 310.730469 508.703125 315.695312 510.527344 319.152344 "/>
<path style=" stroke:none;fill-rule:nonzero;fill:rgb(42.370605%,41.322327%,41.583252%);fill-opacity:1;" d="M 323.21875 68.148438 C 319.589844 67.730469 315.046875 67.46875 310.617188 66.613281 C 306.964844 65.90625 305.8125 68.621094 303.742188 70.394531 C 302.402344 71.539062 306.15625 75.925781 301.570312 74.179688 C 297.65625 72.691406 293 70.398438 295.488281 64.757812 C 297.179688 60.925781 299.554688 57.257812 302.246094 54.03125 C 306.882812 48.460938 307.105469 56.707031 310.40625 57.414062 C 316.308594 58.675781 318.683594 56.902344 320.617188 52.484375 C 321.949219 49.4375 323.691406 48.457031 326.792969 49.785156 C 330.378906 51.320312 329.175781 53.792969 327.832031 55.882812 C 326.015625 58.699219 325.1875 61.113281 327.113281 64.394531 C 328.632812 66.980469 326.929688 68.367188 323.21875 68.148438 "/>
<path style=" stroke:none;fill-rule:nonzero;fill:rgb(82.745361%,82.43103%,82.50885%);fill-opacity:1;" d="M 339.972656 89.445312 C 340.054688 87.085938 340.199219 85.035156 338.410156 83.21875 C 337.191406 81.980469 333.460938 82.851562 334.738281 79.753906 C 335.707031 77.414062 338.542969 78.414062 340.613281 78.09375 C 344.679688 77.472656 348.992188 77.378906 352.710938 75.855469 C 357.367188 73.949219 359.78125 76.089844 362.460938 79.074219 C 364.171875 80.984375 365.480469 82.890625 363.515625 85.175781 C 361.394531 87.640625 359.671875 85.472656 357.96875 84.3125 C 355.890625 82.898438 353.84375 81.035156 351.339844 83.378906 C 349.671875 84.9375 349.785156 86.886719 350.636719 88.90625 C 351.414062 90.753906 354.945312 91.992188 352.070312 94.707031 C 349.226562 97.386719 346.078125 96.882812 342.757812 95.625 C 339.519531 94.402344 339.003906 92.195312 339.972656 89.445312 "/>
<path style=" stroke:none;fill-rule:nonzero;fill:rgb(42.370605%,41.322327%,41.583252%);fill-opacity:1;" d="M 511.28125 298.621094 C 511.210938 297.746094 511.140625 296.875 511.070312 296.003906 C 510.875 294.8125 511.042969 293.363281 510.417969 292.476562 C 506.339844 286.683594 509.78125 278.179688 516.898438 276.949219 C 519.871094 276.433594 521.855469 277.917969 522.132812 280.847656 C 523.019531 290.140625 521.875 299.316406 519.902344 308.386719 C 519.703125 309.300781 518.167969 310.785156 517.820312 310.640625 C 516.707031 310.175781 515.480469 309.25 514.992188 308.183594 C 513.574219 305.078125 512.492188 301.820312 511.28125 298.621094 "/>
<path style=" stroke:none;fill-rule:nonzero;fill:rgb(91.372681%,91.215515%,91.255188%);fill-opacity:1;" d="M 144.617188 272.21875 C 143.140625 277.28125 144.035156 282.082031 146.148438 286.78125 C 146.769531 288.167969 147.269531 289.972656 145.617188 290.746094 C 144.839844 291.109375 143.257812 290.21875 142.253906 289.5625 C 137.625 286.539062 134.636719 281.625 128.839844 279.640625 C 125.757812 278.585938 124.097656 273.734375 129.121094 271.683594 C 133.980469 269.699219 138.71875 262.925781 144.617188 270.105469 L 144.617188 272.21875 "/>
<path style=" stroke:none;fill-rule:nonzero;fill:rgb(13.816833%,12.24823%,12.637329%);fill-opacity:1;" d="M 144.617188 272.21875 L 144.617188 270.105469 C 144.761719 269.066406 144.90625 268.027344 145.050781 266.984375 C 144.054688 258.171875 143.054688 249.355469 141.871094 238.902344 C 148.101562 246.136719 147.460938 253.863281 149.457031 260.613281 C 152.074219 269.472656 153.296875 278.738281 155.183594 287.816406 C 155.59375 289.78125 156.59375 292.316406 153.9375 292.804688 C 151.304688 293.289062 151.613281 290.28125 150.90625 288.570312 C 149.425781 284.976562 147.832031 281.429688 146.28125 277.867188 C 145.898438 275.933594 146.839844 273.609375 144.617188 272.21875 "/>
<path style=" stroke:none;fill-rule:nonzero;fill:rgb(42.370605%,41.322327%,41.583252%);fill-opacity:1;" d="M 142.636719 188.734375 C 139.742188 180.8125 147.035156 152.363281 152.519531 147.589844 C 153.664062 146.59375 155.058594 145.160156 156.339844 146.4375 C 157.140625 147.230469 157.328125 149.394531 156.863281 150.578125 C 154.078125 157.609375 150.824219 164.464844 148.117188 171.527344 C 146.085938 176.835938 144.636719 182.371094 142.636719 188.734375 "/>
<path style=" stroke:none;fill-rule:nonzero;fill:rgb(82.745361%,82.43103%,82.50885%);fill-opacity:1;" d="M 400.800781 319.660156 C 402.632812 315.605469 404.453125 311.449219 406.441406 307.375 C 406.652344 306.941406 407.859375 306.988281 408.601562 306.816406 C 408.910156 308.164062 409.789062 309.699219 409.417969 310.824219 C 408.523438 313.535156 407.605469 316.074219 408.339844 319.027344 C 409.21875 322.542969 408.84375 326.609375 404.746094 326.882812 C 400.566406 327.15625 402.3125 322.359375 400.800781 319.660156 "/>
<path style=" stroke:none;fill-rule:nonzero;fill:rgb(82.745361%,82.43103%,82.50885%);fill-opacity:1;" d="M 306.164062 86.820312 C 307.964844 91.257812 310.097656 95.722656 311.53125 100.402344 C 312.148438 102.402344 308.910156 104.34375 308.222656 103.476562 C 305.246094 99.714844 302.445312 95.59375 300.707031 91.164062 C 299.851562 88.976562 302.917969 87.539062 306.164062 86.820312 "/>
<path style=" stroke:none;fill-rule:nonzero;fill:rgb(42.370605%,41.322327%,41.583252%);fill-opacity:1;" d="M 145.027344 371.945312 C 143.015625 372.035156 139.644531 373.308594 139.488281 370.867188 C 139.179688 366.039062 139.378906 360.730469 141.230469 356.417969 C 142.019531 354.582031 146.050781 357.96875 147.925781 359.824219 C 150.902344 362.773438 148.566406 365.46875 146.863281 368.109375 C 146.078125 369.324219 145.570312 370.71875 144.9375 372.03125 C 144.9375 372.03125 145.027344 371.945312 145.027344 371.945312 "/>
<path style=" stroke:none;fill-rule:nonzero;fill:rgb(42.370605%,41.322327%,41.583252%);fill-opacity:1;" d="M 274.507812 619.757812 C 272.332031 620.820312 270.160156 621.882812 267.984375 622.945312 C 265.722656 623.015625 263.238281 624.253906 261.46875 621.714844 C 265.957031 620.117188 270.445312 618.519531 274.929688 616.921875 C 275.230469 617.222656 275.527344 617.527344 275.824219 617.828125 Z M 274.507812 619.757812 "/>
<path style=" stroke:none;fill-rule:nonzero;fill:rgb(42.370605%,41.322327%,41.583252%);fill-opacity:1;" d="M 215.28125 565.863281 C 217.554688 568.6875 219.082031 571.746094 218.285156 575.523438 C 215.914062 572.730469 214.707031 569.574219 215.28125 565.863281 "/>
<path style=" stroke:none;fill-rule:nonzero;fill:rgb(42.370605%,41.322327%,41.583252%);fill-opacity:1;" d="M 223.40625 587.632812 C 225.121094 587.464844 225.84375 588.40625 226.027344 589.960938 C 224.125 590.34375 223.769531 588.988281 223.40625 587.632812 "/>
<path style=" stroke:none;fill-rule:nonzero;fill:rgb(89.646912%,89.459229%,89.505005%);fill-opacity:1;" d="M 336.035156 667.082031 C 343.039062 654.363281 352.925781 643.734375 362.09375 632.734375 C 377.519531 614.226562 394.164062 596.738281 410.296875 578.820312 C 409.832031 583.972656 405.65625 587.046875 402.566406 589.976562 C 378.472656 612.8125 359.140625 639.648438 338.351562 665.257812 C 337.746094 666 336.816406 666.480469 336.035156 667.082031 "/>
<path style=" stroke:none;fill-rule:nonzero;fill:rgb(89.646912%,89.459229%,89.505005%);fill-opacity:1;" d="M 272.347656 632.882812 C 282.6875 641.117188 289.765625 652.277344 298.519531 661.929688 C 304.628906 668.675781 311.429688 674.792969 317.921875 681.191406 C 320.222656 683.457031 322.128906 682.34375 323.871094 680.4375 C 327.628906 676.324219 331.347656 672.171875 335.082031 668.035156 C 334.015625 669.699219 333.101562 671.480469 331.863281 673 C 321.046875 686.265625 321.261719 685.992188 307.738281 673.777344 C 294.21875 661.574219 284.363281 646.320312 272.347656 632.882812 "/>
<path style=" stroke:none;fill-rule:nonzero;fill:rgb(42.370605%,41.322327%,41.583252%);fill-opacity:1;" d="M 273.28125 741.136719 C 273.84375 735.625 271.566406 735.425781 266.503906 735.949219 C 259.738281 736.652344 252.753906 735.226562 245.863281 734.71875 C 250.859375 729.992188 257.128906 732.558594 262.808594 731.808594 C 264.925781 731.527344 267.160156 732.03125 269.242188 731.640625 C 271.949219 731.132812 275.054688 730.230469 276.378906 733.089844 C 277.828125 736.226562 276.171875 739.15625 273.28125 741.136719 "/>
<path style=" stroke:none;fill-rule:nonzero;fill:rgb(89.646912%,89.459229%,89.505005%);fill-opacity:1;" d="M 417.035156 572.082031 C 417.84375 566.570312 421.675781 562.929688 425.089844 559.027344 C 423.972656 564.34375 420.53125 568.230469 417.035156 572.082031 "/>
<path style=" stroke:none;fill-rule:nonzero;fill:rgb(89.646912%,89.459229%,89.505005%);fill-opacity:1;" d="M 410.824219 578.296875 C 412.617188 576.5 414.414062 574.703125 416.210938 572.90625 C 415.117188 575.40625 414.042969 577.925781 410.824219 578.296875 "/>
<path style=" stroke:none;fill-rule:nonzero;fill:rgb(42.370605%,41.322327%,41.583252%);fill-opacity:1;" d="M 429.917969 553.929688 C 430.027344 550.890625 431.058594 548.375 433.933594 546.914062 C 433.695312 549.882812 433.234375 552.726562 429.917969 553.929688 "/>
<path style=" stroke:none;fill-rule:nonzero;fill:rgb(42.370605%,41.322327%,41.583252%);fill-opacity:1;" d="M 243.550781 735.714844 C 243.242188 736.382812 242.933594 737.050781 242.621094 737.714844 C 242.082031 737.421875 241.539062 737.125 240.996094 736.832031 C 241.429688 735.5 242.300781 735.171875 243.550781 735.714844 "/>
<path style=" stroke:none;fill-rule:nonzero;fill:rgb(42.370605%,41.322327%,41.583252%);fill-opacity:1;" d="M 427.910156 556.9375 C 427.539062 555.238281 428.300781 554.292969 429.921875 553.925781 C 430.050781 555.464844 429.746094 556.714844 427.910156 556.9375 "/>
<path style=" stroke:none;fill-rule:nonzero;fill:rgb(89.646912%,89.459229%,89.505005%);fill-opacity:1;" d="M 557.914062 580.027344 C 557.113281 578.539062 557.773438 577.921875 559.246094 577.78125 C 558.800781 578.53125 558.359375 579.28125 557.914062 580.027344 "/>
<path style=" stroke:none;fill-rule:nonzero;fill:rgb(13.816833%,12.24823%,12.637329%);fill-opacity:1;" d="M 207.4375 245.003906 C 215.253906 247.765625 225.886719 243.746094 234.957031 250.363281 C 237.242188 252.027344 241.648438 250.804688 245.082031 250.878906 C 253.910156 251.070312 259.105469 254.289062 259.398438 264.371094 C 259.519531 268.625 264.914062 268.332031 268.195312 266.765625 C 273.023438 264.449219 273.394531 266.890625 272.882812 270.492188 C 270.371094 288.246094 255.6875 298.167969 237.945312 293.257812 C 230.898438 291.308594 220.347656 295.800781 217.589844 285.042969 C 216.167969 279.492188 213.378906 280.710938 210.199219 281.25 C 206.308594 281.90625 204.242188 283.960938 205.898438 288.296875 C 206.507812 289.890625 207.683594 291.851562 205.632812 293.289062 C 203.851562 294.539062 202.167969 293.40625 200.476562 292.695312 C 198.011719 291.652344 195.488281 290.753906 192.988281 289.792969 C 195.65625 287.363281 198.28125 284.886719 201 282.519531 C 203.496094 280.34375 206.070312 278.253906 208.65625 276.1875 C 209.699219 275.351562 211.269531 274.523438 209.953125 273.140625 C 209.269531 272.421875 207.371094 272.125 206.398438 272.535156 C 202.746094 274.066406 199.28125 276.03125 195.675781 277.6875 C 194.789062 278.097656 193.652344 277.957031 192.628906 278.070312 C 192.957031 277.058594 192.96875 275.550781 193.660156 275.109375 C 197.746094 272.515625 201 268.148438 206.753906 268.953125 C 210.023438 269.410156 212.636719 268.019531 212.65625 264.53125 C 212.679688 260.640625 209.226562 260.792969 206.722656 261.117188 C 201.382812 261.796875 197.035156 261.730469 193.367188 256.425781 C 190.917969 252.886719 188.695312 257.300781 186.699219 258.847656 C 184.519531 260.539062 183.09375 263.507812 179.875 263.28125 C 179.199219 263.234375 178.300781 261.359375 178.113281 260.230469 C 177.507812 256.550781 179.046875 254.445312 182.484375 252.378906 C 192.59375 246.300781 195.628906 244.980469 207.4375 245.003906 "/>
<path style=" stroke:none;fill-rule:nonzero;fill:rgb(13.816833%,12.24823%,12.637329%);fill-opacity:1;" d="M 323.132812 366.859375 C 322.191406 371.257812 319.367188 375.109375 315.414062 373.214844 C 308.597656 369.9375 301.242188 370.085938 294.363281 367.882812 C 293.257812 367.527344 291.425781 366.074219 291.527344 365.859375 C 292.238281 364.300781 293.042969 362.257812 294.40625 361.617188 C 301.375 358.324219 308.691406 356.089844 316.546875 357.105469 C 322.402344 357.863281 321.980469 362.910156 323.132812 366.859375 "/>
<path style=" stroke:none;fill-rule:nonzero;fill:rgb(13.816833%,12.24823%,12.637329%);fill-opacity:1;" d="M 154.039062 340.542969 C 152.925781 342.640625 156.222656 346.4375 152.390625 347.632812 C 148.167969 348.953125 149.648438 344.121094 148.019531 342.492188 C 145.707031 340.1875 142.554688 339.261719 141.324219 335.230469 C 138.933594 327.398438 142.84375 324.289062 148.96875 321.875 C 151.3125 320.953125 153.378906 320.820312 155.308594 322.851562 C 157.269531 324.917969 157.007812 326.820312 155.667969 329.109375 C 153.65625 332.542969 153.921875 336.433594 154.039062 340.542969 "/>
<path style=" stroke:none;fill-rule:nonzero;fill:rgb(89.646912%,89.459229%,89.505005%);fill-opacity:1;" d="M 444.085938 499.03125 C 443.808594 497.867188 443.527344 496.703125 443.25 495.539062 C 444.40625 496.492188 445.03125 497.574219 444.085938 499.03125 "/>
<path style=" stroke:none;fill-rule:nonzero;fill:rgb(89.646912%,89.459229%,89.505005%);fill-opacity:1;" d="M 447.085938 512.03125 C 446.808594 510.867188 446.527344 509.703125 446.25 508.539062 C 447.40625 509.492188 448.03125 510.574219 447.085938 512.03125 "/>
<path style=" stroke:none;fill-rule:nonzero;fill:rgb(89.646912%,89.459229%,89.505005%);fill-opacity:1;" d="M 445.085938 503.03125 C 444.804688 502.195312 444.519531 501.359375 444.238281 500.523438 C 444.519531 501.359375 444.804688 502.195312 445.085938 503.03125 "/>
<path style=" stroke:none;fill-rule:nonzero;fill:rgb(42.370605%,41.322327%,41.583252%);fill-opacity:1;" d="M 291.554688 403.96875 C 290.753906 405.714844 289.882812 408.148438 289.632812 408.085938 C 284.4375 406.78125 277.769531 411.105469 274.039062 404.328125 C 272.980469 402.40625 272.4375 400.199219 271.660156 398.125 C 273.519531 397.75 275.480469 396.8125 277.226562 397.113281 C 282.496094 398.019531 288.785156 397.324219 291.554688 403.96875 "/>
<path style=" stroke:none;fill-rule:nonzero;fill:rgb(89.646912%,89.459229%,89.505005%);fill-opacity:1;" d="M 307.796875 601.332031 C 307.273438 603.761719 305.75 604.148438 303.65625 603.359375 C 304.558594 601.710938 305.914062 600.980469 307.796875 601.332031 "/>
<path style=" stroke:none;fill-rule:nonzero;fill:rgb(42.370605%,41.322327%,41.583252%);fill-opacity:1;" d="M 292.195312 608.976562 C 290.699219 611.394531 288.203125 612.054688 285.6875 612.675781 C 286.558594 609.160156 288.914062 608.25 292.195312 608.976562 "/>
<path style=" stroke:none;fill-rule:nonzero;fill:rgb(42.370605%,41.322327%,41.583252%);fill-opacity:1;" d="M 280.609375 614.746094 C 280.46875 615.433594 280.324219 616.121094 280.179688 616.808594 C 278.726562 617.148438 277.277344 617.488281 275.824219 617.828125 C 275.527344 617.527344 275.226562 617.222656 274.929688 616.921875 C 276.429688 615.167969 278.078125 613.804688 280.609375 614.746094 "/>
<path style=" stroke:none;fill-rule:nonzero;fill:rgb(89.646912%,89.459229%,89.505005%);fill-opacity:1;" d="M 275.824219 617.828125 C 277.277344 617.488281 278.726562 617.148438 280.179688 616.808594 C 278.914062 618.988281 276.988281 619.90625 274.507812 619.757812 C 274.945312 619.113281 275.386719 618.46875 275.824219 617.828125 "/>
<path style=" stroke:none;fill-rule:nonzero;fill:rgb(13.816833%,12.24823%,12.637329%);fill-opacity:1;" d="M 343.867188 245.875 C 352.179688 248.589844 362.308594 246.929688 372.222656 248.109375 C 375.914062 248.550781 379.472656 251.144531 379.886719 254.367188 C 380.28125 257.417969 375.789062 256.335938 373.621094 257.421875 C 372.4375 258.011719 371.597656 259.285156 370.601562 260.25 C 372.082031 261.167969 373.605469 262.019531 375.03125 263.011719 C 376.714844 264.179688 380.375 262.269531 380.335938 264.910156 C 380.289062 267.980469 376.609375 266.632812 374.554688 267.273438 C 373.15625 267.707031 371.617188 267.660156 370.152344 267.914062 C 367.550781 268.359375 363.894531 263.847656 362.878906 267.503906 C 361.863281 271.152344 367.453125 270.589844 369.828125 272.355469 C 370.734375 273.03125 371.910156 273.621094 373.011719 273.714844 C 377.546875 274.109375 383.550781 275.472656 382.679688 280.019531 C 381.664062 285.296875 376.691406 289.886719 370.40625 290.890625 C 361.945312 292.246094 354.929688 291.171875 354.710938 280.132812 C 354.683594 278.671875 353.945312 276.507812 351.808594 276.820312 C 351.089844 276.921875 350.105469 278.820312 350.136719 279.875 C 350.253906 284.058594 351.433594 287.699219 344.296875 284.980469 C 341.703125 283.992188 337.769531 288.800781 332.363281 286.34375 C 323.769531 282.441406 326.164062 276.707031 329.367188 272.328125 C 338.132812 260.34375 338.519531 260.6875 325.179688 255.675781 C 324.003906 255.234375 322.378906 253.507812 322.519531 252.632812 C 322.738281 251.28125 324.0625 249.640625 325.347656 249.023438 C 330.6875 246.453125 336.519531 246.121094 343.867188 245.875 "/>
<path style=" stroke:none;fill-rule:nonzero;fill:rgb(13.816833%,12.24823%,12.637329%);fill-opacity:1;" d="M 390.835938 288.046875 C 388.46875 288 386.171875 288.859375 386.226562 285.859375 C 386.265625 283.585938 387.460938 282.210938 389.90625 282.039062 C 392.4375 281.859375 395.992188 282.613281 396.273438 279.019531 C 396.492188 276.253906 393.359375 275.492188 391.09375 274.433594 C 389.519531 273.699219 388.1875 272.445312 386.746094 271.421875 C 387.289062 270.890625 387.75 270.21875 388.382812 269.855469 C 390.5 268.648438 392.539062 269.003906 394.375 270.503906 C 395.007812 271.023438 395.433594 271.800781 396.074219 272.300781 C 399.664062 275.097656 403.957031 278.460938 402.339844 283.097656 C 400.601562 288.074219 394.496094 286.851562 390.835938 288.046875 "/>
<path style=" stroke:none;fill-rule:nonzero;fill:rgb(13.816833%,12.24823%,12.637329%);fill-opacity:1;" d="M 497.8125 328.015625 C 491.144531 329.929688 483.230469 331.640625 481.605469 321.039062 C 481.085938 317.632812 484.648438 313.757812 489.210938 314.226562 C 496.632812 314.992188 498.910156 321.90625 502.359375 326.964844 C 503.320312 328.375 500.148438 328.339844 497.8125 328.015625 "/>
</g>
</svg>
