<?xml version="1.0" encoding="UTF-8"?>
<svg xmlns="http://www.w3.org/2000/svg" xmlns:xlink="http://www.w3.org/1999/xlink" width="600.691pt" height="755.423pt" viewBox="0 0 600.691 755.423" version="1.1">
<defs>
<clipPath id="clip1">
  <path d="M 0 0 L 600.691406 0 L 600.691406 755.421875 L 0 755.421875 Z M 0 0 "/>
</clipPath>
<clipPath id="clip2">
  <path d="M 0 24 L 600.691406 24 L 600.691406 755.421875 L 0 755.421875 Z M 0 24 "/>
</clipPath>
</defs>
<g id="surface1">
<g clip-path="url(#clip1)" clip-rule="nonzero">
<path style=" stroke:none;fill-rule:nonzero;fill:rgb(91.372681%,91.215515%,91.255188%);fill-opacity:1;" d="M 0.488281 755.421875 L 600.683594 755.421875 L 600.683594 0 L 0.488281 0 Z M 0.488281 755.421875 "/>
</g>
<g clip-path="url(#clip2)" clip-rule="nonzero">
<path style=" stroke:none;fill-rule:nonzero;fill:rgb(13.729858%,12.159729%,12.548828%);fill-opacity:1;" d="M 318.941406 265.371094 C 312.1875 265.96875 306.105469 268.433594 300.875 272.632812 C 298.742188 274.34375 299.378906 277.28125 299.960938 279.695312 C 300.371094 281.386719 302.1875 281.589844 303.1875 280.71875 C 308.363281 276.207031 315.523438 277.007812 321.085938 273.796875 C 322.996094 272.691406 326.855469 272.214844 325.921875 269.109375 C 325.113281 266.429688 322.019531 265.261719 318.941406 265.371094 M 226.980469 574.078125 L 226.890625 573.996094 C 226.050781 571.132812 225.722656 567.957031 224.21875 565.496094 C 222.785156 563.148438 222.925781 558.382812 218.5625 559.21875 C 208.953125 561.050781 196.730469 579.132812 197.792969 588.5625 C 200.242188 610.257812 202.230469 632.007812 204.652344 653.707031 C 206.007812 665.835938 207.777344 677.917969 209.609375 689.988281 C 209.742188 690.890625 210.765625 695.546875 213.007812 691.84375 C 216.292969 686.402344 219.597656 680.707031 220.242188 674.074219 C 220.523438 673.589844 220.808594 673.109375 221.09375 672.628906 C 221.429688 671.769531 221.765625 670.910156 222.101562 670.050781 C 227.308594 659.421875 232.894531 648.957031 237.554688 638.097656 C 239.855469 632.742188 249.140625 629.367188 242.996094 621.261719 C 242.882812 619.289062 242.765625 617.3125 242.652344 615.335938 C 241.097656 603.628906 236.480469 592.992188 231.238281 582.570312 C 230.875 581.847656 230.507812 581.125 230.144531 580.402344 C 229.507812 579.121094 228.875 577.839844 228.238281 576.558594 Z M 268.835938 538.933594 C 268.007812 538.515625 267.183594 538.09375 266.355469 537.675781 C 265.984375 537.308594 265.613281 536.945312 265.242188 536.578125 C 265.433594 534.761719 264.507812 533.402344 262.828125 533.46875 C 250.351562 533.964844 241.054688 527.285156 231.972656 520.050781 L 230.855469 518.933594 C 229.597656 517.9375 228.34375 516.941406 227.085938 515.945312 C 227.011719 515.605469 226.933594 515.269531 226.855469 514.933594 C 219.414062 503.894531 209.75 494.925781 199.988281 486.050781 L 199.835938 485.9375 C 197.925781 482.953125 194.507812 482.929688 191.652344 481.921875 C 188.332031 480.753906 183.300781 478.210938 181.769531 479.511719 C 178.613281 482.195312 181.507812 486.800781 182.070312 490.605469 C 182.070312 491.421875 182.070312 492.238281 182.070312 493.050781 C 182.1875 498.933594 182.339844 504.8125 185.023438 510.253906 C 185.039062 511.523438 185.054688 512.789062 185.070312 514.054688 C 184.65625 516.234375 183.9375 518.460938 186.023438 520.257812 C 186.039062 521.191406 186.054688 522.125 186.070312 523.054688 C 185.6875 525.550781 184.769531 528.113281 187.023438 530.257812 C 187.039062 531.191406 187.054688 532.121094 187.070312 533.054688 C 186.65625 535.234375 185.9375 537.460938 188.023438 539.257812 C 188.691406 549.175781 189.1875 559.109375 190.097656 569.003906 C 190.5 573.363281 192.152344 574.277344 196.023438 570.871094 C 205.429688 562.59375 210.734375 550.992188 219.773438 542.488281 C 220.03125 542.328125 220.242188 542.117188 220.402344 541.859375 C 225.394531 539.695312 230.378906 537.511719 235.386719 535.378906 C 238.222656 534.164062 240.566406 536.058594 242.03125 537.644531 C 243.871094 539.632812 240.492188 539.277344 239.886719 540.332031 C 238.984375 541.902344 240.066406 542.90625 241.160156 543.625 C 244.257812 545.667969 247.671875 546.808594 251.4375 546.886719 C 264.460938 547.15625 277.929688 545.8125 288.019531 556.910156 C 288.597656 557.542969 289.84375 557.5625 290.777344 557.867188 L 291.035156 558.125 C 293.824219 562.722656 299.195312 564.15625 302.773438 567.738281 C 303.984375 568.945312 307.777344 570.605469 304.617188 572.546875 C 298.089844 576.5625 294.902344 583.386719 289.710938 588.464844 C 278.980469 598.953125 277.265625 612.507812 278.878906 626.207031 C 280.390625 639.027344 286.214844 650.996094 289.261719 663.484375 C 291.328125 671.964844 290.277344 680.464844 295.597656 689.011719 C 301.5625 698.601562 296.007812 711.664062 300.394531 722.589844 C 300.867188 723.777344 301.570312 724.871094 302.167969 726.007812 C 302.964844 725.039062 304.066406 724.195312 304.507812 723.085938 C 308.503906 713.117188 312.703125 703.210938 316.238281 693.078125 C 330.140625 653.199219 343.929688 613.28125 357.53125 573.300781 C 363.019531 557.179688 367.921875 540.859375 373.09375 524.632812 C 375.097656 523 375.609375 520.53125 376.78125 518.421875 C 383.992188 505.476562 378.402344 490.363281 384.179688 477.019531 C 385.710938 473.476562 388.597656 475.886719 389.644531 473.207031 C 396.367188 456.023438 402.175781 438.613281 404.003906 420.128906 C 404.128906 418.855469 403.132812 417.472656 402.660156 416.140625 C 401.84375 416.820312 400.703125 417.332031 400.257812 418.199219 C 396.035156 426.449219 390.988281 434.429688 387.96875 443.113281 C 380.035156 465.898438 367.273438 485.628906 345.320312 495.449219 C 322.71875 505.558594 307.152344 522.496094 291.328125 539.925781 L 291.257812 540.015625 C 289.269531 540.617188 287.277344 541.21875 285.289062 541.824219 C 284.035156 541.828125 282.785156 541.832031 281.53125 541.839844 C 277.328125 540.898438 273.121094 539.957031 268.917969 539.015625 Z M 600.585938 504.328125 C 600.585938 586.664062 600.558594 668.996094 600.683594 751.328125 C 600.6875 754.753906 600.011719 755.425781 596.585938 755.421875 C 399.253906 755.316406 201.921875 755.316406 4.585938 755.421875 C 1.164062 755.425781 0.484375 754.753906 0.488281 751.328125 C 0.613281 670.996094 0.585938 590.664062 0.585938 510.328125 C 5.078125 509.875 8.914062 508.226562 12.871094 505.785156 C 34.480469 492.445312 55.457031 477.792969 80.277344 470.613281 C 89.621094 467.910156 100.121094 468.203125 108.324219 462.816406 C 124.046875 452.496094 138.96875 440.957031 155.9375 432.613281 C 159.984375 430.878906 159.582031 428.753906 156.492188 426.390625 C 156.246094 425.726562 156 425.066406 155.753906 424.402344 C 157.835938 423.308594 159.675781 422.425781 159.777344 426.179688 C 159.992188 434.199219 163.234375 441.308594 166.671875 448.363281 C 170.878906 456.996094 177.308594 452.589844 183.5 451.902344 C 182 459.386719 187.46875 462.890625 193.652344 464.347656 C 198.636719 465.519531 200.367188 469.640625 202.121094 472.558594 C 206.253906 479.4375 218.113281 486.722656 225.222656 483.738281 C 232.710938 480.59375 239.773438 481.960938 247.1875 482.898438 C 253.046875 483.640625 258.890625 484.0625 264.964844 483.675781 C 274.082031 483.09375 282.984375 478.394531 291.984375 480.894531 C 297.613281 482.460938 301.191406 481.492188 305.351562 477.964844 C 309.949219 474.0625 311.503906 466.375 317.699219 465.304688 C 328.453125 463.445312 333.09375 455.789062 338.222656 447.808594 C 346.769531 434.515625 351.433594 420.5 348.269531 404.546875 C 347.90625 402.714844 348.175781 400.746094 345.429688 400.90625 C 343.421875 401.023438 340.902344 400.035156 340.566406 403.476562 C 340.480469 404.34375 339.957031 406.789062 338.851562 404.800781 C 337.949219 403.175781 333.53125 403.078125 335.863281 400.652344 C 339.691406 396.664062 339.273438 394.863281 333.097656 393.28125 C 342.308594 396.34375 345.023438 388.863281 349.804688 385 C 354.996094 380.808594 355.683594 374.554688 355.152344 369.0625 C 353.933594 356.480469 356.730469 346.035156 365.339844 336.40625 C 367.527344 333.957031 371.253906 332.417969 372.101562 329.035156 C 372.609375 327.011719 372.132812 326.242188 375.019531 325.085938 C 379.410156 323.332031 385.175781 319.058594 385.851562 315.085938 C 388.089844 301.976562 399.949219 292.964844 399.359375 278.195312 C 400.464844 280.015625 400.90625 280.738281 401.347656 281.464844 C 402.015625 279.109375 403.472656 276.640625 403.148438 274.433594 C 402.765625 271.816406 403.714844 266.707031 399.183594 267.445312 C 393.828125 268.316406 399.3125 274.574219 395.117188 277.554688 C 395.117188 273.976562 396.40625 269.375 394.875 268.070312 C 390.425781 264.269531 392.703125 270.472656 391.101562 271.40625 C 389.632812 270.660156 391.480469 265.585938 387.996094 268.230469 C 385.265625 270.308594 381.804688 272.597656 381.558594 277.058594 C 381.3125 281.46875 378.234375 283.261719 374.265625 282.460938 C 367.535156 281.105469 363.277344 284.613281 360.097656 289.496094 C 351.855469 302.132812 340.632812 309.152344 325.363281 308.941406 C 323.582031 308.917969 321.515625 308.011719 320.148438 306.84375 C 319.226562 306.054688 320.359375 304.351562 321.679688 304.53125 C 327.527344 305.339844 329.835938 299.210938 334.804688 297.976562 C 332.714844 297.28125 330.453125 296.511719 328.695312 297.140625 C 320.117188 300.214844 314.238281 295.464844 310.628906 289.359375 C 307.023438 283.265625 304.445312 285.898438 299.746094 286.996094 C 295.386719 288.015625 291.316406 294.371094 287.039062 290.152344 C 284.691406 287.835938 282.996094 286.855469 280.597656 287.800781 C 277.621094 288.96875 277.898438 291.523438 278.535156 294.511719 C 280.84375 305.339844 293.691406 314.519531 283.886719 327.390625 C 283.5 327.898438 284.757812 329.726562 285.34375 330.886719 C 291.15625 342.40625 302.3125 350.429688 306.386719 363.164062 C 306.929688 364.859375 309.257812 366.160156 308.226562 368.351562 C 306.972656 371.011719 305.042969 368.332031 303.378906 368.546875 C 301.726562 368.765625 301.078125 368.703125 300.402344 370.621094 C 296.945312 380.375 294.898438 389.714844 303.054688 398.449219 C 305.480469 401.046875 317.652344 401.296875 319.75 398.332031 C 321.441406 395.945312 323.316406 392.5625 325.671875 392.011719 C 330.441406 390.886719 331.59375 396.574219 331.546875 398.863281 C 331.398438 405.636719 325.644531 410.941406 325.574219 418.328125 C 325.550781 421.175781 322.074219 425.632812 319.28125 426.5 C 311.527344 428.902344 307.890625 434.917969 304.695312 441.085938 C 301.117188 448 292.601562 446.691406 287.933594 452.289062 C 286.675781 453.800781 276.8125 450.867188 275.117188 445.609375 C 273.511719 440.640625 278.625 437.347656 282.769531 434.632812 C 285.003906 433.171875 284.707031 429.308594 283.074219 429.5 C 279.066406 429.972656 280.355469 426.296875 278.261719 425.019531 C 277.691406 431.28125 273.917969 426.578125 272.140625 426.472656 C 269.980469 426.34375 266.257812 425.828125 265.617188 422.292969 C 265.253906 420.28125 264.164062 418.671875 262.398438 419.757812 C 256.113281 423.621094 249.878906 424.835938 243.179688 420.976562 C 242.667969 420.683594 241.421875 420.621094 241.289062 420.867188 C 236.605469 429.660156 228.726562 423.578125 222.460938 424.800781 C 220.574219 425.171875 218.492188 425.53125 216.6875 421.949219 C 214.808594 418.222656 211.351562 412.882812 204.394531 414.566406 C 201.667969 415.226562 195.96875 416.410156 195.574219 413.167969 C 195.101562 409.273438 197.585938 404.589844 199.875 400.921875 C 201.910156 397.65625 205.925781 396.078125 209.921875 396.800781 C 213.527344 397.449219 216.457031 401.523438 220.871094 398.683594 C 221.328125 398.386719 223.964844 400.183594 224.425781 401.4375 C 225.855469 405.316406 229.132812 406.113281 232.300781 406.15625 C 237.402344 406.226562 242.089844 407.320312 246.839844 409.078125 C 252.652344 411.234375 258.804688 412.488281 264.722656 409.492188 C 267.167969 408.253906 270.996094 407.1875 270.28125 403.566406 C 269.835938 401.3125 267.390625 399.453125 265.839844 397.417969 C 262.195312 400.71875 257.820312 398.285156 253.820312 398.871094 C 249.667969 399.480469 244.867188 398.953125 242.996094 394.929688 C 237.898438 383.972656 236.699219 370.757812 222.859375 365.453125 C 219.703125 364.242188 218.394531 359.132812 220.128906 355.703125 C 220.894531 354.179688 224.84375 353.648438 227.308594 353.746094 C 230.949219 353.886719 231.421875 357.347656 231.636719 360.085938 C 232.035156 365.15625 236.003906 367.625 239.4375 366.800781 C 245.625 365.316406 254.90625 368.859375 257.300781 359.90625 C 260.085938 349.46875 261.953125 338.996094 261.125 327.601562 C 260.007812 312.21875 262.136719 296.527344 260.4375 281.058594 C 259.1875 269.675781 260.976562 262.117188 272.234375 255.101562 C 286.363281 246.292969 302.328125 245.480469 316.878906 239.523438 C 320.371094 238.09375 326.289062 242.582031 327.386719 236.066406 C 328.117188 231.746094 331.164062 231.6875 333.695312 231.09375 C 336.019531 230.542969 338.300781 232.140625 339.480469 234.445312 C 340.058594 235.570312 340.203125 237.800781 341.769531 235.535156 C 344.023438 232.269531 346.464844 234.398438 348.878906 234.730469 C 350.355469 234.933594 351.097656 238.179688 352.847656 236.148438 C 353.664062 235.199219 353.089844 233.035156 353.109375 231.417969 C 353.125 230.125 353.082031 228.832031 353.0625 227.539062 C 353.953125 228.03125 355.5625 229.027344 355.625 228.9375 C 358.132812 225.359375 362.207031 237.082031 363.289062 228.515625 C 364.328125 220.277344 364.488281 211.628906 363.089844 203.492188 C 362.324219 199.039062 368.449219 188.835938 355.804688 190.363281 C 355.523438 190.398438 354.8125 189.0625 354.746094 188.324219 C 354.253906 183.078125 354.242188 177.757812 353.367188 172.585938 C 352.46875 167.285156 351.542969 161.570312 345.175781 159.617188 C 342.289062 158.730469 344.753906 163.167969 341.574219 162.730469 C 344.460938 151.761719 339.859375 146.054688 328.707031 145.257812 C 328.113281 145.21875 327.316406 143.796875 327.132812 142.910156 C 325.921875 137.132812 321.585938 132.160156 323.242188 125.128906 C 319.941406 132.550781 318.351562 125.339844 316.5625 124.917969 C 306.84375 122.605469 297.503906 126.269531 287.898438 126.140625 C 275.496094 125.96875 263.101562 129.554688 250.816406 131.476562 C 234.988281 133.953125 218.28125 130.566406 201.941406 130.066406 C 191.34375 129.742188 179.394531 127.242188 172.625 138.359375 C 168.570312 145.015625 163.773438 147.933594 156.503906 147.839844 C 154.664062 147.816406 154.222656 149.046875 154.023438 150.355469 C 152.910156 157.644531 151.800781 164.9375 150.460938 172.167969 C 147.03125 190.683594 145.996094 209.683594 144.726562 228.539062 C 143.972656 239.710938 144.585938 250.972656 144.585938 265.546875 C 141.628906 261.171875 140.8125 259.96875 139.859375 258.558594 C 139.328125 259.378906 138.820312 259.792969 138.835938 260.1875 C 139.09375 266.609375 133.929688 265.078125 130.570312 265.535156 C 124.960938 266.296875 128.359375 261.757812 128.113281 260.023438 C 126.640625 249.625 119.769531 242.714844 112.753906 245.242188 C 112.4375 243.738281 112.21875 242.085938 111.914062 240.742188 C 110.367188 233.878906 117.375 230.21875 117.429688 223.988281 C 117.511719 214.113281 118.1875 204.238281 118.613281 194.367188 C 121.082031 193.207031 119.78125 190.996094 120.050781 189.222656 C 120.140625 188.582031 120.230469 187.941406 120.320312 187.296875 C 120.433594 186.304688 120.542969 185.3125 120.652344 184.320312 C 120.652344 183.324219 120.652344 182.332031 120.652344 181.335938 C 121.808594 176.589844 123.542969 171.898438 124.023438 167.085938 C 126.5625 141.59375 135.714844 117.824219 142.753906 93.503906 L 142.765625 93.496094 C 144.214844 92.863281 145.453125 92.066406 145.335938 90.207031 C 145.503906 89.675781 145.671875 89.144531 145.839844 88.613281 C 151.460938 80.136719 158.765625 73.515625 166.621094 66.972656 C 199.359375 39.699219 238.21875 29.542969 279.246094 25.523438 C 300.949219 23.394531 322.878906 25.71875 341.554688 37.183594 C 356.265625 46.210938 371.890625 53.472656 386.714844 62.226562 C 401.195312 70.777344 412.152344 81.78125 420.941406 95.097656 C 430.066406 108.9375 433.738281 125.011719 437.464844 141.25 C 440.972656 156.53125 446.804688 171.34375 450.558594 186.75 C 452.808594 195.976562 451.210938 205.996094 456.433594 214.519531 C 456.585938 214.773438 456.789062 214.980469 457.046875 215.132812 C 458.808594 226.898438 457.347656 238.613281 456.519531 250.339844 C 456.519531 252.332031 456.519531 254.328125 456.519531 256.320312 C 457.296875 268.308594 458.074219 280.296875 458.847656 292.285156 C 458.871094 293.585938 458.890625 294.886719 458.914062 296.1875 C 458.78125 300.238281 458.652344 304.289062 458.519531 308.339844 C 458.457031 308.910156 458.394531 309.476562 458.332031 310.046875 C 450.316406 318.058594 443.769531 326.910156 442.0625 338.527344 C 441.84375 339.726562 441.628906 340.925781 441.414062 342.128906 C 438.214844 342.355469 438.394531 344.988281 437.984375 347.09375 C 436.027344 357.082031 431.40625 365.597656 424.085938 372.65625 C 421.617188 373.65625 419.628906 372.652344 417.757812 371.152344 C 417.15625 369.726562 416.027344 369.445312 415.28125 370.699219 C 413.972656 372.902344 412.960938 375.332031 415.332031 377.613281 C 430.945312 408.890625 457.546875 428.507812 487 445.089844 C 512.011719 459.167969 536.378906 474.4375 562.996094 485.53125 C 575.941406 490.925781 587.117188 499.933594 600.585938 504.328125 "/>
</g>
<path style=" stroke:none;fill-rule:nonzero;fill:rgb(74.119568%,73.648071%,73.765564%);fill-opacity:1;" d="M 320.792969 395.664062 C 321.277344 394.183594 321.570312 393.726562 321.527344 393.304688 C 321.46875 392.75 321.144531 392.222656 320.933594 391.683594 C 320.542969 391.980469 319.882812 392.234375 319.824219 392.585938 C 319.742188 393.070312 320.113281 393.632812 320.792969 395.664062 M 222.683594 431.445312 C 225.753906 434.207031 228.363281 440.59375 235.511719 442.203125 C 237.679688 442.6875 241.316406 445.480469 242.28125 441.832031 C 244.324219 434.117188 235.5 437.148438 232.746094 433.492188 C 230.753906 430.847656 231.546875 435.972656 229.316406 436.027344 C 231.753906 429.457031 222.269531 433.796875 222.683594 431.445312 M 239.648438 349.785156 C 239.648438 351.394531 239.535156 352.738281 239.671875 354.050781 C 239.902344 356.25 240.691406 359.402344 242.703125 359.101562 C 245.144531 358.738281 247.675781 356.613281 249.394531 354.59375 C 250.421875 353.382812 249.964844 350.914062 250.175781 349.011719 C 242.316406 348.167969 246.371094 342.125 245.429688 338.242188 C 245.253906 337.53125 244.601562 336.9375 244.171875 336.285156 C 243.710938 336.644531 242.8125 337.046875 242.847656 337.347656 C 243.386719 342.023438 238.128906 345.195312 239.648438 349.785156 M 192.582031 344.578125 C 197.074219 351.398438 201.296875 346.09375 203.9375 343.617188 C 206.605469 341.117188 212.074219 337.695312 209.035156 333.5 C 207.5625 331.464844 201.710938 327.898438 197.421875 333.628906 C 195.714844 335.910156 190.574219 338.292969 188.757812 337.324219 C 182.425781 333.945312 184.765625 339.84375 184.3125 341.289062 C 183.257812 344.671875 181.96875 350.296875 185.003906 351.226562 C 187.855469 352.09375 185.445312 346.460938 187.035156 344.1875 C 187.15625 344.011719 187.574219 344.042969 187.839844 344.003906 C 189.714844 345.59375 187.046875 348.96875 190.082031 349.761719 C 190.421875 349.847656 191.636719 346.582031 192.582031 344.578125 M 169.660156 406.257812 C 171.503906 400 174.527344 399.65625 179.730469 401.105469 C 184.300781 402.378906 190.304688 401.855469 192.804688 396.464844 C 200.574219 379.71875 207.683594 362.664062 218.617188 347.566406 C 219.71875 346.046875 218.929688 343.167969 219.015625 340.917969 C 218.210938 341.066406 217.109375 340.925781 216.644531 341.40625 C 212.613281 345.546875 208.597656 349.71875 204.757812 354.039062 C 193.378906 366.839844 187.621094 385.632812 166.839844 388.507812 C 164.085938 388.886719 159.734375 391.9375 163.234375 398.324219 C 165.765625 402.945312 163.730469 410.074219 163.730469 417.738281 C 167.5625 411.660156 165.757812 406.398438 167.554688 400.710938 C 168.390625 402.910156 168.851562 404.128906 169.660156 406.257812 M 148.691406 244.921875 C 147.265625 251.421875 145.835938 255.074219 145.785156 258.738281 C 145.667969 267.375 142.765625 278.378906 158.039062 276.730469 C 159.484375 276.574219 160.539062 277.648438 160.0625 278.863281 C 157.96875 284.226562 162.921875 283.066406 165.066406 284.492188 C 167.128906 281.296875 174.09375 285.839844 173.878906 278.800781 C 173.8125 276.546875 175.882812 275.332031 177.925781 274.984375 C 179.667969 274.691406 180.304688 276.324219 180.117188 277.613281 C 179.238281 283.757812 182.234375 287.695312 187.554688 289.585938 C 193.925781 291.847656 199.9375 289.867188 204.5625 285.332031 C 206.957031 282.984375 208.464844 282.710938 211.292969 284.09375 C 220.167969 288.441406 228.972656 282.457031 238.015625 283.085938 C 239.875 283.214844 241.984375 273.871094 241.292969 268.6875 C 240.804688 265.0625 237.765625 262.328125 233.945312 261.027344 C 225.847656 258.265625 218.226562 255.066406 211.015625 249.882812 C 204.015625 244.851562 195.046875 242.199219 185.882812 246.640625 C 180.480469 249.257812 172.117188 248.289062 170.769531 244.910156 C 166.945312 235.308594 164.316406 242.5625 160.839844 243.929688 C 160.609375 243.425781 160.183594 242.488281 159.753906 241.550781 C 154.257812 245.050781 158.289062 251.574219 155.027344 257.144531 C 154.648438 252.265625 154.367188 248.660156 153.828125 241.722656 C 152.277344 247.816406 151.585938 250.535156 150.371094 255.300781 C 149.738281 251.386719 149.457031 249.644531 148.691406 244.921875 M 267.757812 213.449219 C 268.027344 213.476562 268.300781 213.5 268.570312 213.527344 C 268.441406 216.304688 268.480469 219.105469 268.117188 221.851562 C 267.886719 223.59375 267.382812 225.789062 269.394531 225.992188 C 272.015625 226.257812 270.785156 223.835938 270.996094 222.347656 C 271.492188 218.863281 270.339844 214.976562 274.339844 210.066406 C 273.558594 214.957031 272.9375 217.78125 272.710938 220.636719 C 272.582031 222.296875 271.835938 225.101562 274.242188 225.171875 C 276.308594 225.230469 275.882812 222.320312 275.496094 221.035156 C 272.976562 212.625 282.605469 207.554688 281.285156 199.503906 C 281.207031 199.023438 282.707031 197.699219 283.339844 197.78125 C 288.523438 198.460938 287.875 194.707031 287.457031 191.972656 C 286.035156 182.746094 284.257812 173.574219 282.550781 164.394531 C 282.433594 163.777344 281.4375 162.75 281.386719 162.78125 C 273.089844 167.945312 268.191406 166.214844 267.363281 155.992188 C 267.355469 155.898438 266.996094 155.859375 266.957031 155.742188 C 264.738281 149.003906 256.75 152.113281 252.898438 147.195312 C 247.546875 140.351562 244.53125 151.542969 239.429688 149.996094 C 241.976562 154.023438 236.96875 156.519531 236.203125 156.367188 C 232.886719 155.699219 235.933594 151.59375 233.234375 149.425781 C 230.40625 159.191406 220.3125 160.300781 213.898438 161.132812 C 203.917969 162.425781 197.628906 163.53125 201.871094 174.632812 C 204.636719 181.875 196.953125 190.429688 205.320312 196.535156 C 205.515625 196.675781 204.285156 199.21875 204.21875 199.195312 C 198.59375 197.246094 200.929688 202.039062 200.617188 203.832031 C 200.113281 206.730469 200.5625 209.785156 200.398438 212.761719 C 200.28125 214.828125 198.75 216.96875 200.804688 218.816406 C 201.089844 219.074219 202.148438 218.925781 202.488281 218.59375 C 204.273438 216.855469 202.9375 214.890625 202.824219 212.972656 C 202.734375 211.394531 203.1875 209.78125 203.503906 208.207031 C 203.515625 208.152344 204.871094 208.089844 205.199219 208.421875 C 206.625 209.894531 206.746094 211.664062 205.90625 213.503906 C 204.144531 217.375 204.511719 220.730469 208.664062 222.695312 C 213.503906 224.984375 217.6875 227.976562 220.65625 232.453125 C 222.535156 231.402344 221.351562 226.394531 223.664062 227.980469 C 228.398438 231.226562 226.660156 226.414062 227.160156 225.523438 C 227.933594 224.160156 227.691406 222.226562 227.878906 220.53125 C 226.449219 227.527344 233.792969 228.796875 235.820312 232.898438 C 240.945312 243.253906 243.902344 237.1875 247.542969 232.421875 C 252.171875 247.417969 250.394531 227.890625 252.9375 231.820312 C 254.246094 237.53125 254.730469 238.527344 255.484375 237.929688 C 260.777344 233.75 266.429688 229.84375 266.644531 222.015625 C 266.722656 219.152344 267.367188 216.304688 267.757812 213.449219 M 155.753906 424.402344 C 152.214844 407.125 148.226562 389.917969 145.3125 372.535156 C 143.574219 362.148438 137.355469 354.097656 133.253906 344.972656 C 127.90625 333.074219 125.367188 320.25 121.273438 308 C 117.183594 295.765625 118.261719 281.824219 118.265625 268.480469 C 118.265625 260.734375 114.710938 252.988281 112.753906 245.242188 C 119.769531 242.714844 126.640625 249.625 128.113281 260.023438 C 128.359375 261.757812 124.960938 266.296875 130.570312 265.535156 C 133.929688 265.078125 139.09375 266.609375 138.835938 260.191406 C 138.820312 259.792969 139.328125 259.378906 139.859375 258.558594 C 140.8125 259.96875 141.628906 261.171875 144.585938 265.546875 C 144.585938 250.96875 143.972656 239.707031 144.726562 228.539062 C 145.996094 209.683594 147.03125 190.683594 150.460938 172.167969 C 151.800781 164.9375 152.910156 157.644531 154.019531 150.359375 C 154.222656 149.046875 154.664062 147.816406 156.503906 147.839844 C 163.773438 147.933594 168.570312 145.015625 172.625 138.359375 C 179.394531 127.242188 191.34375 129.742188 201.941406 130.066406 C 218.28125 130.566406 234.988281 133.953125 250.816406 131.476562 C 263.101562 129.554688 275.496094 125.96875 287.898438 126.140625 C 297.503906 126.269531 306.84375 122.605469 316.5625 124.914062 C 318.351562 125.339844 319.941406 132.550781 323.242188 125.128906 C 321.585938 132.160156 325.921875 137.132812 327.132812 142.910156 C 327.316406 143.796875 328.113281 145.214844 328.707031 145.257812 C 339.859375 146.054688 344.460938 151.765625 341.574219 162.734375 C 344.753906 163.167969 342.289062 158.730469 345.175781 159.617188 C 351.542969 161.570312 352.46875 167.285156 353.367188 172.585938 C 354.242188 177.757812 354.253906 183.078125 354.746094 188.324219 C 354.8125 189.0625 355.523438 190.398438 355.804688 190.363281 C 368.449219 188.835938 362.324219 199.039062 363.089844 203.492188 C 364.488281 211.625 364.328125 220.277344 363.289062 228.515625 C 362.207031 237.082031 358.132812 225.359375 355.625 228.9375 C 355.5625 229.027344 353.953125 228.03125 353.0625 227.539062 C 353.082031 228.832031 353.125 230.125 353.109375 231.417969 C 353.089844 233.035156 353.664062 235.199219 352.847656 236.148438 C 351.097656 238.183594 350.355469 234.933594 348.878906 234.730469 C 346.464844 234.398438 344.023438 232.269531 341.769531 235.535156 C 340.203125 237.800781 340.058594 235.570312 339.480469 234.445312 C 338.300781 232.140625 336.019531 230.542969 333.695312 231.09375 C 331.167969 231.6875 328.117188 231.746094 327.386719 236.066406 C 326.289062 242.582031 320.371094 238.09375 316.878906 239.523438 C 302.328125 245.480469 286.363281 246.292969 272.234375 255.101562 C 260.976562 262.113281 259.1875 269.675781 260.4375 281.058594 C 262.136719 296.527344 260.003906 312.21875 261.125 327.601562 C 261.953125 338.996094 260.085938 349.46875 257.300781 359.90625 C 254.90625 368.859375 245.625 365.316406 239.4375 366.800781 C 236.003906 367.625 232.035156 365.15625 231.636719 360.082031 C 231.421875 357.347656 230.949219 353.886719 227.308594 353.746094 C 224.84375 353.648438 220.894531 354.179688 220.128906 355.703125 C 218.394531 359.132812 219.703125 364.242188 222.859375 365.453125 C 236.699219 370.757812 237.898438 383.972656 242.996094 394.933594 C 244.867188 398.953125 249.667969 399.480469 253.820312 398.871094 C 257.820312 398.285156 262.195312 400.71875 265.839844 397.417969 C 267.386719 399.453125 269.835938 401.3125 270.277344 403.566406 C 270.996094 407.1875 267.167969 408.253906 264.722656 409.492188 C 258.804688 412.488281 252.652344 411.234375 246.839844 409.078125 C 242.089844 407.320312 237.398438 406.226562 232.300781 406.15625 C 229.132812 406.113281 225.855469 405.316406 224.425781 401.441406 C 223.964844 400.183594 221.328125 398.390625 220.871094 398.683594 C 216.457031 401.523438 213.527344 397.449219 209.921875 396.796875 C 205.925781 396.078125 201.910156 397.65625 199.875 400.921875 C 197.585938 404.589844 195.101562 409.273438 195.574219 413.167969 C 195.96875 416.410156 201.667969 415.226562 204.394531 414.566406 C 211.351562 412.882812 214.808594 418.222656 216.6875 421.949219 C 218.492188 425.53125 220.574219 425.171875 222.460938 424.800781 C 228.726562 423.578125 236.605469 429.660156 241.289062 420.867188 C 241.417969 420.621094 242.667969 420.683594 243.179688 420.976562 C 249.878906 424.835938 256.113281 423.621094 262.398438 419.757812 C 264.164062 418.667969 265.253906 420.28125 265.617188 422.292969 C 266.257812 425.828125 269.980469 426.34375 272.140625 426.472656 C 273.917969 426.578125 277.691406 431.28125 278.261719 425.019531 C 280.355469 426.296875 279.066406 429.96875 283.074219 429.5 C 284.707031 429.308594 285.003906 433.171875 282.769531 434.632812 C 278.625 437.347656 273.511719 440.640625 275.117188 445.609375 C 276.8125 450.867188 286.675781 453.796875 287.933594 452.289062 C 292.601562 446.691406 301.117188 448 304.695312 441.085938 C 307.890625 434.917969 311.527344 428.902344 319.28125 426.5 C 322.074219 425.632812 325.550781 421.175781 325.574219 418.328125 C 325.644531 410.941406 331.398438 405.636719 331.546875 398.863281 C 331.59375 396.574219 330.441406 390.890625 325.671875 392.011719 C 323.316406 392.566406 321.441406 395.945312 319.75 398.332031 C 317.652344 401.296875 305.480469 401.042969 303.054688 398.449219 C 294.898438 389.714844 296.945312 380.371094 300.402344 370.617188 C 301.082031 368.703125 301.726562 368.765625 303.378906 368.546875 C 305.042969 368.332031 306.972656 371.011719 308.226562 368.351562 C 309.257812 366.160156 306.929688 364.859375 306.386719 363.164062 C 302.3125 350.429688 291.15625 342.40625 285.34375 330.890625 C 284.757812 329.726562 283.5 327.898438 283.886719 327.390625 C 293.691406 314.523438 280.84375 305.339844 278.535156 294.511719 C 277.898438 291.523438 277.621094 288.96875 280.597656 287.800781 C 282.996094 286.859375 284.691406 287.835938 287.039062 290.152344 C 291.316406 294.371094 295.386719 288.015625 299.746094 286.996094 C 304.445312 285.898438 307.023438 283.265625 310.628906 289.359375 C 314.238281 295.464844 320.117188 300.214844 328.691406 297.144531 C 330.453125 296.511719 332.714844 297.28125 334.804688 297.976562 C 329.835938 299.210938 327.527344 305.339844 321.679688 304.53125 C 320.359375 304.351562 319.226562 306.054688 320.148438 306.84375 C 321.515625 308.011719 323.582031 308.917969 325.363281 308.941406 C 340.632812 309.152344 351.855469 302.132812 360.097656 289.496094 C 363.277344 284.613281 367.535156 281.105469 374.265625 282.460938 C 378.234375 283.257812 381.3125 281.46875 381.558594 277.058594 C 381.804688 272.597656 385.261719 270.308594 387.996094 268.234375 C 391.480469 265.585938 389.632812 270.660156 391.101562 271.40625 C 392.703125 270.476562 390.421875 264.269531 394.875 268.066406 C 396.40625 269.371094 395.117188 273.976562 395.117188 277.554688 C 399.3125 274.574219 393.828125 268.316406 399.183594 267.445312 C 403.714844 266.707031 402.765625 271.816406 403.148438 274.433594 C 403.472656 276.640625 402.015625 279.109375 401.34375 281.464844 C 400.90625 280.738281 400.464844 280.015625 399.359375 278.195312 C 399.949219 292.964844 388.089844 301.976562 385.851562 315.085938 C 385.175781 319.058594 379.410156 323.332031 375.019531 325.085938 C 372.132812 326.242188 372.609375 327.011719 372.101562 329.035156 C 371.253906 332.417969 367.527344 333.957031 365.339844 336.40625 C 356.730469 346.035156 353.933594 356.484375 355.152344 369.066406 C 355.679688 374.554688 354.996094 380.808594 349.804688 385 C 345.023438 388.863281 342.308594 396.339844 333.097656 393.28125 C 339.273438 394.863281 339.691406 396.664062 335.863281 400.652344 C 333.53125 403.078125 337.949219 403.175781 338.851562 404.800781 C 339.957031 406.789062 340.480469 404.34375 340.566406 403.476562 C 340.902344 400.035156 343.421875 401.023438 345.429688 400.90625 C 348.175781 400.746094 347.90625 402.714844 348.269531 404.546875 C 351.433594 420.5 346.769531 434.515625 338.222656 447.808594 C 333.09375 455.785156 328.453125 463.445312 317.699219 465.304688 C 311.503906 466.375 309.949219 474.066406 305.351562 477.964844 C 301.191406 481.492188 297.613281 482.457031 291.984375 480.894531 C 282.984375 478.394531 274.082031 483.09375 264.964844 483.675781 C 258.890625 484.0625 253.046875 483.640625 247.1875 482.898438 C 239.773438 481.960938 232.710938 480.59375 225.222656 483.738281 C 218.113281 486.722656 206.253906 479.4375 202.125 472.5625 C 200.367188 469.640625 198.636719 465.519531 193.652344 464.347656 C 187.46875 462.890625 182 459.390625 183.5 451.902344 C 177.308594 452.589844 170.878906 456.996094 166.671875 448.363281 C 163.234375 441.3125 159.992188 434.199219 159.777344 426.179688 C 159.675781 422.425781 157.835938 423.3125 155.753906 424.402344 "/>
<path style=" stroke:none;fill-rule:nonzero;fill:rgb(91.372681%,91.215515%,91.255188%);fill-opacity:1;" d="M 321.980469 591.714844 C 311.109375 590.234375 304.445312 598.363281 298.863281 607.191406 C 297.617188 609.160156 299.578125 613.78125 301.066406 616.667969 C 302.324219 619.101562 304.816406 619.066406 307.703125 617.554688 C 310.082031 616.304688 312.328125 613.757812 316.015625 615.277344 C 322.488281 617.945312 328.882812 619.558594 325.441406 608.273438 C 325.246094 607.628906 326.867188 606.585938 327.222656 605.582031 C 328.449219 602.097656 331.25 598.773438 329.804688 594.902344 C 328.863281 592.382812 326.503906 590.753906 321.980469 591.714844 M 219.773438 542.488281 C 210.734375 550.992188 205.429688 562.597656 196.023438 570.871094 C 192.148438 574.277344 190.5 573.363281 190.097656 569.003906 C 189.1875 559.109375 188.691406 549.175781 188.023438 539.257812 C 188.59375 537.054688 189.292969 534.832031 187.070312 533.054688 C 187.054688 532.125 187.039062 531.191406 187.023438 530.257812 C 187.566406 527.742188 188.441406 525.183594 186.070312 523.054688 C 186.054688 522.125 186.039062 521.191406 186.023438 520.257812 C 186.59375 518.054688 187.292969 515.832031 185.070312 514.054688 C 185.054688 512.789062 185.039062 511.523438 185.023438 510.257812 C 185.617188 504.25 187.265625 498.066406 182.070312 493.050781 C 182.070312 492.238281 182.070312 491.421875 182.070312 490.605469 C 186.921875 484.976562 192.652344 482.699219 199.835938 485.9375 C 199.835938 485.9375 199.988281 486.050781 199.984375 486.050781 C 199.613281 492.882812 205.433594 496.390625 208.792969 500.835938 C 213.367188 506.886719 217.503906 514.578125 226.855469 514.933594 C 226.933594 515.269531 227.007812 515.605469 227.085938 515.945312 C 227.261719 518.300781 228.359375 519.5 230.855469 518.933594 C 231.226562 519.304688 231.597656 519.679688 231.96875 520.054688 C 232.78125 521.578125 233.4375 523.207031 234.425781 524.605469 C 242.046875 535.363281 254.4375 533.941406 265.242188 536.578125 C 265.613281 536.941406 265.984375 537.308594 266.355469 537.671875 C 267.183594 538.09375 268.007812 538.515625 268.835938 538.933594 C 268.835938 538.933594 268.917969 539.015625 268.917969 539.019531 C 272.082031 544.613281 277.058594 542.097656 281.53125 541.839844 C 282.785156 541.832031 284.039062 541.828125 285.289062 541.824219 C 287.578125 542.210938 290.042969 543.179688 291.257812 540.015625 C 291.257812 540.015625 291.332031 539.925781 291.332031 539.925781 C 297.488281 540.207031 300.972656 535.875 305.042969 532.292969 C 309.65625 528.242188 314.183594 523.59375 319.613281 521.085938 C 328.996094 516.757812 339.042969 513.800781 349.570312 513.4375 C 356.894531 513.183594 364.269531 512.707031 371.496094 513.496094 C 372.421875 513.597656 372.578125 520.746094 373.09375 524.632812 C 367.921875 540.859375 363.015625 557.179688 357.53125 573.300781 C 343.929688 613.28125 330.140625 653.199219 316.238281 693.078125 C 312.707031 703.210938 308.503906 713.117188 304.507812 723.085938 C 304.0625 724.195312 302.964844 725.039062 302.167969 726.007812 C 301.570312 724.867188 300.871094 723.773438 300.394531 722.589844 C 296.007812 711.664062 301.5625 698.601562 295.597656 689.011719 C 290.28125 680.46875 291.328125 671.964844 289.261719 663.484375 C 286.214844 650.996094 280.390625 639.027344 278.878906 626.207031 C 277.265625 612.507812 278.980469 598.949219 289.710938 588.464844 C 294.90625 583.386719 298.089844 576.5625 304.617188 572.546875 C 307.777344 570.605469 303.980469 568.945312 302.773438 567.738281 C 299.199219 564.15625 293.824219 562.722656 291.035156 558.125 C 306.816406 567.847656 322.679688 577.449219 338.351562 587.347656 C 346.253906 592.335938 351.644531 593.863281 349.707031 581.1875 C 349.589844 580.414062 349.859375 579.53125 350.121094 578.757812 C 355.207031 563.722656 351.28125 557.339844 335.554688 554.167969 C 329.300781 552.902344 322.511719 553.441406 317.550781 547.261719 C 315.746094 545.011719 310.351562 543.710938 306.851562 548.246094 C 303.902344 552.0625 300.503906 552.835938 296.480469 548.597656 C 292.148438 544.03125 285.742188 545.539062 281.945312 548.195312 C 280.042969 549.523438 285.851562 553.097656 288.503906 555.371094 C 289.351562 556.097656 290.023438 557.027344 290.777344 557.867188 C 289.84375 557.5625 288.597656 557.542969 288.019531 556.910156 C 277.925781 545.8125 264.460938 547.15625 251.4375 546.886719 C 247.671875 546.808594 244.257812 545.667969 241.160156 543.625 C 240.066406 542.90625 238.980469 541.902344 239.882812 540.332031 C 240.492188 539.273438 243.871094 539.632812 242.03125 537.644531 C 240.566406 536.058594 238.222656 534.164062 235.382812 535.378906 C 230.378906 537.511719 225.394531 539.695312 220.402344 541.859375 C 237.722656 533.726562 227.710938 527.867188 218.765625 521.878906 C 218.253906 521.535156 217.863281 520.867188 217.632812 520.265625 C 216.453125 517.199219 212.75 516.179688 211.269531 517.066406 C 206.640625 519.84375 208.109375 515.453125 206.910156 513.707031 C 206.15625 515.515625 205.808594 517.230469 204.859375 518.492188 C 197.265625 528.59375 201.320312 539.832031 204.722656 549.105469 C 206.128906 552.9375 213.582031 542.835938 219.773438 542.488281 "/>
<path style=" stroke:none;fill-rule:nonzero;fill:rgb(91.372681%,91.215515%,91.255188%);fill-opacity:1;" d="M 231.242188 582.570312 C 236.480469 592.992188 241.097656 603.628906 242.652344 615.335938 C 239.085938 615.117188 239.875 612.363281 239.535156 610.15625 C 239.039062 606.910156 238.675781 601.851562 235.734375 601.839844 C 233.042969 601.824219 235.835938 606.269531 235.410156 608.703125 C 235.246094 609.652344 234.734375 610.535156 234.464844 611.472656 C 231.828125 620.667969 232.398438 629.964844 232.964844 639.980469 C 239.414062 634.671875 238.453125 626.53125 242.996094 621.261719 C 249.136719 629.363281 239.855469 632.742188 237.554688 638.097656 C 232.894531 648.957031 227.308594 659.421875 222.101562 670.050781 C 221.765625 670.910156 221.429688 671.769531 221.09375 672.628906 C 220.808594 673.109375 220.523438 673.589844 220.242188 674.074219 C 216.953125 674.539062 213.78125 676.5625 212.367188 670.679688 C 205.921875 643.859375 203.835938 616.519531 201.625 589.167969 C 200.617188 576.738281 208.878906 565.332031 218.402344 565.175781 C 225.125 565.066406 222.5625 572.578125 226.890625 573.996094 C 226.890625 573.996094 226.976562 574.078125 226.976562 574.078125 C 227.398438 574.90625 227.816406 575.734375 228.238281 576.5625 C 228.875 577.839844 229.507812 579.121094 230.144531 580.402344 C 230.511719 581.125 230.875 581.847656 231.242188 582.570312 "/>
<path style=" stroke:none;fill-rule:nonzero;fill:rgb(42.370605%,41.322327%,41.583252%);fill-opacity:1;" d="M 373.09375 524.632812 C 372.578125 520.746094 372.421875 513.597656 371.496094 513.496094 C 364.269531 512.703125 356.894531 513.1875 349.570312 513.4375 C 339.042969 513.800781 328.996094 516.757812 319.613281 521.085938 C 314.183594 523.59375 309.65625 528.242188 305.042969 532.292969 C 300.972656 535.875 297.488281 540.207031 291.332031 539.925781 C 307.152344 522.496094 322.71875 505.558594 345.320312 495.449219 C 367.273438 485.628906 380.039062 465.898438 387.96875 443.113281 C 390.988281 434.429688 396.035156 426.449219 400.257812 418.199219 C 400.703125 417.332031 401.84375 416.820312 402.660156 416.140625 C 403.132812 417.472656 404.128906 418.855469 404.003906 420.128906 C 402.175781 438.613281 396.371094 456.023438 389.644531 473.207031 C 388.597656 475.886719 385.710938 473.476562 384.179688 477.019531 C 378.402344 490.363281 383.992188 505.476562 376.78125 518.421875 C 375.609375 520.53125 375.097656 523 373.09375 524.632812 "/>
<path style=" stroke:none;fill-rule:nonzero;fill:rgb(42.370605%,41.322327%,41.583252%);fill-opacity:1;" d="M 226.890625 573.996094 C 222.5625 572.578125 225.125 565.066406 218.402344 565.175781 C 208.878906 565.332031 200.617188 576.738281 201.625 589.167969 C 203.835938 616.519531 205.917969 643.859375 212.367188 670.679688 C 213.78125 676.5625 216.953125 674.539062 220.242188 674.074219 C 219.597656 680.707031 216.292969 686.402344 213.003906 691.84375 C 210.769531 695.546875 209.746094 690.890625 209.609375 689.988281 C 207.777344 677.917969 206.003906 665.835938 204.652344 653.707031 C 202.234375 632.003906 200.242188 610.257812 197.792969 588.5625 C 196.730469 579.132812 208.953125 561.046875 218.5625 559.214844 C 222.925781 558.382812 222.785156 563.148438 224.21875 565.496094 C 225.722656 567.957031 226.050781 571.132812 226.890625 573.996094 "/>
<path style=" stroke:none;fill-rule:nonzero;fill:rgb(99.568176%,99.560547%,99.563599%);fill-opacity:1;" d="M 219.773438 542.488281 C 213.582031 542.835938 206.128906 552.9375 204.722656 549.105469 C 201.320312 539.832031 197.265625 528.59375 204.859375 518.492188 C 205.808594 517.230469 206.15625 515.515625 206.910156 513.707031 C 208.113281 515.453125 206.640625 519.84375 211.269531 517.066406 C 212.75 516.179688 216.449219 517.203125 217.632812 520.265625 C 217.863281 520.867188 218.253906 521.535156 218.765625 521.878906 C 227.710938 527.867188 237.722656 533.726562 220.402344 541.859375 C 220.242188 542.117188 220.03125 542.328125 219.773438 542.488281 "/>
<path style=" stroke:none;fill-rule:nonzero;fill:rgb(42.370605%,41.322327%,41.583252%);fill-opacity:1;" d="M 318.945312 265.363281 C 322.019531 265.261719 325.113281 266.429688 325.921875 269.109375 C 326.855469 272.214844 322.996094 272.691406 321.085938 273.796875 C 315.523438 277.007812 308.363281 276.207031 303.1875 280.71875 C 302.1875 281.589844 300.371094 281.386719 299.960938 279.695312 C 299.378906 277.277344 298.742188 274.34375 300.875 272.632812 C 306.101562 268.433594 312.1875 265.96875 318.945312 265.363281 "/>
<path style=" stroke:none;fill-rule:nonzero;fill:rgb(99.568176%,99.560547%,99.563599%);fill-opacity:1;" d="M 242.996094 621.261719 C 238.453125 626.53125 239.414062 634.671875 232.964844 639.980469 C 232.398438 629.964844 231.828125 620.667969 234.464844 611.472656 C 234.734375 610.535156 235.242188 609.652344 235.410156 608.703125 C 235.835938 606.269531 233.039062 601.828125 235.734375 601.839844 C 238.679688 601.851562 239.039062 606.910156 239.535156 610.15625 C 239.875 612.363281 239.085938 615.117188 242.652344 615.335938 C 242.765625 617.3125 242.882812 619.289062 242.996094 621.261719 "/>
<path style=" stroke:none;fill-rule:nonzero;fill:rgb(91.372681%,91.215515%,91.255188%);fill-opacity:1;" d="M 120.652344 181.335938 C 121.4375 165.996094 123.734375 150.90625 127.859375 136.089844 C 131.285156 123.796875 134.441406 111.429688 138.082031 99.199219 C 138.726562 97.035156 139.15625 93.695312 142.753906 93.503906 C 135.714844 117.824219 126.558594 141.59375 124.023438 167.085938 C 123.542969 171.898438 121.808594 176.589844 120.652344 181.335938 "/>
<path style=" stroke:none;fill-rule:nonzero;fill:rgb(42.370605%,41.322327%,41.583252%);fill-opacity:1;" d="M 226.855469 514.933594 C 217.503906 514.578125 213.367188 506.886719 208.792969 500.835938 C 205.433594 496.390625 199.613281 492.878906 199.984375 486.050781 C 209.75 494.925781 219.414062 503.894531 226.855469 514.933594 "/>
<path style=" stroke:none;fill-rule:nonzero;fill:rgb(91.372681%,91.215515%,91.255188%);fill-opacity:1;" d="M 457.046875 215.132812 C 465.941406 227.003906 460.027344 238.652344 456.519531 250.339844 C 457.347656 238.613281 458.808594 226.898438 457.046875 215.132812 "/>
<path style=" stroke:none;fill-rule:nonzero;fill:rgb(91.372681%,91.215515%,91.255188%);fill-opacity:1;" d="M 441.414062 342.128906 C 439.910156 352.03125 436.242188 361.121094 430.722656 369.425781 C 429.28125 371.59375 427.222656 373.496094 424.085938 372.65625 C 431.40625 365.597656 436.027344 357.082031 437.984375 347.09375 C 438.398438 344.988281 438.210938 342.359375 441.414062 342.128906 "/>
<path style=" stroke:none;fill-rule:nonzero;fill:rgb(42.370605%,41.322327%,41.583252%);fill-opacity:1;" d="M 265.242188 536.578125 C 254.4375 533.941406 242.046875 535.363281 234.425781 524.605469 C 233.4375 523.207031 232.777344 521.578125 231.96875 520.054688 C 241.054688 527.285156 250.351562 533.964844 262.832031 533.46875 C 264.507812 533.402344 265.433594 534.761719 265.242188 536.578125 "/>
<path style=" stroke:none;fill-rule:nonzero;fill:rgb(91.372681%,91.215515%,91.255188%);fill-opacity:1;" d="M 458.332031 310.046875 C 455.570312 321.058594 445.683594 328.003906 442.058594 338.527344 C 443.769531 326.910156 450.316406 318.058594 458.332031 310.046875 "/>
<path style=" stroke:none;fill-rule:nonzero;fill:rgb(42.370605%,41.322327%,41.583252%);fill-opacity:1;" d="M 199.835938 485.9375 C 192.652344 482.699219 186.921875 484.976562 182.070312 490.605469 C 181.507812 486.800781 178.613281 482.195312 181.769531 479.511719 C 183.300781 478.210938 188.332031 480.753906 191.652344 481.921875 C 194.507812 482.929688 197.925781 482.953125 199.835938 485.9375 "/>
<path style=" stroke:none;fill-rule:nonzero;fill:rgb(91.372681%,91.215515%,91.255188%);fill-opacity:1;" d="M 456.519531 256.320312 C 460.890625 268.078125 459.839844 280.183594 458.847656 292.285156 C 458.074219 280.296875 457.296875 268.308594 456.519531 256.320312 "/>
<path style=" stroke:none;fill-rule:nonzero;fill:rgb(42.370605%,41.322327%,41.583252%);fill-opacity:1;" d="M 182.070312 493.050781 C 187.265625 498.066406 185.617188 504.25 185.023438 510.253906 C 182.339844 504.8125 182.1875 498.933594 182.070312 493.050781 "/>
<path style=" stroke:none;fill-rule:nonzero;fill:rgb(42.370605%,41.322327%,41.583252%);fill-opacity:1;" d="M 281.53125 541.839844 C 277.058594 542.097656 272.082031 544.613281 268.917969 539.019531 C 273.121094 539.957031 277.328125 540.898438 281.53125 541.839844 "/>
<path style=" stroke:none;fill-rule:nonzero;fill:rgb(91.372681%,91.215515%,91.255188%);fill-opacity:1;" d="M 458.914062 296.1875 C 462.402344 300.355469 459.28125 304.308594 458.519531 308.339844 C 458.652344 304.289062 458.78125 300.238281 458.914062 296.1875 "/>
<path style=" stroke:none;fill-rule:nonzero;fill:rgb(91.372681%,91.215515%,91.255188%);fill-opacity:1;" d="M 417.757812 371.152344 C 414.996094 372.574219 415.253906 375.125 415.332031 377.613281 C 412.960938 375.332031 413.972656 372.902344 415.28125 370.699219 C 416.03125 369.445312 417.15625 369.726562 417.757812 371.152344 "/>
<path style=" stroke:none;fill-rule:nonzero;fill:rgb(42.370605%,41.322327%,41.583252%);fill-opacity:1;" d="M 186.070312 523.054688 C 188.441406 525.1875 187.566406 527.742188 187.023438 530.257812 C 184.769531 528.113281 185.6875 525.546875 186.070312 523.054688 "/>
<path style=" stroke:none;fill-rule:nonzero;fill:rgb(42.370605%,41.322327%,41.583252%);fill-opacity:1;" d="M 155.9375 432.609375 C 156.125 430.535156 156.308594 428.464844 156.492188 426.390625 C 159.582031 428.753906 159.984375 430.882812 155.9375 432.609375 "/>
<path style=" stroke:none;fill-rule:nonzero;fill:rgb(42.370605%,41.322327%,41.583252%);fill-opacity:1;" d="M 185.070312 514.054688 C 187.292969 515.832031 186.59375 518.054688 186.023438 520.257812 C 183.9375 518.460938 184.660156 516.234375 185.070312 514.054688 "/>
<path style=" stroke:none;fill-rule:nonzero;fill:rgb(42.370605%,41.322327%,41.583252%);fill-opacity:1;" d="M 187.070312 533.054688 C 189.292969 534.832031 188.59375 537.054688 188.023438 539.257812 C 185.9375 537.460938 186.660156 535.234375 187.070312 533.054688 "/>
<path style=" stroke:none;fill-rule:nonzero;fill:rgb(42.370605%,41.322327%,41.583252%);fill-opacity:1;" d="M 291.257812 540.015625 C 290.046875 543.179688 287.578125 542.210938 285.289062 541.824219 C 287.277344 541.21875 289.269531 540.617188 291.257812 540.015625 "/>
<path style=" stroke:none;fill-rule:nonzero;fill:rgb(42.370605%,41.322327%,41.583252%);fill-opacity:1;" d="M 230.855469 518.933594 C 228.359375 519.5 227.261719 518.300781 227.085938 515.945312 C 228.34375 516.941406 229.597656 517.9375 230.855469 518.933594 "/>
<path style=" stroke:none;fill-rule:nonzero;fill:rgb(91.372681%,91.215515%,91.255188%);fill-opacity:1;" d="M 118.613281 194.363281 C 119.089844 192.652344 119.570312 190.9375 120.050781 189.222656 C 119.78125 190.996094 121.082031 193.207031 118.613281 194.363281 "/>
<path style=" stroke:none;fill-rule:nonzero;fill:rgb(91.372681%,91.215515%,91.255188%);fill-opacity:1;" d="M 142.765625 93.496094 C 142.753906 91.71875 143.582031 90.601562 145.335938 90.207031 C 145.453125 92.066406 144.214844 92.863281 142.765625 93.496094 "/>
<path style=" stroke:none;fill-rule:nonzero;fill:rgb(91.372681%,91.215515%,91.255188%);fill-opacity:1;" d="M 120.320312 187.296875 C 120.433594 186.304688 120.542969 185.3125 120.652344 184.316406 C 120.542969 185.3125 120.433594 186.304688 120.320312 187.296875 "/>
<path style=" stroke:none;fill-rule:nonzero;fill:rgb(42.370605%,41.322327%,41.583252%);fill-opacity:1;" d="M 268.835938 538.933594 C 268.007812 538.515625 267.183594 538.09375 266.355469 537.671875 C 267.183594 538.09375 268.007812 538.515625 268.835938 538.933594 "/>
<path style=" stroke:none;fill-rule:nonzero;fill:rgb(42.370605%,41.322327%,41.583252%);fill-opacity:1;" d="M 228.238281 576.558594 C 227.820312 575.734375 227.398438 574.90625 226.976562 574.078125 C 227.398438 574.90625 227.820312 575.734375 228.238281 576.558594 "/>
<path style=" stroke:none;fill-rule:nonzero;fill:rgb(42.370605%,41.322327%,41.583252%);fill-opacity:1;" d="M 231.242188 582.570312 C 230.875 581.847656 230.511719 581.125 230.144531 580.402344 C 230.507812 581.125 230.875 581.847656 231.242188 582.570312 "/>
<path style=" stroke:none;fill-rule:nonzero;fill:rgb(42.370605%,41.322327%,41.583252%);fill-opacity:1;" d="M 221.09375 672.628906 C 221.429688 671.769531 221.765625 670.910156 222.101562 670.050781 C 221.765625 670.910156 221.429688 671.769531 221.09375 672.628906 "/>
<path style=" stroke:none;fill-rule:nonzero;fill:rgb(91.372681%,91.215515%,91.255188%);fill-opacity:1;" d="M 514 133.640625 C 513.738281 134.039062 513.476562 134.433594 513.214844 134.832031 C 513.320312 134.316406 513.421875 133.800781 513.527344 133.289062 C 513.683594 133.40625 513.839844 133.527344 514 133.640625 "/>
<path style=" stroke:none;fill-rule:nonzero;fill:rgb(91.372681%,91.215515%,91.255188%);fill-opacity:1;" d="M 254.179688 202.945312 C 255.585938 195.5625 249.828125 192.832031 248.90625 193.222656 C 243.507812 195.5 236.78125 193.382812 232.429688 197.796875 C 231.09375 199.152344 233.394531 200.472656 235.476562 200.925781 C 238.105469 201.496094 240.894531 200.476562 243.371094 203.761719 C 245.097656 206.050781 250.136719 205.71875 253.554688 204.148438 C 254.460938 203.734375 254.667969 201.792969 254.179688 202.945312 M 267.757812 213.453125 C 267.367188 216.304688 266.722656 219.152344 266.644531 222.015625 C 266.429688 229.84375 260.777344 233.75 255.484375 237.929688 C 254.730469 238.527344 254.246094 237.53125 252.9375 231.820312 C 250.394531 227.890625 252.171875 247.417969 247.539062 232.421875 C 243.902344 237.1875 240.945312 243.253906 235.820312 232.898438 C 233.789062 228.796875 226.449219 227.527344 227.882812 220.53125 C 227.691406 222.222656 227.933594 224.160156 227.160156 225.523438 C 226.660156 226.414062 228.398438 231.226562 223.664062 227.980469 C 221.351562 226.394531 222.535156 231.402344 220.660156 232.453125 C 217.6875 227.976562 213.503906 224.984375 208.664062 222.691406 C 204.511719 220.726562 204.144531 217.375 205.90625 213.503906 C 206.746094 211.664062 206.625 209.890625 205.199219 208.421875 C 204.871094 208.089844 203.515625 208.152344 203.503906 208.207031 C 203.1875 209.78125 202.734375 211.394531 202.824219 212.972656 C 202.9375 214.890625 204.273438 216.855469 202.488281 218.59375 C 202.148438 218.925781 201.089844 219.074219 200.804688 218.816406 C 198.75 216.96875 200.28125 214.828125 200.398438 212.761719 C 200.5625 209.785156 200.113281 206.730469 200.617188 203.832031 C 200.929688 202.042969 198.59375 197.246094 204.21875 199.195312 C 204.285156 199.21875 205.515625 196.675781 205.320312 196.53125 C 196.953125 190.429688 204.636719 181.878906 201.871094 174.632812 C 197.628906 163.53125 203.917969 162.425781 213.898438 161.132812 C 220.3125 160.304688 230.40625 159.191406 233.234375 149.425781 C 235.933594 151.59375 232.886719 155.699219 236.203125 156.363281 C 236.96875 156.519531 241.976562 154.023438 239.429688 149.996094 C 244.53125 151.542969 247.546875 140.351562 252.898438 147.195312 C 256.75 152.113281 264.738281 149.003906 266.957031 155.742188 C 266.996094 155.859375 267.355469 155.898438 267.363281 155.992188 C 268.191406 166.214844 273.089844 167.945312 281.386719 162.78125 C 281.4375 162.75 282.433594 163.777344 282.550781 164.394531 C 284.257812 173.574219 286.035156 182.746094 287.453125 191.972656 C 287.875 194.707031 288.523438 198.460938 283.339844 197.78125 C 282.707031 197.699219 281.207031 199.023438 281.285156 199.503906 C 282.605469 207.554688 272.976562 212.625 275.496094 221.035156 C 275.882812 222.320312 276.308594 225.230469 274.242188 225.171875 C 271.835938 225.101562 272.582031 222.296875 272.710938 220.636719 C 272.9375 217.78125 273.558594 214.960938 274.339844 210.066406 C 270.34375 214.972656 271.492188 218.863281 270.996094 222.347656 C 270.785156 223.835938 272.015625 226.257812 269.394531 225.992188 C 267.382812 225.789062 267.886719 223.59375 268.117188 221.851562 C 268.480469 219.101562 268.441406 216.304688 268.570312 213.523438 C 268.300781 213.5 268.027344 213.476562 267.757812 213.453125 "/>
<path style=" stroke:none;fill-rule:nonzero;fill:rgb(13.729858%,12.159729%,12.548828%);fill-opacity:1;" d="M 167.828125 254.84375 C 163.359375 253.535156 160.304688 256.703125 158.132812 259.34375 C 156.878906 260.863281 157.40625 265.273438 158.777344 267.226562 C 161.214844 270.703125 164.84375 268.53125 168.300781 267.75 C 174.0625 266.453125 180.039062 266.09375 185.933594 265.429688 C 186.496094 265.367188 187.679688 266.042969 187.648438 266.1875 C 186.261719 273.0625 192.589844 270.769531 193.734375 269.917969 C 201.296875 264.28125 207.230469 270.460938 213.726562 272.042969 C 215.9375 272.578125 218.078125 275.464844 220.105469 272.105469 C 221.917969 269.117188 219.703125 266.839844 217.734375 265.3125 C 215.445312 263.539062 212.65625 261.851562 209.871094 261.375 C 195.914062 258.976562 181.882812 256.984375 167.828125 254.84375 M 148.691406 244.921875 C 149.457031 249.644531 149.738281 251.386719 150.371094 255.300781 C 151.585938 250.535156 152.277344 247.816406 153.828125 241.722656 C 154.367188 248.660156 154.648438 252.265625 155.027344 257.144531 C 158.289062 251.574219 154.257812 245.050781 159.753906 241.550781 C 160.183594 242.488281 160.609375 243.425781 160.839844 243.929688 C 164.316406 242.5625 166.945312 235.308594 170.769531 244.910156 C 172.117188 248.289062 180.480469 249.257812 185.882812 246.640625 C 195.042969 242.199219 204.015625 244.851562 211.015625 249.882812 C 218.226562 255.066406 225.847656 258.265625 233.945312 261.027344 C 237.765625 262.328125 240.804688 265.0625 241.292969 268.6875 C 241.984375 273.871094 239.875 283.214844 238.015625 283.085938 C 228.972656 282.457031 220.167969 288.441406 211.292969 284.09375 C 208.464844 282.710938 206.957031 282.984375 204.5625 285.332031 C 199.9375 289.867188 193.925781 291.847656 187.554688 289.585938 C 182.234375 287.695312 179.238281 283.757812 180.121094 277.613281 C 180.304688 276.324219 179.667969 274.691406 177.925781 274.984375 C 175.882812 275.332031 173.8125 276.546875 173.878906 278.800781 C 174.09375 285.839844 167.128906 281.296875 165.066406 284.492188 C 162.921875 283.066406 157.96875 284.226562 160.0625 278.863281 C 160.539062 277.648438 159.484375 276.574219 158.039062 276.730469 C 142.765625 278.378906 145.667969 267.375 145.785156 258.738281 C 145.835938 255.074219 147.265625 251.421875 148.691406 244.921875 "/>
<path style=" stroke:none;fill-rule:nonzero;fill:rgb(13.729858%,12.159729%,12.548828%);fill-opacity:1;" d="M 169.660156 406.257812 C 168.851562 404.128906 168.390625 402.910156 167.554688 400.714844 C 165.757812 406.398438 167.5625 411.660156 163.730469 417.738281 C 163.730469 410.074219 165.769531 402.945312 163.234375 398.324219 C 159.734375 391.9375 164.085938 388.886719 166.839844 388.507812 C 187.621094 385.632812 193.378906 366.839844 204.757812 354.039062 C 208.601562 349.71875 212.613281 345.550781 216.644531 341.40625 C 217.113281 340.925781 218.210938 341.066406 219.015625 340.917969 C 218.929688 343.164062 219.71875 346.050781 218.621094 347.566406 C 207.683594 362.664062 200.574219 379.71875 192.804688 396.46875 C 190.304688 401.855469 184.300781 402.378906 179.730469 401.105469 C 174.527344 399.65625 171.503906 399.996094 169.660156 406.257812 "/>
<path style=" stroke:none;fill-rule:nonzero;fill:rgb(91.372681%,91.215515%,91.255188%);fill-opacity:1;" d="M 192.582031 344.578125 C 191.636719 346.582031 190.421875 349.847656 190.082031 349.761719 C 187.046875 348.96875 189.714844 345.59375 187.847656 343.992188 C 187.574219 344.042969 187.15625 344.011719 187.035156 344.1875 C 185.445312 346.460938 187.855469 352.09375 185.003906 351.222656 C 181.96875 350.296875 183.257812 344.671875 184.3125 341.289062 C 184.765625 339.84375 182.425781 333.945312 188.757812 337.324219 C 190.574219 338.292969 195.714844 335.910156 197.421875 333.628906 C 201.710938 327.898438 207.5625 331.464844 209.035156 333.5 C 212.074219 337.695312 206.605469 341.117188 203.9375 343.617188 C 201.296875 346.09375 197.074219 351.398438 192.582031 344.578125 "/>
<path style=" stroke:none;fill-rule:nonzero;fill:rgb(91.372681%,91.215515%,91.255188%);fill-opacity:1;" d="M 239.648438 349.785156 C 238.128906 345.195312 243.386719 342.023438 242.847656 337.347656 C 242.816406 337.046875 243.710938 336.644531 244.171875 336.285156 C 244.601562 336.9375 245.253906 337.53125 245.429688 338.242188 C 246.371094 342.125 242.320312 348.167969 250.175781 349.011719 C 249.964844 350.914062 250.421875 353.382812 249.394531 354.59375 C 247.675781 356.613281 245.144531 358.738281 242.703125 359.101562 C 240.691406 359.402344 239.902344 356.25 239.671875 354.050781 C 239.535156 352.738281 239.648438 351.394531 239.648438 349.785156 "/>
<path style=" stroke:none;fill-rule:nonzero;fill:rgb(13.729858%,12.159729%,12.548828%);fill-opacity:1;" d="M 222.683594 431.445312 C 222.273438 433.796875 231.753906 429.457031 229.316406 436.027344 C 231.546875 435.972656 230.753906 430.847656 232.746094 433.492188 C 235.5 437.148438 244.324219 434.117188 242.28125 441.832031 C 241.316406 445.480469 237.675781 442.6875 235.511719 442.203125 C 228.363281 440.59375 225.753906 434.207031 222.683594 431.445312 "/>
<path style=" stroke:none;fill-rule:nonzero;fill:rgb(13.729858%,12.159729%,12.548828%);fill-opacity:1;" d="M 320.792969 395.664062 C 320.113281 393.632812 319.742188 393.070312 319.824219 392.585938 C 319.882812 392.234375 320.542969 391.980469 320.933594 391.683594 C 321.144531 392.222656 321.46875 392.75 321.527344 393.304688 C 321.570312 393.726562 321.277344 394.183594 320.792969 395.664062 "/>
<path style=" stroke:none;fill-rule:nonzero;fill:rgb(99.568176%,99.560547%,99.563599%);fill-opacity:1;" d="M 290.777344 557.867188 C 290.023438 557.027344 289.351562 556.097656 288.503906 555.371094 C 285.851562 553.097656 280.042969 549.527344 281.945312 548.195312 C 285.742188 545.539062 292.148438 544.03125 296.480469 548.597656 C 300.503906 552.835938 303.902344 552.066406 306.851562 548.246094 C 310.351562 543.710938 315.746094 545.011719 317.550781 547.261719 C 322.515625 553.441406 329.300781 552.902344 335.554688 554.167969 C 351.277344 557.339844 355.207031 563.722656 350.121094 578.757812 C 349.859375 579.53125 349.589844 580.414062 349.707031 581.1875 C 351.644531 593.863281 346.253906 592.335938 338.351562 587.347656 C 322.679688 577.449219 306.820312 567.847656 291.035156 558.125 Z M 290.777344 557.867188 "/>
<path style=" stroke:none;fill-rule:nonzero;fill:rgb(99.568176%,99.560547%,99.563599%);fill-opacity:1;" d="M 321.980469 591.714844 C 326.503906 590.753906 328.863281 592.382812 329.804688 594.902344 C 331.25 598.773438 328.449219 602.097656 327.222656 605.582031 C 326.867188 606.585938 325.246094 607.628906 325.441406 608.273438 C 328.882812 619.558594 322.488281 617.945312 316.015625 615.277344 C 312.328125 613.757812 310.082031 616.304688 307.703125 617.554688 C 304.816406 619.066406 302.324219 619.101562 301.066406 616.667969 C 299.578125 613.78125 297.617188 609.160156 298.863281 607.191406 C 304.445312 598.363281 311.109375 590.234375 321.980469 591.714844 "/>
<path style=" stroke:none;fill-rule:nonzero;fill:rgb(74.119568%,73.648071%,73.765564%);fill-opacity:1;" d="M 254.179688 202.945312 C 254.667969 201.792969 254.460938 203.734375 253.554688 204.148438 C 250.136719 205.71875 245.097656 206.050781 243.371094 203.761719 C 240.894531 200.476562 238.105469 201.496094 235.476562 200.925781 C 233.394531 200.472656 231.09375 199.152344 232.429688 197.796875 C 236.78125 193.382812 243.507812 195.5 248.90625 193.222656 C 249.828125 192.832031 255.585938 195.5625 254.179688 202.945312 "/>
<path style=" stroke:none;fill-rule:nonzero;fill:rgb(42.370605%,41.322327%,41.583252%);fill-opacity:1;" d="M 167.828125 254.84375 C 181.882812 256.984375 195.914062 258.976562 209.871094 261.375 C 212.65625 261.851562 215.445312 263.539062 217.734375 265.3125 C 219.703125 266.839844 221.917969 269.117188 220.105469 272.105469 C 218.078125 275.464844 215.9375 272.578125 213.726562 272.042969 C 207.230469 270.460938 201.296875 264.28125 193.734375 269.917969 C 192.589844 270.769531 186.261719 273.0625 187.648438 266.1875 C 187.679688 266.042969 186.496094 265.367188 185.933594 265.429688 C 180.039062 266.09375 174.0625 266.453125 168.300781 267.75 C 164.84375 268.53125 161.214844 270.703125 158.777344 267.226562 C 157.40625 265.273438 156.878906 260.863281 158.132812 259.34375 C 160.304688 256.703125 163.359375 253.535156 167.828125 254.84375 "/>
</g>
</svg>
