<?xml version="1.0" encoding="UTF-8"?>
<svg xmlns="http://www.w3.org/2000/svg" xmlns:xlink="http://www.w3.org/1999/xlink" width="515.185pt" height="627.191pt" viewBox="0 0 515.185 627.191" version="1.1">
<defs>
<clipPath id="clip1">
  <path d="M 0 0 L 515.183594 0 L 515.183594 627.191406 L 0 627.191406 Z M 0 0 "/>
</clipPath>
<clipPath id="clip2">
  <path d="M 0 17 L 515.183594 17 L 515.183594 627.191406 L 0 627.191406 Z M 0 17 "/>
</clipPath>
<clipPath id="clip3">
  <path d="M 0 0 L 0 13.84375 C 0 196.140625 0 378.441406 0 560.742188 L 0 626.222656 C 0.316406 626.585938 0.753906 626.90625 1.300781 627.191406 L 48.816406 627.191406 C 148.636719 627.191406 248.457031 627.191406 348.277344 627.191406 L 510.238281 627.191406 C 512.527344 626.5 514.277344 625.425781 515.183594 623.8125 L 515.183594 7.757812 C 514.566406 4.8125 516.046875 1.554688 514.269531 0 Z M 0 0 "/>
</clipPath>
<clipPath id="clip4">
  <path d="M 237 89 L 515.183594 89 L 515.183594 627.191406 L 237 627.191406 Z M 237 89 "/>
</clipPath>
<clipPath id="clip5">
  <path d="M 0 0 L 0 13.84375 C 0 196.140625 0 378.441406 0 560.742188 L 0 626.222656 C 0.316406 626.585938 0.753906 626.90625 1.300781 627.191406 L 48.816406 627.191406 C 148.636719 627.191406 248.457031 627.191406 348.277344 627.191406 L 510.238281 627.191406 C 512.527344 626.5 514.277344 625.425781 515.183594 623.8125 L 515.183594 7.757812 C 514.566406 4.8125 516.046875 1.554688 514.269531 0 Z M 0 0 "/>
</clipPath>
<clipPath id="clip6">
  <path d="M 197 493 L 297 493 L 297 627.191406 L 197 627.191406 Z M 197 493 "/>
</clipPath>
<clipPath id="clip7">
  <path d="M 0 0 L 0 13.84375 C 0 196.140625 0 378.441406 0 560.742188 L 0 626.222656 C 0.316406 626.585938 0.753906 626.90625 1.300781 627.191406 L 48.816406 627.191406 C 148.636719 627.191406 248.457031 627.191406 348.277344 627.191406 L 510.238281 627.191406 C 512.527344 626.5 514.277344 625.425781 515.183594 623.8125 L 515.183594 7.757812 C 514.566406 4.8125 516.046875 1.554688 514.269531 0 Z M 0 0 "/>
</clipPath>
<clipPath id="clip8">
  <path d="M 155 431 L 345 431 L 345 627.191406 L 155 627.191406 Z M 155 431 "/>
</clipPath>
<clipPath id="clip9">
  <path d="M 0 0 L 0 13.84375 C 0 196.140625 0 378.441406 0 560.742188 L 0 626.222656 C 0.316406 626.585938 0.753906 626.90625 1.300781 627.191406 L 48.816406 627.191406 C 148.636719 627.191406 248.457031 627.191406 348.277344 627.191406 L 510.238281 627.191406 C 512.527344 626.5 514.277344 625.425781 515.183594 623.8125 L 515.183594 7.757812 C 514.566406 4.8125 516.046875 1.554688 514.269531 0 Z M 0 0 "/>
</clipPath>
<clipPath id="clip10">
  <path d="M 285 443 L 341 443 L 341 627.191406 L 285 627.191406 Z M 285 443 "/>
</clipPath>
<clipPath id="clip11">
  <path d="M 0 0 L 0 13.84375 C 0 196.140625 0 378.441406 0 560.742188 L 0 626.222656 C 0.316406 626.585938 0.753906 626.90625 1.300781 627.191406 L 48.816406 627.191406 C 148.636719 627.191406 248.457031 627.191406 348.277344 627.191406 L 510.238281 627.191406 C 512.527344 626.5 514.277344 625.425781 515.183594 623.8125 L 515.183594 7.757812 C 514.566406 4.8125 516.046875 1.554688 514.269531 0 Z M 0 0 "/>
</clipPath>
<clipPath id="clip12">
  <path d="M 483 537 L 515.183594 537 L 515.183594 627.191406 L 483 627.191406 Z M 483 537 "/>
</clipPath>
<clipPath id="clip13">
  <path d="M 0 0 L 0 13.84375 C 0 196.140625 0 378.441406 0 560.742188 L 0 626.222656 C 0.316406 626.585938 0.753906 626.90625 1.300781 627.191406 L 48.816406 627.191406 C 148.636719 627.191406 248.457031 627.191406 348.277344 627.191406 L 510.238281 627.191406 C 512.527344 626.5 514.277344 625.425781 515.183594 623.8125 L 515.183594 7.757812 C 514.566406 4.8125 516.046875 1.554688 514.269531 0 Z M 0 0 "/>
</clipPath>
<clipPath id="clip14">
  <path d="M 0 577 L 74 577 L 74 627.191406 L 0 627.191406 Z M 0 577 "/>
</clipPath>
<clipPath id="clip15">
  <path d="M 0 0 L 0 13.84375 C 0 196.140625 0 378.441406 0 560.742188 L 0 626.222656 C 0.316406 626.585938 0.753906 626.90625 1.300781 627.191406 L 48.816406 627.191406 C 148.636719 627.191406 248.457031 627.191406 348.277344 627.191406 L 510.238281 627.191406 C 512.527344 626.5 514.277344 625.425781 515.183594 623.8125 L 515.183594 7.757812 C 514.566406 4.8125 516.046875 1.554688 514.269531 0 Z M 0 0 "/>
</clipPath>
<clipPath id="clip16">
  <path d="M 163 369 L 312 369 L 312 463 L 163 463 Z M 163 369 "/>
</clipPath>
<clipPath id="clip17">
  <path d="M 0 0 L 0 13.84375 C 0 196.140625 0 378.441406 0 560.742188 L 0 626.222656 C 0.316406 626.585938 0.753906 626.90625 1.300781 627.191406 L 48.816406 627.191406 C 148.636719 627.191406 248.457031 627.191406 348.277344 627.191406 L 510.238281 627.191406 C 512.527344 626.5 514.277344 625.425781 515.183594 623.8125 L 515.183594 7.757812 C 514.566406 4.8125 516.046875 1.554688 514.269531 0 Z M 0 0 "/>
</clipPath>
<clipPath id="clip18">
  <path d="M 235 169 L 291 169 L 291 221 L 235 221 Z M 235 169 "/>
</clipPath>
<clipPath id="clip19">
  <path d="M 0 0 L 0 13.84375 C 0 196.140625 0 378.441406 0 560.742188 L 0 626.222656 C 0.316406 626.585938 0.753906 626.90625 1.300781 627.191406 L 48.816406 627.191406 C 148.636719 627.191406 248.457031 627.191406 348.277344 627.191406 L 510.238281 627.191406 C 512.527344 626.5 514.277344 625.425781 515.183594 623.8125 L 515.183594 7.757812 C 514.566406 4.8125 516.046875 1.554688 514.269531 0 Z M 0 0 "/>
</clipPath>
<clipPath id="clip20">
  <path d="M 114 68 L 165 68 L 165 115 L 114 115 Z M 114 68 "/>
</clipPath>
<clipPath id="clip21">
  <path d="M 0 0 L 0 13.84375 C 0 196.140625 0 378.441406 0 560.742188 L 0 626.222656 C 0.316406 626.585938 0.753906 626.90625 1.300781 627.191406 L 48.816406 627.191406 C 148.636719 627.191406 248.457031 627.191406 348.277344 627.191406 L 510.238281 627.191406 C 512.527344 626.5 514.277344 625.425781 515.183594 623.8125 L 515.183594 7.757812 C 514.566406 4.8125 516.046875 1.554688 514.269531 0 Z M 0 0 "/>
</clipPath>
<clipPath id="clip22">
  <path d="M 100 122 L 113 122 L 113 153 L 100 153 Z M 100 122 "/>
</clipPath>
<clipPath id="clip23">
  <path d="M 0 0 L 0 13.84375 C 0 196.140625 0 378.441406 0 560.742188 L 0 626.222656 C 0.316406 626.585938 0.753906 626.90625 1.300781 627.191406 L 48.816406 627.191406 C 148.636719 627.191406 248.457031 627.191406 348.277344 627.191406 L 510.238281 627.191406 C 512.527344 626.5 514.277344 625.425781 515.183594 623.8125 L 515.183594 7.757812 C 514.566406 4.8125 516.046875 1.554688 514.269531 0 Z M 0 0 "/>
</clipPath>
<clipPath id="clip24">
  <path d="M 487 409 L 496 409 L 496 431 L 487 431 Z M 487 409 "/>
</clipPath>
<clipPath id="clip25">
  <path d="M 0 0 L 0 13.84375 C 0 196.140625 0 378.441406 0 560.742188 L 0 626.222656 C 0.316406 626.585938 0.753906 626.90625 1.300781 627.191406 L 48.816406 627.191406 C 148.636719 627.191406 248.457031 627.191406 348.277344 627.191406 L 510.238281 627.191406 C 512.527344 626.5 514.277344 625.425781 515.183594 623.8125 L 515.183594 7.757812 C 514.566406 4.8125 516.046875 1.554688 514.269531 0 Z M 0 0 "/>
</clipPath>
<clipPath id="clip26">
  <path d="M 8 210 L 10 210 L 10 213 L 8 213 Z M 8 210 "/>
</clipPath>
<clipPath id="clip27">
  <path d="M 0 0 L 0 13.84375 C 0 196.140625 0 378.441406 0 560.742188 L 0 626.222656 C 0.316406 626.585938 0.753906 626.90625 1.300781 627.191406 L 48.816406 627.191406 C 148.636719 627.191406 248.457031 627.191406 348.277344 627.191406 L 510.238281 627.191406 C 512.527344 626.5 514.277344 625.425781 515.183594 623.8125 L 515.183594 7.757812 C 514.566406 4.8125 516.046875 1.554688 514.269531 0 Z M 0 0 "/>
</clipPath>
<clipPath id="clip28">
  <path d="M 8 364 L 163 364 L 163 557 L 8 557 Z M 8 364 "/>
</clipPath>
<clipPath id="clip29">
  <path d="M 0 0 L 0 13.84375 C 0 196.140625 0 378.441406 0 560.742188 L 0 626.222656 C 0.316406 626.585938 0.753906 626.90625 1.300781 627.191406 L 48.816406 627.191406 C 148.636719 627.191406 248.457031 627.191406 348.277344 627.191406 L 510.238281 627.191406 C 512.527344 626.5 514.277344 625.425781 515.183594 623.8125 L 515.183594 7.757812 C 514.566406 4.8125 516.046875 1.554688 514.269531 0 Z M 0 0 "/>
</clipPath>
<clipPath id="clip30">
  <path d="M 72 245 L 167 245 L 167 344 L 72 344 Z M 72 245 "/>
</clipPath>
<clipPath id="clip31">
  <path d="M 0 0 L 0 13.84375 C 0 196.140625 0 378.441406 0 560.742188 L 0 626.222656 C 0.316406 626.585938 0.753906 626.90625 1.300781 627.191406 L 48.816406 627.191406 C 148.636719 627.191406 248.457031 627.191406 348.277344 627.191406 L 510.238281 627.191406 C 512.527344 626.5 514.277344 625.425781 515.183594 623.8125 L 515.183594 7.757812 C 514.566406 4.8125 516.046875 1.554688 514.269531 0 Z M 0 0 "/>
</clipPath>
<clipPath id="clip32">
  <path d="M 99 179 L 153 179 L 153 241 L 99 241 Z M 99 179 "/>
</clipPath>
<clipPath id="clip33">
  <path d="M 0 0 L 0 13.84375 C 0 196.140625 0 378.441406 0 560.742188 L 0 626.222656 C 0.316406 626.585938 0.753906 626.90625 1.300781 627.191406 L 48.816406 627.191406 C 148.636719 627.191406 248.457031 627.191406 348.277344 627.191406 L 510.238281 627.191406 C 512.527344 626.5 514.277344 625.425781 515.183594 623.8125 L 515.183594 7.757812 C 514.566406 4.8125 516.046875 1.554688 514.269531 0 Z M 0 0 "/>
</clipPath>
<clipPath id="clip34">
  <path d="M 257 23 L 290 23 L 290 43 L 257 43 Z M 257 23 "/>
</clipPath>
<clipPath id="clip35">
  <path d="M 0 0 L 0 13.84375 C 0 196.140625 0 378.441406 0 560.742188 L 0 626.222656 C 0.316406 626.585938 0.753906 626.90625 1.300781 627.191406 L 48.816406 627.191406 C 148.636719 627.191406 248.457031 627.191406 348.277344 627.191406 L 510.238281 627.191406 C 512.527344 626.5 514.277344 625.425781 515.183594 623.8125 L 515.183594 7.757812 C 514.566406 4.8125 516.046875 1.554688 514.269531 0 Z M 0 0 "/>
</clipPath>
<clipPath id="clip36">
  <path d="M 292 42 L 327 42 L 327 66 L 292 66 Z M 292 42 "/>
</clipPath>
<clipPath id="clip37">
  <path d="M 0 0 L 0 13.84375 C 0 196.140625 0 378.441406 0 560.742188 L 0 626.222656 C 0.316406 626.585938 0.753906 626.90625 1.300781 627.191406 L 48.816406 627.191406 C 148.636719 627.191406 248.457031 627.191406 348.277344 627.191406 L 510.238281 627.191406 C 512.527344 626.5 514.277344 625.425781 515.183594 623.8125 L 515.183594 7.757812 C 514.566406 4.8125 516.046875 1.554688 514.269531 0 Z M 0 0 "/>
</clipPath>
<clipPath id="clip38">
  <path d="M 321 199 L 341 199 L 341 213 L 321 213 Z M 321 199 "/>
</clipPath>
<clipPath id="clip39">
  <path d="M 0 0 L 0 13.84375 C 0 196.140625 0 378.441406 0 560.742188 L 0 626.222656 C 0.316406 626.585938 0.753906 626.90625 1.300781 627.191406 L 48.816406 627.191406 C 148.636719 627.191406 248.457031 627.191406 348.277344 627.191406 L 510.238281 627.191406 C 512.527344 626.5 514.277344 625.425781 515.183594 623.8125 L 515.183594 7.757812 C 514.566406 4.8125 516.046875 1.554688 514.269531 0 Z M 0 0 "/>
</clipPath>
<clipPath id="clip40">
  <path d="M 83 233 L 94 233 L 94 250 L 83 250 Z M 83 233 "/>
</clipPath>
<clipPath id="clip41">
  <path d="M 0 0 L 0 13.84375 C 0 196.140625 0 378.441406 0 560.742188 L 0 626.222656 C 0.316406 626.585938 0.753906 626.90625 1.300781 627.191406 L 48.816406 627.191406 C 148.636719 627.191406 248.457031 627.191406 348.277344 627.191406 L 510.238281 627.191406 C 512.527344 626.5 514.277344 625.425781 515.183594 623.8125 L 515.183594 7.757812 C 514.566406 4.8125 516.046875 1.554688 514.269531 0 Z M 0 0 "/>
</clipPath>
<clipPath id="clip42">
  <path d="M 194 453 L 217 453 L 217 465 L 194 465 Z M 194 453 "/>
</clipPath>
<clipPath id="clip43">
  <path d="M 0 0 L 0 13.84375 C 0 196.140625 0 378.441406 0 560.742188 L 0 626.222656 C 0.316406 626.585938 0.753906 626.90625 1.300781 627.191406 L 48.816406 627.191406 C 148.636719 627.191406 248.457031 627.191406 348.277344 627.191406 L 510.238281 627.191406 C 512.527344 626.5 514.277344 625.425781 515.183594 623.8125 L 515.183594 7.757812 C 514.566406 4.8125 516.046875 1.554688 514.269531 0 Z M 0 0 "/>
</clipPath>
<clipPath id="clip44">
  <path d="M 146 549 L 160 549 L 160 566 L 146 566 Z M 146 549 "/>
</clipPath>
<clipPath id="clip45">
  <path d="M 0 0 L 0 13.84375 C 0 196.140625 0 378.441406 0 560.742188 L 0 626.222656 C 0.316406 626.585938 0.753906 626.90625 1.300781 627.191406 L 48.816406 627.191406 C 148.636719 627.191406 248.457031 627.191406 348.277344 627.191406 L 510.238281 627.191406 C 512.527344 626.5 514.277344 625.425781 515.183594 623.8125 L 515.183594 7.757812 C 514.566406 4.8125 516.046875 1.554688 514.269531 0 Z M 0 0 "/>
</clipPath>
<clipPath id="clip46">
  <path d="M 159 439 L 236 439 L 236 604 L 159 604 Z M 159 439 "/>
</clipPath>
<clipPath id="clip47">
  <path d="M 0 0 L 0 13.84375 C 0 196.140625 0 378.441406 0 560.742188 L 0 626.222656 C 0.316406 626.585938 0.753906 626.90625 1.300781 627.191406 L 48.816406 627.191406 C 148.636719 627.191406 248.457031 627.191406 348.277344 627.191406 L 510.238281 627.191406 C 512.527344 626.5 514.277344 625.425781 515.183594 623.8125 L 515.183594 7.757812 C 514.566406 4.8125 516.046875 1.554688 514.269531 0 Z M 0 0 "/>
</clipPath>
<clipPath id="clip48">
  <path d="M 184 570 L 198 570 L 198 590 L 184 590 Z M 184 570 "/>
</clipPath>
<clipPath id="clip49">
  <path d="M 0 0 L 0 13.84375 C 0 196.140625 0 378.441406 0 560.742188 L 0 626.222656 C 0.316406 626.585938 0.753906 626.90625 1.300781 627.191406 L 48.816406 627.191406 C 148.636719 627.191406 248.457031 627.191406 348.277344 627.191406 L 510.238281 627.191406 C 512.527344 626.5 514.277344 625.425781 515.183594 623.8125 L 515.183594 7.757812 C 514.566406 4.8125 516.046875 1.554688 514.269531 0 Z M 0 0 "/>
</clipPath>
<clipPath id="clip50">
  <path d="M 249 196 L 279 196 L 279 207 L 249 207 Z M 249 196 "/>
</clipPath>
<clipPath id="clip51">
  <path d="M 0 0 L 0 13.84375 C 0 196.140625 0 378.441406 0 560.742188 L 0 626.222656 C 0.316406 626.585938 0.753906 626.90625 1.300781 627.191406 L 48.816406 627.191406 C 148.636719 627.191406 248.457031 627.191406 348.277344 627.191406 L 510.238281 627.191406 C 512.527344 626.5 514.277344 625.425781 515.183594 623.8125 L 515.183594 7.757812 C 514.566406 4.8125 516.046875 1.554688 514.269531 0 Z M 0 0 "/>
</clipPath>
<clipPath id="clip52">
  <path d="M 250 172 L 275 172 L 275 185 L 250 185 Z M 250 172 "/>
</clipPath>
<clipPath id="clip53">
  <path d="M 0 0 L 0 13.84375 C 0 196.140625 0 378.441406 0 560.742188 L 0 626.222656 C 0.316406 626.585938 0.753906 626.90625 1.300781 627.191406 L 48.816406 627.191406 C 148.636719 627.191406 248.457031 627.191406 348.277344 627.191406 L 510.238281 627.191406 C 512.527344 626.5 514.277344 625.425781 515.183594 623.8125 L 515.183594 7.757812 C 514.566406 4.8125 516.046875 1.554688 514.269531 0 Z M 0 0 "/>
</clipPath>
<clipPath id="clip54">
  <path d="M 121 82 L 145 82 L 145 102 L 121 102 Z M 121 82 "/>
</clipPath>
<clipPath id="clip55">
  <path d="M 0 0 L 0 13.84375 C 0 196.140625 0 378.441406 0 560.742188 L 0 626.222656 C 0.316406 626.585938 0.753906 626.90625 1.300781 627.191406 L 48.816406 627.191406 C 148.636719 627.191406 248.457031 627.191406 348.277344 627.191406 L 510.238281 627.191406 C 512.527344 626.5 514.277344 625.425781 515.183594 623.8125 L 515.183594 7.757812 C 514.566406 4.8125 516.046875 1.554688 514.269531 0 Z M 0 0 "/>
</clipPath>
</defs>
<g id="surface1">
<g clip-path="url(#clip1)" clip-rule="nonzero">
<path style=" stroke:none;fill-rule:nonzero;fill:rgb(80.589294%,80.235291%,80.323792%);fill-opacity:1;" d="M 0 627.191406 L 515.183594 627.191406 L 515.183594 0 L 0 0 Z M 0 627.191406 "/>
</g>
<g clip-path="url(#clip2)" clip-rule="nonzero">
<g clip-path="url(#clip3)" clip-rule="nonzero">
<path style=" stroke:none;fill-rule:nonzero;fill:rgb(42.71698%,41.674805%,41.934204%);fill-opacity:1;" d="M 153.34375 550.070312 C 150.101562 549.984375 145.117188 561.160156 146.511719 563.359375 C 147.277344 564.566406 155.519531 561.855469 154.398438 562.621094 C 158.1875 560.035156 153.992188 557.515625 154.71875 554.566406 C 154.90625 553.816406 162.519531 553.925781 158.871094 550.398438 C 156.875 548.464844 155.085938 551.925781 153.34375 550.070312 M 216.898438 464.285156 C 213.289062 458.320312 201.347656 452.609375 194.4375 453.683594 C 195.761719 460.628906 210.660156 464.535156 216.898438 464.285156 M 85.824219 233.023438 C 82.375 236.355469 80.957031 251.753906 89.5 249.738281 C 98.078125 247.710938 91.835938 235.4375 85.824219 233.023438 M 323.867188 212.84375 C 325.601562 210.921875 348.355469 207.472656 337.433594 200.519531 C 329.527344 195.484375 318.171875 212.101562 323.867188 212.84375 M 294.679688 42.054688 C 288.257812 46.132812 299.824219 50.234375 303.082031 52.117188 C 305.511719 53.519531 321.285156 65.234375 322.292969 65.203125 C 331.949219 64.894531 320.625 58.179688 319.644531 57.0625 C 312.605469 49.050781 303.992188 46.519531 294.679688 42.054688 M 278.351562 33.203125 C 278.222656 29.921875 271.226562 21.835938 267.226562 24.429688 C 266.523438 26.113281 266.742188 27.769531 267.878906 29.398438 C 266.304688 32.539062 254.566406 29.03125 257.667969 36.234375 C 258.417969 37.976562 280.660156 42.972656 282.996094 42.425781 C 298.796875 38.738281 281.636719 25.171875 278.351562 33.203125 M 151.195312 196.378906 C 148.589844 191.496094 153.25 184.851562 152.550781 179.46875 C 145.796875 180.726562 142.6875 189.027344 138.492188 193.644531 C 131.855469 200.949219 123.667969 207.234375 114.835938 211.695312 C 98.25 220.074219 92.730469 219.953125 112.027344 230.460938 C 125.707031 237.910156 133.519531 247.125 143.65625 232.886719 C 147.859375 226.976562 147.71875 226.285156 148.777344 220.15625 C 148.746094 220.335938 149.421875 202.871094 150.257812 203.523438 C 149.859375 203.210938 138.167969 211.488281 139.265625 205.664062 C 140.4375 199.464844 151.136719 202.972656 151.195312 196.378906 M 166.644531 313.4375 C 163.742188 294.304688 165.328125 297.320312 150.019531 291.820312 C 134.941406 286.40625 133.953125 274.164062 127.875 261.109375 C 125.847656 256.746094 117.304688 240.289062 109.171875 247.152344 C 105.957031 249.867188 111.066406 265.875 113.851562 267.378906 C 110.601562 269.714844 104.46875 268.277344 100.027344 268.734375 C 90.910156 269.671875 94.71875 271.582031 87.199219 269.65625 C 81.671875 268.238281 84.742188 259.8125 75.960938 263.121094 C 67.765625 266.214844 72.363281 267.996094 73.585938 271.660156 C 72.890625 269.582031 85.535156 281.171875 85.691406 281.378906 C 86.765625 282.808594 91.863281 293.789062 91.882812 295.519531 C 91.945312 301.363281 85.476562 306.796875 86.804688 312.277344 C 87.773438 316.273438 101.929688 323.175781 104.703125 325.847656 C 110.957031 331.871094 114.636719 333.34375 122.167969 338.054688 C 143.863281 351.609375 169.519531 341.375 166.644531 313.4375 M 93.804688 527.375 C 111.988281 534.984375 94.640625 513.300781 99.308594 510.207031 C 105.449219 506.132812 104.355469 519.527344 104.40625 519.585938 C 112.484375 528.984375 107.046875 502.917969 105.621094 507.96875 C 106.121094 506.210938 112.964844 507.71875 113.421875 506.765625 C 115.3125 502.8125 111.734375 497.617188 115.746094 494.328125 C 122.667969 488.648438 122.835938 497.921875 126.117188 495.949219 C 129.769531 493.757812 130.183594 477.171875 130.90625 473.03125 C 131.574219 469.171875 129.210938 464.105469 132.15625 460.820312 C 134.355469 458.371094 138.425781 465.191406 140.058594 464.769531 C 141.410156 464.417969 150.417969 435.082031 150.960938 431.449219 C 151.648438 426.839844 147.570312 428.476562 149.417969 421.957031 C 151.195312 415.6875 152.507812 417.457031 156.15625 419.070312 C 156.792969 419.351562 150.980469 424.699219 158.300781 427.328125 C 163.894531 429.339844 161.796875 420.789062 161.945312 419.882812 C 162.992188 413.546875 157.175781 399.050781 157.683594 390.644531 C 158.234375 381.578125 160.242188 372.945312 156.09375 364.285156 C 157.140625 370.933594 137.171875 383.15625 132.0625 386.667969 C 120.566406 394.574219 108.023438 399.792969 96.617188 408.027344 C 71.988281 425.800781 46.953125 441.042969 24.710938 461.894531 C 14.414062 471.546875 5.804688 474.050781 10.351562 490.492188 C 13.183594 500.730469 13.011719 486.578125 13.09375 486.542969 C 14.765625 485.773438 17.722656 482.988281 19.261719 482.023438 C 20.78125 481.066406 24.925781 487.167969 21.039062 488.839844 C 20.0625 488.574219 19.230469 488.066406 18.542969 487.320312 C 15.820312 486.535156 22.527344 495.652344 22.214844 496.210938 C 21.429688 497.605469 16.113281 495.214844 15.9375 496.070312 C 15.285156 499.21875 17.253906 502.410156 16.308594 506.140625 C 15.25 510.335938 11.429688 512.40625 10.789062 516.667969 C 9.929688 522.375 14.898438 515.996094 15.929688 519.675781 C 17.058594 523.699219 9.792969 521.933594 10.234375 524.855469 C 10.527344 526.796875 15.730469 530.234375 15.578125 531.179688 C 15.144531 533.878906 11.214844 536.085938 11.6875 538.457031 C 11.828125 539.140625 11.417969 542.695312 11.582031 543.871094 C 10.875 538.765625 19.464844 554.804688 16.796875 552.601562 C 15.558594 551.578125 29.292969 552.269531 29.511719 552.289062 C 31.453125 552.476562 47.210938 559.082031 46.902344 555.761719 C 46.824219 554.898438 44.070312 551.804688 45.082031 550.9375 C 49.957031 546.761719 49.957031 552.992188 53.980469 546.347656 C 53.941406 546.410156 50.558594 540.371094 50.550781 538.695312 C 50.519531 533.058594 56.761719 516.457031 61.949219 526.578125 C 62.375 527.414062 54.707031 547.023438 57.136719 549.535156 C 64.136719 556.773438 88.632812 546.707031 97.761719 547.316406 C 111.378906 548.222656 115.75 546.371094 125.085938 535.605469 C 129.058594 531.027344 130.726562 526.816406 132.683594 520.871094 C 129.550781 518.5625 129.269531 516.226562 131.84375 513.863281 C 133.296875 512.425781 134.792969 511.035156 136.324219 509.683594 C 136.683594 508.773438 138.859375 499.929688 138.667969 500.039062 C 142.953125 497.554688 144.960938 502.3125 148.875 501.007812 C 154.9375 498.988281 151.390625 505.894531 156.757812 500.453125 C 159 498.179688 154.933594 474.351562 153.488281 471.476562 C 147.085938 476.375 144.464844 485.886719 138.96875 491.855469 C 135.761719 495.339844 129.40625 498.695312 127.28125 501.152344 C 121.371094 507.984375 128.328125 499.136719 123.207031 509.382812 C 121.339844 513.117188 116.253906 522.3125 119.226562 525.863281 C 109.617188 524.875 112.410156 535.832031 106.296875 537.730469 C 102.417969 538.933594 94.003906 532.0625 93.804688 527.375 M 0.0898438 470.097656 C 13.84375 464.488281 27.476562 454.132812 38.171875 443.894531 C 38.949219 443.148438 56.09375 423.488281 57.761719 427.910156 C 52.136719 412.992188 39.3125 421.875 44.722656 406.660156 C 45.03125 405.785156 51.078125 403.027344 52.003906 401.328125 C 52.523438 400.375 46.203125 396.5625 45.230469 397.503906 C 43.492188 399.1875 48.957031 408.644531 37.921875 400.085938 C 32.015625 395.507812 29.984375 388.167969 39.84375 389.699219 C 36.710938 384.636719 39.234375 372.976562 38.769531 369.808594 C 38.574219 368.464844 33.628906 369.441406 33.265625 366.253906 C 32.984375 363.792969 39.015625 361.535156 39.195312 358.945312 C 39.507812 354.433594 34.953125 352.78125 34.9375 350.539062 C 34.910156 347.105469 36.597656 345.382812 36.769531 341.984375 C 36.832031 340.789062 39.003906 338.019531 39.617188 336.761719 C 36.820312 334.726562 36.375 332.914062 38.285156 331.320312 C 39.371094 329.667969 40.945312 328.617188 43.011719 328.167969 C 43.679688 326.332031 46.851562 322.332031 47.445312 320.769531 C 47.09375 321.691406 48.542969 312.304688 48.535156 312.644531 C 48.632812 308.460938 46.246094 299.285156 46.957031 296.65625 C 45.1875 303.1875 51.761719 282.828125 50.835938 291.492188 C 50.75 292.304688 52.746094 292.253906 52.734375 290.652344 C 52.699219 286.265625 47.378906 281.660156 45.691406 277.019531 C 57.789062 273.96875 49.773438 284.601562 58.179688 287.351562 C 60 281.714844 59.9375 274.691406 59.535156 268.8125 C 61.542969 267.441406 62.617188 265.691406 62.761719 263.570312 C 63.34375 261.640625 62.078125 260.742188 58.960938 260.867188 C 55.875 252.589844 44.121094 248.089844 49.34375 239.570312 C 51.054688 236.777344 64.910156 245.34375 66.929688 230.472656 C 67.5625 225.832031 68.152344 227.527344 67.066406 224.269531 C 66.296875 221.96875 48.535156 221.273438 52.265625 211.011719 C 53.75 206.9375 60.566406 217.902344 62.882812 218.027344 C 62.472656 218.007812 73.179688 208.109375 72.859375 207.542969 C 78.332031 217.171875 75.742188 218.230469 85.035156 226.105469 C 92.144531 232.128906 100.699219 235.953125 99.605469 247.089844 C 123.265625 226.175781 88.773438 235.390625 94.261719 219 C 96.101562 213.5 134.71875 202.695312 126.265625 192.070312 C 124.964844 190.4375 97.214844 213.035156 91.671875 205.855469 C 87.328125 200.226562 98.367188 198.015625 101.003906 195.9375 C 102.480469 194.769531 105.855469 195.378906 107.628906 194.054688 C 110.023438 192.273438 109.933594 186.699219 112.070312 183.992188 C 116.101562 178.890625 121.078125 174.503906 125.070312 169.414062 C 129.230469 164.109375 132.476562 157.476562 138.828125 153.882812 C 150.695312 147.171875 151.625 154.007812 155.015625 167.960938 C 156.371094 173.542969 156.777344 176.941406 156.929688 182.453125 C 157.230469 193.339844 158.683594 201 159.910156 211.574219 C 162.058594 230.113281 145.113281 227.402344 140.625 244.882812 C 137.765625 256.015625 139.589844 249.757812 144.882812 257.769531 C 151.628906 267.972656 148.632812 257.683594 145.164062 267.5625 C 143.007812 273.707031 134.042969 263.527344 137.785156 277.191406 C 138.53125 279.898438 149.273438 289.792969 151.796875 290.660156 C 160.097656 293.519531 160 286.808594 166.707031 293.785156 C 170.550781 297.789062 169.601562 311.191406 169.523438 315.429688 C 169.085938 339.449219 161.609375 362.21875 160.101562 385.9375 C 158.929688 404.277344 162.816406 422.410156 176.773438 435.238281 C 190.25 447.617188 219.851562 464.148438 237.773438 467.832031 C 241.679688 468.632812 247.792969 465.832031 250.492188 468.261719 C 253.546875 471.011719 250.027344 478.753906 249.445312 477.640625 C 256.90625 491.925781 256.835938 471.457031 258.972656 467.59375 C 264.636719 457.347656 295.839844 452.046875 306.261719 445.375 C 313.296875 440.875 342.433594 415.722656 319.390625 415.476562 C 304.425781 415.316406 285.953125 438.597656 268.960938 435.078125 C 260.402344 433.304688 266.179688 432.554688 263.753906 428.398438 C 263.730469 428.363281 265.699219 423.921875 265.207031 422.683594 C 263.457031 418.28125 258.15625 420.722656 256.578125 414.367188 C 251.71875 394.828125 283.808594 404.351562 292.425781 398.972656 C 297.421875 395.855469 299.832031 387.777344 305.175781 383.785156 C 310.480469 379.824219 322.257812 378.867188 323.285156 371.253906 C 325.105469 357.730469 302.824219 366.925781 299.945312 357.824219 C 294.9375 342 330.980469 332.640625 306.917969 326.675781 C 288.007812 321.992188 270.972656 339.289062 251.675781 337.273438 C 246.375 336.71875 232.160156 335.03125 230.339844 328.648438 C 227.257812 317.84375 236.558594 320.664062 243.164062 317.574219 C 250.675781 314.066406 257.234375 307.152344 264.414062 302.851562 C 271.679688 298.496094 281.164062 295.871094 287.980469 290.976562 C 295.3125 285.710938 288.976562 285.417969 297.707031 283.128906 C 297.433594 283.199219 312.207031 290.421875 306.363281 281 C 304.019531 277.21875 266.285156 273.222656 297.046875 269.875 C 313.25 268.109375 331.648438 271.429688 329.375 247.257812 C 327.519531 227.59375 308.519531 209.417969 305.289062 190.648438 C 302.1875 172.617188 330.898438 171.046875 342.386719 162.285156 C 346.898438 158.839844 353.117188 157.023438 353.183594 150.144531 C 353.242188 144.242188 347.660156 143.632812 347.457031 141.402344 C 347.0625 137.0625 351.183594 137.671875 351.832031 132.089844 C 352.808594 123.710938 348.757812 122.371094 347.265625 115.695312 C 341.707031 90.800781 337.066406 80.671875 315.445312 64.628906 C 295.773438 50.039062 274.917969 39.863281 250.042969 39.425781 C 237.296875 39.199219 229.867188 42.777344 218.292969 46.828125 C 207.4375 50.628906 196.675781 51.328125 205.578125 38.824219 C 216.367188 23.667969 245.386719 14.261719 262.34375 17.734375 C 282.957031 21.953125 297.832031 31.484375 313.496094 42.996094 C 319.738281 47.582031 321.800781 51.152344 327.425781 57.460938 C 329.089844 59.324219 332.601562 63.273438 334.8125 64.949219 C 337.519531 67.007812 338.34375 59.636719 341.90625 62.875 C 344.132812 64.898438 348.019531 74.40625 350.191406 77.933594 C 354.292969 84.605469 359.867188 91.003906 364.539062 97.234375 C 370.996094 105.839844 391.921875 123.648438 387.574219 135.175781 C 392.445312 133.058594 385.945312 124.144531 392.582031 122.535156 C 395.628906 121.796875 400.425781 129.339844 400.519531 131.734375 C 400.710938 136.554688 393.113281 136.273438 395.769531 143.222656 C 397.113281 146.734375 415.976562 149.804688 413.234375 155.964844 C 412.5 157.617188 407.386719 156.527344 408.078125 158.964844 C 408.691406 161.140625 415.589844 157.6875 417.605469 162.152344 C 419.535156 166.429688 412.191406 166.894531 414.113281 170.636719 C 415.535156 173.410156 419.292969 167.851562 420.929688 170.976562 C 422.589844 173.039062 423.914062 175.296875 424.898438 177.75 C 424.921875 180.484375 423.851562 182.613281 421.699219 184.132812 C 419.625 185.914062 419.78125 187.667969 422.167969 189.394531 C 425.921875 191.101562 429.324219 190.558594 432.367188 187.769531 C 433.390625 186.203125 434.683594 185.882812 436.242188 186.808594 C 437.972656 188.664062 437.664062 190.21875 435.316406 191.472656 C 435.925781 192.515625 436.445312 200.703125 437.511719 202.765625 C 439.398438 206.417969 443.636719 205.230469 444.765625 210.144531 C 446.757812 218.773438 439.796875 227.089844 444.878906 236.6875 C 450.3125 246.941406 450.140625 244.464844 461.113281 246.105469 C 454.070312 252.484375 457.105469 264.355469 463.191406 268.308594 C 467.988281 271.421875 471.808594 259.292969 472.242188 270.113281 C 472.285156 271.152344 465.644531 276.304688 465.707031 280.703125 C 465.769531 285.15625 469.429688 286.839844 470.964844 290.28125 C 474.769531 298.804688 479.125 305.699219 480.695312 315.222656 C 481.164062 318.066406 478.183594 320.371094 478.488281 322.769531 C 478.863281 325.757812 485.8125 326.054688 482.765625 330.015625 C 477.988281 336.222656 471.601562 325.714844 470.011719 334.625 C 468.558594 342.769531 481.308594 335.128906 484.871094 340.648438 C 487.753906 345.117188 483.070312 345.996094 483.632812 349.09375 C 483.574219 348.769531 486.570312 362.941406 486.601562 362.78125 C 484.902344 364.375 482.859375 364.941406 480.472656 364.46875 C 480.945312 368.570312 482.964844 371.363281 486.523438 372.851562 C 490.476562 371.875 484.78125 367.972656 486.726562 366.402344 C 497.480469 357.703125 504.472656 395.921875 488.835938 378.660156 C 480.617188 393.011719 490.210938 388.546875 492.40625 398.625 C 494.125 406.535156 480.09375 416.523438 480.773438 425.132812 C 481.007812 428.050781 488.484375 429.4375 487.773438 433.53125 C 488.15625 431.335938 476.367188 440.804688 477.484375 440.839844 C 477.933594 444.765625 493.71875 453.6875 496.878906 455.816406 C 504.179688 460.730469 514.792969 462.4375 515.089844 472.097656 C 509.683594 472.132812 494.117188 458.257812 488.683594 454.992188 C 479.046875 449.199219 468.816406 443.644531 459.804688 436.855469 C 443.316406 424.433594 428.578125 410.554688 409.128906 402.359375 C 391.523438 394.941406 374.597656 390.75 360.644531 376.339844 C 347.785156 363.066406 366.96875 331.671875 368.789062 313.023438 C 370.726562 293.183594 364.582031 266.578125 379.050781 252.699219 C 393.785156 238.566406 409.738281 226.214844 406.914062 203.847656 C 403.878906 179.84375 399.914062 160.257812 382.015625 144.535156 C 366.699219 131.082031 359.195312 107.921875 350.117188 89.925781 C 347.160156 113.941406 376.824219 146.765625 352.308594 165.21875 C 341.769531 173.152344 324.484375 169.410156 315.730469 179.425781 C 312.113281 183.5625 307.863281 206.515625 319.804688 202.414062 C 315.832031 195.707031 339.183594 178.503906 346.4375 179.394531 C 370.183594 182.316406 338.757812 193.125 336.78125 195.488281 C 332.898438 200.125 350.878906 203.664062 350.652344 203.210938 C 354.457031 210.722656 344.765625 210.90625 346.050781 216.40625 C 346.570312 218.632812 353.417969 215.351562 354.574219 217.699219 C 356.070312 220.742188 352.390625 223.992188 353.199219 225.707031 C 352.105469 227.359375 351.730469 229.191406 352.070312 231.214844 C 355.015625 232.746094 357.664062 234.6875 360.007812 237.035156 C 361.1875 243.316406 356 250.882812 354.238281 256.554688 C 352.851562 261.015625 350.851562 283.589844 346.734375 282.320312 C 338.703125 279.847656 344.40625 249.816406 335.382812 246.515625 C 337.484375 247.28125 326.617188 266.996094 324.585938 268.699219 C 321.757812 271.0625 297.746094 275.992188 297.523438 273.398438 C 297.703125 275.464844 310.1875 274.253906 311.640625 281.246094 C 313.703125 291.183594 302.109375 292.179688 296.097656 294.539062 C 288.558594 297.5 277.195312 300.324219 270.8125 305.625 C 265.851562 309.742188 264.296875 318.617188 259.351562 321.753906 C 253.847656 325.242188 229.289062 319.320312 240.015625 330.808594 C 244.15625 335.246094 260.597656 335 266.3125 334.070312 C 274.882812 332.675781 283.296875 327 292.007812 325.105469 C 303.679688 322.5625 330.132812 319.820312 329.941406 337.265625 C 329.863281 344.578125 321.917969 346.261719 322.5 353.746094 C 323.277344 363.746094 327.863281 355.886719 331.054688 362.253906 C 335.761719 371.636719 330.210938 388.78125 323.109375 396.503906 C 309.515625 411.289062 280.507812 395.742188 266.476562 408.839844 C 264.078125 411.054688 283.027344 420.457031 283.519531 421.824219 C 284.257812 423.875 274.597656 424.929688 283.796875 426.988281 C 290.296875 428.441406 303.617188 421.199219 308.945312 417.957031 C 318.574219 412.105469 339.066406 385.125 337.722656 409.207031 C 336.933594 423.273438 323.160156 436.894531 312.5 444.589844 C 304.527344 450.34375 265.605469 460.613281 263.15625 468.71875 C 257.257812 488.214844 288.65625 470.21875 293.921875 467.414062 C 300.070312 464.132812 306.351562 461.015625 312.230469 457.257812 C 319.597656 452.546875 326.386719 442.910156 333.625 439.148438 C 342.824219 434.367188 340.980469 433.480469 345.097656 444.070312 C 347.84375 451.136719 344.914062 464.851562 344.550781 472.066406 C 344.191406 479.210938 335.027344 530.742188 339.042969 533.167969 C 340.894531 532.789062 342.441406 531.871094 343.683594 530.414062 C 343.03125 538.398438 343.335938 548.035156 343.644531 555.839844 C 343.722656 557.804688 346.828125 557.847656 346.503906 560.253906 C 346.101562 563.257812 342.136719 568.027344 342.132812 570.40625 C 342.128906 579.4375 337.238281 571.613281 346.4375 575.375 C 347.433594 575.785156 347.207031 602.1875 347.40625 604.914062 C 347.644531 608.21875 344.792969 610.089844 345.503906 613.707031 C 345.589844 614.132812 352.5 626.164062 353.089844 627.097656 L 321.089844 627.097656 C 321.808594 589.121094 331.761719 551.394531 336.957031 513.867188 C 339.421875 496.050781 341.328125 478.203125 342.476562 460.253906 C 343.433594 445.335938 344.523438 435.203125 331.320312 445.714844 C 319.972656 454.746094 308.886719 461.824219 296.226562 468.984375 C 292.296875 471.207031 281.988281 474.988281 280.035156 479.367188 C 276.210938 487.941406 285.703125 491.480469 287.3125 498.972656 C 291.214844 517.101562 279.898438 504.605469 273.519531 500.082031 C 267.308594 495.675781 240.1875 492.214844 238.136719 487.296875 C 235.382812 480.703125 247.546875 480.285156 238.160156 473.195312 C 234.773438 470.640625 221.53125 471.3125 216.746094 469.902344 C 208.769531 467.558594 200.929688 463.960938 193.832031 459.660156 C 188.234375 456.269531 168.042969 432.238281 163.144531 432.097656 C 153.007812 431.8125 157.546875 456.191406 157.976562 463.253906 C 160.285156 501.347656 160.738281 539.894531 166.351562 577.679688 C 167.445312 585.046875 179.664062 622.132812 174.089844 627.097656 C 172.605469 628.417969 165.15625 626.875 163.234375 627.097656 C 142.953125 629.425781 121.121094 627.097656 100.6875 627.097656 C 87.257812 627.097656 69.148438 630.625 61.433594 617.324219 C 57.492188 625.1875 61.320312 622.820312 53.164062 618.753906 C 52.269531 618.308594 53.898438 614.710938 51.25 613.601562 C 48.328125 612.371094 44.664062 613.871094 41.414062 612.203125 C 40.980469 611.984375 38.890625 614.738281 37.679688 613.117188 C 35.949219 610.800781 39.125 607.226562 38.316406 606.132812 C 38.082031 605.8125 38.09375 602.140625 37.34375 600.832031 C 35.789062 598.125 30.339844 600.320312 28.441406 594.382812 C 28.796875 604.132812 35.230469 619.898438 22.925781 618.585938 C 11.335938 617.347656 12.5 605.8125 10.386719 598.816406 C 5.914062 584.027344 0.0898438 577.867188 0.0898438 562.113281 Z M 0.0898438 470.097656 "/>
</g>
</g>
<g clip-path="url(#clip4)" clip-rule="nonzero">
<g clip-path="url(#clip5)" clip-rule="nonzero">
<path style=" stroke:none;fill-rule:nonzero;fill:rgb(14.593506%,13.038635%,13.424683%);fill-opacity:1;" d="M 353.089844 627.097656 C 351.308594 624.28125 347.972656 618.296875 347.339844 615.628906 C 345.28125 606.941406 347.785156 618.578125 347.40625 604.914062 C 347.300781 601.09375 348.011719 576.019531 346.4375 575.375 C 342.566406 573.792969 340.574219 578.464844 340.210938 573.035156 C 340.035156 570.417969 346.117188 565.03125 346.582031 561.574219 C 346.980469 558.589844 343.726562 557.992188 343.644531 555.839844 C 343.335938 548.046875 343.027344 538.382812 343.6875 530.414062 C 342.445312 531.871094 340.894531 532.789062 339.042969 533.167969 C 335.023438 530.738281 344.199219 479.214844 344.550781 472.066406 C 344.886719 465.273438 347.199219 450.597656 345.097656 444.070312 C 341.5625 433.109375 342.367188 434.605469 333.625 439.148438 C 326.386719 442.910156 319.597656 452.546875 312.234375 457.257812 C 306.351562 461.015625 300.074219 464.132812 293.921875 467.414062 C 288.65625 470.21875 257.257812 488.214844 263.152344 468.71875 C 265.605469 460.617188 304.527344 450.34375 312.5 444.589844 C 323.316406 436.785156 336.925781 423.40625 337.722656 409.207031 C 339.0625 385.199219 318.023438 412.441406 308.945312 417.957031 C 303.292969 421.394531 290.6875 428.136719 283.796875 426.988281 C 274.640625 425.460938 284.136719 423.535156 283.519531 421.824219 C 283.542969 421.890625 264.839844 410.375 266.476562 408.839844 C 280.507812 395.742188 309.515625 411.289062 323.109375 396.503906 C 330.210938 388.78125 335.761719 371.636719 331.054688 362.253906 C 327.863281 355.886719 323.277344 363.746094 322.5 353.746094 C 321.917969 346.261719 329.863281 344.578125 329.945312 337.265625 C 330.132812 319.820312 303.679688 322.5625 292.007812 325.105469 C 283.296875 327 274.882812 332.675781 266.3125 334.070312 C 260.597656 335 244.15625 335.246094 240.015625 330.808594 C 229.289062 319.320312 253.847656 325.242188 259.351562 321.753906 C 264.296875 318.617188 265.851562 309.742188 270.8125 305.625 C 277.195312 300.324219 288.558594 297.5 296.097656 294.539062 C 302.109375 292.179688 313.703125 291.183594 311.640625 281.246094 C 310.1875 274.25 297.703125 275.472656 297.523438 273.398438 C 297.636719 274.703125 321.308594 271.433594 324.585938 268.699219 C 326.03125 267.484375 338.195312 247.542969 335.382812 246.515625 C 344.476562 249.847656 338.296875 278.527344 346.304688 281.433594 C 351.699219 283.394531 352.492188 262.070312 354.238281 256.554688 C 355.640625 252.109375 361.433594 242.164062 360.007812 237.035156 C 358.890625 233.03125 353.621094 231.992188 352.28125 227.609375 C 351.390625 224.699219 357.15625 222.027344 355.695312 218.535156 C 354.265625 215.117188 346.585938 218.695312 346.050781 216.40625 C 344.671875 210.496094 354.960938 211.617188 350.652344 203.210938 C 350.546875 203.011719 332.6875 200.378906 336.78125 195.488281 C 338.757812 193.125 370.183594 182.316406 346.4375 179.394531 C 339.183594 178.503906 315.832031 195.707031 319.808594 202.414062 C 309.890625 205.8125 310.480469 186.421875 313.820312 181.417969 C 322.019531 169.128906 341.257812 173.535156 352.308594 165.21875 C 376.871094 146.730469 347.160156 113.933594 350.113281 89.925781 C 357.613281 104.78125 364.132812 125.929688 375.242188 138.5625 C 380.285156 144.300781 387.8125 146.742188 392.558594 152.65625 C 399.191406 160.921875 400.203125 171.761719 402.304688 181.785156 C 406.355469 201.117188 411.082031 213.449219 399.957031 230.804688 C 390.808594 245.078125 373.421875 251.390625 370.617188 267.570312 C 367.375 286.265625 370.808594 306.496094 367.402344 325.550781 C 364.359375 342.578125 348.183594 363.039062 360.644531 376.339844 C 383.226562 400.449219 419.410156 403.820312 445.332031 424.238281 C 460.714844 436.359375 475.375 447.140625 492.378906 457.21875 C 501.070312 462.371094 512.171875 466.6875 515.089844 475.699219 C 517.820312 484.136719 515.089844 498.0625 515.089844 506.917969 C 515.089844 514.429688 517.273438 526.363281 515.089844 533.496094 C 513.152344 539.820312 507.332031 541.960938 505.453125 550.960938 C 503.1875 561.800781 505.574219 569.332031 503.535156 579.703125 C 501.90625 587.984375 503.492188 588.03125 503.660156 595.785156 C 503.667969 596.113281 501.183594 612.59375 500.972656 612.839844 C 495.792969 618.941406 494.058594 594.300781 485.226562 597.242188 C 488.242188 601.089844 482.308594 621.914062 483.089844 627.097656 Z M 353.089844 627.097656 "/>
</g>
</g>
<g clip-path="url(#clip6)" clip-rule="nonzero">
<g clip-path="url(#clip7)" clip-rule="nonzero">
<path style=" stroke:none;fill-rule:nonzero;fill:rgb(91.372681%,91.215515%,91.255188%);fill-opacity:1;" d="M 296.089844 627.097656 L 197.089844 627.097656 C 200.390625 598.886719 208.457031 565.097656 220.503906 539.257812 C 226.007812 527.453125 229.296875 516.53125 233.652344 504.535156 C 238.007812 492.527344 243.234375 491.417969 256.085938 495.765625 C 283.945312 505.195312 283.609375 536.039062 283.945312 560.871094 C 284.144531 575.5625 286.421875 589.214844 287.789062 603.777344 C 288.164062 607.773438 286.835938 611.988281 288.191406 615.902344 C 289.644531 620.097656 295.722656 624.03125 296.089844 627.097656 "/>
</g>
</g>
<g clip-path="url(#clip8)" clip-rule="nonzero">
<g clip-path="url(#clip9)" clip-rule="nonzero">
<path style=" stroke:none;fill-rule:nonzero;fill:rgb(80.589294%,80.235291%,80.323792%);fill-opacity:1;" d="M 197.121094 579.589844 C 192.628906 576.351562 196.089844 566.3125 186.8125 572.613281 C 184.503906 574.179688 183.332031 585.539062 184.585938 587.605469 C 187.828125 592.953125 197.476562 585.125 197.121094 579.589844 M 174.96875 603.679688 C 184.238281 568.882812 187.460938 537.003906 209.882812 507.03125 C 214.289062 501.136719 218.65625 494.25 224.371094 489.535156 C 225.4375 488.65625 234.96875 484.789062 235.570312 482.8125 C 238.230469 474.070312 205.90625 470.59375 199.148438 467.238281 C 190.828125 463.105469 171.542969 439.996094 164.121094 440.4375 C 157.117188 440.851562 162.460938 477.984375 162.84375 484.980469 C 165.027344 524.660156 166.835938 564.691406 174.96875 603.679688 M 296.089844 627.097656 C 295.75 624.230469 289.105469 618.09375 287.730469 613.585938 C 286.597656 609.867188 287.746094 603.070312 287.355469 599.101562 C 285.589844 581.097656 284.265625 563.507812 282.945312 545.476562 C 281.804688 529.914062 282.140625 514.421875 269.464844 503.054688 C 262.640625 496.933594 245.714844 489.171875 237.320312 495.507812 C 230.730469 500.480469 228.242188 524.003906 223.933594 532.960938 C 216.175781 549.09375 210.945312 565.386719 206.894531 582.839844 C 204.855469 591.628906 202.351562 622.527344 196.101562 627.097656 C 192.476562 629.746094 178.5625 627.097656 174.089844 627.097656 C 179.078125 614.992188 168.164062 589.90625 166.351562 577.679688 C 163.707031 559.890625 162.40625 542.234375 161.5 524.289062 C 160.96875 513.789062 149.953125 435.367188 160.210938 431.699219 C 165.449219 429.828125 180.148438 449.957031 185.125 453.777344 C 196.300781 462.363281 209.839844 468.886719 223.695312 471.679688 C 226.164062 472.175781 239.507812 471.609375 240.917969 473.746094 C 243.714844 477.972656 240.257812 479.785156 241.089844 482.5 C 241.65625 484.351562 237.945312 485.566406 240.257812 489.324219 C 241.554688 491.433594 256.015625 491.886719 259.164062 492.972656 C 263.195312 494.371094 282.570312 510.5625 285.734375 509.25 C 295.171875 505.339844 276.878906 485.929688 280.035156 479.371094 C 284.144531 470.816406 306.742188 463.742188 314.640625 458.714844 C 320.238281 455.15625 333.929688 437.476562 339.835938 439.054688 C 351.730469 442.234375 335.992188 520.777344 334.347656 531.660156 C 331.714844 549.078125 328.492188 566.386719 325.691406 583.78125 C 324.554688 590.835938 323.394531 628.792969 316.089844 627.097656 C 317.960938 596.5 324.957031 565.222656 329.542969 534.886719 C 331.988281 518.691406 334.953125 502.554688 336.867188 486.289062 C 338.03125 476.417969 343.828125 452.878906 338.820312 443.8125 C 341.3125 448.3125 299.507812 470.753906 295.132812 473.464844 C 279.378906 483.222656 287.660156 487.691406 294.125 503.667969 C 309.34375 541.257812 307.261719 587.4375 308.089844 627.097656 Z M 296.089844 627.097656 "/>
</g>
</g>
<g clip-path="url(#clip10)" clip-rule="nonzero">
<g clip-path="url(#clip11)" clip-rule="nonzero">
<path style=" stroke:none;fill-rule:nonzero;fill:rgb(91.372681%,91.215515%,91.255188%);fill-opacity:1;" d="M 308.089844 627.097656 C 307.261719 587.503906 309.320312 541.199219 294.125 503.667969 C 287.476562 487.246094 279.0625 483.402344 295.132812 473.464844 C 299.511719 470.757812 341.3125 448.3125 338.820312 443.8125 C 343.96875 453.136719 337.601562 480.445312 336.277344 490.714844 C 333.839844 509.660156 330.375 528.457031 327.714844 547.367188 C 325.460938 563.417969 323.230469 579.433594 320.5 595.410156 C 318.976562 604.332031 320.671875 630.574219 308.089844 627.097656 "/>
</g>
</g>
<g clip-path="url(#clip12)" clip-rule="nonzero">
<g clip-path="url(#clip13)" clip-rule="nonzero">
<path style=" stroke:none;fill-rule:nonzero;fill:rgb(42.71698%,41.674805%,41.934204%);fill-opacity:1;" d="M 483.089844 627.097656 C 482.144531 620.832031 488.925781 601.960938 485.226562 597.242188 C 496.410156 593.515625 491.261719 613.921875 498.511719 613.90625 C 504.992188 613.894531 500.296875 591.160156 500.574219 589.390625 C 501.371094 584.328125 505.714844 579.515625 506.125 574.871094 C 506.648438 569.007812 504.035156 566.824219 503.628906 561.179688 C 503.175781 554.839844 505.9375 536.273438 515.089844 537.097656 C 515.089844 558.722656 515.058594 580.347656 515.101562 601.972656 C 515.113281 607.085938 518.039062 622.871094 514.507812 626.539062 C 510.910156 630.277344 488.347656 627.097656 483.089844 627.097656 "/>
</g>
</g>
<g clip-path="url(#clip14)" clip-rule="nonzero">
<g clip-path="url(#clip15)" clip-rule="nonzero">
<path style=" stroke:none;fill-rule:nonzero;fill:rgb(80.589294%,80.235291%,80.323792%);fill-opacity:1;" d="M 0.0898438 577.097656 C 0.464844 584.527344 7.433594 589.714844 9.671875 596.492188 C 12.367188 604.660156 9.21875 606.121094 15.167969 613.148438 C 31.417969 632.34375 28.828125 605.070312 28.441406 594.382812 C 30.09375 599.554688 36.792969 602.097656 38.898438 604.746094 C 42.753906 609.589844 35.34375 609.089844 41.414062 612.203125 C 43.96875 613.511719 47.292969 612.574219 49.648438 613.703125 C 53.195312 615.402344 51.566406 616.179688 53.316406 617.1875 C 60.636719 621.425781 56.441406 627.277344 61.433594 617.324219 C 64.320312 622.300781 72.550781 619.960938 73.089844 627.097656 C 54.128906 627.097656 25.976562 632.480469 7.933594 627.160156 C -1.878906 624.265625 0.476562 628.117188 0.0820312 614.296875 C -0.269531 601.925781 0.0898438 589.472656 0.0898438 577.097656 "/>
</g>
</g>
<g clip-path="url(#clip16)" clip-rule="nonzero">
<g clip-path="url(#clip17)" clip-rule="nonzero">
<path style=" stroke:none;fill-rule:nonzero;fill:rgb(91.372681%,91.215515%,91.255188%);fill-opacity:1;" d="M 266.03125 457.324219 C 258.695312 449.953125 247.535156 461.804688 241.21875 462.765625 C 229.980469 464.476562 208.277344 449.757812 198.398438 444.433594 C 186.984375 438.28125 175.695312 432.464844 169.445312 420.636719 C 166.820312 415.667969 158.496094 392.566406 166.230469 388.527344 C 167.597656 387.816406 182.777344 406.132812 188.351562 404.789062 C 196.117188 402.917969 185.023438 395.992188 183.550781 393.621094 C 179.6875 387.390625 172.527344 371.785156 186.019531 369.234375 C 195.820312 367.378906 201.472656 382.339844 204.660156 387.597656 C 211.125 398.257812 218.519531 399.070312 222.445312 411.300781 C 226.457031 423.785156 228.464844 428.449219 241.597656 431.855469 C 248.394531 433.621094 261.894531 438.9375 271.417969 438.6875 C 274.972656 438.597656 301.375 428.3125 303.257812 429.996094 C 303.945312 430.609375 304.09375 435.542969 305.015625 436.601562 C 305.644531 437.328125 309.976562 433.78125 311.394531 434.703125 C 314.886719 436.96875 270.421875 456.441406 266.03125 457.324219 "/>
</g>
</g>
<g clip-path="url(#clip18)" clip-rule="nonzero">
<g clip-path="url(#clip19)" clip-rule="nonzero">
<path style=" stroke:none;fill-rule:nonzero;fill:rgb(42.71698%,41.674805%,41.934204%);fill-opacity:1;" d="M 254.523438 172.402344 C 242.78125 170.609375 258.273438 189.515625 270.832031 182.667969 C 284.148438 175.402344 260.828125 172.464844 254.523438 172.402344 M 278.195312 200.003906 C 269.929688 193.664062 271.046875 196.898438 266.925781 197.140625 C 263.992188 197.3125 253.257812 199.296875 251.082031 201.472656 C 243.132812 209.425781 263.359375 205.5625 262.65625 205.605469 C 273.277344 204.964844 269.679688 205.75 278.195312 200.003906 M 235.554688 204.910156 C 237.949219 204.296875 262.316406 196.085938 262.742188 194.441406 C 266.3125 180.726562 240.554688 185.492188 236.792969 180.949219 C 228.355469 170.757812 255.140625 169.050781 260.441406 169.570312 C 263.859375 169.90625 288.3125 173.820312 289.882812 175.878906 C 292.734375 179.621094 275.058594 219.792969 269.792969 220.820312 C 265.386719 221.679688 268.320312 213.355469 263.59375 210.390625 C 257.378906 206.492188 241.496094 209.226562 235.554688 204.910156 "/>
</g>
</g>
<g clip-path="url(#clip20)" clip-rule="nonzero">
<g clip-path="url(#clip21)" clip-rule="nonzero">
<path style=" stroke:none;fill-rule:nonzero;fill:rgb(42.71698%,41.674805%,41.934204%);fill-opacity:1;" d="M 144.941406 83.78125 C 143.664062 76.925781 124.140625 95.222656 123.066406 97.394531 C 115.6875 112.269531 142.03125 86.53125 144.941406 83.78125 M 114.734375 110.65625 C 121.769531 90.972656 121.445312 87.078125 140.820312 78.09375 C 146.722656 75.355469 168.289062 59.027344 164.070312 75.09375 C 161.734375 83.996094 141.488281 89.882812 134.65625 96.671875 C 128.949219 102.34375 120.785156 123.117188 114.734375 110.65625 "/>
</g>
</g>
<g clip-path="url(#clip22)" clip-rule="nonzero">
<g clip-path="url(#clip23)" clip-rule="nonzero">
<path style=" stroke:none;fill-rule:nonzero;fill:rgb(42.71698%,41.674805%,41.934204%);fill-opacity:1;" d="M 105.5625 135.144531 C 100.816406 132.976562 97.304688 124.640625 105.726562 122.90625 C 118.042969 120.367188 109.066406 140 107.261719 144.222656 C 105.941406 147.316406 107.964844 157.867188 102.910156 149.035156 C 100.316406 144.507812 99.332031 136.492188 105.5625 135.144531 "/>
</g>
</g>
<g clip-path="url(#clip24)" clip-rule="nonzero">
<g clip-path="url(#clip25)" clip-rule="nonzero">
<path style=" stroke:none;fill-rule:nonzero;fill:rgb(42.71698%,41.674805%,41.934204%);fill-opacity:1;" d="M 494.304688 413.996094 C 488.34375 417.484375 500.933594 430.859375 491.894531 429.980469 C 483.714844 429.1875 487.644531 408.820312 492.785156 409.945312 C 494.277344 410.863281 494.785156 412.210938 494.304688 413.996094 "/>
</g>
</g>
<g clip-path="url(#clip26)" clip-rule="nonzero">
<g clip-path="url(#clip27)" clip-rule="nonzero">
<path style=" stroke:none;fill-rule:nonzero;fill:rgb(91.372681%,91.215515%,91.255188%);fill-opacity:1;" d="M 8.078125 210.105469 C 9.617188 213.097656 9.554688 213.722656 8.078125 210.105469 "/>
</g>
</g>
<g clip-path="url(#clip28)" clip-rule="nonzero">
<g clip-path="url(#clip29)" clip-rule="nonzero">
<path style=" stroke:none;fill-rule:nonzero;fill:rgb(14.593506%,13.038635%,13.424683%);fill-opacity:1;" d="M 93.804688 527.378906 C 94.011719 532.253906 102.5 538.902344 106.296875 537.730469 C 112.566406 535.796875 109.082031 524.820312 119.226562 525.863281 C 116.242188 522.296875 121.351562 513.144531 123.207031 509.382812 C 123.175781 507.695312 123.148438 506.011719 123.121094 504.324219 C 122.625 501.226562 124.011719 500.171875 127.28125 501.152344 C 128.710938 499.394531 136.507812 494.535156 138.972656 491.855469 C 144.457031 485.890625 147.085938 476.367188 153.488281 471.476562 C 154.925781 474.339844 159 498.199219 156.757812 500.453125 C 151.363281 505.886719 155.660156 500.117188 150.707031 501.152344 C 145.957031 502.148438 143.183594 497.417969 138.667969 500.039062 C 137.414062 500.769531 139.347656 506.03125 137.992188 508.179688 C 135.890625 510.015625 133.839844 511.910156 131.84375 513.863281 C 129.269531 516.226562 129.550781 518.5625 132.683594 520.871094 C 131.253906 525.546875 130 530.386719 126.988281 534.367188 C 118.484375 545.609375 110.695312 548.179688 97.761719 547.316406 C 89.832031 546.785156 64.121094 556.296875 58.359375 550.253906 C 57.007812 548.835938 58.566406 542.0625 58.789062 539.5 C 58.691406 540.601562 60.285156 525.695312 61.039062 527.765625 C 57.582031 518.273438 52.132812 527.613281 52.082031 536.386719 C 52.085938 536.230469 53.042969 548.386719 53.980469 546.347656 C 50.515625 553.898438 50.054688 546.667969 45.082031 550.9375 C 44.066406 551.804688 46.820312 554.898438 46.902344 555.761719 C 47.257812 559.582031 30.398438 552.460938 29.511719 552.289062 C 27.480469 551.898438 16.875 552.664062 16.796875 552.601562 C 18.621094 554.105469 11.96875 540.632812 12.78125 544.113281 C 12.648438 543.546875 9.195312 543.65625 8.972656 541.667969 C 8.691406 539.1875 12.1875 541.035156 11.6875 538.457031 C 11.242188 536.152344 14.847656 534.925781 15.058594 532.648438 C 15.363281 529.449219 11.015625 529.335938 11.144531 526.414062 C 11.261719 523.6875 16.472656 521.609375 15.929688 519.675781 C 15.101562 516.726562 10.34375 520.636719 10.847656 518.359375 C 11.894531 513.65625 15.324219 510.753906 16.308594 506.140625 C 17.214844 501.90625 13.597656 500.480469 14.78125 496.714844 C 15.671875 493.878906 21.007812 498.363281 22.214844 496.210938 C 22.3125 496.035156 16.046875 486.597656 18.542969 487.320312 C 19.230469 488.066406 20.0625 488.570312 21.039062 488.839844 C 24.890625 487.183594 19.984375 481.570312 19.261719 482.023438 C 17.582031 483.078125 14.734375 485.609375 13.09375 486.539062 C 12.710938 486.757812 13.597656 500.289062 10.117188 491.164062 C 4.132812 475.480469 15.574219 470.457031 24.710938 461.894531 C 46.050781 441.894531 69.746094 427.246094 93.472656 410.316406 C 103.382812 403.246094 158.253906 378.003906 156.09375 364.285156 C 160.242188 372.945312 158.234375 381.578125 157.683594 390.644531 C 157.175781 399.046875 162.992188 413.554688 161.945312 419.882812 C 161.746094 421.105469 165.367188 429.433594 158.300781 427.328125 C 150.125 424.894531 157.230469 419.535156 156.15625 419.070312 C 152.496094 417.488281 151.21875 415.664062 149.417969 421.957031 C 148.09375 426.585938 151.3125 429.050781 150.960938 431.449219 C 150.425781 435.074219 141.398438 464.421875 140.058594 464.769531 C 138.113281 465.273438 134.664062 458.027344 132.15625 460.820312 C 129.425781 463.867188 131.480469 469.710938 130.90625 473.03125 C 130.152344 477.375 129.398438 493.679688 126.117188 495.949219 C 122.011719 498.792969 123.886719 487.675781 115.746094 494.328125 C 111.96875 497.410156 115.21875 503.050781 113.421875 506.765625 C 112.726562 508.199219 106.226562 505.828125 105.621094 507.96875 C 107.175781 502.464844 114.433594 531.253906 104.40625 519.585938 C 104.695312 519.921875 104.941406 506.472656 99.308594 510.207031 C 94.683594 513.277344 112.214844 535.082031 93.804688 527.378906 "/>
</g>
</g>
<g clip-path="url(#clip30)" clip-rule="nonzero">
<g clip-path="url(#clip31)" clip-rule="nonzero">
<path style=" stroke:none;fill-rule:nonzero;fill:rgb(14.593506%,13.038635%,13.424683%);fill-opacity:1;" d="M 166.644531 313.4375 C 169.5 341.160156 143.832031 351.527344 122.167969 338.054688 C 114.894531 333.527344 110.78125 331.699219 104.703125 325.847656 C 101.808594 323.058594 87.429688 316.308594 86.804688 312.277344 C 85.914062 306.53125 91.941406 301.570312 91.882812 295.519531 C 91.851562 292.386719 87.324219 283.691406 85.691406 281.378906 C 83.570312 278.375 74.035156 272.769531 73.585938 271.660156 C 68.667969 259.5625 79.898438 264.828125 85.882812 267.683594 C 87.113281 269.789062 88.691406 271.609375 90.625 273.144531 C 93.171875 272.914062 95.425781 272 97.378906 270.402344 C 100.152344 270.367188 111.996094 268.71875 113.851562 267.378906 C 111.304688 266.003906 106.371094 250.238281 108.257812 248.132812 C 116.148438 239.328125 125.644531 256.460938 127.875 261.109375 C 133.207031 272.214844 134.164062 285.4375 146.980469 290.894531 C 164.027344 298.15625 163.128906 290.238281 166.644531 313.4375 "/>
</g>
</g>
<g clip-path="url(#clip32)" clip-rule="nonzero">
<g clip-path="url(#clip33)" clip-rule="nonzero">
<path style=" stroke:none;fill-rule:nonzero;fill:rgb(14.593506%,13.038635%,13.424683%);fill-opacity:1;" d="M 151.195312 196.378906 C 151.136719 202.921875 140.445312 199.398438 139.265625 205.664062 C 138.164062 211.539062 149.390625 202.84375 150.257812 203.523438 C 149.421875 202.871094 148.746094 220.335938 148.777344 220.15625 C 147.71875 226.285156 147.859375 226.976562 143.65625 232.886719 C 133.519531 247.125 125.707031 237.910156 112.027344 230.460938 C 92.730469 219.953125 98.25 220.074219 114.835938 211.695312 C 123.667969 207.234375 131.855469 200.949219 138.492188 193.640625 C 142.683594 189.03125 145.800781 180.71875 152.550781 179.472656 C 153.253906 184.851562 148.589844 191.496094 151.195312 196.378906 "/>
</g>
</g>
<g clip-path="url(#clip34)" clip-rule="nonzero">
<g clip-path="url(#clip35)" clip-rule="nonzero">
<path style=" stroke:none;fill-rule:nonzero;fill:rgb(14.593506%,13.038635%,13.424683%);fill-opacity:1;" d="M 278.351562 33.203125 C 281.65625 25.113281 299.363281 38.675781 282.996094 42.425781 C 280.277344 43.046875 258.945312 37.820312 258.726562 37.421875 C 253.914062 28.726562 265.777344 33.59375 267.875 29.398438 C 266.742188 27.769531 266.523438 26.113281 267.226562 24.433594 C 271.226562 21.835938 278.222656 29.921875 278.351562 33.203125 "/>
</g>
</g>
<g clip-path="url(#clip36)" clip-rule="nonzero">
<g clip-path="url(#clip37)" clip-rule="nonzero">
<path style=" stroke:none;fill-rule:nonzero;fill:rgb(14.593506%,13.038635%,13.424683%);fill-opacity:1;" d="M 294.679688 42.054688 C 302.988281 46.035156 310.46875 49.136719 317.675781 54.871094 C 319.328125 56.1875 332.394531 64.910156 322.292969 65.203125 C 321.566406 65.222656 308.050781 54.867188 306.019531 53.789062 C 302.441406 51.882812 287.554688 46.566406 294.679688 42.054688 "/>
</g>
</g>
<g clip-path="url(#clip38)" clip-rule="nonzero">
<g clip-path="url(#clip39)" clip-rule="nonzero">
<path style=" stroke:none;fill-rule:nonzero;fill:rgb(80.589294%,80.235291%,80.323792%);fill-opacity:1;" d="M 323.867188 212.84375 C 316.503906 211.882812 331.203125 195.140625 337.433594 200.519531 C 347.574219 209.269531 326.019531 210.460938 323.867188 212.84375 "/>
</g>
</g>
<g clip-path="url(#clip40)" clip-rule="nonzero">
<g clip-path="url(#clip41)" clip-rule="nonzero">
<path style=" stroke:none;fill-rule:nonzero;fill:rgb(14.593506%,13.038635%,13.424683%);fill-opacity:1;" d="M 85.824219 233.023438 C 91.183594 235.175781 98.578125 248.835938 89.5 249.738281 C 81.285156 250.554688 81.910156 236.804688 85.824219 233.023438 "/>
</g>
</g>
<g clip-path="url(#clip42)" clip-rule="nonzero">
<g clip-path="url(#clip43)" clip-rule="nonzero">
<path style=" stroke:none;fill-rule:nonzero;fill:rgb(14.593506%,13.038635%,13.424683%);fill-opacity:1;" d="M 216.898438 464.285156 C 210.707031 464.535156 195.792969 460.78125 194.4375 453.683594 C 201.148438 452.640625 213.269531 458.289062 216.898438 464.285156 "/>
</g>
</g>
<g clip-path="url(#clip44)" clip-rule="nonzero">
<g clip-path="url(#clip45)" clip-rule="nonzero">
<path style=" stroke:none;fill-rule:nonzero;fill:rgb(14.593506%,13.038635%,13.424683%);fill-opacity:1;" d="M 153.34375 550.070312 C 155.273438 552.128906 156.660156 548.167969 158.871094 550.398438 C 162.320312 553.871094 154.855469 553.871094 154.71875 554.566406 C 154.886719 553.710938 151.679688 571.5 146.511719 563.359375 C 144.976562 560.9375 151.082031 550.007812 153.34375 550.070312 "/>
</g>
</g>
<g clip-path="url(#clip46)" clip-rule="nonzero">
<g clip-path="url(#clip47)" clip-rule="nonzero">
<path style=" stroke:none;fill-rule:nonzero;fill:rgb(91.372681%,91.215515%,91.255188%);fill-opacity:1;" d="M 174.96875 603.679688 C 167.101562 565.960938 165.421875 527.429688 163.03125 489.066406 C 162.632812 482.628906 156.773438 442.65625 162.40625 440.03125 C 166.695312 438.03125 193.09375 464.234375 199.148438 467.238281 C 205.964844 470.621094 235.988281 473.761719 235.953125 481.3125 C 235.945312 483.78125 214.832031 500.621094 211.652344 504.820312 C 188.226562 535.777344 184.621094 567.457031 174.96875 603.679688 "/>
</g>
</g>
<g clip-path="url(#clip48)" clip-rule="nonzero">
<g clip-path="url(#clip49)" clip-rule="nonzero">
<path style=" stroke:none;fill-rule:nonzero;fill:rgb(42.71698%,41.674805%,41.934204%);fill-opacity:1;" d="M 197.121094 579.589844 C 197.476562 585.125 187.828125 592.953125 184.585938 587.605469 C 183.332031 585.539062 184.503906 574.179688 186.8125 572.613281 C 196.089844 566.3125 192.628906 576.351562 197.121094 579.589844 "/>
</g>
</g>
<g clip-path="url(#clip50)" clip-rule="nonzero">
<g clip-path="url(#clip51)" clip-rule="nonzero">
<path style=" stroke:none;fill-rule:nonzero;fill:rgb(14.593506%,13.038635%,13.424683%);fill-opacity:1;" d="M 278.195312 200.003906 C 269.679688 205.75 273.277344 204.964844 262.65625 205.609375 C 263.359375 205.566406 243.132812 209.425781 251.082031 201.472656 C 253.257812 199.296875 263.988281 197.3125 266.925781 197.140625 C 271.046875 196.898438 269.929688 193.664062 278.195312 200.003906 "/>
</g>
</g>
<g clip-path="url(#clip52)" clip-rule="nonzero">
<g clip-path="url(#clip53)" clip-rule="nonzero">
<path style=" stroke:none;fill-rule:nonzero;fill:rgb(14.593506%,13.038635%,13.424683%);fill-opacity:1;" d="M 254.523438 172.402344 C 261.152344 172.46875 283.09375 175.140625 270.832031 182.667969 C 258.3125 190.347656 243.355469 170.695312 254.523438 172.402344 "/>
</g>
</g>
<g clip-path="url(#clip54)" clip-rule="nonzero">
<g clip-path="url(#clip55)" clip-rule="nonzero">
<path style=" stroke:none;fill-rule:nonzero;fill:rgb(14.593506%,13.038635%,13.424683%);fill-opacity:1;" d="M 144.941406 83.78125 C 141.5625 86.972656 115.863281 112.015625 123.066406 97.394531 C 124.410156 94.667969 143.71875 77.222656 144.941406 83.78125 "/>
</g>
</g>
</g>
</svg>
