<?xml version="1.0" encoding="UTF-8"?>
<svg xmlns="http://www.w3.org/2000/svg" xmlns:xlink="http://www.w3.org/1999/xlink" width="600.207pt" height="839.197pt" viewBox="0 0 600.207 839.197" version="1.1">
<defs>
<clipPath id="clip1">
  <path d="M 0 0 L 600.207031 0 L 600.207031 839.195312 L 0 839.195312 Z M 0 0 "/>
</clipPath>
<clipPath id="clip2">
  <path d="M 0 356 L 587 356 L 587 839.195312 L 0 839.195312 Z M 0 356 "/>
</clipPath>
<clipPath id="clip3">
  <path d="M 0 0 L 0 16.355469 C 0 248.070312 0 479.785156 0 711.503906 L 0 824.65625 C 0.121094 834.015625 1.003906 837.8125 4.007812 839.195312 L 24.792969 839.195312 C 143.816406 839.195312 262.835938 839.195312 381.855469 839.195312 C 438.078125 839.195312 494.296875 839.195312 550.519531 839.195312 L 593.847656 839.195312 C 596.785156 838.308594 599.03125 836.960938 600.207031 834.972656 L 600.207031 3.734375 C 598.085938 0.5 598.867188 0.734375 598.320312 0.964844 C 597.90625 1.140625 596.734375 1.316406 592.992188 0 Z M 0 0 "/>
</clipPath>
<clipPath id="clip4">
  <path d="M 164 60 L 448 60 L 448 433 L 164 433 Z M 164 60 "/>
</clipPath>
<clipPath id="clip5">
  <path d="M 0 0 L 0 16.355469 C 0 248.070312 0 479.785156 0 711.503906 L 0 824.65625 C 0.121094 834.015625 1.003906 837.8125 4.007812 839.195312 L 24.792969 839.195312 C 143.816406 839.195312 262.835938 839.195312 381.855469 839.195312 C 438.078125 839.195312 494.296875 839.195312 550.519531 839.195312 L 593.847656 839.195312 C 596.785156 838.308594 599.03125 836.960938 600.207031 834.972656 L 600.207031 3.734375 C 598.085938 0.5 598.867188 0.734375 598.320312 0.964844 C 597.90625 1.140625 596.734375 1.316406 592.992188 0 Z M 0 0 "/>
</clipPath>
<clipPath id="clip6">
  <path d="M 401 785 L 505 785 L 505 839.195312 L 401 839.195312 Z M 401 785 "/>
</clipPath>
<clipPath id="clip7">
  <path d="M 0 0 L 0 16.355469 C 0 248.070312 0 479.785156 0 711.503906 L 0 824.65625 C 0.121094 834.015625 1.003906 837.8125 4.007812 839.195312 L 24.792969 839.195312 C 143.816406 839.195312 262.835938 839.195312 381.855469 839.195312 C 438.078125 839.195312 494.296875 839.195312 550.519531 839.195312 L 593.847656 839.195312 C 596.785156 838.308594 599.03125 836.960938 600.207031 834.972656 L 600.207031 3.734375 C 598.085938 0.5 598.867188 0.734375 598.320312 0.964844 C 597.90625 1.140625 596.734375 1.316406 592.992188 0 Z M 0 0 "/>
</clipPath>
<clipPath id="clip8">
  <path d="M 200 400 L 383 400 L 383 626 L 200 626 Z M 200 400 "/>
</clipPath>
<clipPath id="clip9">
  <path d="M 0 0 L 0 16.355469 C 0 248.070312 0 479.785156 0 711.503906 L 0 824.65625 C 0.121094 834.015625 1.003906 837.8125 4.007812 839.195312 L 24.792969 839.195312 C 143.816406 839.195312 262.835938 839.195312 381.855469 839.195312 C 438.078125 839.195312 494.296875 839.195312 550.519531 839.195312 L 593.847656 839.195312 C 596.785156 838.308594 599.03125 836.960938 600.207031 834.972656 L 600.207031 3.734375 C 598.085938 0.5 598.867188 0.734375 598.320312 0.964844 C 597.90625 1.140625 596.734375 1.316406 592.992188 0 Z M 0 0 "/>
</clipPath>
<clipPath id="clip10">
  <path d="M 479 716 L 540 716 L 540 796 L 479 796 Z M 479 716 "/>
</clipPath>
<clipPath id="clip11">
  <path d="M 0 0 L 0 16.355469 C 0 248.070312 0 479.785156 0 711.503906 L 0 824.65625 C 0.121094 834.015625 1.003906 837.8125 4.007812 839.195312 L 24.792969 839.195312 C 143.816406 839.195312 262.835938 839.195312 381.855469 839.195312 C 438.078125 839.195312 494.296875 839.195312 550.519531 839.195312 L 593.847656 839.195312 C 596.785156 838.308594 599.03125 836.960938 600.207031 834.972656 L 600.207031 3.734375 C 598.085938 0.5 598.867188 0.734375 598.320312 0.964844 C 597.90625 1.140625 596.734375 1.316406 592.992188 0 Z M 0 0 "/>
</clipPath>
<clipPath id="clip12">
  <path d="M 308 505 L 358 505 L 358 621 L 308 621 Z M 308 505 "/>
</clipPath>
<clipPath id="clip13">
  <path d="M 0 0 L 0 16.355469 C 0 248.070312 0 479.785156 0 711.503906 L 0 824.65625 C 0.121094 834.015625 1.003906 837.8125 4.007812 839.195312 L 24.792969 839.195312 C 143.816406 839.195312 262.835938 839.195312 381.855469 839.195312 C 438.078125 839.195312 494.296875 839.195312 550.519531 839.195312 L 593.847656 839.195312 C 596.785156 838.308594 599.03125 836.960938 600.207031 834.972656 L 600.207031 3.734375 C 598.085938 0.5 598.867188 0.734375 598.320312 0.964844 C 597.90625 1.140625 596.734375 1.316406 592.992188 0 Z M 0 0 "/>
</clipPath>
<clipPath id="clip14">
  <path d="M 475 716 L 544 716 L 544 806 L 475 806 Z M 475 716 "/>
</clipPath>
<clipPath id="clip15">
  <path d="M 0 0 L 0 16.355469 C 0 248.070312 0 479.785156 0 711.503906 L 0 824.65625 C 0.121094 834.015625 1.003906 837.8125 4.007812 839.195312 L 24.792969 839.195312 C 143.816406 839.195312 262.835938 839.195312 381.855469 839.195312 C 438.078125 839.195312 494.296875 839.195312 550.519531 839.195312 L 593.847656 839.195312 C 596.785156 838.308594 599.03125 836.960938 600.207031 834.972656 L 600.207031 3.734375 C 598.085938 0.5 598.867188 0.734375 598.320312 0.964844 C 597.90625 1.140625 596.734375 1.316406 592.992188 0 Z M 0 0 "/>
</clipPath>
<clipPath id="clip16">
  <path d="M 208 397 L 237 397 L 237 436 L 208 436 Z M 208 397 "/>
</clipPath>
<clipPath id="clip17">
  <path d="M 0 0 L 0 16.355469 C 0 248.070312 0 479.785156 0 711.503906 L 0 824.65625 C 0.121094 834.015625 1.003906 837.8125 4.007812 839.195312 L 24.792969 839.195312 C 143.816406 839.195312 262.835938 839.195312 381.855469 839.195312 C 438.078125 839.195312 494.296875 839.195312 550.519531 839.195312 L 593.847656 839.195312 C 596.785156 838.308594 599.03125 836.960938 600.207031 834.972656 L 600.207031 3.734375 C 598.085938 0.5 598.867188 0.734375 598.320312 0.964844 C 597.90625 1.140625 596.734375 1.316406 592.992188 0 Z M 0 0 "/>
</clipPath>
<clipPath id="clip18">
  <path d="M 310 603 L 314 603 L 314 612 L 310 612 Z M 310 603 "/>
</clipPath>
<clipPath id="clip19">
  <path d="M 0 0 L 0 16.355469 C 0 248.070312 0 479.785156 0 711.503906 L 0 824.65625 C 0.121094 834.015625 1.003906 837.8125 4.007812 839.195312 L 24.792969 839.195312 C 143.816406 839.195312 262.835938 839.195312 381.855469 839.195312 C 438.078125 839.195312 494.296875 839.195312 550.519531 839.195312 L 593.847656 839.195312 C 596.785156 838.308594 599.03125 836.960938 600.207031 834.972656 L 600.207031 3.734375 C 598.085938 0.5 598.867188 0.734375 598.320312 0.964844 C 597.90625 1.140625 596.734375 1.316406 592.992188 0 Z M 0 0 "/>
</clipPath>
<clipPath id="clip20">
  <path d="M 379 441 L 383 441 L 383 446 L 379 446 Z M 379 441 "/>
</clipPath>
<clipPath id="clip21">
  <path d="M 0 0 L 0 16.355469 C 0 248.070312 0 479.785156 0 711.503906 L 0 824.65625 C 0.121094 834.015625 1.003906 837.8125 4.007812 839.195312 L 24.792969 839.195312 C 143.816406 839.195312 262.835938 839.195312 381.855469 839.195312 C 438.078125 839.195312 494.296875 839.195312 550.519531 839.195312 L 593.847656 839.195312 C 596.785156 838.308594 599.03125 836.960938 600.207031 834.972656 L 600.207031 3.734375 C 598.085938 0.5 598.867188 0.734375 598.320312 0.964844 C 597.90625 1.140625 596.734375 1.316406 592.992188 0 Z M 0 0 "/>
</clipPath>
<clipPath id="clip22">
  <path d="M 214 84 L 429 84 L 429 433 L 214 433 Z M 214 84 "/>
</clipPath>
<clipPath id="clip23">
  <path d="M 0 0 L 0 16.355469 C 0 248.070312 0 479.785156 0 711.503906 L 0 824.65625 C 0.121094 834.015625 1.003906 837.8125 4.007812 839.195312 L 24.792969 839.195312 C 143.816406 839.195312 262.835938 839.195312 381.855469 839.195312 C 438.078125 839.195312 494.296875 839.195312 550.519531 839.195312 L 593.847656 839.195312 C 596.785156 838.308594 599.03125 836.960938 600.207031 834.972656 L 600.207031 3.734375 C 598.085938 0.5 598.867188 0.734375 598.320312 0.964844 C 597.90625 1.140625 596.734375 1.316406 592.992188 0 Z M 0 0 "/>
</clipPath>
<clipPath id="clip24">
  <path d="M 253 88 L 406 88 L 406 228 L 253 228 Z M 253 88 "/>
</clipPath>
<clipPath id="clip25">
  <path d="M 0 0 L 0 16.355469 C 0 248.070312 0 479.785156 0 711.503906 L 0 824.65625 C 0.121094 834.015625 1.003906 837.8125 4.007812 839.195312 L 24.792969 839.195312 C 143.816406 839.195312 262.835938 839.195312 381.855469 839.195312 C 438.078125 839.195312 494.296875 839.195312 550.519531 839.195312 L 593.847656 839.195312 C 596.785156 838.308594 599.03125 836.960938 600.207031 834.972656 L 600.207031 3.734375 C 598.085938 0.5 598.867188 0.734375 598.320312 0.964844 C 597.90625 1.140625 596.734375 1.316406 592.992188 0 Z M 0 0 "/>
</clipPath>
<clipPath id="clip26">
  <path d="M 163 60 L 382 60 L 382 297 L 163 297 Z M 163 60 "/>
</clipPath>
<clipPath id="clip27">
  <path d="M 0 0 L 0 16.355469 C 0 248.070312 0 479.785156 0 711.503906 L 0 824.65625 C 0.121094 834.015625 1.003906 837.8125 4.007812 839.195312 L 24.792969 839.195312 C 143.816406 839.195312 262.835938 839.195312 381.855469 839.195312 C 438.078125 839.195312 494.296875 839.195312 550.519531 839.195312 L 593.847656 839.195312 C 596.785156 838.308594 599.03125 836.960938 600.207031 834.972656 L 600.207031 3.734375 C 598.085938 0.5 598.867188 0.734375 598.320312 0.964844 C 597.90625 1.140625 596.734375 1.316406 592.992188 0 Z M 0 0 "/>
</clipPath>
<clipPath id="clip28">
  <path d="M 227 213 L 315 213 L 315 252 L 227 252 Z M 227 213 "/>
</clipPath>
<clipPath id="clip29">
  <path d="M 0 0 L 0 16.355469 C 0 248.070312 0 479.785156 0 711.503906 L 0 824.65625 C 0.121094 834.015625 1.003906 837.8125 4.007812 839.195312 L 24.792969 839.195312 C 143.816406 839.195312 262.835938 839.195312 381.855469 839.195312 C 438.078125 839.195312 494.296875 839.195312 550.519531 839.195312 L 593.847656 839.195312 C 596.785156 838.308594 599.03125 836.960938 600.207031 834.972656 L 600.207031 3.734375 C 598.085938 0.5 598.867188 0.734375 598.320312 0.964844 C 597.90625 1.140625 596.734375 1.316406 592.992188 0 Z M 0 0 "/>
</clipPath>
<clipPath id="clip30">
  <path d="M 165 251 L 195 251 L 195 314 L 165 314 Z M 165 251 "/>
</clipPath>
<clipPath id="clip31">
  <path d="M 0 0 L 0 16.355469 C 0 248.070312 0 479.785156 0 711.503906 L 0 824.65625 C 0.121094 834.015625 1.003906 837.8125 4.007812 839.195312 L 24.792969 839.195312 C 143.816406 839.195312 262.835938 839.195312 381.855469 839.195312 C 438.078125 839.195312 494.296875 839.195312 550.519531 839.195312 L 593.847656 839.195312 C 596.785156 838.308594 599.03125 836.960938 600.207031 834.972656 L 600.207031 3.734375 C 598.085938 0.5 598.867188 0.734375 598.320312 0.964844 C 597.90625 1.140625 596.734375 1.316406 592.992188 0 Z M 0 0 "/>
</clipPath>
<clipPath id="clip32">
  <path d="M 292 324 L 339 324 L 339 350 L 292 350 Z M 292 324 "/>
</clipPath>
<clipPath id="clip33">
  <path d="M 0 0 L 0 16.355469 C 0 248.070312 0 479.785156 0 711.503906 L 0 824.65625 C 0.121094 834.015625 1.003906 837.8125 4.007812 839.195312 L 24.792969 839.195312 C 143.816406 839.195312 262.835938 839.195312 381.855469 839.195312 C 438.078125 839.195312 494.296875 839.195312 550.519531 839.195312 L 593.847656 839.195312 C 596.785156 838.308594 599.03125 836.960938 600.207031 834.972656 L 600.207031 3.734375 C 598.085938 0.5 598.867188 0.734375 598.320312 0.964844 C 597.90625 1.140625 596.734375 1.316406 592.992188 0 Z M 0 0 "/>
</clipPath>
<clipPath id="clip34">
  <path d="M 272 365 L 368 365 L 368 376 L 272 376 Z M 272 365 "/>
</clipPath>
<clipPath id="clip35">
  <path d="M 0 0 L 0 16.355469 C 0 248.070312 0 479.785156 0 711.503906 L 0 824.65625 C 0.121094 834.015625 1.003906 837.8125 4.007812 839.195312 L 24.792969 839.195312 C 143.816406 839.195312 262.835938 839.195312 381.855469 839.195312 C 438.078125 839.195312 494.296875 839.195312 550.519531 839.195312 L 593.847656 839.195312 C 596.785156 838.308594 599.03125 836.960938 600.207031 834.972656 L 600.207031 3.734375 C 598.085938 0.5 598.867188 0.734375 598.320312 0.964844 C 597.90625 1.140625 596.734375 1.316406 592.992188 0 Z M 0 0 "/>
</clipPath>
<clipPath id="clip36">
  <path d="M 417 146 L 428 146 L 428 224 L 417 224 Z M 417 146 "/>
</clipPath>
<clipPath id="clip37">
  <path d="M 0 0 L 0 16.355469 C 0 248.070312 0 479.785156 0 711.503906 L 0 824.65625 C 0.121094 834.015625 1.003906 837.8125 4.007812 839.195312 L 24.792969 839.195312 C 143.816406 839.195312 262.835938 839.195312 381.855469 839.195312 C 438.078125 839.195312 494.296875 839.195312 550.519531 839.195312 L 593.847656 839.195312 C 596.785156 838.308594 599.03125 836.960938 600.207031 834.972656 L 600.207031 3.734375 C 598.085938 0.5 598.867188 0.734375 598.320312 0.964844 C 597.90625 1.140625 596.734375 1.316406 592.992188 0 Z M 0 0 "/>
</clipPath>
<clipPath id="clip38">
  <path d="M 293 379 L 344 379 L 344 398 L 293 398 Z M 293 379 "/>
</clipPath>
<clipPath id="clip39">
  <path d="M 0 0 L 0 16.355469 C 0 248.070312 0 479.785156 0 711.503906 L 0 824.65625 C 0.121094 834.015625 1.003906 837.8125 4.007812 839.195312 L 24.792969 839.195312 C 143.816406 839.195312 262.835938 839.195312 381.855469 839.195312 C 438.078125 839.195312 494.296875 839.195312 550.519531 839.195312 L 593.847656 839.195312 C 596.785156 838.308594 599.03125 836.960938 600.207031 834.972656 L 600.207031 3.734375 C 598.085938 0.5 598.867188 0.734375 598.320312 0.964844 C 597.90625 1.140625 596.734375 1.316406 592.992188 0 Z M 0 0 "/>
</clipPath>
<clipPath id="clip40">
  <path d="M 300 373 L 354 373 L 354 382 L 300 382 Z M 300 373 "/>
</clipPath>
<clipPath id="clip41">
  <path d="M 0 0 L 0 16.355469 C 0 248.070312 0 479.785156 0 711.503906 L 0 824.65625 C 0.121094 834.015625 1.003906 837.8125 4.007812 839.195312 L 24.792969 839.195312 C 143.816406 839.195312 262.835938 839.195312 381.855469 839.195312 C 438.078125 839.195312 494.296875 839.195312 550.519531 839.195312 L 593.847656 839.195312 C 596.785156 838.308594 599.03125 836.960938 600.207031 834.972656 L 600.207031 3.734375 C 598.085938 0.5 598.867188 0.734375 598.320312 0.964844 C 597.90625 1.140625 596.734375 1.316406 592.992188 0 Z M 0 0 "/>
</clipPath>
<clipPath id="clip42">
  <path d="M 385 107 L 426 107 L 426 139 L 385 139 Z M 385 107 "/>
</clipPath>
<clipPath id="clip43">
  <path d="M 0 0 L 0 16.355469 C 0 248.070312 0 479.785156 0 711.503906 L 0 824.65625 C 0.121094 834.015625 1.003906 837.8125 4.007812 839.195312 L 24.792969 839.195312 C 143.816406 839.195312 262.835938 839.195312 381.855469 839.195312 C 438.078125 839.195312 494.296875 839.195312 550.519531 839.195312 L 593.847656 839.195312 C 596.785156 838.308594 599.03125 836.960938 600.207031 834.972656 L 600.207031 3.734375 C 598.085938 0.5 598.867188 0.734375 598.320312 0.964844 C 597.90625 1.140625 596.734375 1.316406 592.992188 0 Z M 0 0 "/>
</clipPath>
<clipPath id="clip44">
  <path d="M 272 375 L 291 375 L 291 392 L 272 392 Z M 272 375 "/>
</clipPath>
<clipPath id="clip45">
  <path d="M 0 0 L 0 16.355469 C 0 248.070312 0 479.785156 0 711.503906 L 0 824.65625 C 0.121094 834.015625 1.003906 837.8125 4.007812 839.195312 L 24.792969 839.195312 C 143.816406 839.195312 262.835938 839.195312 381.855469 839.195312 C 438.078125 839.195312 494.296875 839.195312 550.519531 839.195312 L 593.847656 839.195312 C 596.785156 838.308594 599.03125 836.960938 600.207031 834.972656 L 600.207031 3.734375 C 598.085938 0.5 598.867188 0.734375 598.320312 0.964844 C 597.90625 1.140625 596.734375 1.316406 592.992188 0 Z M 0 0 "/>
</clipPath>
<clipPath id="clip46">
  <path d="M 171 226 L 189 226 L 189 248 L 171 248 Z M 171 226 "/>
</clipPath>
<clipPath id="clip47">
  <path d="M 0 0 L 0 16.355469 C 0 248.070312 0 479.785156 0 711.503906 L 0 824.65625 C 0.121094 834.015625 1.003906 837.8125 4.007812 839.195312 L 24.792969 839.195312 C 143.816406 839.195312 262.835938 839.195312 381.855469 839.195312 C 438.078125 839.195312 494.296875 839.195312 550.519531 839.195312 L 593.847656 839.195312 C 596.785156 838.308594 599.03125 836.960938 600.207031 834.972656 L 600.207031 3.734375 C 598.085938 0.5 598.867188 0.734375 598.320312 0.964844 C 597.90625 1.140625 596.734375 1.316406 592.992188 0 Z M 0 0 "/>
</clipPath>
<clipPath id="clip48">
  <path d="M 318 361 L 340 361 L 340 369 L 318 369 Z M 318 361 "/>
</clipPath>
<clipPath id="clip49">
  <path d="M 0 0 L 0 16.355469 C 0 248.070312 0 479.785156 0 711.503906 L 0 824.65625 C 0.121094 834.015625 1.003906 837.8125 4.007812 839.195312 L 24.792969 839.195312 C 143.816406 839.195312 262.835938 839.195312 381.855469 839.195312 C 438.078125 839.195312 494.296875 839.195312 550.519531 839.195312 L 593.847656 839.195312 C 596.785156 838.308594 599.03125 836.960938 600.207031 834.972656 L 600.207031 3.734375 C 598.085938 0.5 598.867188 0.734375 598.320312 0.964844 C 597.90625 1.140625 596.734375 1.316406 592.992188 0 Z M 0 0 "/>
</clipPath>
<clipPath id="clip50">
  <path d="M 165 233 L 183 233 L 183 250 L 165 250 Z M 165 233 "/>
</clipPath>
<clipPath id="clip51">
  <path d="M 0 0 L 0 16.355469 C 0 248.070312 0 479.785156 0 711.503906 L 0 824.65625 C 0.121094 834.015625 1.003906 837.8125 4.007812 839.195312 L 24.792969 839.195312 C 143.816406 839.195312 262.835938 839.195312 381.855469 839.195312 C 438.078125 839.195312 494.296875 839.195312 550.519531 839.195312 L 593.847656 839.195312 C 596.785156 838.308594 599.03125 836.960938 600.207031 834.972656 L 600.207031 3.734375 C 598.085938 0.5 598.867188 0.734375 598.320312 0.964844 C 597.90625 1.140625 596.734375 1.316406 592.992188 0 Z M 0 0 "/>
</clipPath>
<clipPath id="clip52">
  <path d="M 328 360 L 353 360 L 353 369 L 328 369 Z M 328 360 "/>
</clipPath>
<clipPath id="clip53">
  <path d="M 0 0 L 0 16.355469 C 0 248.070312 0 479.785156 0 711.503906 L 0 824.65625 C 0.121094 834.015625 1.003906 837.8125 4.007812 839.195312 L 24.792969 839.195312 C 143.816406 839.195312 262.835938 839.195312 381.855469 839.195312 C 438.078125 839.195312 494.296875 839.195312 550.519531 839.195312 L 593.847656 839.195312 C 596.785156 838.308594 599.03125 836.960938 600.207031 834.972656 L 600.207031 3.734375 C 598.085938 0.5 598.867188 0.734375 598.320312 0.964844 C 597.90625 1.140625 596.734375 1.316406 592.992188 0 Z M 0 0 "/>
</clipPath>
<clipPath id="clip54">
  <path d="M 296 362 L 320 362 L 320 368 L 296 368 Z M 296 362 "/>
</clipPath>
<clipPath id="clip55">
  <path d="M 0 0 L 0 16.355469 C 0 248.070312 0 479.785156 0 711.503906 L 0 824.65625 C 0.121094 834.015625 1.003906 837.8125 4.007812 839.195312 L 24.792969 839.195312 C 143.816406 839.195312 262.835938 839.195312 381.855469 839.195312 C 438.078125 839.195312 494.296875 839.195312 550.519531 839.195312 L 593.847656 839.195312 C 596.785156 838.308594 599.03125 836.960938 600.207031 834.972656 L 600.207031 3.734375 C 598.085938 0.5 598.867188 0.734375 598.320312 0.964844 C 597.90625 1.140625 596.734375 1.316406 592.992188 0 Z M 0 0 "/>
</clipPath>
<clipPath id="clip56">
  <path d="M 444 261 L 448 261 L 448 267 L 444 267 Z M 444 261 "/>
</clipPath>
<clipPath id="clip57">
  <path d="M 0 0 L 0 16.355469 C 0 248.070312 0 479.785156 0 711.503906 L 0 824.65625 C 0.121094 834.015625 1.003906 837.8125 4.007812 839.195312 L 24.792969 839.195312 C 143.816406 839.195312 262.835938 839.195312 381.855469 839.195312 C 438.078125 839.195312 494.296875 839.195312 550.519531 839.195312 L 593.847656 839.195312 C 596.785156 838.308594 599.03125 836.960938 600.207031 834.972656 L 600.207031 3.734375 C 598.085938 0.5 598.867188 0.734375 598.320312 0.964844 C 597.90625 1.140625 596.734375 1.316406 592.992188 0 Z M 0 0 "/>
</clipPath>
<clipPath id="clip58">
  <path d="M 373 100 L 379 100 L 379 106 L 373 106 Z M 373 100 "/>
</clipPath>
<clipPath id="clip59">
  <path d="M 0 0 L 0 16.355469 C 0 248.070312 0 479.785156 0 711.503906 L 0 824.65625 C 0.121094 834.015625 1.003906 837.8125 4.007812 839.195312 L 24.792969 839.195312 C 143.816406 839.195312 262.835938 839.195312 381.855469 839.195312 C 438.078125 839.195312 494.296875 839.195312 550.519531 839.195312 L 593.847656 839.195312 C 596.785156 838.308594 599.03125 836.960938 600.207031 834.972656 L 600.207031 3.734375 C 598.085938 0.5 598.867188 0.734375 598.320312 0.964844 C 597.90625 1.140625 596.734375 1.316406 592.992188 0 Z M 0 0 "/>
</clipPath>
<clipPath id="clip60">
  <path d="M 300 247 L 302 247 L 302 250 L 300 250 Z M 300 247 "/>
</clipPath>
<clipPath id="clip61">
  <path d="M 0 0 L 0 16.355469 C 0 248.070312 0 479.785156 0 711.503906 L 0 824.65625 C 0.121094 834.015625 1.003906 837.8125 4.007812 839.195312 L 24.792969 839.195312 C 143.816406 839.195312 262.835938 839.195312 381.855469 839.195312 C 438.078125 839.195312 494.296875 839.195312 550.519531 839.195312 L 593.847656 839.195312 C 596.785156 838.308594 599.03125 836.960938 600.207031 834.972656 L 600.207031 3.734375 C 598.085938 0.5 598.867188 0.734375 598.320312 0.964844 C 597.90625 1.140625 596.734375 1.316406 592.992188 0 Z M 0 0 "/>
</clipPath>
<clipPath id="clip62">
  <path d="M 384 108 L 387 108 L 387 113 L 384 113 Z M 384 108 "/>
</clipPath>
<clipPath id="clip63">
  <path d="M 0 0 L 0 16.355469 C 0 248.070312 0 479.785156 0 711.503906 L 0 824.65625 C 0.121094 834.015625 1.003906 837.8125 4.007812 839.195312 L 24.792969 839.195312 C 143.816406 839.195312 262.835938 839.195312 381.855469 839.195312 C 438.078125 839.195312 494.296875 839.195312 550.519531 839.195312 L 593.847656 839.195312 C 596.785156 838.308594 599.03125 836.960938 600.207031 834.972656 L 600.207031 3.734375 C 598.085938 0.5 598.867188 0.734375 598.320312 0.964844 C 597.90625 1.140625 596.734375 1.316406 592.992188 0 Z M 0 0 "/>
</clipPath>
<clipPath id="clip64">
  <path d="M 313 514 L 331 514 L 331 589 L 313 589 Z M 313 514 "/>
</clipPath>
<clipPath id="clip65">
  <path d="M 0 0 L 0 16.355469 C 0 248.070312 0 479.785156 0 711.503906 L 0 824.65625 C 0.121094 834.015625 1.003906 837.8125 4.007812 839.195312 L 24.792969 839.195312 C 143.816406 839.195312 262.835938 839.195312 381.855469 839.195312 C 438.078125 839.195312 494.296875 839.195312 550.519531 839.195312 L 593.847656 839.195312 C 596.785156 838.308594 599.03125 836.960938 600.207031 834.972656 L 600.207031 3.734375 C 598.085938 0.5 598.867188 0.734375 598.320312 0.964844 C 597.90625 1.140625 596.734375 1.316406 592.992188 0 Z M 0 0 "/>
</clipPath>
<clipPath id="clip66">
  <path d="M 317 497 L 335 497 L 335 533 L 317 533 Z M 317 497 "/>
</clipPath>
<clipPath id="clip67">
  <path d="M 0 0 L 0 16.355469 C 0 248.070312 0 479.785156 0 711.503906 L 0 824.65625 C 0.121094 834.015625 1.003906 837.8125 4.007812 839.195312 L 24.792969 839.195312 C 143.816406 839.195312 262.835938 839.195312 381.855469 839.195312 C 438.078125 839.195312 494.296875 839.195312 550.519531 839.195312 L 593.847656 839.195312 C 596.785156 838.308594 599.03125 836.960938 600.207031 834.972656 L 600.207031 3.734375 C 598.085938 0.5 598.867188 0.734375 598.320312 0.964844 C 597.90625 1.140625 596.734375 1.316406 592.992188 0 Z M 0 0 "/>
</clipPath>
<clipPath id="clip68">
  <path d="M 301 533 L 318 533 L 318 561 L 301 561 Z M 301 533 "/>
</clipPath>
<clipPath id="clip69">
  <path d="M 0 0 L 0 16.355469 C 0 248.070312 0 479.785156 0 711.503906 L 0 824.65625 C 0.121094 834.015625 1.003906 837.8125 4.007812 839.195312 L 24.792969 839.195312 C 143.816406 839.195312 262.835938 839.195312 381.855469 839.195312 C 438.078125 839.195312 494.296875 839.195312 550.519531 839.195312 L 593.847656 839.195312 C 596.785156 838.308594 599.03125 836.960938 600.207031 834.972656 L 600.207031 3.734375 C 598.085938 0.5 598.867188 0.734375 598.320312 0.964844 C 597.90625 1.140625 596.734375 1.316406 592.992188 0 Z M 0 0 "/>
</clipPath>
<clipPath id="clip70">
  <path d="M 322 495 L 328 495 L 328 500 L 322 500 Z M 322 495 "/>
</clipPath>
<clipPath id="clip71">
  <path d="M 0 0 L 0 16.355469 C 0 248.070312 0 479.785156 0 711.503906 L 0 824.65625 C 0.121094 834.015625 1.003906 837.8125 4.007812 839.195312 L 24.792969 839.195312 C 143.816406 839.195312 262.835938 839.195312 381.855469 839.195312 C 438.078125 839.195312 494.296875 839.195312 550.519531 839.195312 L 593.847656 839.195312 C 596.785156 838.308594 599.03125 836.960938 600.207031 834.972656 L 600.207031 3.734375 C 598.085938 0.5 598.867188 0.734375 598.320312 0.964844 C 597.90625 1.140625 596.734375 1.316406 592.992188 0 Z M 0 0 "/>
</clipPath>
<clipPath id="clip72">
  <path d="M 318 499 L 323 499 L 323 503 L 318 503 Z M 318 499 "/>
</clipPath>
<clipPath id="clip73">
  <path d="M 0 0 L 0 16.355469 C 0 248.070312 0 479.785156 0 711.503906 L 0 824.65625 C 0.121094 834.015625 1.003906 837.8125 4.007812 839.195312 L 24.792969 839.195312 C 143.816406 839.195312 262.835938 839.195312 381.855469 839.195312 C 438.078125 839.195312 494.296875 839.195312 550.519531 839.195312 L 593.847656 839.195312 C 596.785156 838.308594 599.03125 836.960938 600.207031 834.972656 L 600.207031 3.734375 C 598.085938 0.5 598.867188 0.734375 598.320312 0.964844 C 597.90625 1.140625 596.734375 1.316406 592.992188 0 Z M 0 0 "/>
</clipPath>
<clipPath id="clip74">
  <path d="M 311 526 L 312 526 L 312 531 L 311 531 Z M 311 526 "/>
</clipPath>
<clipPath id="clip75">
  <path d="M 0 0 L 0 16.355469 C 0 248.070312 0 479.785156 0 711.503906 L 0 824.65625 C 0.121094 834.015625 1.003906 837.8125 4.007812 839.195312 L 24.792969 839.195312 C 143.816406 839.195312 262.835938 839.195312 381.855469 839.195312 C 438.078125 839.195312 494.296875 839.195312 550.519531 839.195312 L 593.847656 839.195312 C 596.785156 838.308594 599.03125 836.960938 600.207031 834.972656 L 600.207031 3.734375 C 598.085938 0.5 598.867188 0.734375 598.320312 0.964844 C 597.90625 1.140625 596.734375 1.316406 592.992188 0 Z M 0 0 "/>
</clipPath>
<clipPath id="clip76">
  <path d="M 319 549 L 322 549 L 322 551 L 319 551 Z M 319 549 "/>
</clipPath>
<clipPath id="clip77">
  <path d="M 0 0 L 0 16.355469 C 0 248.070312 0 479.785156 0 711.503906 L 0 824.65625 C 0.121094 834.015625 1.003906 837.8125 4.007812 839.195312 L 24.792969 839.195312 C 143.816406 839.195312 262.835938 839.195312 381.855469 839.195312 C 438.078125 839.195312 494.296875 839.195312 550.519531 839.195312 L 593.847656 839.195312 C 596.785156 838.308594 599.03125 836.960938 600.207031 834.972656 L 600.207031 3.734375 C 598.085938 0.5 598.867188 0.734375 598.320312 0.964844 C 597.90625 1.140625 596.734375 1.316406 592.992188 0 Z M 0 0 "/>
</clipPath>
<clipPath id="clip78">
  <path d="M 346 249 L 419 249 L 419 328 L 346 328 Z M 346 249 "/>
</clipPath>
<clipPath id="clip79">
  <path d="M 0 0 L 0 16.355469 C 0 248.070312 0 479.785156 0 711.503906 L 0 824.65625 C 0.121094 834.015625 1.003906 837.8125 4.007812 839.195312 L 24.792969 839.195312 C 143.816406 839.195312 262.835938 839.195312 381.855469 839.195312 C 438.078125 839.195312 494.296875 839.195312 550.519531 839.195312 L 593.847656 839.195312 C 596.785156 838.308594 599.03125 836.960938 600.207031 834.972656 L 600.207031 3.734375 C 598.085938 0.5 598.867188 0.734375 598.320312 0.964844 C 597.90625 1.140625 596.734375 1.316406 592.992188 0 Z M 0 0 "/>
</clipPath>
<clipPath id="clip80">
  <path d="M 318 231 L 351 231 L 351 319 L 318 319 Z M 318 231 "/>
</clipPath>
<clipPath id="clip81">
  <path d="M 0 0 L 0 16.355469 C 0 248.070312 0 479.785156 0 711.503906 L 0 824.65625 C 0.121094 834.015625 1.003906 837.8125 4.007812 839.195312 L 24.792969 839.195312 C 143.816406 839.195312 262.835938 839.195312 381.855469 839.195312 C 438.078125 839.195312 494.296875 839.195312 550.519531 839.195312 L 593.847656 839.195312 C 596.785156 838.308594 599.03125 836.960938 600.207031 834.972656 L 600.207031 3.734375 C 598.085938 0.5 598.867188 0.734375 598.320312 0.964844 C 597.90625 1.140625 596.734375 1.316406 592.992188 0 Z M 0 0 "/>
</clipPath>
<clipPath id="clip82">
  <path d="M 241 266 L 292 266 L 292 313 L 241 313 Z M 241 266 "/>
</clipPath>
<clipPath id="clip83">
  <path d="M 0 0 L 0 16.355469 C 0 248.070312 0 479.785156 0 711.503906 L 0 824.65625 C 0.121094 834.015625 1.003906 837.8125 4.007812 839.195312 L 24.792969 839.195312 C 143.816406 839.195312 262.835938 839.195312 381.855469 839.195312 C 438.078125 839.195312 494.296875 839.195312 550.519531 839.195312 L 593.847656 839.195312 C 596.785156 838.308594 599.03125 836.960938 600.207031 834.972656 L 600.207031 3.734375 C 598.085938 0.5 598.867188 0.734375 598.320312 0.964844 C 597.90625 1.140625 596.734375 1.316406 592.992188 0 Z M 0 0 "/>
</clipPath>
<clipPath id="clip84">
  <path d="M 337 210 L 413 210 L 413 250 L 337 250 Z M 337 210 "/>
</clipPath>
<clipPath id="clip85">
  <path d="M 0 0 L 0 16.355469 C 0 248.070312 0 479.785156 0 711.503906 L 0 824.65625 C 0.121094 834.015625 1.003906 837.8125 4.007812 839.195312 L 24.792969 839.195312 C 143.816406 839.195312 262.835938 839.195312 381.855469 839.195312 C 438.078125 839.195312 494.296875 839.195312 550.519531 839.195312 L 593.847656 839.195312 C 596.785156 838.308594 599.03125 836.960938 600.207031 834.972656 L 600.207031 3.734375 C 598.085938 0.5 598.867188 0.734375 598.320312 0.964844 C 597.90625 1.140625 596.734375 1.316406 592.992188 0 Z M 0 0 "/>
</clipPath>
<clipPath id="clip86">
  <path d="M 308 399 L 351 399 L 351 419 L 308 419 Z M 308 399 "/>
</clipPath>
<clipPath id="clip87">
  <path d="M 0 0 L 0 16.355469 C 0 248.070312 0 479.785156 0 711.503906 L 0 824.65625 C 0.121094 834.015625 1.003906 837.8125 4.007812 839.195312 L 24.792969 839.195312 C 143.816406 839.195312 262.835938 839.195312 381.855469 839.195312 C 438.078125 839.195312 494.296875 839.195312 550.519531 839.195312 L 593.847656 839.195312 C 596.785156 838.308594 599.03125 836.960938 600.207031 834.972656 L 600.207031 3.734375 C 598.085938 0.5 598.867188 0.734375 598.320312 0.964844 C 597.90625 1.140625 596.734375 1.316406 592.992188 0 Z M 0 0 "/>
</clipPath>
<clipPath id="clip88">
  <path d="M 316 369 L 362 369 L 362 400 L 316 400 Z M 316 369 "/>
</clipPath>
<clipPath id="clip89">
  <path d="M 0 0 L 0 16.355469 C 0 248.070312 0 479.785156 0 711.503906 L 0 824.65625 C 0.121094 834.015625 1.003906 837.8125 4.007812 839.195312 L 24.792969 839.195312 C 143.816406 839.195312 262.835938 839.195312 381.855469 839.195312 C 438.078125 839.195312 494.296875 839.195312 550.519531 839.195312 L 593.847656 839.195312 C 596.785156 838.308594 599.03125 836.960938 600.207031 834.972656 L 600.207031 3.734375 C 598.085938 0.5 598.867188 0.734375 598.320312 0.964844 C 597.90625 1.140625 596.734375 1.316406 592.992188 0 Z M 0 0 "/>
</clipPath>
<clipPath id="clip90">
  <path d="M 350 316 L 374 316 L 374 349 L 350 349 Z M 350 316 "/>
</clipPath>
<clipPath id="clip91">
  <path d="M 0 0 L 0 16.355469 C 0 248.070312 0 479.785156 0 711.503906 L 0 824.65625 C 0.121094 834.015625 1.003906 837.8125 4.007812 839.195312 L 24.792969 839.195312 C 143.816406 839.195312 262.835938 839.195312 381.855469 839.195312 C 438.078125 839.195312 494.296875 839.195312 550.519531 839.195312 L 593.847656 839.195312 C 596.785156 838.308594 599.03125 836.960938 600.207031 834.972656 L 600.207031 3.734375 C 598.085938 0.5 598.867188 0.734375 598.320312 0.964844 C 597.90625 1.140625 596.734375 1.316406 592.992188 0 Z M 0 0 "/>
</clipPath>
<clipPath id="clip92">
  <path d="M 269 237 L 288 237 L 288 255 L 269 255 Z M 269 237 "/>
</clipPath>
<clipPath id="clip93">
  <path d="M 0 0 L 0 16.355469 C 0 248.070312 0 479.785156 0 711.503906 L 0 824.65625 C 0.121094 834.015625 1.003906 837.8125 4.007812 839.195312 L 24.792969 839.195312 C 143.816406 839.195312 262.835938 839.195312 381.855469 839.195312 C 438.078125 839.195312 494.296875 839.195312 550.519531 839.195312 L 593.847656 839.195312 C 596.785156 838.308594 599.03125 836.960938 600.207031 834.972656 L 600.207031 3.734375 C 598.085938 0.5 598.867188 0.734375 598.320312 0.964844 C 597.90625 1.140625 596.734375 1.316406 592.992188 0 Z M 0 0 "/>
</clipPath>
<clipPath id="clip94">
  <path d="M 374 234 L 387 234 L 387 253 L 374 253 Z M 374 234 "/>
</clipPath>
<clipPath id="clip95">
  <path d="M 0 0 L 0 16.355469 C 0 248.070312 0 479.785156 0 711.503906 L 0 824.65625 C 0.121094 834.015625 1.003906 837.8125 4.007812 839.195312 L 24.792969 839.195312 C 143.816406 839.195312 262.835938 839.195312 381.855469 839.195312 C 438.078125 839.195312 494.296875 839.195312 550.519531 839.195312 L 593.847656 839.195312 C 596.785156 838.308594 599.03125 836.960938 600.207031 834.972656 L 600.207031 3.734375 C 598.085938 0.5 598.867188 0.734375 598.320312 0.964844 C 597.90625 1.140625 596.734375 1.316406 592.992188 0 Z M 0 0 "/>
</clipPath>
<clipPath id="clip96">
  <path d="M 288 239 L 292 239 L 292 246 L 288 246 Z M 288 239 "/>
</clipPath>
<clipPath id="clip97">
  <path d="M 0 0 L 0 16.355469 C 0 248.070312 0 479.785156 0 711.503906 L 0 824.65625 C 0.121094 834.015625 1.003906 837.8125 4.007812 839.195312 L 24.792969 839.195312 C 143.816406 839.195312 262.835938 839.195312 381.855469 839.195312 C 438.078125 839.195312 494.296875 839.195312 550.519531 839.195312 L 593.847656 839.195312 C 596.785156 838.308594 599.03125 836.960938 600.207031 834.972656 L 600.207031 3.734375 C 598.085938 0.5 598.867188 0.734375 598.320312 0.964844 C 597.90625 1.140625 596.734375 1.316406 592.992188 0 Z M 0 0 "/>
</clipPath>
<clipPath id="clip98">
  <path d="M 268 250 L 273 250 L 273 254 L 268 254 Z M 268 250 "/>
</clipPath>
<clipPath id="clip99">
  <path d="M 0 0 L 0 16.355469 C 0 248.070312 0 479.785156 0 711.503906 L 0 824.65625 C 0.121094 834.015625 1.003906 837.8125 4.007812 839.195312 L 24.792969 839.195312 C 143.816406 839.195312 262.835938 839.195312 381.855469 839.195312 C 438.078125 839.195312 494.296875 839.195312 550.519531 839.195312 L 593.847656 839.195312 C 596.785156 838.308594 599.03125 836.960938 600.207031 834.972656 L 600.207031 3.734375 C 598.085938 0.5 598.867188 0.734375 598.320312 0.964844 C 597.90625 1.140625 596.734375 1.316406 592.992188 0 Z M 0 0 "/>
</clipPath>
<clipPath id="clip100">
  <path d="M 373 98 L 377 98 L 377 102 L 373 102 Z M 373 98 "/>
</clipPath>
<clipPath id="clip101">
  <path d="M 0 0 L 0 16.355469 C 0 248.070312 0 479.785156 0 711.503906 L 0 824.65625 C 0.121094 834.015625 1.003906 837.8125 4.007812 839.195312 L 24.792969 839.195312 C 143.816406 839.195312 262.835938 839.195312 381.855469 839.195312 C 438.078125 839.195312 494.296875 839.195312 550.519531 839.195312 L 593.847656 839.195312 C 596.785156 838.308594 599.03125 836.960938 600.207031 834.972656 L 600.207031 3.734375 C 598.085938 0.5 598.867188 0.734375 598.320312 0.964844 C 597.90625 1.140625 596.734375 1.316406 592.992188 0 Z M 0 0 "/>
</clipPath>
<clipPath id="clip102">
  <path d="M 368 95 L 371 95 L 371 98 L 368 98 Z M 368 95 "/>
</clipPath>
<clipPath id="clip103">
  <path d="M 0 0 L 0 16.355469 C 0 248.070312 0 479.785156 0 711.503906 L 0 824.65625 C 0.121094 834.015625 1.003906 837.8125 4.007812 839.195312 L 24.792969 839.195312 C 143.816406 839.195312 262.835938 839.195312 381.855469 839.195312 C 438.078125 839.195312 494.296875 839.195312 550.519531 839.195312 L 593.847656 839.195312 C 596.785156 838.308594 599.03125 836.960938 600.207031 834.972656 L 600.207031 3.734375 C 598.085938 0.5 598.867188 0.734375 598.320312 0.964844 C 597.90625 1.140625 596.734375 1.316406 592.992188 0 Z M 0 0 "/>
</clipPath>
<clipPath id="clip104">
  <path d="M 278 234 L 286 234 L 286 238 L 278 238 Z M 278 234 "/>
</clipPath>
<clipPath id="clip105">
  <path d="M 0 0 L 0 16.355469 C 0 248.070312 0 479.785156 0 711.503906 L 0 824.65625 C 0.121094 834.015625 1.003906 837.8125 4.007812 839.195312 L 24.792969 839.195312 C 143.816406 839.195312 262.835938 839.195312 381.855469 839.195312 C 438.078125 839.195312 494.296875 839.195312 550.519531 839.195312 L 593.847656 839.195312 C 596.785156 838.308594 599.03125 836.960938 600.207031 834.972656 L 600.207031 3.734375 C 598.085938 0.5 598.867188 0.734375 598.320312 0.964844 C 597.90625 1.140625 596.734375 1.316406 592.992188 0 Z M 0 0 "/>
</clipPath>
<clipPath id="clip106">
  <path d="M 284 237 L 289 237 L 289 241 L 284 241 Z M 284 237 "/>
</clipPath>
<clipPath id="clip107">
  <path d="M 0 0 L 0 16.355469 C 0 248.070312 0 479.785156 0 711.503906 L 0 824.65625 C 0.121094 834.015625 1.003906 837.8125 4.007812 839.195312 L 24.792969 839.195312 C 143.816406 839.195312 262.835938 839.195312 381.855469 839.195312 C 438.078125 839.195312 494.296875 839.195312 550.519531 839.195312 L 593.847656 839.195312 C 596.785156 838.308594 599.03125 836.960938 600.207031 834.972656 L 600.207031 3.734375 C 598.085938 0.5 598.867188 0.734375 598.320312 0.964844 C 597.90625 1.140625 596.734375 1.316406 592.992188 0 Z M 0 0 "/>
</clipPath>
<clipPath id="clip108">
  <path d="M 268 240 L 270 240 L 270 242 L 268 242 Z M 268 240 "/>
</clipPath>
<clipPath id="clip109">
  <path d="M 0 0 L 0 16.355469 C 0 248.070312 0 479.785156 0 711.503906 L 0 824.65625 C 0.121094 834.015625 1.003906 837.8125 4.007812 839.195312 L 24.792969 839.195312 C 143.816406 839.195312 262.835938 839.195312 381.855469 839.195312 C 438.078125 839.195312 494.296875 839.195312 550.519531 839.195312 L 593.847656 839.195312 C 596.785156 838.308594 599.03125 836.960938 600.207031 834.972656 L 600.207031 3.734375 C 598.085938 0.5 598.867188 0.734375 598.320312 0.964844 C 597.90625 1.140625 596.734375 1.316406 592.992188 0 Z M 0 0 "/>
</clipPath>
<clipPath id="clip110">
  <path d="M 328 381 L 334 381 L 334 384 L 328 384 Z M 328 381 "/>
</clipPath>
<clipPath id="clip111">
  <path d="M 0 0 L 0 16.355469 C 0 248.070312 0 479.785156 0 711.503906 L 0 824.65625 C 0.121094 834.015625 1.003906 837.8125 4.007812 839.195312 L 24.792969 839.195312 C 143.816406 839.195312 262.835938 839.195312 381.855469 839.195312 C 438.078125 839.195312 494.296875 839.195312 550.519531 839.195312 L 593.847656 839.195312 C 596.785156 838.308594 599.03125 836.960938 600.207031 834.972656 L 600.207031 3.734375 C 598.085938 0.5 598.867188 0.734375 598.320312 0.964844 C 597.90625 1.140625 596.734375 1.316406 592.992188 0 Z M 0 0 "/>
</clipPath>
<clipPath id="clip112">
  <path d="M 338 379 L 340 379 L 340 382 L 338 382 Z M 338 379 "/>
</clipPath>
<clipPath id="clip113">
  <path d="M 0 0 L 0 16.355469 C 0 248.070312 0 479.785156 0 711.503906 L 0 824.65625 C 0.121094 834.015625 1.003906 837.8125 4.007812 839.195312 L 24.792969 839.195312 C 143.816406 839.195312 262.835938 839.195312 381.855469 839.195312 C 438.078125 839.195312 494.296875 839.195312 550.519531 839.195312 L 593.847656 839.195312 C 596.785156 838.308594 599.03125 836.960938 600.207031 834.972656 L 600.207031 3.734375 C 598.085938 0.5 598.867188 0.734375 598.320312 0.964844 C 597.90625 1.140625 596.734375 1.316406 592.992188 0 Z M 0 0 "/>
</clipPath>
<clipPath id="clip114">
  <path d="M 339 215 L 406 215 L 406 240 L 339 240 Z M 339 215 "/>
</clipPath>
<clipPath id="clip115">
  <path d="M 0 0 L 0 16.355469 C 0 248.070312 0 479.785156 0 711.503906 L 0 824.65625 C 0.121094 834.015625 1.003906 837.8125 4.007812 839.195312 L 24.792969 839.195312 C 143.816406 839.195312 262.835938 839.195312 381.855469 839.195312 C 438.078125 839.195312 494.296875 839.195312 550.519531 839.195312 L 593.847656 839.195312 C 596.785156 838.308594 599.03125 836.960938 600.207031 834.972656 L 600.207031 3.734375 C 598.085938 0.5 598.867188 0.734375 598.320312 0.964844 C 597.90625 1.140625 596.734375 1.316406 592.992188 0 Z M 0 0 "/>
</clipPath>
<clipPath id="clip116">
  <path d="M 367 235 L 379 235 L 379 241 L 367 241 Z M 367 235 "/>
</clipPath>
<clipPath id="clip117">
  <path d="M 0 0 L 0 16.355469 C 0 248.070312 0 479.785156 0 711.503906 L 0 824.65625 C 0.121094 834.015625 1.003906 837.8125 4.007812 839.195312 L 24.792969 839.195312 C 143.816406 839.195312 262.835938 839.195312 381.855469 839.195312 C 438.078125 839.195312 494.296875 839.195312 550.519531 839.195312 L 593.847656 839.195312 C 596.785156 838.308594 599.03125 836.960938 600.207031 834.972656 L 600.207031 3.734375 C 598.085938 0.5 598.867188 0.734375 598.320312 0.964844 C 597.90625 1.140625 596.734375 1.316406 592.992188 0 Z M 0 0 "/>
</clipPath>
<clipPath id="clip118">
  <path d="M 379 240 L 381 240 L 381 245 L 379 245 Z M 379 240 "/>
</clipPath>
<clipPath id="clip119">
  <path d="M 0 0 L 0 16.355469 C 0 248.070312 0 479.785156 0 711.503906 L 0 824.65625 C 0.121094 834.015625 1.003906 837.8125 4.007812 839.195312 L 24.792969 839.195312 C 143.816406 839.195312 262.835938 839.195312 381.855469 839.195312 C 438.078125 839.195312 494.296875 839.195312 550.519531 839.195312 L 593.847656 839.195312 C 596.785156 838.308594 599.03125 836.960938 600.207031 834.972656 L 600.207031 3.734375 C 598.085938 0.5 598.867188 0.734375 598.320312 0.964844 C 597.90625 1.140625 596.734375 1.316406 592.992188 0 Z M 0 0 "/>
</clipPath>
<clipPath id="clip120">
  <path d="M 384 236 L 386 236 L 386 238 L 384 238 Z M 384 236 "/>
</clipPath>
<clipPath id="clip121">
  <path d="M 0 0 L 0 16.355469 C 0 248.070312 0 479.785156 0 711.503906 L 0 824.65625 C 0.121094 834.015625 1.003906 837.8125 4.007812 839.195312 L 24.792969 839.195312 C 143.816406 839.195312 262.835938 839.195312 381.855469 839.195312 C 438.078125 839.195312 494.296875 839.195312 550.519531 839.195312 L 593.847656 839.195312 C 596.785156 838.308594 599.03125 836.960938 600.207031 834.972656 L 600.207031 3.734375 C 598.085938 0.5 598.867188 0.734375 598.320312 0.964844 C 597.90625 1.140625 596.734375 1.316406 592.992188 0 Z M 0 0 "/>
</clipPath>
<clipPath id="clip122">
  <path d="M 280 236 L 286 236 L 286 240 L 280 240 Z M 280 236 "/>
</clipPath>
<clipPath id="clip123">
  <path d="M 0 0 L 0 16.355469 C 0 248.070312 0 479.785156 0 711.503906 L 0 824.65625 C 0.121094 834.015625 1.003906 837.8125 4.007812 839.195312 L 24.792969 839.195312 C 143.816406 839.195312 262.835938 839.195312 381.855469 839.195312 C 438.078125 839.195312 494.296875 839.195312 550.519531 839.195312 L 593.847656 839.195312 C 596.785156 838.308594 599.03125 836.960938 600.207031 834.972656 L 600.207031 3.734375 C 598.085938 0.5 598.867188 0.734375 598.320312 0.964844 C 597.90625 1.140625 596.734375 1.316406 592.992188 0 Z M 0 0 "/>
</clipPath>
<clipPath id="clip124">
  <path d="M 286 240 L 290 240 L 290 245 L 286 245 Z M 286 240 "/>
</clipPath>
<clipPath id="clip125">
  <path d="M 0 0 L 0 16.355469 C 0 248.070312 0 479.785156 0 711.503906 L 0 824.65625 C 0.121094 834.015625 1.003906 837.8125 4.007812 839.195312 L 24.792969 839.195312 C 143.816406 839.195312 262.835938 839.195312 381.855469 839.195312 C 438.078125 839.195312 494.296875 839.195312 550.519531 839.195312 L 593.847656 839.195312 C 596.785156 838.308594 599.03125 836.960938 600.207031 834.972656 L 600.207031 3.734375 C 598.085938 0.5 598.867188 0.734375 598.320312 0.964844 C 597.90625 1.140625 596.734375 1.316406 592.992188 0 Z M 0 0 "/>
</clipPath>
</defs>
<g id="surface1">
<g clip-path="url(#clip1)" clip-rule="nonzero">
<path style=" stroke:none;fill-rule:nonzero;fill:rgb(30.395508%,30.604553%,31.260681%);fill-opacity:1;" d="M 0 839.195312 L 600.207031 839.195312 L 600.207031 0 L 0 0 Z M 0 839.195312 "/>
</g>
<g clip-path="url(#clip2)" clip-rule="nonzero">
<g clip-path="url(#clip3)" clip-rule="nonzero">
<path style=" stroke:none;fill-rule:nonzero;fill:rgb(6.593323%,6.036377%,5.34668%);fill-opacity:1;" d="M 479.976562 793.042969 C 477.972656 793.335938 474.351562 802.457031 475.402344 804.035156 C 478.59375 808.832031 493.777344 799.886719 496.378906 798.207031 C 513.722656 787.007812 530.917969 763.160156 537.988281 744.132812 C 547.125 719.53125 533.816406 705.347656 512.359375 725.785156 C 496.257812 741.125 484.898438 771.902344 479.976562 793.042969 M 534.105469 839.109375 C 527.410156 839.109375 520.191406 840.019531 513.597656 839.109375 C 504.234375 837.816406 505.296875 836.0625 496.804688 833.273438 C 490.074219 831.0625 482.121094 830.695312 476.007812 829.066406 C 471.113281 827.765625 470.730469 813.679688 465.410156 824.871094 C 456.269531 813.574219 477.410156 777.785156 452.976562 786.804688 C 452.214844 787.085938 457.71875 793.519531 453.179688 794.164062 C 448.550781 794.820312 446.894531 791.71875 445.09375 791.667969 C 443.980469 791.636719 422.707031 785.160156 422.335938 786.066406 C 421.335938 789.007812 421.683594 791.871094 423.386719 794.660156 C 421.105469 796.246094 418.574219 796.707031 415.800781 796.042969 C 414.824219 795.765625 413.847656 795.488281 412.871094 795.210938 C 408.882812 796.066406 408.34375 798.941406 411.253906 803.84375 C 407.46875 810.613281 409.757812 832.367188 401.105469 839.109375 C 395.863281 843.191406 371.089844 839.109375 365.039062 839.109375 C 351.015625 839.109375 336.988281 839.105469 322.964844 839.105469 C 296.917969 839.105469 270.871094 839.105469 244.824219 839.109375 C 190.722656 839.113281 136.625 839.121094 82.527344 839.148438 C 68.503906 839.15625 54.476562 839.160156 40.453125 839.171875 C 35.167969 839.175781 8.691406 842.007812 4.386719 839.195312 C -5.984375 832.421875 0.0507812 787.722656 0.0625 775.136719 C 0.101562 723.347656 0.109375 671.558594 0.109375 619.769531 C 0.109375 603.832031 0.105469 587.898438 0.105469 571.964844 C 0.105469 564.136719 -3.945312 541.222656 0.105469 536.109375 C 9.953125 523.671875 44.410156 519.566406 57.941406 513.886719 C 75.53125 506.5 89.035156 490.53125 105.605469 481.132812 C 125.558594 469.8125 144.925781 463.46875 162.050781 447.511719 C 178.910156 431.8125 187.746094 419.617188 198.320312 399.816406 C 203.773438 389.601562 205.617188 395.929688 207.78125 386.179688 C 209.707031 377.503906 202.113281 366.378906 203.804688 356.539062 C 211.53125 372.054688 218.824219 395.871094 234.800781 405.425781 C 239.484375 408.222656 248.066406 405.390625 255.800781 410.695312 C 263.132812 415.722656 268.113281 424.03125 275.703125 428.613281 C 288.816406 436.527344 308.726562 437.707031 323.59375 439.914062 C 329.996094 440.867188 329.464844 443.457031 335.820312 442.980469 C 338.703125 442.765625 348.679688 433.367188 351.34375 437.789062 C 353.632812 441.578125 327.507812 452.671875 326.636719 452.867188 C 318.515625 454.675781 293.847656 443.988281 291.488281 447.324219 C 282.886719 459.488281 349.347656 455.671875 345.378906 450.226562 C 348.117188 453.980469 325.191406 471.007812 318.628906 475.070312 C 304.152344 484.039062 277.027344 463.753906 261.460938 453.605469 C 252.300781 447.632812 242.246094 439.886719 236.898438 433.277344 C 232.597656 427.960938 228.265625 418.1875 223.625 411.820312 C 219.738281 406.492188 217.292969 397.316406 210.011719 397.636719 C 200.808594 398.039062 200.808594 421.460938 201.203125 426.898438 C 202.945312 450.941406 217.113281 477.316406 228.363281 498.128906 C 235.210938 510.804688 307.648438 628.355469 313.15625 625.75 C 319.523438 622.742188 304.457031 579.960938 312.472656 573.402344 C 314.472656 571.769531 319.378906 595.773438 322.507812 597.839844 C 311.789062 599.851562 316.929688 604.421875 318.089844 612.21875 C 318.503906 615.023438 336.429688 607.941406 336.796875 611.746094 C 337 613.878906 330.957031 614.035156 329.707031 614.585938 C 337.957031 628.148438 340.65625 606.425781 342.089844 605.769531 C 340.34375 606.570312 354.0625 624.800781 357.046875 607.941406 C 359.644531 593.289062 344.050781 604.183594 340.816406 602.113281 C 339.277344 604.269531 348.496094 593.898438 347.515625 592.519531 C 345.199219 589.257812 333.039062 595.359375 345.453125 586.949219 C 343.765625 584.257812 341.304688 583.679688 338.078125 585.21875 C 337.464844 584.925781 335.46875 569.1875 341.246094 569.027344 C 344.160156 575.136719 362.503906 613.371094 373.28125 610.59375 C 378.625 609.21875 380.921875 565.890625 381.425781 560.347656 C 383.539062 537.027344 380.996094 513.691406 381.523438 490.277344 C 381.875 474.609375 381.171875 456.1875 381.597656 442.230469 C 381.546875 443.902344 380.167969 409.300781 388.714844 417.691406 C 391.761719 420.683594 388.988281 440.886719 390.804688 446.671875 C 394.410156 458.148438 400.980469 464.65625 410.460938 471.855469 C 433 488.972656 459.917969 502.464844 484.425781 516.566406 C 507.664062 529.941406 531.28125 540.476562 546.1875 563.519531 C 562.792969 589.183594 564.710938 616.921875 572.203125 645.269531 C 578.164062 667.832031 577.746094 694.867188 580.371094 719.089844 C 583.75 750.34375 587.332031 781.886719 585.679688 813.28125 C 585.042969 825.371094 589.878906 825.4375 577.464844 831.824219 C 571.234375 835.03125 561.5625 836.28125 555.226562 833.363281 C 547.570312 829.839844 548.367188 821.546875 539.84375 823.199219 C 529.003906 825.304688 533.578125 830.945312 534.105469 839.109375 "/>
</g>
</g>
<g clip-path="url(#clip4)" clip-rule="nonzero">
<g clip-path="url(#clip5)" clip-rule="nonzero">
<path style=" stroke:none;fill-rule:nonzero;fill:rgb(30.395508%,30.604553%,31.260681%);fill-opacity:1;" d="M 301.394531 247.160156 C 299.136719 251.164062 302.605469 250.066406 301.394531 247.160156 M 447.308594 263.25 C 446.234375 260.492188 445.238281 260.695312 444.316406 263.867188 C 443.621094 271.179688 447.960938 262.097656 447.308594 263.25 M 182.367188 249.695312 C 181.40625 245.21875 173.949219 231.953125 168.261719 233.351562 C 157 236.128906 182.332031 249.65625 182.367188 249.695312 M 284.964844 379.417969 C 286.808594 372.402344 273.683594 375.085938 272.402344 381.476562 C 270.839844 389.25 288.066406 395.183594 290.589844 387.9375 C 291.761719 384.582031 282.953125 383.3125 284.964844 379.417969 M 173.148438 302.828125 C 171.925781 318.808594 189.933594 313.84375 193.96875 303.796875 C 194.242188 303.117188 189.367188 271.746094 188.964844 271.652344 C 185.324219 270.816406 180.875 278.3125 179 277.367188 C 172.050781 273.867188 170.039062 263.003906 173.332031 256.609375 C 185.171875 265.140625 183.152344 246.746094 170.183594 252.347656 C 154.25 259.230469 180.835938 292.589844 173.148438 302.828125 M 328.882812 361.519531 C 318.261719 362.53125 307.644531 364.429688 296.996094 366.167969 C 299.742188 366.605469 302.488281 367.046875 305.230469 367.484375 C 302.3125 372.132812 271.550781 361.691406 272.953125 370.621094 C 273.671875 375.203125 304.398438 373.257812 308.144531 374.296875 C 298.316406 376.125 298.316406 378.332031 308.148438 380.921875 C 303.277344 384.003906 298.996094 377.453125 293.726562 380.71875 C 302.621094 383.757812 307.9375 391.417969 314.269531 397.730469 C 304.90625 399.707031 272.292969 399.507812 281.285156 414.601562 C 284.242188 419.558594 299.382812 425.542969 306.941406 428.390625 C 321.457031 433.863281 344.804688 434.503906 358.320312 426.601562 C 375.140625 416.765625 373.5 400.925781 384.429688 388.308594 C 388.265625 383.882812 391.484375 390.582031 395.675781 386.390625 C 397.96875 384.097656 402.660156 372.28125 404.484375 368.65625 C 412.046875 353.652344 407.925781 332.25 417.042969 318.589844 C 419.402344 315.050781 424.308594 320.046875 427.542969 313.550781 C 431.523438 305.554688 426.765625 295.484375 425.417969 287.625 C 421.585938 265.261719 419.949219 239.59375 421.480469 216.945312 C 422.824219 218.960938 423.667969 221.167969 424.015625 223.570312 C 424.613281 223.449219 431.25 150.867188 427.066406 147.28125 C 411.570312 134.011719 422.863281 208.007812 421.328125 215.058594 C 418.996094 192.992188 416.457031 167.980469 408.804688 147.105469 C 406.367188 140.449219 385.484375 114.421875 386.285156 110.007812 C 399.195312 119.5 412.105469 128.992188 425.011719 138.484375 C 424.484375 128.296875 409.535156 119.160156 402.117188 114.203125 C 391.648438 107.207031 390.34375 106.566406 383.890625 109.523438 C 380.410156 107.488281 377.871094 104.644531 376.277344 100.996094 C 387.347656 97.3125 377.40625 94.296875 370.199219 88.425781 C 360.015625 80.125 347.355469 68.984375 334.507812 65.421875 C 304.066406 56.980469 260.414062 59.042969 231.738281 71.894531 C 202.726562 84.894531 182.019531 110.074219 170.878906 139.609375 C 166.359375 151.59375 163.085938 170.332031 164.703125 182.957031 C 166.621094 197.917969 178.125 209.957031 179.207031 226.925781 C 176.53125 225.636719 173.980469 225.839844 171.558594 227.535156 C 170.546875 229.03125 183.242188 248.625 187.03125 247.214844 C 189.019531 246.476562 184.953125 232.394531 185.480469 234.984375 C 196.746094 245.808594 179.890625 268.917969 182.15625 270.277344 C 184.285156 271.554688 189.179688 266.140625 190.4375 267.886719 C 195.582031 275.027344 192.9375 288.328125 198.105469 296.6875 C 198.105469 261.949219 198.019531 228.03125 203.03125 193.839844 C 206.917969 167.3125 202.921875 139.8125 217.867188 118.171875 C 238.148438 88.800781 262.230469 93.335938 292.890625 83.210938 C 308.410156 78.082031 312.472656 76.132812 328.699219 80.015625 C 339.925781 82.703125 361.015625 85.570312 368.21875 95.929688 C 356.65625 90.988281 338.882812 80.734375 325.523438 84.257812 C 318.730469 86.046875 319.289062 91.433594 315.175781 92.460938 C 311.320312 93.425781 305.253906 90.414062 300.625 91.097656 C 298.34375 91.4375 296.121094 98.871094 293.898438 98.914062 C 288.46875 99.023438 286.019531 93.925781 280.398438 93.363281 C 273.765625 92.703125 252.355469 104.738281 244.726562 107.765625 C 232.691406 112.539062 223.648438 115.160156 218.195312 127.90625 C 210.28125 146.417969 219.691406 157.449219 223.0625 174.363281 C 225.617188 187.191406 218.65625 201.316406 215.109375 213.925781 C 222.46875 205.484375 221.371094 215.234375 223.246094 215.605469 C 230.972656 217.125 234.761719 213.875 243.03125 212.757812 C 251.917969 211.558594 302.925781 222.863281 304.316406 219.40625 C 317.535156 228.589844 321.167969 233.761719 316.789062 250.261719 C 315.351562 255.671875 310.792969 261.152344 306.144531 260.472656 C 303.585938 260.097656 291.105469 248.101562 291.28125 245.992188 C 292.1875 245.785156 297.054688 249.203125 297.660156 247.253906 C 299.667969 240.800781 294.652344 236.558594 304.125 233.28125 C 302.945312 233.691406 315.96875 243.164062 314.734375 240.617188 C 308.699219 228.300781 299.425781 224.109375 286.671875 220.964844 C 282.328125 219.890625 272.28125 217.332031 267.984375 218.285156 C 263.75 219.222656 264.699219 222.675781 263.167969 223.183594 C 259.066406 224.554688 255.53125 227.441406 251.738281 228.859375 C 248.824219 229.945312 249.578125 224.65625 249.359375 223.457031 C 248.945312 221.210938 258.71875 226.539062 258.1875 220.964844 C 256.605469 204.371094 221.367188 221.40625 228.449219 234.605469 C 231.640625 240.546875 248.28125 240.414062 251.355469 240.382812 C 261.796875 240.285156 262.726562 226.785156 263.21875 246.929688 C 258.871094 245.898438 263.160156 241.234375 259.757812 239.621094 C 243.019531 264.023438 285.160156 250.816406 287.664062 255.484375 C 292.339844 264.207031 257.894531 263.5625 255.488281 262.394531 C 247.378906 258.457031 243.035156 245.425781 229.316406 246.496094 C 197.398438 248.980469 228.730469 288.253906 224.632812 305.953125 C 235.308594 306.304688 230.59375 309.175781 234.777344 314.84375 C 232.28125 317.464844 231.875 319.53125 233.5625 321.035156 C 235.628906 323.136719 237.828125 325.105469 240.15625 326.9375 C 248.726562 341.421875 257.851562 335.90625 268.132812 347.238281 C 275.136719 354.953125 270.660156 365.3125 283.714844 362.605469 C 285.710938 362.191406 293.527344 351.808594 295.09375 350.265625 C 301.28125 344.1875 312.808594 342.34375 302.15625 334.882812 C 306.714844 334.359375 328.496094 346.332031 330.097656 349.324219 C 333.394531 342.960938 339.625 343.953125 338.175781 336.820312 C 335.3125 322.707031 332.535156 333.570312 324.570312 329.847656 C 319.105469 327.296875 288.019531 312.277344 293.21875 329.929688 C 284.21875 326.226562 295.871094 287.796875 295.34375 287.734375 C 306.734375 289.140625 293.453125 300.25 294.585938 308.042969 C 296.640625 322.171875 302.757812 315.535156 313.804688 318.265625 C 322.648438 320.457031 326.066406 326.507812 337.011719 325.410156 C 344.183594 324.6875 350.578125 320.394531 357.363281 318.335938 C 358.679688 325.921875 353.304688 324.4375 351.183594 328.648438 C 346.460938 338.007812 342.816406 330.800781 345.9375 342.949219 C 347.925781 350.691406 357.390625 355.316406 362.734375 359.859375 C 363.484375 360.496094 383.773438 373.757812 367.941406 370.730469 C 367.492188 353.253906 356.382812 377.835938 350.980469 367.484375 C 359.125 364.570312 330.324219 361.496094 328.882812 361.519531 "/>
</g>
</g>
<g clip-path="url(#clip6)" clip-rule="nonzero">
<g clip-path="url(#clip7)" clip-rule="nonzero">
<path style=" stroke:none;fill-rule:nonzero;fill:rgb(30.395508%,30.604553%,31.260681%);fill-opacity:1;" d="M 401.105469 839.109375 C 401.171875 832.632812 408.765625 808.285156 411.253906 803.84375 C 408.386719 799.367188 408.53125 796.664062 411.691406 795.726562 C 412.996094 794.859375 414.363281 794.964844 415.800781 796.042969 C 418.574219 796.707031 421.105469 796.246094 423.386719 794.660156 C 421.683594 791.871094 421.335938 789.003906 422.339844 786.066406 C 422.113281 786.617188 442.058594 789.851562 443.492188 790.074219 C 447.5 790.6875 445.695312 796.003906 451.46875 795.398438 C 459.960938 794.503906 450.878906 787.578125 452.976562 786.804688 C 477.378906 777.796875 456.324219 813.644531 465.40625 824.871094 C 470.882812 813.363281 468.125 821.921875 471.457031 823.738281 C 471.574219 825.578125 472.089844 827.265625 473.003906 828.804688 C 473.789062 831.1875 475.601562 831 478.441406 828.238281 C 484.402344 831.449219 502.128906 830.40625 504.105469 839.109375 Z M 401.105469 839.109375 "/>
</g>
</g>
<g clip-path="url(#clip8)" clip-rule="nonzero">
<g clip-path="url(#clip9)" clip-rule="nonzero">
<path style=" stroke:none;fill-rule:nonzero;fill:rgb(91.372681%,91.215515%,91.255188%);fill-opacity:1;" d="M 314.066406 480.296875 C 324.0625 488.644531 346.964844 474.769531 352.03125 465.132812 C 354.003906 461.382812 352.972656 452.027344 355.277344 451.714844 C 357.335938 451.433594 356.820312 458.734375 358.417969 457.339844 C 365.449219 451.199219 366.714844 437.898438 373.132812 432.285156 C 385.292969 421.660156 380.464844 445.195312 380.671875 455.085938 C 381.273438 483.320312 382.171875 511.507812 382.6875 539.628906 C 382.839844 547.804688 380.648438 608.699219 373.28125 610.59375 C 366.355469 612.378906 349.484375 585.585938 346.84375 580.777344 C 340.035156 568.367188 336.222656 556.425781 335.316406 542.582031 C 335.121094 539.660156 330.710938 493.363281 324.625 496 C 314.527344 500.390625 304.53125 561.109375 302.199219 560.394531 C 302.925781 560.617188 324.679688 522.574219 318.027344 556.605469 C 314.753906 573.351562 307.367188 581.886719 309.925781 601.15625 C 310.351562 604.351562 316.386719 624.222656 313.15625 625.75 C 308.773438 627.824219 247.703125 530.316406 241.457031 520.421875 C 223 491.179688 187.730469 436.367188 206.042969 400.980469 C 212.09375 403.488281 218.25 419.988281 223.21875 425.164062 C 230.667969 432.925781 239.976562 438.785156 248.75 444.902344 C 269.503906 459.371094 290.472656 471.128906 314.066406 480.296875 "/>
</g>
</g>
<g clip-path="url(#clip10)" clip-rule="nonzero">
<g clip-path="url(#clip11)" clip-rule="nonzero">
<path style=" stroke:none;fill-rule:nonzero;fill:rgb(91.372681%,91.215515%,91.255188%);fill-opacity:1;" d="M 479.976562 793.042969 C 484.410156 774.007812 493.84375 751.503906 505.300781 735.484375 C 512.710938 725.125 533.871094 704.089844 538.757812 726.417969 C 543.246094 746.925781 485.835938 807.269531 479.976562 793.042969 "/>
</g>
</g>
<g clip-path="url(#clip12)" clip-rule="nonzero">
<g clip-path="url(#clip13)" clip-rule="nonzero">
<path style=" stroke:none;fill-rule:nonzero;fill:rgb(30.395508%,30.604553%,31.260681%);fill-opacity:1;" d="M 309.929688 601.15625 C 307.496094 584.023438 307.714844 566.058594 320.9375 553.050781 C 321.664062 554.964844 323.414062 591.527344 328.832031 588.394531 C 332.332031 586.371094 327.773438 552.996094 326.554688 548.300781 C 324.796875 541.527344 320.355469 512.339844 315.234375 514.175781 C 314.894531 510.765625 315.792969 507.722656 317.941406 505.050781 C 318.582031 506.652344 319.382812 508.167969 320.347656 509.597656 C 329.261719 512.386719 320.386719 497.652344 328.78125 516.566406 C 328.691406 516.363281 332.816406 532.539062 331.597656 532.457031 C 336.890625 532.820312 331.558594 526.015625 334.273438 524.054688 C 337.992188 537.515625 338.078125 553.046875 340.371094 567.027344 C 340.261719 566.382812 334.515625 583.515625 338.078125 585.21875 C 341.308594 583.679688 343.765625 584.257812 345.453125 586.949219 C 333.039062 595.363281 345.199219 589.257812 347.515625 592.519531 C 348.496094 593.898438 339.277344 604.269531 340.816406 602.113281 C 344.269531 604.320312 359.496094 594.121094 357.046875 607.941406 C 354.230469 623.84375 339.65625 606.886719 342.089844 605.769531 C 340.320312 606.582031 339.550781 630.816406 329.707031 614.585938 C 330.960938 614.035156 337.003906 613.878906 336.796875 611.746094 C 336.429688 607.941406 318.503906 615.023438 318.089844 612.21875 C 316.933594 604.453125 311.652344 599.878906 322.507812 597.839844 C 318.195312 594.992188 314.507812 571.742188 312.472656 573.402344 C 304.605469 579.839844 317.882812 594.121094 309.929688 601.15625 "/>
</g>
</g>
<g clip-path="url(#clip14)" clip-rule="nonzero">
<g clip-path="url(#clip15)" clip-rule="nonzero">
<path style=" stroke:none;fill-rule:nonzero;fill:rgb(30.395508%,30.604553%,31.260681%);fill-opacity:1;" d="M 479.976562 793.042969 C 484.914062 805.027344 565.242188 737.671875 534.054688 716.285156 C 561.355469 721.34375 518.332031 776.367188 509.855469 785.347656 C 504.28125 791.253906 490.269531 807.765625 480.414062 804.632812 C 476.800781 803.480469 471.699219 794.25 479.976562 793.042969 "/>
</g>
</g>
<g clip-path="url(#clip16)" clip-rule="nonzero">
<g clip-path="url(#clip17)" clip-rule="nonzero">
<path style=" stroke:none;fill-rule:nonzero;fill:rgb(30.395508%,30.604553%,31.260681%);fill-opacity:1;" d="M 236.175781 435.980469 C 230.730469 432.347656 198.847656 395.003906 211.484375 397.476562 C 223.632812 399.855469 231.9375 427.824219 236.175781 435.980469 "/>
</g>
</g>
<g clip-path="url(#clip18)" clip-rule="nonzero">
<g clip-path="url(#clip19)" clip-rule="nonzero">
<path style=" stroke:none;fill-rule:nonzero;fill:rgb(30.395508%,30.604553%,31.260681%);fill-opacity:1;" d="M 311.929688 611.15625 C 310.707031 608.609375 310.386719 605.949219 310.960938 603.183594 C 313.929688 605.519531 314.253906 608.175781 311.929688 611.15625 "/>
</g>
</g>
<g clip-path="url(#clip20)" clip-rule="nonzero">
<g clip-path="url(#clip21)" clip-rule="nonzero">
<path style=" stroke:none;fill-rule:nonzero;fill:rgb(30.395508%,30.604553%,31.260681%);fill-opacity:1;" d="M 380.234375 445.171875 C 379.199219 443.589844 379.433594 442.21875 380.925781 441.0625 C 382.941406 442.808594 382.710938 444.179688 380.234375 445.171875 "/>
</g>
</g>
<g clip-path="url(#clip22)" clip-rule="nonzero">
<g clip-path="url(#clip23)" clip-rule="nonzero">
<path style=" stroke:none;fill-rule:nonzero;fill:rgb(65.698242%,65.802002%,65.486145%);fill-opacity:1;" d="M 263.425781 270.179688 C 253.527344 268.921875 263.210938 281.785156 263.140625 283.125 C 262.699219 291.683594 240.632812 263.464844 241.234375 280.335938 C 241.230469 280.234375 250.808594 291.554688 251.738281 292.851562 C 257.867188 301.390625 257.613281 312.226562 272.117188 312.289062 C 284.777344 312.34375 299.941406 278.496094 287.578125 268.402344 C 278.078125 260.648438 275.929688 275.886719 273.664062 275.949219 C 269.351562 276.066406 267.71875 269.253906 263.425781 270.179688 M 375.265625 249.347656 C 374.453125 258.492188 388.601562 248.117188 386.800781 241.160156 C 394.945312 250.855469 415.589844 233.289062 412.144531 222.640625 C 405.371094 201.699219 366.535156 212.304688 354.316406 218.800781 C 342.785156 224.933594 325.144531 248.3125 352.453125 248.230469 C 354.285156 248.226562 354.273438 239.171875 360.691406 239.554688 C 366.234375 239.882812 363.347656 252.289062 375.265625 249.347656 M 421.480469 216.945312 C 419.949219 239.59375 421.585938 265.261719 425.421875 287.625 C 427.066406 297.238281 430.644531 305.921875 427.027344 315.738281 C 424.976562 321.308594 419.203125 315.296875 417.042969 318.589844 C 408.042969 332.289062 409.429688 356.984375 402.558594 372.734375 C 395.023438 390.011719 390.542969 382.007812 380.511719 393.199219 C 369.246094 405.769531 373.195312 422.238281 352.136719 429.867188 C 332.800781 436.871094 310.246094 428.921875 293.894531 420.160156 C 287.777344 416.882812 277.5625 419.773438 280.160156 408.734375 C 282.890625 397.125 322.496094 397.785156 334.113281 397.859375 C 334.101562 399.769531 281.550781 404.480469 321.726562 416.054688 C 328.550781 418.023438 345.65625 421.59375 349.914062 412.460938 C 355.179688 401.164062 340.324219 405.238281 335.957031 399.519531 C 340.933594 396.34375 342.367188 402.046875 345.664062 396.257812 C 348.03125 392.105469 348.921875 386.875 351.75 382.300781 C 353.480469 379.5 358.390625 372.957031 361.066406 370.875 C 364.101562 368.515625 372.996094 373.933594 373.960938 367.453125 C 374.808594 361.738281 321.746094 340.210938 351.269531 330.34375 C 350.535156 339.984375 358.71875 327.710938 359.9375 328.703125 C 368.792969 335.917969 355.527344 336.972656 360.285156 345.644531 C 365.832031 355.757812 374.1875 343.652344 373.71875 336.675781 C 373.167969 328.5 367.445312 326.152344 366.527344 317.4375 C 372.71875 317.78125 376.339844 320.773438 374.527344 327.453125 C 380.816406 324.261719 386.109375 327.773438 391.25 322.753906 C 395.800781 318.3125 403.804688 303.226562 407.835938 297.566406 C 410.191406 294.257812 410.367188 289.316406 411.789062 286.476562 C 415.972656 278.109375 418.460938 275.082031 418.605469 265.113281 C 418.921875 243.75 408.597656 246.726562 395.507812 257.652344 C 397.523438 260.359375 397.539062 262.488281 395.566406 264.03125 C 390.699219 266.085938 385.628906 267.0625 380.351562 266.964844 C 369.015625 267.09375 357.628906 258.421875 346.578125 259.695312 C 355.546875 275.457031 355.679688 278.460938 356.34375 292.78125 C 356.808594 302.824219 375.726562 329.167969 351.34375 330.269531 C 351.265625 323.671875 358.921875 327.273438 357.363281 318.339844 C 350.578125 320.390625 344.1875 324.6875 337.011719 325.40625 C 326.066406 326.507812 322.648438 320.453125 313.804688 318.269531 C 296.96875 314.105469 296.796875 321.890625 296.605469 301.839844 C 296.519531 293.183594 300.988281 278.554688 293.546875 295.617188 C 282.953125 319.910156 290.691406 326.859375 307.875 338.890625 C 302.914062 343.449219 286.132812 362.710938 280.246094 362.832031 C 270.890625 363.023438 273.257812 350.816406 266.003906 344.78125 C 254.683594 335.355469 248.605469 341.21875 240.15625 326.9375 C 237.832031 325.101562 235.632812 323.136719 233.5625 321.035156 C 231.875 319.53125 232.28125 317.46875 234.777344 314.84375 C 231.078125 309.832031 234.746094 306.285156 224.632812 305.953125 C 228.691406 288.417969 197.511719 248.621094 229.316406 246.492188 C 240.898438 245.71875 246.566406 255.191406 254.445312 259.527344 C 264.976562 265.328125 253.816406 269.175781 273.742188 262.738281 C 275.722656 262.097656 289.933594 259.71875 287.664062 255.484375 C 284.855469 250.242188 243.234375 263.667969 259.765625 239.621094 C 266.910156 243.015625 263.105469 254.355469 275.082031 251.039062 C 277.796875 257.898438 287.890625 252.25 288.960938 245.347656 C 296.773438 247.394531 300.4375 263.808594 310.601562 261.5 C 318.144531 259.785156 315.488281 234.515625 319.269531 232.34375 C 317.921875 237.964844 318.523438 255.460938 326.992188 256.644531 C 318.949219 261.261719 315.34375 311.703125 322.21875 317.3125 C 327.671875 321.757812 336.125 318.277344 341.257812 315.050781 C 338.992188 316.476562 349.761719 300.347656 350.546875 303.75 C 349.386719 298.730469 341.398438 305.304688 340.390625 303.019531 C 338.710938 299.207031 340.121094 295.832031 338.8125 292.082031 C 334.496094 279.695312 336.195312 264.964844 336.167969 252.765625 C 336.164062 250.898438 335.996094 234.90625 335.0625 233.957031 C 331.382812 230.214844 326.441406 233.152344 323.648438 231.414062 C 319.039062 228.539062 309.851562 223.253906 304.316406 219.40625 C 302.925781 222.859375 251.917969 211.558594 243.03125 212.757812 C 234.761719 213.875 230.972656 217.125 223.242188 215.605469 C 221.367188 215.234375 222.46875 205.480469 215.109375 213.925781 C 219.796875 197.265625 224.542969 186 220.753906 169.886719 C 217.027344 154.023438 210.152344 136.386719 221.546875 120.953125 C 229.214844 110.5625 246.472656 105.878906 258.242188 102.15625 C 267.789062 99.140625 281.910156 95.675781 287.292969 94.304688 C 285.839844 94.675781 292.589844 98.9375 293.898438 98.914062 C 296.355469 98.867188 300.171875 91.851562 303.601562 90.550781 C 308.453125 88.714844 312.375 93.570312 317.035156 92.71875 C 320.160156 92.148438 316.089844 84.964844 321.714844 84.199219 C 327.636719 83.386719 378.597656 95.5 373.597656 101.632812 C 363.285156 97.105469 351.996094 90.078125 340.804688 88.484375 C 340.097656 102.726562 337.769531 88.898438 329.84375 91.953125 C 328.09375 92.628906 323.472656 100.992188 326.578125 100.585938 C 325.261719 100.757812 318.019531 100.074219 316.515625 100.417969 C 310.539062 101.777344 302.917969 105.363281 296.683594 106.949219 C 287.886719 109.183594 280.972656 107.027344 272.644531 108.648438 C 249.015625 113.253906 265.632812 131.371094 253.453125 137.871094 C 262.203125 146.574219 266.050781 148.128906 269.136719 161.539062 C 269.683594 163.921875 267.246094 169.394531 267.445312 171.933594 C 267.71875 175.367188 272.859375 180.472656 273.636719 184.6875 C 272.589844 179.011719 266.957031 204.039062 271.0625 199.421875 C 270.335938 200.242188 258.496094 200.109375 259.578125 202.691406 C 260.238281 204.257812 273.574219 210.40625 274.226562 210.496094 C 284.335938 211.898438 279.726562 208.773438 281.089844 203.855469 C 287.011719 205.765625 296.90625 206.191406 301.984375 208.527344 C 311.765625 213.023438 305.554688 214.832031 313.253906 219.484375 C 315.957031 221.117188 332.796875 231.054688 336.660156 224.558594 C 337.378906 221.578125 336.167969 219.769531 333.035156 219.132812 C 336.890625 216.882812 335.957031 213.230469 339.117188 211.039062 C 341.199219 209.597656 355.429688 211.148438 357.566406 211.101562 C 371.667969 210.765625 392.214844 200.109375 405.414062 207.261719 C 404.945312 188.339844 394.203125 169.828125 394.058594 151.042969 C 393.925781 134.28125 394.875 128.394531 385.941406 112.347656 C 414.738281 135.722656 418.710938 182.746094 421.480469 216.945312 "/>
</g>
</g>
<g clip-path="url(#clip24)" clip-rule="nonzero">
<g clip-path="url(#clip25)" clip-rule="nonzero">
<path style=" stroke:none;fill-rule:nonzero;fill:rgb(91.372681%,91.215515%,91.255188%);fill-opacity:1;" d="M 385.941406 112.347656 C 394.523438 127.769531 393.925781 134.367188 394.058594 151.046875 C 394.203125 169.882812 404.945312 188.3125 405.414062 207.257812 C 391.710938 199.835938 372.335938 210.757812 357.566406 211.101562 C 352.789062 211.210938 342.679688 208.992188 339.117188 211.039062 C 336.441406 212.578125 336.367188 217.183594 333.039062 219.132812 C 336.167969 219.769531 337.378906 221.578125 336.660156 224.558594 C 332.292969 231.90625 316.730469 221.578125 313.253906 219.484375 C 312.640625 217.375 312.03125 215.265625 311.421875 213.15625 C 310.304688 208.050781 307.160156 206.507812 301.984375 208.527344 C 296.175781 206 287.496094 205.925781 281.089844 203.855469 C 279.765625 208.640625 285.855469 212.175781 274.226562 210.496094 C 272.945312 210.3125 260.109375 203.957031 259.578125 202.691406 C 257.300781 197.269531 270.496094 201.695312 270.699219 201.378906 C 266.992188 207.054688 272.226562 177.046875 273.636719 184.683594 C 272.308594 177.484375 269.636719 170.636719 268.195312 164.460938 C 264.492188 148.582031 265.183594 149.535156 253.457031 137.871094 C 264.5 131.976562 249.636719 115.128906 269.132812 109.296875 C 278.292969 106.554688 287.09375 109.386719 296.683594 106.949219 C 302.917969 105.363281 310.539062 101.777344 316.515625 100.417969 C 318.085938 100.058594 325.167969 100.78125 326.578125 100.585938 C 324.003906 100.941406 327.308594 92.480469 328.742188 91.820312 C 336.914062 88.042969 340.054688 103.53125 340.800781 88.484375 C 356.605469 90.730469 375.558594 101.3125 385.941406 112.347656 "/>
</g>
</g>
<g clip-path="url(#clip26)" clip-rule="nonzero">
<g clip-path="url(#clip27)" clip-rule="nonzero">
<path style=" stroke:none;fill-rule:nonzero;fill:rgb(6.593323%,6.036377%,5.34668%);fill-opacity:1;" d="M 373.273438 98.984375 C 356.515625 90.386719 337.601562 77.136719 316.839844 76.371094 C 303.242188 75.871094 288.335938 84.3125 274.402344 86.929688 C 258.171875 89.972656 241.253906 91.859375 228.46875 103.664062 C 203.042969 127.144531 209.253906 153.980469 204.953125 185.183594 C 199.789062 222.664062 198.105469 258.515625 198.105469 296.6875 C 192.9375 288.328125 195.582031 275.03125 190.4375 267.886719 C 189.179688 266.140625 184.285156 271.554688 182.15625 270.277344 C 181.257812 269.734375 191.871094 248.769531 189.078125 240.808594 C 183.1875 223.996094 168.722656 205.867188 164.21875 188.316406 C 160.082031 172.195312 168.070312 145.65625 175.011719 130.882812 C 183.582031 112.648438 194.390625 96.332031 210.695312 84.132812 C 243.144531 59.867188 295.882812 54.703125 334.507812 65.421875 C 344.863281 68.296875 374.710938 85.128906 379.113281 93.808594 C 384.195312 103.828125 378.820312 99.3125 373.273438 98.984375 "/>
</g>
</g>
<g clip-path="url(#clip28)" clip-rule="nonzero">
<g clip-path="url(#clip29)" clip-rule="nonzero">
<path style=" stroke:none;fill-rule:nonzero;fill:rgb(6.593323%,6.036377%,5.34668%);fill-opacity:1;" d="M 268.269531 250.980469 C 263.597656 247.234375 264.703125 235.253906 260.324219 234.4375 C 255.582031 233.550781 249.859375 241.660156 244.445312 241.558594 C 242.792969 241.53125 234.71875 237.8125 233.4375 236.695312 C 225.832031 230.074219 223.722656 229.730469 234.210938 220.804688 C 239.082031 216.664062 255.972656 208.3125 259.171875 218.515625 C 260.960938 224.230469 237.925781 228.988281 260.023438 225.03125 C 263.84375 224.347656 262.445312 219.292969 263.824219 218.816406 C 268.992188 217.023438 276.773438 219.421875 281.988281 220.324219 C 296.53125 222.847656 307.8125 226.484375 314.734375 240.617188 C 316.359375 243.964844 302.722656 236.765625 307.511719 234.011719 C 306.066406 234.84375 297.359375 242.515625 297.320312 242.53125 C 294.699219 243.824219 300.40625 247.199219 294.75 247.25 C 289.285156 247.300781 292.222656 240.785156 287.0625 238.644531 C 278.445312 235.070312 277.761719 235.394531 268.027344 240.609375 C 269.582031 241.441406 279.855469 243.542969 279.757812 243.753906 C 276.984375 249.84375 275.308594 252.636719 268.269531 250.980469 "/>
</g>
</g>
<g clip-path="url(#clip30)" clip-rule="nonzero">
<g clip-path="url(#clip31)" clip-rule="nonzero">
<path style=" stroke:none;fill-rule:nonzero;fill:rgb(65.698242%,65.802002%,65.486145%);fill-opacity:1;" d="M 173.148438 302.828125 C 180.835938 292.585938 154.253906 259.230469 170.183594 252.347656 C 183.160156 246.746094 185.164062 265.148438 173.332031 256.609375 C 170.035156 263.003906 172.054688 273.871094 179 277.367188 C 180.878906 278.3125 185.320312 270.8125 188.964844 271.652344 C 188.949219 271.648438 194.875 301.449219 193.96875 303.796875 C 190.128906 313.765625 171.855469 319.671875 173.148438 302.828125 "/>
</g>
</g>
<g clip-path="url(#clip32)" clip-rule="nonzero">
<g clip-path="url(#clip33)" clip-rule="nonzero">
<path style=" stroke:none;fill-rule:nonzero;fill:rgb(6.593323%,6.036377%,5.34668%);fill-opacity:1;" d="M 302.15625 334.882812 C 274.382812 319.492188 312.703125 325.261719 323.03125 329.824219 C 331.335938 333.492188 335.28125 322.554688 338.175781 336.820312 C 339.625 343.953125 333.394531 342.960938 330.097656 349.324219 C 328.214844 345.808594 305.921875 334.453125 302.15625 334.882812 "/>
</g>
</g>
<g clip-path="url(#clip34)" clip-rule="nonzero">
<g clip-path="url(#clip35)" clip-rule="nonzero">
<path style=" stroke:none;fill-rule:nonzero;fill:rgb(6.593323%,6.036377%,5.34668%);fill-opacity:1;" d="M 367.941406 370.730469 C 357.515625 370.949219 274.792969 382.367188 272.953125 370.621094 C 272.109375 365.242188 323.734375 368.917969 329.214844 368.824219 C 338.0625 368.671875 348.246094 367.699219 356.191406 367.691406 C 368.34375 367.679688 367.667969 360.144531 367.941406 370.730469 "/>
</g>
</g>
<g clip-path="url(#clip36)" clip-rule="nonzero">
<g clip-path="url(#clip37)" clip-rule="nonzero">
<path style=" stroke:none;fill-rule:nonzero;fill:rgb(6.593323%,6.036377%,5.34668%);fill-opacity:1;" d="M 421.480469 216.945312 C 420.667969 206.910156 411.617188 141.730469 424.738281 146.324219 C 429.902344 148.128906 426.933594 223.003906 424.015625 223.570312 C 423.671875 221.167969 422.824219 218.960938 421.480469 216.945312 "/>
</g>
</g>
<g clip-path="url(#clip38)" clip-rule="nonzero">
<g clip-path="url(#clip39)" clip-rule="nonzero">
<path style=" stroke:none;fill-rule:nonzero;fill:rgb(6.593323%,6.036377%,5.34668%);fill-opacity:1;" d="M 334.113281 397.859375 C 325.40625 397.800781 318.523438 397.734375 311.289062 394.519531 C 304.378906 391.445312 302.015625 383.550781 293.726562 380.71875 C 300.601562 376.460938 322.476562 382.605469 329.324219 382.347656 C 333.210938 382.199219 338.976562 380.363281 343.058594 379.929688 C 349.039062 387.34375 319.292969 389.902344 316.351562 391.195312 C 319.574219 391.796875 337.886719 392.058594 334.113281 397.859375 "/>
</g>
</g>
<g clip-path="url(#clip40)" clip-rule="nonzero">
<g clip-path="url(#clip41)" clip-rule="nonzero">
<path style=" stroke:none;fill-rule:nonzero;fill:rgb(91.372681%,91.215515%,91.255188%);fill-opacity:1;" d="M 328.039062 381.238281 C 317.4375 381.070312 310.28125 381.933594 300.777344 377.28125 C 305.40625 375.425781 353.003906 371.363281 353.503906 374.675781 C 354.351562 380.246094 331.910156 381.371094 328.039062 381.238281 "/>
</g>
</g>
<g clip-path="url(#clip42)" clip-rule="nonzero">
<g clip-path="url(#clip43)" clip-rule="nonzero">
<path style=" stroke:none;fill-rule:nonzero;fill:rgb(6.593323%,6.036377%,5.34668%);fill-opacity:1;" d="M 385.203125 108.921875 C 390.144531 101.300781 424.421875 127.023438 425.011719 138.484375 C 412.132812 129.015625 396.472656 120.226562 385.203125 108.921875 "/>
</g>
</g>
<g clip-path="url(#clip44)" clip-rule="nonzero">
<g clip-path="url(#clip45)" clip-rule="nonzero">
<path style=" stroke:none;fill-rule:nonzero;fill:rgb(65.698242%,65.802002%,65.486145%);fill-opacity:1;" d="M 284.964844 379.417969 C 282.957031 383.3125 291.761719 384.582031 290.589844 387.9375 C 288.066406 395.183594 270.839844 389.25 272.398438 381.476562 C 273.683594 375.085938 286.804688 372.398438 284.964844 379.417969 "/>
</g>
</g>
<g clip-path="url(#clip46)" clip-rule="nonzero">
<g clip-path="url(#clip47)" clip-rule="nonzero">
<path style=" stroke:none;fill-rule:nonzero;fill:rgb(65.698242%,65.802002%,65.486145%);fill-opacity:1;" d="M 179.207031 226.925781 C 179.820312 227.710938 192.601562 245.148438 187.03125 247.214844 C 184.066406 248.316406 170.09375 229.703125 171.558594 227.535156 C 173.980469 225.839844 176.53125 225.636719 179.207031 226.925781 "/>
</g>
</g>
<g clip-path="url(#clip48)" clip-rule="nonzero">
<g clip-path="url(#clip49)" clip-rule="nonzero">
<path style=" stroke:none;fill-rule:nonzero;fill:rgb(91.372681%,91.215515%,91.255188%);fill-opacity:1;" d="M 339.992188 365.90625 C 332.882812 369.460938 325.625 369.796875 318.21875 366.90625 C 319.941406 360.070312 338.15625 359.253906 339.992188 365.90625 "/>
</g>
</g>
<g clip-path="url(#clip50)" clip-rule="nonzero">
<g clip-path="url(#clip51)" clip-rule="nonzero">
<path style=" stroke:none;fill-rule:nonzero;fill:rgb(6.593323%,6.036377%,5.34668%);fill-opacity:1;" d="M 182.367188 249.691406 C 181.703125 248.933594 156.753906 236.191406 168.261719 233.355469 C 174.089844 231.917969 181.511719 245.714844 182.367188 249.691406 "/>
</g>
</g>
<g clip-path="url(#clip52)" clip-rule="nonzero">
<g clip-path="url(#clip53)" clip-rule="nonzero">
<path style=" stroke:none;fill-rule:nonzero;fill:rgb(65.698242%,65.802002%,65.486145%);fill-opacity:1;" d="M 339.992188 365.90625 C 338.164062 359.277344 331.582031 366.492188 328.882812 361.519531 C 333.507812 361.4375 351.171875 358.40625 352.917969 365.859375 C 349.625 369.441406 345.316406 369.457031 339.992188 365.90625 "/>
</g>
</g>
<g clip-path="url(#clip54)" clip-rule="nonzero">
<g clip-path="url(#clip55)" clip-rule="nonzero">
<path style=" stroke:none;fill-rule:nonzero;fill:rgb(65.698242%,65.802002%,65.486145%);fill-opacity:1;" d="M 319.324219 362.519531 C 317.265625 370.675781 304.175781 367.316406 296.996094 366.167969 C 304.4375 364.949219 311.882812 363.734375 319.324219 362.519531 "/>
</g>
</g>
<g clip-path="url(#clip56)" clip-rule="nonzero">
<g clip-path="url(#clip57)" clip-rule="nonzero">
<path style=" stroke:none;fill-rule:nonzero;fill:rgb(65.698242%,65.802002%,65.486145%);fill-opacity:1;" d="M 447.308594 263.25 C 447.957031 262.101562 443.632812 271.171875 444.316406 263.863281 C 445.238281 260.695312 446.234375 260.488281 447.308594 263.25 "/>
</g>
</g>
<g clip-path="url(#clip58)" clip-rule="nonzero">
<g clip-path="url(#clip59)" clip-rule="nonzero">
<path style=" stroke:none;fill-rule:nonzero;fill:rgb(65.698242%,65.802002%,65.486145%);fill-opacity:1;" d="M 378.882812 105.285156 C 376.425781 105.074219 374.664062 103.855469 373.597656 101.628906 C 376.257812 98.414062 378.125 104.035156 378.882812 105.285156 "/>
</g>
</g>
<g clip-path="url(#clip60)" clip-rule="nonzero">
<g clip-path="url(#clip61)" clip-rule="nonzero">
<path style=" stroke:none;fill-rule:nonzero;fill:rgb(65.698242%,65.802002%,65.486145%);fill-opacity:1;" d="M 301.394531 247.160156 C 302.605469 250.066406 299.136719 251.164062 301.394531 247.160156 "/>
</g>
</g>
<g clip-path="url(#clip62)" clip-rule="nonzero">
<g clip-path="url(#clip63)" clip-rule="nonzero">
<path style=" stroke:none;fill-rule:nonzero;fill:rgb(65.698242%,65.802002%,65.486145%);fill-opacity:1;" d="M 385.203125 108.921875 C 386.558594 109.683594 386.78125 110.800781 385.875 112.269531 C 383.269531 112.207031 383.738281 109.585938 385.203125 108.921875 "/>
</g>
</g>
<g clip-path="url(#clip64)" clip-rule="nonzero">
<g clip-path="url(#clip65)" clip-rule="nonzero">
<path style=" stroke:none;fill-rule:nonzero;fill:rgb(6.593323%,6.036377%,5.34668%);fill-opacity:1;" d="M 315.234375 514.175781 C 321.371094 511.976562 324.835938 541.6875 326.554688 548.300781 C 327.613281 552.386719 332.660156 586.179688 328.832031 588.394531 C 323.285156 591.601562 321.476562 555.339844 320.9375 553.050781 C 317.105469 536.660156 309.476562 534.996094 315.234375 514.175781 "/>
</g>
</g>
<g clip-path="url(#clip66)" clip-rule="nonzero">
<g clip-path="url(#clip67)" clip-rule="nonzero">
<path style=" stroke:none;fill-rule:nonzero;fill:rgb(6.593323%,6.036377%,5.34668%);fill-opacity:1;" d="M 334.273438 524.054688 C 331.558594 526.015625 336.890625 532.820312 331.597656 532.457031 C 332.820312 532.539062 328.691406 516.363281 328.78125 516.566406 C 320.386719 497.652344 329.261719 512.386719 320.347656 509.597656 C 313.339844 507.402344 323.214844 496.136719 327.242188 498.027344 C 330.730469 499.660156 333.191406 520.039062 334.273438 524.054688 "/>
</g>
</g>
<g clip-path="url(#clip68)" clip-rule="nonzero">
<g clip-path="url(#clip69)" clip-rule="nonzero">
<path style=" stroke:none;fill-rule:nonzero;fill:rgb(65.698242%,65.802002%,65.486145%);fill-opacity:1;" d="M 310.789062 533.972656 C 308.863281 539.816406 318.523438 537.511719 316.949219 543.160156 C 304.210938 536.800781 310.933594 563.066406 302.199219 560.394531 C 298.324219 559.210938 309.96875 535.984375 310.789062 533.972656 "/>
</g>
</g>
<g clip-path="url(#clip70)" clip-rule="nonzero">
<g clip-path="url(#clip71)" clip-rule="nonzero">
<path style=" stroke:none;fill-rule:nonzero;fill:rgb(30.395508%,30.604553%,31.260681%);fill-opacity:1;" d="M 327.242188 498.027344 C 325.816406 498.363281 324.390625 498.695312 322.964844 499.03125 C 323.691406 495.335938 325.117188 495 327.242188 498.027344 "/>
</g>
</g>
<g clip-path="url(#clip72)" clip-rule="nonzero">
<g clip-path="url(#clip73)" clip-rule="nonzero">
<path style=" stroke:none;fill-rule:nonzero;fill:rgb(30.395508%,30.604553%,31.260681%);fill-opacity:1;" d="M 322.027344 499.964844 C 322.417969 506.28125 314.625 498.078125 322.027344 499.964844 "/>
</g>
</g>
<g clip-path="url(#clip74)" clip-rule="nonzero">
<g clip-path="url(#clip75)" clip-rule="nonzero">
<path style=" stroke:none;fill-rule:nonzero;fill:rgb(65.698242%,65.802002%,65.486145%);fill-opacity:1;" d="M 311.949219 526.058594 C 311.894531 527.4375 311.839844 528.816406 311.789062 530.195312 C 311.839844 528.816406 311.894531 527.4375 311.949219 526.058594 "/>
</g>
</g>
<g clip-path="url(#clip76)" clip-rule="nonzero">
<g clip-path="url(#clip77)" clip-rule="nonzero">
<path style=" stroke:none;fill-rule:nonzero;fill:rgb(30.395508%,30.604553%,31.260681%);fill-opacity:1;" d="M 320.234375 549.042969 C 324.613281 550.507812 318.652344 551.96875 320.234375 549.042969 "/>
</g>
</g>
<g clip-path="url(#clip78)" clip-rule="nonzero">
<g clip-path="url(#clip79)" clip-rule="nonzero">
<path style=" stroke:none;fill-rule:nonzero;fill:rgb(91.372681%,91.215515%,91.255188%);fill-opacity:1;" d="M 366.03125 317.039062 C 366.746094 313.199219 359.152344 302.8125 357.667969 298.890625 C 355.929688 294.3125 354.8125 289.191406 354.132812 284.464844 C 356.890625 283.867188 358.378906 282.511719 358.589844 280.398438 C 359.121094 278.398438 357.828125 277.070312 354.707031 276.410156 C 352.875 269.074219 350.128906 265.933594 346.582031 259.695312 C 357.628906 258.429688 369.015625 267.09375 380.351562 266.960938 C 385.628906 267.0625 390.699219 266.085938 395.566406 264.03125 C 397.542969 262.488281 397.523438 260.363281 395.507812 257.652344 C 408.597656 246.726562 418.921875 243.75 418.605469 265.113281 C 418.460938 275.082031 415.972656 278.109375 411.789062 286.476562 C 410.367188 289.316406 410.191406 294.257812 407.835938 297.566406 C 403.804688 303.226562 395.800781 318.308594 391.25 322.753906 C 386.109375 327.773438 380.816406 324.261719 374.527344 327.453125 C 377.367188 316.992188 370.691406 321.304688 366.03125 317.039062 "/>
</g>
</g>
<g clip-path="url(#clip80)" clip-rule="nonzero">
<g clip-path="url(#clip81)" clip-rule="nonzero">
<path style=" stroke:none;fill-rule:nonzero;fill:rgb(91.372681%,91.215515%,91.255188%);fill-opacity:1;" d="M 319.34375 232.269531 C 343.730469 226.859375 334.527344 251.800781 335.59375 267.378906 C 336.039062 273.84375 335.316406 295.601562 338.460938 300.390625 C 341.308594 304.726562 349.53125 299.347656 350.546875 303.753906 C 351.519531 307.96875 330.367188 324 322.21875 317.308594 C 315.699219 311.957031 319.0625 261.195312 326.992188 256.644531 C 318.367188 255.4375 318.367188 238.28125 319.34375 232.269531 "/>
</g>
</g>
<g clip-path="url(#clip82)" clip-rule="nonzero">
<g clip-path="url(#clip83)" clip-rule="nonzero">
<path style=" stroke:none;fill-rule:nonzero;fill:rgb(91.372681%,91.215515%,91.255188%);fill-opacity:1;" d="M 263.425781 270.179688 C 269.042969 268.96875 267.589844 277.402344 272.992188 276.945312 C 276.679688 276.636719 274.59375 263.96875 284.789062 267.3125 C 300.3125 272.398438 286.238281 312.332031 272.117188 312.289062 C 260.878906 312.25 257.785156 303.851562 252.535156 296.375 C 253.394531 297.597656 241.5625 279.542969 242.210938 282.757812 C 237.660156 260.179688 262.671875 292.238281 263.140625 283.125 C 263.210938 281.785156 253.527344 268.921875 263.425781 270.179688 "/>
</g>
</g>
<g clip-path="url(#clip84)" clip-rule="nonzero">
<g clip-path="url(#clip85)" clip-rule="nonzero">
<path style=" stroke:none;fill-rule:nonzero;fill:rgb(30.395508%,30.604553%,31.260681%);fill-opacity:1;" d="M 346.464844 229.351562 C 344.871094 229.636719 339.546875 238.761719 339.839844 239.09375 C 341.859375 241.351562 358.453125 229.988281 359.742188 229.53125 C 370.613281 225.664062 376.039062 227.75 387.058594 228.53125 C 391.875 228.875 394.15625 235.238281 399.941406 232.71875 C 400.867188 232.3125 406.15625 224.023438 405.171875 223.015625 C 402.753906 220.539062 394.34375 226.160156 391.054688 225.277344 C 385.769531 223.859375 384.1875 217.019531 379.230469 215.636719 C 367.578125 212.386719 355.714844 223.695312 346.464844 229.351562 M 375.265625 249.347656 C 363.621094 252.21875 365.75 240.332031 358.496094 239.1875 C 349.839844 237.828125 357.679688 255.191406 343.070312 244.34375 C 319.957031 227.183594 377.480469 209.425781 390.125 210.441406 C 410.5625 212.082031 423.398438 232.617188 399.503906 240.421875 C 386.648438 244.621094 393.976562 239.117188 384.933594 236.519531 C 382.164062 235.726562 366.753906 233.648438 367.457031 238.304688 C 368.757812 246.917969 389.113281 233.011719 375.265625 249.347656 "/>
</g>
</g>
<g clip-path="url(#clip86)" clip-rule="nonzero">
<g clip-path="url(#clip87)" clip-rule="nonzero">
<path style=" stroke:none;fill-rule:nonzero;fill:rgb(91.372681%,91.215515%,91.255188%);fill-opacity:1;" d="M 335.957031 399.519531 C 340.316406 405.230469 352.476562 400.566406 350.734375 410.636719 C 348.894531 421.261719 327.265625 417.792969 321.726562 416.054688 C 293.257812 407.136719 314.992188 398.535156 335.957031 399.519531 "/>
</g>
</g>
<g clip-path="url(#clip88)" clip-rule="nonzero">
<g clip-path="url(#clip89)" clip-rule="nonzero">
<path style=" stroke:none;fill-rule:nonzero;fill:rgb(30.395508%,30.604553%,31.260681%);fill-opacity:1;" d="M 335.957031 399.519531 C 331.457031 399.308594 336.171875 397.691406 335.179688 395.011719 C 334.597656 393.4375 316.480469 391.222656 316.351562 391.199219 C 321.832031 388.785156 361.003906 378.003906 350.039062 372.980469 C 353.261719 369.890625 356.9375 369.191406 361.066406 370.875 C 359.039062 376.882812 350.730469 384.976562 346.46875 389.53125 C 346.898438 393.125 346.101562 396.320312 344.074219 399.121094 C 341.347656 398.859375 338.644531 398.992188 335.957031 399.519531 "/>
</g>
</g>
<g clip-path="url(#clip90)" clip-rule="nonzero">
<g clip-path="url(#clip91)" clip-rule="nonzero">
<path style=" stroke:none;fill-rule:nonzero;fill:rgb(91.372681%,91.215515%,91.255188%);fill-opacity:1;" d="M 351.34375 330.269531 C 359.71875 329.890625 359.539062 320.074219 366.035156 317.039062 C 364.730469 315.851562 371.828125 330.722656 371.375 329.179688 C 373.097656 335.089844 378.707031 353.640625 364.523438 347.507812 C 352.28125 342.214844 368.359375 338.796875 364.027344 331.886719 C 358.773438 323.511719 356.898438 336.90625 351.996094 333.984375 C 350.636719 332.402344 350.417969 331.164062 351.34375 330.269531 "/>
</g>
</g>
<g clip-path="url(#clip92)" clip-rule="nonzero">
<g clip-path="url(#clip93)" clip-rule="nonzero">
<path style=" stroke:none;fill-rule:nonzero;fill:rgb(91.372681%,91.215515%,91.255188%);fill-opacity:1;" d="M 275.082031 251.039062 C 280.484375 237.992188 277.003906 247.59375 269.074219 241.167969 C 269.074219 233.851562 285.078125 237.898438 287.007812 241.628906 C 291.09375 249.53125 278.550781 259.796875 275.082031 251.039062 "/>
</g>
</g>
<g clip-path="url(#clip94)" clip-rule="nonzero">
<g clip-path="url(#clip95)" clip-rule="nonzero">
<path style=" stroke:none;fill-rule:nonzero;fill:rgb(91.372681%,91.215515%,91.255188%);fill-opacity:1;" d="M 385.691406 237.277344 C 388.300781 246.425781 384.03125 251.597656 374.953125 252.855469 C 374.957031 252.824219 380.320312 237.316406 378.328125 239.695312 C 379.101562 238.769531 378.925781 230.539062 385.691406 237.277344 "/>
</g>
</g>
<g clip-path="url(#clip96)" clip-rule="nonzero">
<g clip-path="url(#clip97)" clip-rule="nonzero">
<path style=" stroke:none;fill-rule:nonzero;fill:rgb(30.395508%,30.604553%,31.260681%);fill-opacity:1;" d="M 288.960938 245.347656 C 288.5625 243.832031 287.441406 240.820312 288.570312 239.667969 C 291.113281 239.972656 293.972656 246.660156 288.960938 245.347656 "/>
</g>
</g>
<g clip-path="url(#clip98)" clip-rule="nonzero">
<g clip-path="url(#clip99)" clip-rule="nonzero">
<path style=" stroke:none;fill-rule:nonzero;fill:rgb(30.395508%,30.604553%,31.260681%);fill-opacity:1;" d="M 268.269531 250.980469 C 269.535156 251.28125 270.804688 251.578125 272.070312 251.875 C 270.277344 253.816406 269.011719 253.515625 268.269531 250.980469 "/>
</g>
</g>
<g clip-path="url(#clip100)" clip-rule="nonzero">
<g clip-path="url(#clip101)" clip-rule="nonzero">
<path style=" stroke:none;fill-rule:nonzero;fill:rgb(30.395508%,30.604553%,31.260681%);fill-opacity:1;" d="M 376.222656 100.9375 C 374.390625 101.652344 373.40625 101.003906 373.273438 98.984375 C 374.878906 98.695312 375.863281 99.34375 376.222656 100.9375 "/>
</g>
</g>
<g clip-path="url(#clip102)" clip-rule="nonzero">
<g clip-path="url(#clip103)" clip-rule="nonzero">
<path style=" stroke:none;fill-rule:nonzero;fill:rgb(30.395508%,30.604553%,31.260681%);fill-opacity:1;" d="M 368.265625 95.976562 C 373.664062 96.328125 369 100.042969 368.265625 95.976562 "/>
</g>
</g>
<g clip-path="url(#clip104)" clip-rule="nonzero">
<g clip-path="url(#clip105)" clip-rule="nonzero">
<path style=" stroke:none;fill-rule:nonzero;fill:rgb(30.395508%,30.604553%,31.260681%);fill-opacity:1;" d="M 280.128906 237.425781 C 274.386719 236.59375 282.582031 230.867188 285.550781 237.621094 C 283.722656 239.480469 282.878906 233.363281 280.128906 237.425781 "/>
</g>
</g>
<g clip-path="url(#clip106)" clip-rule="nonzero">
<g clip-path="url(#clip107)" clip-rule="nonzero">
<path style=" stroke:none;fill-rule:nonzero;fill:rgb(30.395508%,30.604553%,31.260681%);fill-opacity:1;" d="M 286.894531 240.519531 C 285.289062 239.53125 284.074219 239.128906 285.550781 237.621094 C 288.347656 239.519531 289.71875 239.714844 286.894531 240.519531 "/>
</g>
</g>
<g clip-path="url(#clip108)" clip-rule="nonzero">
<g clip-path="url(#clip109)" clip-rule="nonzero">
<path style=" stroke:none;fill-rule:nonzero;fill:rgb(65.698242%,65.802002%,65.486145%);fill-opacity:1;" d="M 269.074219 240.046875 C 269.074219 241.707031 267.457031 240.914062 269.074219 240.046875 "/>
</g>
</g>
<g clip-path="url(#clip110)" clip-rule="nonzero">
<g clip-path="url(#clip111)" clip-rule="nonzero">
<path style=" stroke:none;fill-rule:nonzero;fill:rgb(30.395508%,30.604553%,31.260681%);fill-opacity:1;" d="M 328.039062 381.238281 L 333.167969 381.238281 C 331.460938 384.195312 329.75 384.195312 328.039062 381.238281 "/>
</g>
</g>
<g clip-path="url(#clip112)" clip-rule="nonzero">
<g clip-path="url(#clip113)" clip-rule="nonzero">
<path style=" stroke:none;fill-rule:nonzero;fill:rgb(30.395508%,30.604553%,31.260681%);fill-opacity:1;" d="M 338.054688 380.933594 C 338.808594 376.78125 341.855469 384.652344 338.054688 380.933594 "/>
</g>
</g>
<g clip-path="url(#clip114)" clip-rule="nonzero">
<g clip-path="url(#clip115)" clip-rule="nonzero">
<path style=" stroke:none;fill-rule:nonzero;fill:rgb(6.593323%,6.036377%,5.34668%);fill-opacity:1;" d="M 346.464844 229.351562 C 356.175781 223.414062 367.121094 213.136719 379.230469 215.636719 C 382.78125 216.371094 384.847656 223.464844 388.3125 224.316406 C 389.910156 224.710938 404.914062 222.75 405.171875 223.015625 C 406.789062 224.667969 398.261719 233.296875 399.941406 232.71875 C 393.546875 234.917969 392.6875 228.589844 387.058594 228.53125 C 377.023438 228.433594 370.144531 225.832031 359.742188 229.53125 C 355.625 230.996094 342.488281 242.058594 339.839844 239.09375 C 339.546875 238.761719 344.871094 229.636719 346.464844 229.351562 "/>
</g>
</g>
<g clip-path="url(#clip116)" clip-rule="nonzero">
<g clip-path="url(#clip117)" clip-rule="nonzero">
<path style=" stroke:none;fill-rule:nonzero;fill:rgb(65.698242%,65.802002%,65.486145%);fill-opacity:1;" d="M 377.324219 235.519531 C 376.667969 237.152344 377 238.542969 378.328125 239.695312 C 376.210938 239.921875 368.109375 242.628906 367.457031 238.304688 C 366.957031 234.996094 376.382812 235.625 377.324219 235.519531 "/>
</g>
</g>
<g clip-path="url(#clip118)" clip-rule="nonzero">
<g clip-path="url(#clip119)" clip-rule="nonzero">
<path style=" stroke:none;fill-rule:nonzero;fill:rgb(65.698242%,65.802002%,65.486145%);fill-opacity:1;" d="M 379.519531 240.890625 C 381.921875 242.085938 379.519531 247.773438 379.519531 240.890625 "/>
</g>
</g>
<g clip-path="url(#clip120)" clip-rule="nonzero">
<g clip-path="url(#clip121)" clip-rule="nonzero">
<path style=" stroke:none;fill-rule:nonzero;fill:rgb(65.698242%,65.802002%,65.486145%);fill-opacity:1;" d="M 385.691406 237.277344 C 384.679688 236.269531 384.679688 236.269531 385.691406 237.277344 "/>
</g>
</g>
<g clip-path="url(#clip122)" clip-rule="nonzero">
<g clip-path="url(#clip123)" clip-rule="nonzero">
<path style=" stroke:none;fill-rule:nonzero;fill:rgb(65.698242%,65.802002%,65.486145%);fill-opacity:1;" d="M 285.023438 238.175781 C 284.707031 240.414062 280.945312 238.917969 280.128906 237.425781 C 282.039062 235.84375 283.671875 236.09375 285.023438 238.175781 "/>
</g>
</g>
<g clip-path="url(#clip124)" clip-rule="nonzero">
<g clip-path="url(#clip125)" clip-rule="nonzero">
<path style=" stroke:none;fill-rule:nonzero;fill:rgb(65.698242%,65.802002%,65.486145%);fill-opacity:1;" d="M 286.894531 240.519531 C 288.933594 239.527344 289.535156 240.796875 288.691406 244.324219 C 287.199219 243.480469 286.597656 242.210938 286.894531 240.519531 "/>
</g>
</g>
</g>
</svg>
