<?xml version="1.0" encoding="UTF-8"?>
<svg xmlns="http://www.w3.org/2000/svg" xmlns:xlink="http://www.w3.org/1999/xlink" width="205.272pt" height="68.431pt" viewBox="0 0 205.272 68.431" version="1.1">
<defs>
<clipPath id="clip1">
  <path d="M 102 2 L 103 2 L 103 68.429688 L 102 68.429688 Z M 102 2 "/>
</clipPath>
<clipPath id="clip2">
  <path d="M 0 0 L 205.273438 0 L 205.273438 68.429688 L 0 68.429688 Z M 0 0 "/>
</clipPath>
</defs>
<g id="surface1">
<path style="fill:none;stroke-width:0.3985;stroke-linecap:butt;stroke-linejoin:miter;stroke:rgb(0%,0%,0%);stroke-opacity:1;stroke-miterlimit:10;" d="M -102.048344 0.00115625 L 99.658687 0.00115625 " transform="matrix(1,0,0,-1,102.646,34.216)"/>
<path style=" stroke:none;fill-rule:nonzero;fill:rgb(0%,0%,0%);fill-opacity:1;" d="M 204.695312 34.214844 C 203.699219 34.015625 201.90625 33.617188 200.710938 32.722656 C 201.707031 33.816406 201.707031 34.613281 200.710938 35.710938 C 201.90625 34.8125 203.699219 34.414062 204.695312 34.214844 Z M 204.695312 34.214844 "/>
<g clip-path="url(#clip1)" clip-rule="nonzero">
<path style="fill:none;stroke-width:0.3985;stroke-linecap:butt;stroke-linejoin:miter;stroke:rgb(0%,0%,0%);stroke-opacity:1;stroke-miterlimit:10;" d="M -0.00146875 -34.018375 L -0.00146875 31.626156 " transform="matrix(1,0,0,-1,102.646,34.216)"/>
</g>
<path style=" stroke:none;fill-rule:nonzero;fill:rgb(0%,0%,0%);fill-opacity:1;" d="M 102.644531 0.199219 C 102.445312 1.195312 102.046875 2.988281 101.152344 4.183594 C 102.246094 3.1875 103.042969 3.1875 104.140625 4.183594 C 103.242188 2.988281 102.84375 1.195312 102.644531 0.199219 Z M 102.644531 0.199219 "/>
<g clip-path="url(#clip2)" clip-rule="nonzero">
<path style="fill:none;stroke-width:1.19553;stroke-linecap:butt;stroke-linejoin:miter;stroke:rgb(0%,0%,0%);stroke-opacity:1;stroke-miterlimit:10;" d="M -102.048344 -23.909 L -99.98975 -23.850406 L -97.92725 -23.791812 L -93.80225 -23.666812 L -91.743656 -23.600406 L -89.681156 -23.530094 L -87.618656 -23.455875 L -85.560063 -23.37775 L -83.497563 -23.299625 L -79.372563 -23.12775 L -77.313969 -23.034 L -75.251469 -22.936344 L -73.188969 -22.834781 L -71.126469 -22.725406 L -69.067875 -22.608219 L -67.005375 -22.487125 L -64.942875 -22.362125 L -62.884281 -22.225406 L -60.821781 -22.076969 L -58.759281 -21.924625 L -56.696781 -21.760562 L -54.638188 -21.584781 L -52.575688 -21.393375 L -50.513188 -21.19025 L -48.454594 -20.975406 L -46.392094 -20.737125 L -44.329594 -20.483219 L -42.267094 -20.209781 L -40.2085 -19.909 L -38.146 -19.580875 L -36.0835 -19.225406 L -34.024906 -18.830875 L -31.962406 -18.397281 L -29.899906 -17.916812 L -27.837406 -17.385562 L -25.778813 -16.795719 L -23.716313 -16.131656 L -21.653813 -15.389469 L -19.591313 -14.557437 L -17.532719 -13.616031 L -15.470219 -12.553531 L -13.407719 -11.354312 L -11.349125 -10.006656 L -9.286625 -8.498844 L -7.224125 -6.830875 L -5.161625 -5.014469 L -3.103031 -3.069156 L -1.040531 -1.037906 L 1.021969 1.020688 L 3.080562 3.048031 L 5.143062 4.993344 L 7.205562 6.813656 L 9.268062 8.485531 L 11.326656 9.993344 L 13.389156 11.341 L 15.451656 12.544125 L 17.514156 13.602719 L 19.57275 14.548031 L 21.63525 15.383969 L 23.69775 16.126156 L 25.756344 16.790219 L 27.818844 17.383969 L 29.881344 17.915219 L 31.943844 18.395688 L 34.002437 18.829281 L 36.064937 19.219906 L 38.127437 19.579281 L 40.186031 19.907406 L 42.248531 20.208188 L 44.311031 20.481625 L 46.373531 20.735531 L 48.432125 20.973813 L 50.494625 21.188656 L 52.557125 21.391781 L 54.615719 21.579281 L 56.678219 21.758969 L 58.740719 21.923031 L 60.803219 22.075375 L 62.861812 22.223813 L 64.924312 22.360531 L 66.986812 22.485531 L 69.049312 22.606625 L 71.107906 22.723813 L 73.170406 22.833188 L 75.232906 22.93475 L 77.2915 23.032406 L 79.354 23.126156 L 83.479 23.298031 L 85.537594 23.376156 L 87.600094 23.454281 L 89.662594 23.5285 L 91.721187 23.598813 L 95.846187 23.731625 L 97.908687 23.790219 L 99.967281 23.848813 L 102.029781 23.907406 " transform="matrix(1,0,0,-1,102.646,34.216)"/>
</g>
<path style="fill:none;stroke-width:0.19925;stroke-linecap:butt;stroke-linejoin:miter;stroke:rgb(0%,0%,0%);stroke-opacity:1;stroke-dasharray:2.98883,2.98883;stroke-miterlimit:10;" d="M -102.048344 26.716 L 102.049312 26.716 " transform="matrix(1,0,0,-1,102.646,34.216)"/>
<path style="fill:none;stroke-width:0.19925;stroke-linecap:butt;stroke-linejoin:miter;stroke:rgb(0%,0%,0%);stroke-opacity:1;stroke-dasharray:2.98883,2.98883;stroke-miterlimit:10;" d="M -102.048344 -26.717594 L 102.049312 -26.717594 " transform="matrix(1,0,0,-1,102.646,34.216)"/>
</g>
</svg>
