<svg xmlns="http://www.w3.org/2000/svg" xmlns:xlink="http://www.w3.org/1999/xlink" width="121.476" height="121.476" viewBox="0 0 91.107 91.107"><defs><symbol overflow="visible" id="b"><path d="M4.64-3.766c0-.218-.202-.328-.374-.328-.454 0-1.032.672-1.47 1.375-.015 0-.077-.296-.077-.296-.142-.593-.314-.937-.626-1.078 0 0-1.016.203-1.14.25v.156c.187-.046.327-.078.42-.078.5 0 .58.485.923 1.782C1.89-1.39 1.25-.39 1-.39.797-.39.78-.61.5-.61c-.188 0-.328.14-.328.33 0 .233.172.39.422.39.64 0 1.22-1.126 1.765-1.83.03.064.234.86.234.86.22.83.39.97.61.97.28 0 .702-.282 1.124-1.063l-.125-.078c-.156.202-.406.624-.64.624-.313 0-.485-1.266-.704-2.063.046-.077.67-1.077 1-1.077.17 0 .328.14.484.14.218 0 .297-.187.297-.36zm0 0"/></symbol><symbol overflow="visible" id="c"><path d="M3.703-2.313c0-1.25-.562-2.39-1.656-2.39-1.11 0-1.688 1.14-1.688 2.39C.36-1.03.905.078 2.046.078c1.047 0 1.656-1.108 1.656-2.39zm-.86 0c0 .97-.25 2.126-.812 2.126-.717 0-.81-1.157-.81-2.126 0-.812.06-2.124.827-2.124.75 0 .797 1.312.797 2.125zm0 0"/></symbol><clipPath id="a"><path d="M0 0h91.105v91.105H0zm0 0"/></clipPath></defs><path d="M90.91 45.555C90.91 20.505 70.602.2 45.555.2 20.505.2.2 20.503.2 45.554c0 25.047 20.304 45.35 45.355 45.35 25.047 0 45.355-20.303 45.355-45.35zm0 0" fill="#DFDFDF"/><g clip-path="url(#a)"><path d="M90.91 45.555C90.91 20.505 70.602.2 45.555.2 20.505.2.2 20.503.2 45.554c0 25.047 20.304 45.35 45.355 45.35 25.047 0 45.355-20.303 45.355-45.35zm0 0" fill="none" stroke-width=".399" stroke="#000" stroke-dasharray="2.98883,2.98883" stroke-miterlimit="10"/></g><path d="M68.23 6.273c-13.015-7.51-29.656-3.054-37.17 9.96-7.517 13.017-3.056 29.662 9.96 37.177 13.015 7.512 29.656 3.055 37.17-9.96 7.517-13.016 3.056-29.66-9.96-37.177zm0 0" fill="#BFBFBF" stroke-width=".399" stroke="#000" stroke-dasharray="2.98883,2.98883" stroke-miterlimit="10"/><path d="M46.55 45.555c0-.55-.445-.996-.995-.996s-.996.444-.996.995c0 .547.444.996.995.996.55 0 .996-.448.996-.995zm0 0" stroke-width=".399" stroke="#000" stroke-miterlimit="10"/><path d="M46.55 45.555c0-.55-.445-.996-.995-.996s-.996.444-.996.995c0 .547.444.996.995.996.55 0 .996-.448.996-.995zm0 0" stroke-width=".399" stroke="#000" stroke-miterlimit="10"/><path d="M46.55 45.555c0-.55-.445-.996-.995-.996s-.996.444-.996.995c0 .547.444.996.995.996.55 0 .996-.448.996-.995zm0 0" stroke-width=".399" stroke="#000" stroke-miterlimit="10"/><path d="M46.55 45.555c0-.55-.445-.996-.995-.996s-.996.444-.996.995c0 .547.444.996.995.996.55 0 .996-.448.996-.995zm0 0" stroke-width=".399" stroke="#000" stroke-miterlimit="10"/><path d="M46.55 45.555c0-.55-.445-.996-.995-.996s-.996.444-.996.995c0 .547.444.996.995.996.55 0 .996-.448.996-.995zm0 0" stroke-width=".399" stroke="#000" stroke-miterlimit="10"/><path d="M46.55 45.555c0-.55-.445-.996-.995-.996s-.996.444-.996.995c0 .547.444.996.995.996.55 0 .996-.448.996-.995zm0 0" stroke-width=".399" stroke="#000" stroke-miterlimit="10"/><path d="M46.55 45.555c0-.55-.445-.996-.995-.996s-.996.444-.996.995c0 .547.444.996.995.996.55 0 .996-.448.996-.995zm0 0" stroke-width=".399" stroke="#000" stroke-miterlimit="10"/><path d="M46.55 45.555c0-.55-.445-.996-.995-.996s-.996.444-.996.995c0 .547.444.996.995.996.55 0 .996-.448.996-.995zm0 0" stroke-width=".399" stroke="#000" stroke-miterlimit="10"/><path d="M46.55 45.555c0-.55-.445-.996-.995-.996s-.996.444-.996.995c0 .547.444.996.995.996.55 0 .996-.448.996-.995zm0 0" stroke-width=".399" stroke="#000" stroke-miterlimit="10"/><path d="M46.55 45.555c0-.55-.445-.996-.995-.996s-.996.444-.996.995c0 .547.444.996.995.996.55 0 .996-.448.996-.995zm0 0" stroke-width=".399" stroke="#000" stroke-miterlimit="10"/><path d="M46.55 45.555c0-.55-.445-.996-.995-.996s-.996.444-.996.995c0 .547.444.996.995.996.55 0 .996-.448.996-.995zm0 0" stroke-width=".399" stroke="#000" stroke-miterlimit="10"/><path d="M46.55 45.555c0-.55-.445-.996-.995-.996s-.996.444-.996.995c0 .547.444.996.995.996.55 0 .996-.448.996-.995zm0 0" stroke-width=".399" stroke="#000" stroke-miterlimit="10"/><path d="M46.55 45.555c0-.55-.445-.996-.995-.996s-.996.444-.996.995c0 .547.444.996.995.996.55 0 .996-.448.996-.995zm0 0" stroke-width=".399" stroke="#000" stroke-miterlimit="10"/><path d="M46.55 45.555c0-.55-.445-.996-.995-.996s-.996.444-.996.995c0 .547.444.996.995.996.55 0 .996-.448.996-.995zm0 0" stroke-width=".399" stroke="#000" stroke-miterlimit="10"/><path d="M46.55 45.555c0-.55-.445-.996-.995-.996s-.996.444-.996.995c0 .547.444.996.995.996.55 0 .996-.448.996-.995zm0 0" stroke-width=".399" stroke="#000" stroke-miterlimit="10"/><path d="M46.55 45.555c0-.55-.445-.996-.995-.996s-.996.444-.996.995c0 .547.444.996.995.996.55 0 .996-.448.996-.995zm0 0" stroke-width=".399" stroke="#000" stroke-miterlimit="10"/><path d="M46.55 45.555c0-.55-.445-.996-.995-.996s-.996.444-.996.995c0 .547.444.996.995.996.55 0 .996-.448.996-.995zm0 0" stroke-width=".399" stroke="#000" stroke-miterlimit="10"/><path d="M46.55 45.555c0-.55-.445-.996-.995-.996s-.996.444-.996.995c0 .547.444.996.995.996.55 0 .996-.448.996-.995zm0 0" stroke-width=".399" stroke="#000" stroke-miterlimit="10"/><path d="M46.55 45.555c0-.55-.445-.996-.995-.996s-.996.444-.996.995c0 .547.444.996.995.996.55 0 .996-.448.996-.995zm0 0" stroke-width=".399" stroke="#000" stroke-miterlimit="10"/><path d="M46.55 45.555c0-.55-.445-.996-.995-.996s-.996.444-.996.995c0 .547.444.996.995.996.55 0 .996-.448.996-.995zm0 0" stroke-width=".399" stroke="#000" stroke-miterlimit="10"/><path d="M46.55 45.555c0-.55-.445-.996-.995-.996s-.996.444-.996.995c0 .547.444.996.995.996.55 0 .996-.448.996-.995zm0 0" stroke-width=".399" stroke="#000" stroke-miterlimit="10"/><path d="M46.55 45.555c0-.55-.445-.996-.995-.996s-.996.444-.996.995c0 .547.444.996.995.996.55 0 .996-.448.996-.995zm0 0" stroke-width=".399" stroke="#000" stroke-miterlimit="10"/><path d="M46.55 45.555c0-.55-.445-.996-.995-.996s-.996.444-.996.995c0 .547.444.996.995.996.55 0 .996-.448.996-.995zm0 0" stroke-width=".399" stroke="#000" stroke-miterlimit="10"/><path d="M46.55 45.555c0-.55-.445-.996-.995-.996s-.996.444-.996.995c0 .547.444.996.995.996.55 0 .996-.448.996-.995zm0 0M55.62 29.84c0-.547-.444-.996-.995-.996-.55 0-.996.45-.996.996 0 .55.444 1 .995 1 .55 0 .996-.45.996-1zm0 0" stroke-width=".399" stroke="#000" stroke-miterlimit="10"/><path d="M55.62 29.84c0-.547-.444-.996-.995-.996-.55 0-.996.45-.996.996 0 .55.444 1 .995 1 .55 0 .996-.45.996-1zm0 0" stroke-width=".399" stroke="#000" stroke-miterlimit="10"/><path d="M55.62 29.84c0-.547-.444-.996-.995-.996-.55 0-.996.45-.996.996 0 .55.444 1 .995 1 .55 0 .996-.45.996-1zm0 0" stroke-width=".399" stroke="#000" stroke-miterlimit="10"/><path d="M55.62 29.84c0-.547-.444-.996-.995-.996-.55 0-.996.45-.996.996 0 .55.444 1 .995 1 .55 0 .996-.45.996-1zm0 0" stroke-width=".399" stroke="#000" stroke-miterlimit="10"/><path d="M55.62 29.84c0-.547-.444-.996-.995-.996-.55 0-.996.45-.996.996 0 .55.444 1 .995 1 .55 0 .996-.45.996-1zm0 0" stroke-width=".399" stroke="#000" stroke-miterlimit="10"/><path d="M55.62 29.84c0-.547-.444-.996-.995-.996-.55 0-.996.45-.996.996 0 .55.444 1 .995 1 .55 0 .996-.45.996-1zm0 0" stroke-width=".399" stroke="#000" stroke-miterlimit="10"/><path d="M55.62 29.84c0-.547-.444-.996-.995-.996-.55 0-.996.45-.996.996 0 .55.444 1 .995 1 .55 0 .996-.45.996-1zm0 0" stroke-width=".399" stroke="#000" stroke-miterlimit="10"/><path d="M55.62 29.84c0-.547-.444-.996-.995-.996-.55 0-.996.45-.996.996 0 .55.444 1 .995 1 .55 0 .996-.45.996-1zm0 0" stroke-width=".399" stroke="#000" stroke-miterlimit="10"/><path d="M55.62 29.84c0-.547-.444-.996-.995-.996-.55 0-.996.45-.996.996 0 .55.444 1 .995 1 .55 0 .996-.45.996-1zm0 0" stroke-width=".399" stroke="#000" stroke-miterlimit="10"/><path d="M55.62 29.84c0-.547-.444-.996-.995-.996-.55 0-.996.45-.996.996 0 .55.444 1 .995 1 .55 0 .996-.45.996-1zm0 0" stroke-width=".399" stroke="#000" stroke-miterlimit="10"/><path d="M55.62 29.84c0-.547-.444-.996-.995-.996-.55 0-.996.45-.996.996 0 .55.444 1 .995 1 .55 0 .996-.45.996-1zm0 0" stroke-width=".399" stroke="#000" stroke-miterlimit="10"/><path d="M55.62 29.84c0-.547-.444-.996-.995-.996-.55 0-.996.45-.996.996 0 .55.444 1 .995 1 .55 0 .996-.45.996-1zm0 0" stroke-width=".399" stroke="#000" stroke-miterlimit="10"/><path d="M55.62 29.84c0-.547-.444-.996-.995-.996-.55 0-.996.45-.996.996 0 .55.444 1 .995 1 .55 0 .996-.45.996-1zm0 0" stroke-width=".399" stroke="#000" stroke-miterlimit="10"/><path d="M55.62 29.84c0-.547-.444-.996-.995-.996-.55 0-.996.45-.996.996 0 .55.444 1 .995 1 .55 0 .996-.45.996-1zm0 0" stroke-width=".399" stroke="#000" stroke-miterlimit="10"/><path d="M55.62 29.84c0-.547-.444-.996-.995-.996-.55 0-.996.45-.996.996 0 .55.444 1 .995 1 .55 0 .996-.45.996-1zm0 0" stroke-width=".399" stroke="#000" stroke-miterlimit="10"/><path d="M55.62 29.84c0-.547-.444-.996-.995-.996-.55 0-.996.45-.996.996 0 .55.444 1 .995 1 .55 0 .996-.45.996-1zm0 0" stroke-width=".399" stroke="#000" stroke-miterlimit="10"/><path d="M55.62 29.84c0-.547-.444-.996-.995-.996-.55 0-.996.45-.996.996 0 .55.444 1 .995 1 .55 0 .996-.45.996-1zm0 0" stroke-width=".399" stroke="#000" stroke-miterlimit="10"/><path d="M55.62 29.84c0-.547-.444-.996-.995-.996-.55 0-.996.45-.996.996 0 .55.444 1 .995 1 .55 0 .996-.45.996-1zm0 0" stroke-width=".399" stroke="#000" stroke-miterlimit="10"/><path d="M55.62 29.84c0-.547-.444-.996-.995-.996-.55 0-.996.45-.996.996 0 .55.444 1 .995 1 .55 0 .996-.45.996-1zm0 0" stroke-width=".399" stroke="#000" stroke-miterlimit="10"/><path d="M55.62 29.84c0-.547-.444-.996-.995-.996-.55 0-.996.45-.996.996 0 .55.444 1 .995 1 .55 0 .996-.45.996-1zm0 0" stroke-width=".399" stroke="#000" stroke-miterlimit="10"/><path d="M55.62 29.84c0-.547-.444-.996-.995-.996-.55 0-.996.45-.996.996 0 .55.444 1 .995 1 .55 0 .996-.45.996-1zm0 0" stroke-width=".399" stroke="#000" stroke-miterlimit="10"/><path d="M55.62 29.84c0-.547-.444-.996-.995-.996-.55 0-.996.45-.996.996 0 .55.444 1 .995 1 .55 0 .996-.45.996-1zm0 0" stroke-width=".399" stroke="#000" stroke-miterlimit="10"/><path d="M55.62 29.84c0-.547-.444-.996-.995-.996-.55 0-.996.45-.996.996 0 .55.444 1 .995 1 .55 0 .996-.45.996-1zm0 0" stroke-width=".399" stroke="#000" stroke-miterlimit="10"/><path d="M55.62 29.84c0-.547-.444-.996-.995-.996-.55 0-.996.45-.996.996 0 .55.444 1 .995 1 .55 0 .996-.45.996-1zm0 0" stroke-width=".399" stroke="#000" stroke-miterlimit="10"/><use xlink:href="#b" x="58.143" y="31.891"/><use xlink:href="#b" x="49.073" y="46.887"/><use xlink:href="#c" x="53.977" y="48.317"/></svg>