<svg xmlns="http://www.w3.org/2000/svg" xmlns:xlink="http://www.w3.org/1999/xlink" width="168.94" height="108.745" viewBox="0 0 126.705 81.559"><defs><symbol overflow="visible" id="f"><path d="M5.984-2.03v-.454H.5v.453zm0 0"/></symbol><symbol overflow="visible" id="k"><path d="M6.75-2.922v-.5h-6v.5zm0 1.813v-.5h-6v.5zm0 0"/></symbol><symbol overflow="visible" id="g"><path d="M3.156 0v-.188c-.53 0-.703 0-.703-.843v-3.673H2.28L.94-4.125l.078.188c.312-.126.375-.14.468-.14.204 0 .22.17.22.374v2.672c0 .843-.157.827-.688.843V0zm0 0"/></symbol><symbol overflow="visible" id="h"><path d="M3.813-.97L3.592-1c-.234.36-.42.422-.765.422H1.172c1.187-.985 2.25-1.875 2.25-2.844 0-.734-.703-1.25-1.47-1.25-.764 0-1.374.36-1.608 1.375h.25c.22-.39.5-.78 1.078-.78.64 0 1 .42 1 .92 0 .735-.89 1.798-2.406 2.985V0H3.36zm0 0"/></symbol><symbol overflow="visible" id="m"><path d="M2.016-2.703c.187.312.312.672.296 1.015 0 .813-.5 1.547-.984 1.547-.25 0-.484-.313-.484-.844 0-.58.297-1.407 1.015-1.954zm.14-2.36c.235 0 .516.125.516.313 0 .203-.313.25-.313.5 0 .203.14.375.343.375.235 0 .485-.313.485-.672 0-.47-.485-.797-1.08-.797-.624 0-.952.485-.952.907 0 .468.39 1.015.578 1.328C.516-2.577.266-1.5.266-1.046c0 .78.5 1.125 1.093 1.125.734 0 1.577-.625 1.577-1.78 0-1.5-1.36-2.173-1.36-2.86 0-.33.282-.5.58-.5zm0 0"/></symbol><symbol overflow="visible" id="i"><path d="M4.234-2.953c0-1.61-.734-3.063-1.984-3.063-1.266 0-2 1.454-2 3.063C.25-1.328.938.11 2.25.11c1.203 0 1.984-1.438 1.984-3.063zm-.86 0C3.375-1.656 3.25-.14 2.25-.14c-.953 0-1.14-1.516-1.14-2.813 0-1.078.124-2.828 1.14-2.828 1 0 1.125 1.75 1.125 2.827zm0 0"/></symbol><symbol overflow="visible" id="j"><path d="M4.672-3.5c0-.39-.22-.594-.5-.594-.203 0-.344.172-.344.36 0 .453.5.328.5.625 0 .58-1.125 2.157-1.375 2.547-.094-1.812-.36-3.156-.672-3.53L.985-3.86v.157c.08-.016.204-.03.329-.03.67 0 .718.67 1.062 3.874-.125.376-.938 1.297-1.172 1.297-.156 0-.156-.296-.437-.296-.22 0-.407.204-.407.407 0 .28.28.375.406.375.61 0 1.703-1.36 2.61-2.734C4.202-2.048 4.67-2.985 4.67-3.5zm0 0"/></symbol><symbol overflow="visible" id="l"><path d="M4.875-3.797h-.86c-.452-.062-.546-.297-1.14-.297-.828 0-1.828.61-1.828 1.578 0 .39.187.83.812 1.047-.39.236-.782.486-.782.814 0 .187.14.28.234.344C.547.107.266.53.266.89c0 .532.61.97 1.562.97C3 1.86 3.78 1.296 3.78.53c0-1.186-2.046-1.046-2.046-1.483 0-.156.08-.28.454-.422h.187c.688 0 1.72-.64 1.72-1.5 0-.188-.032-.36-.08-.5h.75zm-1.5.53c0 .704-.406 1.673-1.03 1.673-.423 0-.564-.39-.564-.703 0-.47.314-1.594 1.08-1.594.36 0 .515.28.515.624zm-.14 4.08c0 .53-.657.843-1.313.843-.36 0-1.156-.156-1.156-.843 0-.438.36-.83.734-1.032.922.267 1.734.532 1.734 1.032zm0 0"/></symbol><symbol overflow="visible" id="n"><path d="M3.203 1.922v-.156C2.11 1.126 1.61-.14 1.61-2.266c0-2.11.5-3.343 1.593-4.015v-.157C1.656-5.641.75-4.11.75-2.268c0 1.876.875 3.33 2.453 4.19zm0 0"/></symbol><symbol overflow="visible" id="o"><path d="M4.64-3.766c0-.218-.202-.328-.374-.328-.454 0-1.032.672-1.47 1.375-.015 0-.077-.296-.077-.296-.142-.593-.314-.937-.626-1.078 0 0-1.016.203-1.14.25v.156c.187-.046.327-.078.42-.078.5 0 .58.485.923 1.782C1.89-1.39 1.25-.39 1-.39.797-.39.78-.61.5-.61c-.188 0-.328.14-.328.33 0 .233.172.39.422.39.64 0 1.22-1.126 1.765-1.83.03.064.234.86.234.86.22.83.39.97.61.97.28 0 .702-.282 1.124-1.063l-.125-.078c-.156.202-.406.624-.64.624-.313 0-.485-1.266-.704-2.063.046-.077.67-1.077 1-1.077.17 0 .328.14.484.14.218 0 .297-.187.297-.36zm0 0"/></symbol><symbol overflow="visible" id="p"><path d="M2.594-2.25c0-1.86-.875-3.313-2.453-4.188v.172c1.094.64 1.594 1.89 1.594 4.016 0 2.11-.5 3.36-1.593 4.016v.156C1.688 1.142 2.595-.39 2.595-2.25zm0 0"/></symbol><clipPath id="a"><path d="M19 72h107.703v1H19zm0 0"/></clipPath><clipPath id="b"><path d="M19 29h107.703v2H19zm0 0"/></clipPath><clipPath id="c"><path d="M19 51h107.703v1H19zm0 0"/></clipPath><clipPath id="d"><path d="M19 3h2v78.56h-2zm0 0"/></clipPath><clipPath id="e"><path d="M2 0h124.703v69H2zm0 0"/></clipPath></defs><g clip-path="url(#a)"><path d="M19.81 72.484h106.3" fill="none" stroke-width=".399" stroke="#000" stroke-dasharray="2.98883,2.98883" stroke-miterlimit="10"/></g><g clip-path="url(#b)"><path d="M19.81 29.965h106.3" fill="none" stroke-width=".399" stroke="#000" stroke-dasharray="2.98883,2.98883" stroke-miterlimit="10"/></g><g clip-path="url(#c)"><path d="M19.81 51.223h106.3" fill="none" stroke-width=".399" stroke="#000" stroke-miterlimit="10"/></g><g clip-path="url(#d)"><path d="M19.81 80.988V3.785" fill="none" stroke-width=".399" stroke="#000" stroke-miterlimit="10"/></g><path d="M19.81.2c-.2 1.062-.798 2.788-1.497 3.984H21.3C20.606 2.988 20.01 1.262 19.81.2"/><g clip-path="url(#e)"><path d="M19.81 8.703l10.628 42.52h95.67" fill="none" stroke-width="1.196" stroke="#000" stroke-miterlimit="10"/></g><use xlink:href="#f" x="3.32" y="75.056"/><use xlink:href="#g" x="11.007" y="71.434"/><path d="M11.008 72.797h4.086" fill="none" stroke-width=".412" stroke="#000" stroke-miterlimit="10"/><use xlink:href="#h" x="11.007" y="78.239"/><use xlink:href="#i" x="11.806" y="54.249"/><use xlink:href="#g" x="11.007" y="28.914"/><path d="M11.008 30.277h4.086" fill="none" stroke-width=".412" stroke="#000" stroke-miterlimit="10"/><use xlink:href="#h" x="11.007" y="35.72"/><use xlink:href="#j" x="25.453" y="19.39"/><use xlink:href="#k" x="33.476" y="19.39"/><use xlink:href="#l" x="43.462" y="19.39"/><use xlink:href="#m" x="48.484" y="21.454"/><use xlink:href="#n" x="52.957" y="19.39"/><use xlink:href="#o" x="56.301" y="19.39"/><g><use xlink:href="#p" x="61.654" y="19.39"/></g></svg>