<svg xmlns="http://www.w3.org/2000/svg" xmlns:xlink="http://www.w3.org/1999/xlink" width="166.011" height="117.877" viewBox="0 0 124.508 88.408"><defs><symbol overflow="visible" id="f"><path d="M4.234-2.953c0-1.61-.734-3.063-1.984-3.063-1.266 0-2 1.454-2 3.063C.25-1.328.938.11 2.25.11c1.203 0 1.984-1.438 1.984-3.063zm-.86 0C3.375-1.656 3.25-.14 2.25-.14c-.953 0-1.14-1.516-1.14-2.813 0-1.078.124-2.828 1.14-2.828 1 0 1.125 1.75 1.125 2.827zm0 0"/></symbol><symbol overflow="visible" id="g"><path d="M3.484 0v-.14c-.593 0-.812.015-.812-1.157v-4.75h-.125l-1.53.734.046.14c.328-.14.406-.17.53-.17.266 0 .313.234.313.546v3.5c0 1.172-.218 1.14-.812 1.156V0zm0 0"/></symbol><symbol overflow="visible" id="h"><path d="M4.672-3.5c0-.39-.22-.594-.5-.594-.203 0-.344.172-.344.36 0 .453.5.328.5.625 0 .58-1.125 2.157-1.375 2.547-.094-1.812-.36-3.156-.672-3.53L.985-3.86v.157c.08-.016.204-.03.329-.03.67 0 .718.67 1.062 3.874-.125.376-.938 1.297-1.172 1.297-.156 0-.156-.296-.437-.296-.22 0-.407.204-.407.407 0 .28.28.375.406.375.61 0 1.703-1.36 2.61-2.734C4.202-2.048 4.67-2.985 4.67-3.5zm0 0"/></symbol><symbol overflow="visible" id="j"><path d="M4.875-3.797h-.86c-.452-.062-.546-.297-1.14-.297-.828 0-1.828.61-1.828 1.578 0 .39.187.83.812 1.047-.39.236-.782.486-.782.814 0 .187.14.28.234.344C.547.107.266.53.266.89c0 .532.61.97 1.562.97C3 1.86 3.78 1.296 3.78.53c0-1.186-2.046-1.046-2.046-1.483 0-.156.08-.28.454-.422h.187c.688 0 1.72-.64 1.72-1.5 0-.188-.032-.36-.08-.5h.75zm-1.5.53c0 .704-.406 1.673-1.03 1.673-.423 0-.564-.39-.564-.703 0-.47.314-1.594 1.08-1.594.36 0 .515.28.515.624zm-.14 4.08c0 .53-.657.843-1.313.843-.36 0-1.156-.156-1.156-.843 0-.438.36-.83.734-1.032.922.267 1.734.532 1.734 1.032zm0 0"/></symbol><symbol overflow="visible" id="k"><path d="M3.203 1.922v-.156C2.11 1.126 1.61-.14 1.61-2.266c0-2.11.5-3.343 1.593-4.015v-.157C1.656-5.641.75-4.11.75-2.268c0 1.876.875 3.33 2.453 4.19zm0 0"/></symbol><symbol overflow="visible" id="l"><path d="M4.64-3.766c0-.218-.202-.328-.374-.328-.454 0-1.032.672-1.47 1.375-.015 0-.077-.296-.077-.296-.142-.593-.314-.937-.626-1.078 0 0-1.016.203-1.14.25v.156c.187-.046.327-.078.42-.078.5 0 .58.485.923 1.782C1.89-1.39 1.25-.39 1-.39.797-.39.78-.61.5-.61c-.188 0-.328.14-.328.33 0 .233.172.39.422.39.64 0 1.22-1.126 1.765-1.83.03.064.234.86.234.86.22.83.39.97.61.97.28 0 .702-.282 1.124-1.063l-.125-.078c-.156.202-.406.624-.64.624-.313 0-.485-1.266-.704-2.063.046-.077.67-1.077 1-1.077.17 0 .328.14.484.14.218 0 .297-.187.297-.36zm0 0"/></symbol><symbol overflow="visible" id="m"><path d="M2.594-2.25c0-1.86-.875-3.313-2.453-4.188v.172c1.094.64 1.594 1.89 1.594 4.016 0 2.11-.5 3.36-1.593 4.016v.156C1.688 1.142 2.595-.39 2.595-2.25zm0 0"/></symbol><symbol overflow="visible" id="i"><path d="M6.75-2.922v-.5h-6v.5zm0 1.813v-.5h-6v.5zm0 0"/></symbol><clipPath id="a"><path d="M0 25h124.508v42H0zm0 0"/></clipPath><clipPath id="b"><path d="M0 2h124.508v42H0zm0 0"/></clipPath><clipPath id="c"><path d="M0 14h124.508v41H0zm0 0"/></clipPath><clipPath id="d"><path d="M0 0h124.508v62H0zm0 0"/></clipPath><clipPath id="e"><path d="M106 61h18.508v26H106zm0 0"/></clipPath></defs><g clip-path="url(#a)"><path d="M5.56 42.918s11.827-14.645 28.346-11.34c16.52 3.305 40.176 25.043 56.696 28.348 16.52 3.304 28.347-11.34 28.347-11.34" fill="none" stroke-width=".399" stroke="#000" stroke-dasharray="2.98883,2.98883" stroke-miterlimit="10"/></g><g clip-path="url(#b)"><path d="M5.56 20.238S17.386 5.598 33.905 8.902c16.52 3.305 40.176 25.043 56.696 28.348 16.52 3.3 28.347-11.34 28.347-11.34" fill="none" stroke-width=".399" stroke="#000" stroke-dasharray="2.98883,2.98883" stroke-miterlimit="10"/></g><g clip-path="url(#c)"><path d="M5.56 31.578s11.827-14.64 28.346-11.336c16.52 3.3 40.176 25.043 56.696 28.344 16.52 3.305 28.347-11.336 28.347-11.336" fill="none" stroke-width=".399" stroke="#000" stroke-miterlimit="10"/></g><g clip-path="url(#d)"><path d="M5.56 32.996c22.678-26.93 48.19-9.922 53.858 0 .852 1.418 2.27 1.418 2.55-29.766 0-2.832.57-2.832.57 0 .282 28.348 1.7 31.184 2.552 32.602 5.668 9.922 31.18 26.93 53.86 0" fill="none" stroke-width=".797" stroke="#000" stroke-miterlimit="10"/></g><path d="M5.56 74.098h113.39" fill="none" stroke-width=".797" stroke="#000" stroke-miterlimit="10"/><path d="M6.56 74.098c0-.547-.45-.996-1-.996-.548 0-.997.45-.997.996 0 .55.45.996.996.996.55 0 1-.446 1-.996zm0 0" stroke-width=".797" stroke="#000" stroke-miterlimit="10"/><path d="M119.945 74.098c0-.547-.45-.996-.996-.996-.552 0-.997.45-.997.996 0 .55.445.996.996.996.546 0 .995-.446.995-.996zm0 0"/><g clip-path="url(#e)"><path d="M119.945 74.098c0-.547-.45-.996-.996-.996-.552 0-.997.45-.997.996 0 .55.445.996.996.996.546 0 .995-.446.995-.996zm0 0" fill="none" stroke-width=".797" stroke="#000" stroke-miterlimit="10"/></g><use xlink:href="#f" x="3.32" y="85.088"/><use xlink:href="#g" x="116.705" y="85.088"/><use xlink:href="#h" x="65.773" y="12.575"/><use xlink:href="#i" x="73.796" y="12.575"/><use xlink:href="#j" x="83.783" y="12.575"/><use xlink:href="#k" x="89.118" y="12.575"/><use xlink:href="#l" x="92.462" y="12.575"/><g><use xlink:href="#m" x="97.815" y="12.575"/></g></svg>