<svg xmlns="http://www.w3.org/2000/svg" xmlns:xlink="http://www.w3.org/1999/xlink" width="166.011" height="110.677" viewBox="0 0 124.508 83.008"><defs><symbol overflow="visible" id="e"><path d="M4.234-2.953c0-1.61-.734-3.063-1.984-3.063-1.266 0-2 1.454-2 3.063C.25-1.328.938.11 2.25.11c1.203 0 1.984-1.438 1.984-3.063zm-.86 0C3.375-1.656 3.25-.14 2.25-.14c-.953 0-1.14-1.516-1.14-2.813 0-1.078.124-2.828 1.14-2.828 1 0 1.125 1.75 1.125 2.827zm0 0"/></symbol><symbol overflow="visible" id="f"><path d="M3.484 0v-.14c-.593 0-.812.015-.812-1.157v-4.75h-.125l-1.53.734.046.14c.328-.14.406-.17.53-.17.266 0 .313.234.313.546v3.5c0 1.172-.218 1.14-.812 1.156V0zm0 0"/></symbol><clipPath id="a"><path d="M0 20h124.508v41H0zm0 0"/></clipPath><clipPath id="b"><path d="M0 0h124.508v38H0zm0 0"/></clipPath><clipPath id="c"><path d="M0 8h124.508v42H0zm0 0"/></clipPath><clipPath id="d"><path d="M106 56h18.508v25H106zm0 0"/></clipPath></defs><g clip-path="url(#a)"><path d="M5.56 37.516s11.827-14.64 28.346-11.336c16.52 3.304 40.176 25.043 56.696 28.347 16.52 3.3 28.347-11.34 28.347-11.34" fill="none" stroke-width=".399" stroke="#000" stroke-dasharray="2.98883,2.98883" stroke-miterlimit="10"/></g><g clip-path="url(#b)"><path d="M5.56 14.84S17.386.2 33.905 3.5c16.52 3.305 40.176 25.043 56.696 28.348 16.52 3.304 28.347-11.34 28.347-11.34" fill="none" stroke-width=".399" stroke="#000" stroke-dasharray="2.98883,2.98883" stroke-miterlimit="10"/></g><g clip-path="url(#c)"><path d="M5.56 26.18s11.827-14.645 28.346-11.34c16.52 3.305 40.176 25.043 56.696 28.348 16.52 3.304 28.347-11.34 28.347-11.34" fill="none" stroke-width=".399" stroke="#000" stroke-miterlimit="10"/></g><path d="M5.56 68.7h113.39" fill="none" stroke-width=".797" stroke="#000" stroke-miterlimit="10"/><path d="M6.56 68.7c0-.552-.45-.997-1-.997-.548 0-.997.445-.997.996 0 .55.45.995.996.995.55 0 1-.445 1-.996zm0 0" stroke-width=".797" stroke="#000" stroke-miterlimit="10"/><path d="M119.945 68.7c0-.552-.45-.997-.996-.997-.552 0-.997.445-.997.996 0 .55.445.995.996.995.546 0 .995-.445.995-.996zm0 0"/><g clip-path="url(#d)"><path d="M119.945 68.7c0-.552-.45-.997-.996-.997-.552 0-.997.445-.997.996 0 .55.445.995.996.995.546 0 .995-.445.995-.996zm0 0" fill="none" stroke-width=".797" stroke="#000" stroke-miterlimit="10"/></g><use xlink:href="#e" x="3.32" y="79.688"/><use xlink:href="#f" x="116.705" y="79.688"/></svg>