<svg xmlns="http://www.w3.org/2000/svg" xmlns:xlink="http://www.w3.org/1999/xlink" width="396.88" height="123.643" viewBox="0 0 297.66 92.732"><defs><symbol overflow="visible" id="a"><path d="M5.078-2.5c0-.28-.03-1.375-1.656-1.547l.422-1.422c.03-.077.047-.17.047-.202 0-.156-.124-.312-.28-.312-.126 0-.33.015-.407.343l-.297 1.577C.78-3.78.22-2.232.22-1.5.22.016 1.874.078 1.874.078l-.438 1.406c0 .016-.015.08-.015.11 0 .172.14.328.297.328.124 0 .31-.11.358-.328L2.39.124C4.313-.093 5.08-1.64 5.08-2.5zm-.766-.016c0 .782-.53 2.125-1.843 2.344l.89-3.594c.687.094.953.704.953 1.25zM2.829-3.75l-.86 3.578C1.25-.375.985-.86.985-1.375c0-.672.485-2.188 1.844-2.375zm0 0"/></symbol><symbol overflow="visible" id="b"><path d="M4.64-3.766c0-.218-.202-.328-.374-.328-.454 0-1.032.672-1.47 1.375-.015 0-.077-.296-.077-.296-.142-.593-.314-.937-.626-1.078 0 0-1.016.203-1.14.25v.156c.187-.046.327-.078.42-.078.5 0 .58.485.923 1.782C1.89-1.39 1.25-.39 1-.39.797-.39.78-.61.5-.61c-.188 0-.328.14-.328.33 0 .233.172.39.422.39.64 0 1.22-1.126 1.765-1.83.03.064.234.86.234.86.22.83.39.97.61.97.28 0 .702-.282 1.124-1.063l-.125-.078c-.156.202-.406.624-.64.624-.313 0-.485-1.266-.704-2.063.046-.077.67-1.077 1-1.077.17 0 .328.14.484.14.218 0 .297-.187.297-.36zm0 0"/></symbol><symbol overflow="visible" id="d"><path d="M3.203 1.922v-.156C2.11 1.126 1.61-.14 1.61-2.266c0-2.11.5-3.343 1.593-4.015v-.157C1.656-5.641.75-4.11.75-2.268c0 1.876.875 3.33 2.453 4.19zm0 0"/></symbol><symbol overflow="visible" id="e"><path d="M2.594-2.25c0-1.86-.875-3.313-2.453-4.188v.172c1.094.64 1.594 1.89 1.594 4.016 0 2.11-.5 3.36-1.593 4.016v.156C1.688 1.142 2.595-.39 2.595-2.25zm0 0"/></symbol><symbol overflow="visible" id="f"><path d="M6.203-4.688c0-.843-.672-1.36-1.844-1.36H2.093l-.03.142c.28 0 .686.03.686.437 0 .126-.03.267-.125.595L1.562-1.047c-.25.906-.562.89-.92.89L.608 0h2.765C5 0 5.72-1.03 5.72-1.828c0-.547-.345-1.125-1.126-1.406.89-.125 1.61-.672 1.61-1.454zm-.937-.11c0 .673-.563 1.44-1.5 1.44H3.11l.656-2.408h.437c.734 0 1.063.47 1.063.97zM4.734-1.89c0 .765-.593 1.593-1.812 1.593h-.61l.704-2.765h.546c.782 0 1.172.562 1.172 1.17zm0 0"/></symbol><symbol overflow="visible" id="h"><path d="M1.797-.11c0-.578-.36-.765-.563-.765-.14 0-.515.078-.515.5 0 .344.28.453.436.453.078 0 .094-.047.172-.047.047 0 .14.064.14.22 0 .125-.03.453-.593.86v.187c.47-.313.922-.797.922-1.406zm0 0"/></symbol><symbol overflow="visible" id="i"><path d="M3.61-5.516c0-.546-.47-.92-1.157-.92-.72-.002-1.094.545-1.094 1.06 0 .61.562 1.407.734 1.657C.594-3.124.28-1.796.28-1.233.28-.314.876.11 1.563.11c.86 0 1.844-.75 1.844-2.14 0-1.47-1.234-2.47-1.547-3.08-.08-.156-.094-.296-.094-.42 0-.454.39-.642.75-.642.328 0 .61.156.61.406 0 .235-.376.282-.376.625 0 .202.14.374.344.374.265 0 .515-.343.515-.75zm-.86 3.563c0 1.14-.78 1.797-1.234 1.797-.329 0-.625-.39-.625-1.032-.015-.703.407-1.765 1.33-2.36l.14.22c.265.437.39.797.39 1.375zm0 0"/></symbol><symbol overflow="visible" id="k"><path d="M3.703-3.125c0-.438-.453-.97-1.234-.97-.986 0-1.61.486-1.61 1.267 0 .344.328.64.515.734C1.047-1.954.28-1.656.28-.828c0 .672.814.937 1.376.937.61 0 1.47-.454 1.688-1.173h-.36c-.11.438-.734.907-1.218.907C1.328-.156.89-.39.89-.86c0-.515.344-.89.83-1.093.093.047.483.22.686.22.28 0 .406-.173.406-.314 0-.156-.14-.312-.437-.312-.172 0-.39.032-.547.094-.11-.078-.36-.17-.36-.546 0-.5.345-1 1.032-1 .688 0 .672.578.72.703.06.172.14.235.233.235.203 0 .25-.125.25-.25zm0 0"/></symbol><symbol overflow="visible" id="c"><path d="M3.703-2.313c0-1.25-.562-2.39-1.656-2.39-1.11 0-1.688 1.14-1.688 2.39C.36-1.03.905.078 2.046.078c1.047 0 1.656-1.108 1.656-2.39zm-.86 0c0 .97-.25 2.126-.812 2.126-.717 0-.81-1.157-.81-2.126 0-.812.06-2.124.827-2.124.75 0 .797 1.312.797 2.125zm0 0"/></symbol><symbol overflow="visible" id="g"><path d="M6-5.03H4.47l-.032.218c.312 0 .406.11.406.203 0 .11-.11.25-.235.36L3.452-3.03 3.14-4c-.046-.14-.124-.344-.124-.53 0-.267.28-.282.515-.282l.033-.22h-2.14l-.032.22c.532 0 .673.203.798.61l.656 1.827c-.61.672-1.563 1.64-1.563 1.64-.25.282-.577.516-.874.516L.376 0h1.75l.03-.22c-.22 0-.5.017-.5-.202 0-.11.125-.25.203-.344l1.11-1.187.39 1.062c.03.11.062.265.062.374 0 .297-.25.297-.563.297L2.827 0h2.125l.03-.22c-.405 0-.592-.155-.75-.56L3.61-2.64 4.905-4c.22-.266.735-.813 1.063-.813zm0 0"/></symbol><symbol overflow="visible" id="j"><path d="M5.28-5.03H3.595l-.047.218c.328 0 .562 0 .562.203 0 .08-.11.25-.22.39 0 .017-.937 1.142-1.187 1.454-.125-.375-.47-1.484-.47-1.484-.03-.078-.06-.22-.06-.28 0-.282.296-.282.56-.282l.048-.22H.673l-.03.22c.436 0 .592.125.75.593l.577 1.83-.392 1.36c-.203.655-.39.796-.953.81L.578 0h2.39L3-.22c-.422 0-.688 0-.688-.31 0-.126.08-.392.204-.782l.296-1.016L4.188-4.03c.28-.33.546-.767 1.046-.767zm0 0"/></symbol></defs><path d="M56.895 42.72c0-15.657-12.692-28.35-28.348-28.35C12.89 14.37.2 27.064.2 42.72c0 15.655 12.69 28.346 28.347 28.346 15.656 0 28.348-12.69 28.348-28.347zm0 0M263.824 42.72c0-23.486-19.035-42.52-42.52-42.52-23.484 0-42.52 19.034-42.52 42.52 0 23.483 19.036 42.518 42.52 42.518 23.485 0 42.52-19.035 42.52-42.52zm0 0" fill="#DFDFDF" stroke-width=".399" stroke="#000" stroke-dasharray="2.98883,2.98883" stroke-miterlimit="10"/><path d="M245.398 49.805c7.79-8.496 5.31-21.266 0-26.93-5.308-5.664-10.996 2.13-21.257 4.254-10.265 2.124-17.367-3.185-19.843 4.25-2.477 7.433-.344 20.91 9.922 25.51 10.264 4.602 23.393 1.41 31.178-7.085zm0 0" fill="#BFBFBF" stroke-width=".199" stroke="#000" stroke-dasharray="2.98883,2.98883" stroke-miterlimit="10"/><path d="M54.06 25.71c36.85-11.34 96.377-11.34 146.577 7.657" fill="none" stroke-width=".399" stroke="#000" stroke-miterlimit="10"/><path d="M202.88 34.215c-.864-.54-2.403-1.55-3.208-2.817.547 1.383.262 2.13-1.063 2.805 1.44-.418 3.265-.156 4.27.012zm0 0"/><use xlink:href="#a" x="119.765" y="12.832"/><use xlink:href="#b" x="32.065" y="44.053"/><use xlink:href="#c" x="36.969" y="45.482"/><use xlink:href="#a" x="224.821" y="44.974"/><use xlink:href="#d" x="230.712" y="44.974"/><use xlink:href="#b" x="234.056" y="44.974"/><use xlink:href="#c" x="238.961" y="46.403"/><use xlink:href="#e" x="243.545" y="44.974"/><use xlink:href="#f" x="42.042" y="77.044"/><use xlink:href="#g" x="47.669" y="78.801"/><use xlink:href="#d" x="54.793" y="77.044"/><use xlink:href="#b" x="58.137" y="77.044"/><use xlink:href="#c" x="63.042" y="78.474"/><use xlink:href="#h" x="67.627" y="77.044"/><use xlink:href="#i" x="71.635" y="77.044"/><use xlink:href="#e" x="75.849" y="77.044"/><use xlink:href="#f" x="244.641" y="87.493"/><use xlink:href="#j" x="251.043" y="89.25"/><use xlink:href="#d" x="257.524" y="87.493"/><use xlink:href="#a" x="260.868" y="87.493"/><use xlink:href="#d" x="266.759" y="87.493"/><use xlink:href="#b" x="270.104" y="87.493"/><use xlink:href="#c" x="275.009" y="88.923"/><g><use xlink:href="#e" x="279.594" y="87.493"/><use xlink:href="#h" x="282.938" y="87.493"/></g><g><use xlink:href="#k" x="286.946" y="87.493"/><use xlink:href="#e" x="290.999" y="87.493"/></g><path d="M29.742 42.72c0-.66-.535-1.197-1.195-1.197s-1.195.536-1.195 1.196c0 .66.535 1.194 1.195 1.194s1.195-.535 1.195-1.195zm0 0M222.5 42.72c0-.66-.535-1.197-1.195-1.197s-1.196.536-1.196 1.196c0 .66.535 1.194 1.195 1.194s1.195-.535 1.195-1.195zm0 0" stroke-width=".399" stroke="#000" stroke-miterlimit="10"/></svg>