<svg xmlns="http://www.w3.org/2000/svg" xmlns:xlink="http://www.w3.org/1999/xlink" width="398.211" height="189.219" viewBox="0 0 298.658 141.914">
  <defs>
    <symbol overflow="visible" id="b">
      <path d="M4.672-3.5c0-.39-.22-.594-.5-.594-.203 0-.344.172-.344.36 0 .453.5.328.5.625 0 .58-1.125 2.157-1.375 2.547-.094-1.812-.36-3.156-.672-3.53L.985-3.86v.157c.08-.016.204-.03.329-.03.67 0 .718.67 1.062 3.874-.125.376-.938 1.297-1.172 1.297-.156 0-.156-.296-.437-.296-.22 0-.407.204-.407.407 0 .28.28.375.406.375.61 0 1.703-1.36 2.61-2.734C4.202-2.048 4.67-2.985 4.67-3.5zm0 0"/>
    </symbol>
    <symbol overflow="visible" id="d">
      <path d="M3.75-3.438c0-.374-.344-.656-.875-.656-1.28 0-2.594 1.61-2.594 2.907C.28-.578.64.11 1.5.11c.875 0 1.64-.75 1.844-.97L3.22-.97c-.345.314-.767.642-1.267.642-.297 0-.89-.25-.89-.953 0-.126.015-.314.062-.454C3.14-1.922 3.75-2.797 3.75-3.438zm-.61-.078c0 .344-.328 1.36-1.968 1.563.172-.64.89-1.953 1.594-1.953.265 0 .375.22.375.39zm0 0"/>
    </symbol>
    <symbol overflow="visible" id="f">
      <path d="M4.64-3.766c0-.218-.202-.328-.374-.328-.454 0-1.032.672-1.47 1.375-.015 0-.077-.296-.077-.296-.142-.593-.314-.937-.626-1.078 0 0-1.016.203-1.14.25v.156c.187-.046.327-.078.42-.078.5 0 .58.485.923 1.782C1.89-1.39 1.25-.39 1-.39.797-.39.78-.61.5-.61c-.188 0-.328.14-.328.33 0 .233.172.39.422.39.64 0 1.22-1.126 1.765-1.83.03.064.234.86.234.86.22.83.39.97.61.97.28 0 .702-.282 1.124-1.063l-.125-.078c-.156.202-.406.624-.64.624-.313 0-.485-1.266-.704-2.063.046-.077.67-1.077 1-1.077.17 0 .328.14.484.14.218 0 .297-.187.297-.36zm0 0"/>
    </symbol>
    <symbol overflow="visible" id="h">
      <path d="M3.203 1.922v-.156C2.11 1.126 1.61-.14 1.61-2.266c0-2.11.5-3.343 1.593-4.015v-.157C1.656-5.641.75-4.11.75-2.268c0 1.876.875 3.33 2.453 4.19zm0 0"/>
    </symbol>
    <symbol overflow="visible" id="i">
      <path d="M3.484 0v-.14c-.593 0-.812.015-.812-1.157v-4.75h-.125l-1.53.734.046.14c.328-.14.406-.17.53-.17.266 0 .313.234.313.546v3.5c0 1.172-.218 1.14-.812 1.156V0zm0 0"/>
    </symbol>
    <symbol overflow="visible" id="k">
      <path d="M2.625-4.016h-.672l.297-1.078h-.14c-.422.625-.922 1.047-1.532 1.188L.53-3.72h.673L.47-1.015C.437-.828.327-.47.327-.328c0 .344.25.437.422.437.39 0 .813-.297 1.28-1.048L1.907-1c-.234.266-.515.672-.734.672-.125 0-.156-.078-.156-.14 0-.063.015-.11.046-.25l.813-3h.703zm0 0"/>
    </symbol>
    <symbol overflow="visible" id="l">
      <path d="M2.594-2.25c0-1.86-.875-3.313-2.453-4.188v.172c1.094.64 1.594 1.89 1.594 4.016 0 2.11-.5 3.36-1.593 4.016v.156C1.688 1.142 2.595-.39 2.595-2.25zm0 0"/>
    </symbol>
    <symbol overflow="visible" id="c">
      <path d="M6.75-2.922v-.5h-6v.5zm0 1.813v-.5h-6v.5zm0 0"/>
    </symbol>
    <symbol overflow="visible" id="j">
      <path d="M5.984-2.03v-.454H.5v.453zm0 0"/>
    </symbol>
    <symbol overflow="visible" id="m">
      <path d="M6.75-2.03v-.454H3.97V-5.25h-.44v2.766H.75v.453h2.78V.733h.44V-2.03zm0 0"/>
    </symbol>
    <symbol overflow="visible" id="e">
      <path d="M4.078-3.094c0-.22-.203-.328-.375-.328-.375 0-.86.5-1.25 1.063 0-.062-.03-.156-.03-.156-.11-.5-.298-.78-.564-.906 0 0-.89.172-1.016.203V-3c.203-.03.312-.047.39-.047.422 0 .47.36.75 1.375-.36.47-.86 1.25-1.062 1.25C.734-.422.734-.594.5-.594c-.203 0-.328.14-.328.297 0 .22.156.375.406.375.516 0 1.03-.844 1.485-1.437.062.188.17.626.17.626.204.703.36.812.58.812.234 0 .61-.22 1.015-.922l-.187-.11c-.14.188-.343.532-.53.532-.266 0-.376-1-.563-1.64.094-.126.547-.83.812-.83.156 0 .28.126.406.126.234 0 .312-.17.312-.328zm0 0"/>
    </symbol>
    <symbol overflow="visible" id="g">
      <path d="M3.703-2.313c0-1.25-.562-2.39-1.656-2.39-1.11 0-1.688 1.14-1.688 2.39C.36-1.03.905.078 2.046.078c1.047 0 1.656-1.108 1.656-2.39zm-.86 0c0 .97-.25 2.126-.812 2.126-.717 0-.81-1.157-.81-2.126 0-.812.06-2.124.827-2.124.75 0 .797 1.312.797 2.125zm0 0"/>
    </symbol>
    <symbol overflow="visible" id="n">
      <path d="M3.156 0v-.188c-.53 0-.703 0-.703-.843v-3.673H2.28L.94-4.125l.078.188c.312-.126.375-.14.468-.14.204 0 .22.17.22.374v2.672c0 .843-.157.827-.688.843V0zm0 0"/>
    </symbol>
    <symbol overflow="visible" id="q">
      <path d="M2.703-5.344c-.156.063-.453.172-.89.547C.702-3.813.625-2.563.625-1.937c0 .328 0 1.11.578 2 .36.562.875 1.03 1.5 1.25v-.22c-.265-.14-.5-.28-.765-.718-.375-.61-.516-1.547-.516-2.406 0-.36.016-.767.11-1.19.11-.64.296-1 .405-1.17.266-.454.485-.58.766-.735zm0 0"/>
    </symbol>
    <symbol overflow="visible" id="s">
      <path d="M2.344-3.328H1.78l.25-.875H1.83c-.36.5-.797.844-1.312.953L.453-3h.563L.406-.89C.376-.735.28-.438.28-.313c0 .296.236.39.407.39.36 0 .735-.234 1.172-.906L1.67-.922c-.22.235-.438.563-.625.563C.984-.36.97-.405.97-.437c0-.03.014-.078.03-.17L1.688-3h.593zm0 0"/>
    </symbol>
    <symbol overflow="visible" id="t">
      <path d="M.156 1.313c.172-.063.453-.157.89-.547 1.11-.97 1.204-2.25 1.204-2.86 0-.328-.016-1.11-.594-1.984-.36-.578-.875-1.03-1.5-1.266v.22c.266.155.5.28.766.718.375.61.515 1.547.515 2.406 0 .36-.015.78-.093 1.203C1.22-.172 1.03.188.922.36.656.812.437.937.156 1.093zm0 0"/>
    </symbol>
    <symbol overflow="visible" id="o">
      <path d="M3.39-1.97c0-1.06-.593-2.046-1.593-2.046S.22-3.03.22-1.97C.22-.874.765.08 1.796.08c.97 0 1.594-.953 1.594-2.047zm-.687 0c0 .876-.094 1.892-.906 1.892-.75 0-.89-1.016-.89-1.89 0-.72.093-1.876.89-1.876s.906 1.156.906 1.875zm0 0"/>
    </symbol>
    <symbol overflow="visible" id="p">
      <path d="M2.75 0v-.094c-.47 0-.64.016-.64-.765v-3.156h-.094l-1.22.5.032.08c.266-.095.328-.11.422-.11.22 0 .25.155.25.358v2.33c0 .78-.172.764-.64.764V0zm0 0"/>
    </symbol>
    <symbol overflow="visible" id="r">
      <path d="M5.125-1.797v-.437H.422v.437zm0 0"/>
    </symbol>
    <symbol overflow="visible" id="u">
      <path d="M5.703-1.797v-.437H3.375v-2.329h-.422v2.33H.625v.436h2.328V.53h.422v-2.327zm0 0"/>
    </symbol>
    <clipPath id="a">
      <path d="M0 0h279v141.914H0zm0 0"/>
    </clipPath>
  </defs>
  <path d="M.598 126.727h272.574" fill="none" stroke-width=".399" stroke="#000" stroke-miterlimit="10"/>
  <path d="M275.563 126.727c-.997-.2-2.79-.598-3.99-1.493 1 1.094 1 1.89 0 2.99 1.2-.9 2.993-1.298 3.99-1.497zm0 0"/>
  <path d="M113.984 135.23V2.59" fill="none" stroke-width=".399" stroke="#000" stroke-miterlimit="10"/>
  <path d="M113.984.2c-.2.995-.597 2.788-1.496 3.984 1.098-.997 1.895-.997 2.99 0-.896-1.196-1.294-2.99-1.494-3.985zm0 0"/>
  <g clip-path="url(#a)">
    <path d="M.598 125.578l10.867-.242 10.863-.297 10.867-.356 10.867-.434 10.868-.523 10.863-.633 10.867-.77 10.867-.93 10.868-1.124 10.863-1.368 10.867-1.652 10.867-2 10.867-2.426 10.863-2.937 10.867-3.56 10.867-4.307 10.867-5.22 10.863-6.323 10.868-7.657 10.867-9.277 10.867-11.238 10.862-13.61L250.52 32.21l10.867-19.968" fill="none" stroke-width="1.196" stroke="#000" stroke-miterlimit="10"/>
  </g>
  <path d="M142.332 112.707l96.38-62.73" fill="none" stroke-width=".399" stroke="#000" stroke-miterlimit="10"/>
  <path d="M143.328 112.707c0-.55-.445-.996-.996-.996-.55 0-.996.446-.996.997 0 .55.445.996.996.996.55 0 .996-.445.996-.996zm0 0M239.707 49.977c0-.55-.445-.997-.996-.997-.55 0-.995.446-.995.997 0 .55.445.996.996.996.552 0 .997-.446.997-.996zm0 0" stroke-width=".399" stroke="#000" stroke-miterlimit="10"/>
  <use xlink:href="#b" x="267.738" y="25.513"/>
  <use xlink:href="#c" x="275.761" y="25.513"/>
  <use xlink:href="#d" x="285.748" y="25.513"/>
  <use xlink:href="#e" x="290.168" y="22.259"/>
  <path d="M142.332 126.727v-14.02M238.71 126.727v-76.75M193.355 126.727V79.504h-79.37M113.984 92.246h79.37" fill="none" stroke-width=".399" stroke="#000" stroke-dasharray="0.3985,0.99628" stroke-miterlimit="10"/>
  <use xlink:href="#f" x="137.585" y="134.344"/>
  <use xlink:href="#g" x="142.49" y="135.773"/>
  <use xlink:href="#h" x="163.972" y="136.675"/>
  <use xlink:href="#i" x="167.316" y="136.675"/>
  <use xlink:href="#j" x="173.793" y="136.675"/>
  <use xlink:href="#k" x="182.277" y="136.675"/>
  <use xlink:href="#l" x="185.783" y="136.675"/>
  <use xlink:href="#f" x="189.127" y="136.675"/>
  <use xlink:href="#g" x="194.032" y="138.105"/>
  <use xlink:href="#m" x="200.609" y="136.675"/>
  <use xlink:href="#k" x="210.097" y="136.675"/>
  <use xlink:href="#f" x="213.244" y="136.675"/>
  <use xlink:href="#n" x="218.149" y="138.105"/>
  <use xlink:href="#f" x="233.963" y="134.344"/>
  <use xlink:href="#n" x="238.868" y="135.773"/>
  <use xlink:href="#h" x="43.653" y="81.883"/>
  <use xlink:href="#i" x="46.997" y="81.883"/>
  <use xlink:href="#j" x="53.473" y="81.883"/>
  <use xlink:href="#k" x="61.958" y="81.883"/>
  <use xlink:href="#l" x="65.464" y="81.883"/>
  <use xlink:href="#d" x="68.808" y="81.883"/>
  <use xlink:href="#e" x="73.228" y="78.628"/>
  <use xlink:href="#o" x="77.552" y="79.9"/>
  <use xlink:href="#m" x="84.135" y="81.883"/>
  <use xlink:href="#k" x="93.624" y="81.883"/>
  <use xlink:href="#d" x="97.13" y="81.883"/>
  <use xlink:href="#e" x="101.55" y="78.628"/>
  <use xlink:href="#p" x="105.874" y="79.9"/>
  <use xlink:href="#d" x="61.168" y="96.544"/>
  <use xlink:href="#q" x="65.588" y="93.289"/>
  <use xlink:href="#n" x="68.454" y="93.289"/>
  <use xlink:href="#r" x="72.541" y="93.289"/>
  <use xlink:href="#s" x="78.092" y="93.289"/>
  <use xlink:href="#t" x="81.153" y="93.289"/>
  <use xlink:href="#e" x="84.02" y="93.289"/>
  <g>
    <use xlink:href="#o" x="88.344" y="94.561"/>
  </g>
  <g>
    <use xlink:href="#u" x="92.436" y="93.289"/>
  </g>
  <g>
    <use xlink:href="#s" x="98.769" y="93.289"/>
  </g>
  <g>
    <use xlink:href="#e" x="101.552" y="93.289"/>
  </g>
  <g>
    <use xlink:href="#p" x="105.875" y="94.561"/>
  </g>
</svg>
