<?xml version="1.0" encoding="UTF-8"?>
<svg xmlns="http://www.w3.org/2000/svg" xmlns:xlink="http://www.w3.org/1999/xlink" width="239.024pt" height="68.952pt" viewBox="0 0 239.024 68.952" version="1.1">
<defs>
<clipPath id="clip1">
  <path d="M 119 2 L 120 2 L 120 68.953125 L 119 68.953125 Z M 119 2 "/>
</clipPath>
<clipPath id="clip2">
  <path d="M 0.199219 0.199219 L 238.828125 0.199219 L 238.828125 68.753906 L 0.199219 68.753906 Z M 0.199219 0.199219 "/>
</clipPath>
</defs>
<g id="surface1">
<path style="fill:none;stroke-width:0.19925;stroke-linecap:butt;stroke-linejoin:miter;stroke:rgb(50%,50%,50%);stroke-opacity:1;stroke-miterlimit:10;" d="M 119.315656 7.667063 L 119.315656 11.920969 M 159.085188 7.667063 L 159.085188 11.920969 M 238.628156 7.667063 L 238.628156 11.920969 M 278.401594 7.667063 L 278.401594 11.920969 " transform="matrix(1,0,0,-1,-79.343,68.753)"/>
<path style="fill:none;stroke-width:0.19925;stroke-linecap:butt;stroke-linejoin:miter;stroke:rgb(50%,50%,50%);stroke-opacity:1;stroke-miterlimit:10;" d="M 196.729719 34.276438 L 200.983625 34.276438 M 196.729719 58.760813 L 200.983625 58.760813 " transform="matrix(1,0,0,-1,-79.343,68.753)"/>
<path style="fill:none;stroke-width:0.3985;stroke-linecap:butt;stroke-linejoin:miter;stroke:rgb(0%,0%,0%);stroke-opacity:1;stroke-miterlimit:10;" d="M 79.542219 9.792063 L 315.7805 9.792063 " transform="matrix(1,0,0,-1,-79.343,68.753)"/>
<path style=" stroke:none;fill-rule:nonzero;fill:rgb(0%,0%,0%);fill-opacity:1;" d="M 238.828125 58.960938 C 237.832031 58.761719 236.039062 58.363281 234.84375 57.464844 C 235.839844 58.5625 235.839844 59.359375 234.84375 60.453125 C 236.039062 59.558594 237.832031 59.160156 238.828125 58.960938 Z M 238.828125 58.960938 "/>
<g clip-path="url(#clip1)" clip-rule="nonzero">
<path style="fill:none;stroke-width:0.3985;stroke-linecap:butt;stroke-linejoin:miter;stroke:rgb(0%,0%,0%);stroke-opacity:1;stroke-miterlimit:10;" d="M 198.858625 -0.00090625 L 198.858625 66.163156 " transform="matrix(1,0,0,-1,-79.343,68.753)"/>
</g>
<path style=" stroke:none;fill-rule:nonzero;fill:rgb(0%,0%,0%);fill-opacity:1;" d="M 119.515625 0.199219 C 119.316406 1.195312 118.917969 2.988281 118.019531 4.183594 C 119.117188 3.1875 119.914062 3.1875 121.007812 4.183594 C 120.113281 2.988281 119.714844 1.195312 119.515625 0.199219 Z M 119.515625 0.199219 "/>
<g clip-path="url(#clip2)" clip-rule="nonzero">
<path style="fill:none;stroke-width:1.19553;stroke-linecap:butt;stroke-linejoin:miter;stroke:rgb(0%,0%,0%);stroke-opacity:1;stroke-miterlimit:10;" d="M -0.00075 56.850656 C -0.00075 56.850656 0.577375 56.838938 0.796125 56.831125 C 1.018781 56.827219 1.37425 56.823313 1.593 56.819406 C 1.815656 56.8155 2.171125 56.807688 2.389875 56.803781 C 2.612531 56.799875 2.968 56.792063 3.18675 56.788156 C 3.409406 56.78425 3.764875 56.776438 3.983625 56.772531 C 4.206281 56.768625 4.56175 56.764719 4.7805 56.756906 C 5.003156 56.753 5.358625 56.745188 5.577375 56.737375 C 5.800031 56.733469 6.1555 56.729563 6.37425 56.725656 C 6.596906 56.717844 6.952375 56.710031 7.175031 56.706125 C 7.393781 56.698313 7.74925 56.694406 7.971906 56.6905 C 8.190656 56.686594 8.546125 56.674875 8.768781 56.670969 C 8.987531 56.667063 9.343 56.65925 9.565656 56.655344 C 9.784406 56.651438 10.139875 56.639719 10.362531 56.635813 C 10.581281 56.631906 10.93675 56.628 11.159406 56.620188 C 11.378156 56.616281 11.733625 56.608469 11.956281 56.600656 C 12.175031 56.59675 12.5305 56.588938 12.753156 56.581125 C 12.971906 56.577219 13.327375 56.569406 13.550031 56.561594 C 13.768781 56.557688 14.12425 56.553781 14.346906 56.549875 C 14.565656 56.542063 14.921125 56.53425 15.143781 56.530344 C 15.366438 56.522531 15.718 56.514719 15.940656 56.510813 C 16.163313 56.503 16.514875 56.495188 16.737531 56.491281 C 16.960188 56.483469 17.31175 56.475656 17.534406 56.47175 C 17.757063 56.463938 18.108625 56.456125 18.331281 56.448313 C 18.553938 56.444406 18.9055 56.436594 19.128156 56.428781 C 19.350813 56.424875 19.702375 56.417063 19.925031 56.413156 C 20.147688 56.405344 20.503156 56.393625 20.721906 56.385813 C 20.944563 56.381906 21.300031 56.374094 21.518781 56.366281 C 21.741438 56.362375 22.096906 56.354563 22.315656 56.34675 C 22.538313 56.342844 22.893781 56.335031 23.112531 56.327219 C 23.335188 56.323313 23.690656 56.311594 23.909406 56.303781 C 24.132063 56.295969 24.487531 56.28425 24.706281 56.280344 C 24.928938 56.272531 25.284406 56.264719 25.503156 56.260813 C 25.725813 56.253 26.081281 56.241281 26.300031 56.233469 C 26.522688 56.229563 26.878156 56.22175 27.096906 56.213938 C 27.319563 56.210031 27.675031 56.198313 27.893781 56.1905 C 28.116438 56.182688 28.471906 56.174875 28.694563 56.167063 C 28.913313 56.15925 29.268781 56.147531 29.491438 56.143625 C 29.710188 56.135813 30.065656 56.124094 30.288313 56.116281 C 30.507063 56.108469 30.862531 56.100656 31.085188 56.092844 C 31.303938 56.085031 31.659406 56.073313 31.882063 56.069406 C 32.100813 56.061594 32.456281 56.049875 32.678938 56.042063 C 32.897688 56.038156 33.253156 56.026438 33.475813 56.018625 C 33.694563 56.010813 34.050031 55.999094 34.272688 55.991281 C 34.491438 55.983469 34.846906 55.97175 35.069563 55.963938 C 35.288313 55.960031 35.643781 55.948313 35.866438 55.9405 C 36.085188 55.932688 36.440656 55.920969 36.663313 55.913156 C 36.882063 55.905344 37.237531 55.893625 37.460188 55.885813 C 37.682844 55.878 38.034406 55.866281 38.257063 55.858469 C 38.479719 55.850656 38.831281 55.835031 39.053938 55.827219 C 39.276594 55.819406 39.628156 55.807688 39.850813 55.799875 C 40.073469 55.792063 40.425031 55.776438 40.647688 55.768625 C 40.870344 55.760813 41.221906 55.749094 41.444563 55.741281 C 41.667219 55.733469 42.022688 55.717844 42.241438 55.710031 C 42.464094 55.702219 42.819563 55.6905 43.038313 55.682688 C 43.260969 55.674875 43.616438 55.65925 43.835188 55.651438 C 44.057844 55.643625 44.413313 55.628 44.632063 55.616281 C 44.854719 55.608469 45.210188 55.59675 45.428938 55.588938 C 45.651594 55.581125 46.007063 55.5655 46.225813 55.553781 C 46.448469 55.545969 46.803938 55.530344 47.022688 55.518625 C 47.245344 55.510813 47.600813 55.499094 47.819563 55.491281 C 48.042219 55.479563 48.397688 55.467844 48.616438 55.456125 C 48.839094 55.448313 49.194563 55.432688 49.413313 55.420969 C 49.635969 55.413156 49.991438 55.397531 50.210188 55.385813 C 50.432844 55.378 50.788313 55.362375 51.010969 55.354563 C 51.229719 55.342844 51.585188 55.323313 51.807844 55.3155 C 52.026594 55.303781 52.382063 55.292063 52.604719 55.280344 C 52.823469 55.268625 53.178938 55.249094 53.401594 55.241281 C 53.620344 55.229563 53.975813 55.217844 54.198469 55.206125 C 54.417219 55.194406 54.772688 55.178781 54.995344 55.167063 C 55.214094 55.155344 55.569563 55.139719 55.792219 55.128 C 56.010969 55.116281 56.366438 55.100656 56.589094 55.088938 C 56.807844 55.077219 57.163313 55.061594 57.385969 55.049875 C 57.604719 55.038156 57.960188 55.018625 58.182844 55.006906 C 58.401594 54.995188 58.757063 54.979563 58.979719 54.967844 C 59.202375 54.956125 59.553938 54.932688 59.776594 54.920969 C 59.99925 54.90925 60.350813 54.893625 60.573469 54.881906 C 60.796125 54.870188 61.147688 54.850656 61.370344 54.838938 C 61.593 54.827219 61.944563 54.807688 62.167219 54.795969 C 62.389875 54.78425 62.741438 54.764719 62.964094 54.753 C 63.18675 54.737375 63.542219 54.713938 63.760969 54.702219 C 63.983625 54.6905 64.339094 54.670969 64.557844 54.65925 C 64.7805 54.643625 65.135969 54.620188 65.354719 54.608469 C 65.577375 54.59675 65.932844 54.577219 66.151594 54.5655 C 66.37425 54.553781 66.729719 54.530344 66.948469 54.514719 C 67.171125 54.503 67.526594 54.479563 67.745344 54.467844 C 67.968 54.452219 68.323469 54.428781 68.542219 54.413156 C 68.764875 54.397531 69.120344 54.378 69.339094 54.362375 C 69.56175 54.350656 69.917219 54.327219 70.135969 54.311594 C 70.358625 54.295969 70.714094 54.272531 70.932844 54.256906 C 71.1555 54.241281 71.510969 54.217844 71.729719 54.202219 C 71.952375 54.186594 72.307844 54.163156 72.5305 54.147531 C 72.74925 54.131906 73.104719 54.108469 73.327375 54.092844 C 73.546125 54.077219 73.901594 54.053781 74.12425 54.03425 C 74.343 54.018625 74.698469 53.995188 74.921125 53.975656 C 75.139875 53.960031 75.495344 53.932688 75.718 53.917063 C 75.93675 53.901438 76.292219 53.878 76.514875 53.858469 C 76.733625 53.842844 77.089094 53.811594 77.31175 53.795969 C 77.5305 53.776438 77.885969 53.756906 78.108625 53.737375 C 78.327375 53.72175 78.682844 53.686594 78.9055 53.667063 C 79.12425 53.651438 79.479719 53.624094 79.702375 53.604563 C 79.921125 53.588938 80.276594 53.557688 80.49925 53.542063 C 80.721906 53.522531 81.073469 53.491281 81.296125 53.47175 C 81.518781 53.452219 81.870344 53.424875 82.093 53.405344 C 82.315656 53.385813 82.667219 53.354563 82.889875 53.335031 C 83.112531 53.3155 83.464094 53.28425 83.68675 53.264719 C 83.909406 53.245188 84.260969 53.213938 84.483625 53.194406 C 84.706281 53.170969 85.057844 53.139719 85.2805 53.120188 C 85.503156 53.100656 85.858625 53.061594 86.077375 53.042063 C 86.300031 53.018625 86.6555 52.987375 86.87425 52.967844 C 87.096906 52.948313 87.452375 52.913156 87.671125 52.889719 C 87.893781 52.866281 88.24925 52.827219 88.468 52.807688 C 88.690656 52.78425 89.046125 52.749094 89.264875 52.729563 C 89.487531 52.706125 89.843 52.667063 90.06175 52.643625 C 90.284406 52.620188 90.639875 52.581125 90.858625 52.557688 C 91.081281 52.53425 91.43675 52.495188 91.6555 52.47175 C 91.878156 52.448313 92.233625 52.40925 92.452375 52.385813 C 92.675031 52.358469 93.0305 52.3155 93.24925 52.292063 C 93.471906 52.268625 93.827375 52.229563 94.050031 52.202219 C 94.268781 52.178781 94.62425 52.131906 94.846906 52.104563 C 95.065656 52.081125 95.421125 52.038156 95.643781 52.014719 C 95.862531 51.987375 96.218 51.9405 96.440656 51.913156 C 96.659406 51.885813 97.014875 51.84675 97.237531 51.8155 C 97.456281 51.788156 97.81175 51.745188 98.034406 51.713938 C 98.253156 51.686594 98.608625 51.635813 98.831281 51.604563 C 99.050031 51.577219 99.4055 51.53425 99.628156 51.503 C 99.846906 51.475656 100.202375 51.424875 100.425031 51.397531 C 100.643781 51.366281 100.99925 51.3155 101.221906 51.28425 C 101.440656 51.253 101.796125 51.198313 102.018781 51.167063 C 102.241438 51.131906 102.593 51.085031 102.815656 51.053781 C 103.038313 51.022531 103.389875 50.967844 103.612531 50.936594 C 103.835188 50.901438 104.18675 50.84675 104.409406 50.811594 C 104.632063 50.776438 104.983625 50.72175 105.206281 50.686594 C 105.428938 50.651438 105.7805 50.600656 106.003156 50.561594 C 106.225813 50.526438 106.577375 50.467844 106.800031 50.432688 C 107.022688 50.393625 107.378156 50.335031 107.596906 50.299875 C 107.819563 50.260813 108.175031 50.198313 108.393781 50.163156 C 108.616438 50.124094 108.971906 50.061594 109.190656 50.026438 C 109.413313 49.987375 109.768781 49.920969 109.987531 49.881906 C 110.210188 49.842844 110.565656 49.776438 110.784406 49.733469 C 111.007063 49.694406 111.362531 49.624094 111.581281 49.585031 C 111.803938 49.542063 112.159406 49.475656 112.378156 49.432688 C 112.600813 49.389719 112.956281 49.319406 113.175031 49.276438 C 113.397688 49.233469 113.753156 49.163156 113.971906 49.120188 C 114.194563 49.073313 114.550031 48.999094 114.768781 48.952219 C 114.991438 48.905344 115.346906 48.831125 115.569563 48.78425 C 115.788313 48.737375 116.143781 48.663156 116.366438 48.612375 C 116.585188 48.5655 116.940656 48.487375 117.163313 48.436594 C 117.382063 48.385813 117.737531 48.307688 117.960188 48.256906 C 118.178938 48.206125 118.534406 48.124094 118.757063 48.069406 C 118.975813 48.018625 119.331281 47.932688 119.553938 47.878 C 119.772688 47.827219 120.128156 47.737375 120.350813 47.682688 C 120.569563 47.628 120.925031 47.538156 121.147688 47.483469 C 121.366438 47.424875 121.721906 47.338938 121.944563 47.280344 C 122.163313 47.225656 122.518781 47.124094 122.741438 47.0655 C 122.960188 47.006906 123.315656 46.90925 123.538313 46.850656 C 123.757063 46.788156 124.112531 46.6905 124.335188 46.628 C 124.557844 46.569406 124.909406 46.467844 125.132063 46.405344 C 125.354719 46.342844 125.706281 46.237375 125.928938 46.170969 C 126.151594 46.104563 126.503156 45.999094 126.725813 45.928781 C 126.948469 45.862375 127.300031 45.753 127.522688 45.686594 C 127.745344 45.616281 128.096906 45.503 128.319563 45.428781 C 128.542219 45.358469 128.897688 45.245188 129.116438 45.170969 C 129.339094 45.09675 129.694563 44.979563 129.913313 44.905344 C 130.135969 44.831125 130.491438 44.710031 130.710188 44.631906 C 130.932844 44.553781 131.288313 44.432688 131.507063 44.350656 C 131.729719 44.272531 132.085188 44.143625 132.303938 44.061594 C 132.526594 43.983469 132.882063 43.84675 133.100813 43.764719 C 133.323469 43.682688 133.678938 43.545969 133.897688 43.460031 C 134.120344 43.374094 134.475813 43.233469 134.694563 43.143625 C 134.917219 43.053781 135.272688 42.90925 135.491438 42.819406 C 135.714094 42.729563 136.069563 42.585031 136.288313 42.491281 C 136.510969 42.397531 136.866438 42.245188 137.085188 42.147531 C 137.307844 42.053781 137.663313 41.893625 137.885969 41.795969 C 138.104719 41.698313 138.460188 41.542063 138.682844 41.4405 C 138.901594 41.338938 139.257063 41.170969 139.479719 41.0655 C 139.698469 40.960031 140.053938 40.792063 140.276594 40.682688 C 140.495344 40.577219 140.850813 40.401438 141.073469 40.292063 C 141.292219 40.182688 141.647688 39.999094 141.870344 39.885813 C 142.089094 39.772531 142.444563 39.585031 142.667219 39.467844 C 142.885969 39.350656 143.241438 39.163156 143.464094 39.042063 C 143.682844 38.924875 144.038313 38.725656 144.260969 38.600656 C 144.479719 38.479563 144.835188 38.276438 145.057844 38.147531 C 145.276594 38.018625 145.632063 37.811594 145.854719 37.682688 C 146.077375 37.549875 146.428938 37.342844 146.651594 37.206125 C 146.87425 37.073313 147.225813 36.850656 147.448469 36.713938 C 147.671125 36.573313 148.022688 36.350656 148.245344 36.206125 C 148.468 36.0655 148.819563 35.831125 149.042219 35.682688 C 149.264875 35.538156 149.616438 35.299875 149.839094 35.151438 C 150.06175 34.999094 150.417219 34.756906 150.635969 34.600656 C 150.858625 34.444406 151.214094 34.1905 151.432844 34.03425 C 151.6555 33.874094 152.010969 33.620188 152.229719 33.456125 C 152.452375 33.292063 152.807844 33.026438 153.026594 32.858469 C 153.24925 32.6905 153.604719 32.417063 153.823469 32.245188 C 154.046125 32.073313 154.401594 31.795969 154.620344 31.616281 C 154.843 31.4405 155.198469 31.151438 155.417219 30.97175 C 155.639875 30.792063 155.995344 30.499094 156.214094 30.3155 C 156.43675 30.131906 156.792219 29.827219 157.010969 29.639719 C 157.233625 29.448313 157.589094 29.143625 157.807844 28.948313 C 158.0305 28.756906 158.385969 28.4405 158.604719 28.245188 C 158.827375 28.045969 159.182844 27.72175 159.4055 27.518625 C 159.62425 27.3155 159.979719 26.987375 160.202375 26.78425 C 160.421125 26.577219 160.776594 26.249094 160.99925 26.038156 C 161.218 25.831125 161.573469 25.487375 161.796125 25.276438 C 162.014875 25.061594 162.370344 24.717844 162.593 24.503 C 162.81175 24.288156 163.167219 23.9405 163.389875 23.72175 C 163.608625 23.503 163.964094 23.151438 164.18675 22.928781 C 164.4055 22.706125 164.760969 22.354563 164.983625 22.131906 C 165.202375 21.90925 165.557844 21.549875 165.7805 21.327219 C 165.99925 21.104563 166.354719 20.749094 166.577375 20.526438 C 166.796125 20.299875 167.151594 19.944406 167.37425 19.72175 C 167.596906 19.499094 167.948469 19.143625 168.171125 18.920969 C 168.393781 18.702219 168.745344 18.34675 168.968 18.128 C 169.190656 17.90925 169.542219 17.561594 169.764875 17.34675 C 169.987531 17.131906 170.339094 16.792063 170.56175 16.581125 C 170.784406 16.374094 171.135969 16.042063 171.358625 15.838938 C 171.581281 15.635813 171.93675 15.311594 172.1555 15.116281 C 172.378156 14.920969 172.733625 14.616281 172.952375 14.428781 C 173.175031 14.245188 173.5305 13.952219 173.74925 13.776438 C 173.971906 13.600656 174.327375 13.327219 174.546125 13.163156 C 174.768781 12.999094 175.12425 12.745188 175.343 12.59675 C 175.565656 12.444406 175.921125 12.213938 176.139875 12.077219 C 176.362531 11.9405 176.718 11.733469 176.93675 11.612375 C 177.159406 11.491281 177.514875 11.311594 177.733625 11.206125 C 177.956281 11.100656 178.31175 10.944406 178.5305 10.858469 C 178.753156 10.768625 179.108625 10.639719 179.327375 10.5655 C 179.550031 10.495188 179.9055 10.389719 180.12425 10.331125 C 180.346906 10.276438 180.702375 10.194406 180.925031 10.151438 C 181.143781 10.108469 181.49925 10.049875 181.721906 10.018625 C 181.940656 9.987375 182.296125 9.944406 182.518781 9.924875 C 182.737531 9.901438 183.093 9.878 183.315656 9.862375 C 183.534406 9.850656 183.889875 9.835031 184.112531 9.827219 C 184.331281 9.819406 184.68675 9.811594 184.909406 9.807688 C 185.128156 9.803781 185.483625 9.799875 185.706281 9.799875 C 185.925031 9.795969 186.2805 9.795969 186.503156 9.795969 C 186.721906 9.795969 187.077375 9.792063 187.300031 9.792063 C 187.518781 9.792063 187.87425 9.792063 188.096906 9.792063 C 188.315656 9.792063 188.671125 9.792063 188.893781 9.792063 C 189.116438 9.792063 189.468 9.792063 189.690656 9.792063 C 189.913313 9.792063 190.264875 9.792063 190.487531 9.792063 C 190.710188 9.792063 191.06175 9.792063 191.284406 9.792063 C 191.507063 9.792063 191.858625 9.792063 192.081281 9.792063 C 192.303938 9.792063 192.6555 9.792063 192.878156 9.792063 C 193.100813 9.792063 193.452375 9.792063 193.675031 9.792063 C 193.897688 9.792063 194.253156 9.792063 194.471906 9.792063 C 194.694563 9.792063 195.050031 9.792063 195.268781 9.792063 C 195.491438 9.792063 195.846906 9.792063 196.065656 9.792063 C 196.288313 9.792063 196.643781 9.792063 196.862531 9.792063 C 197.085188 9.792063 197.440656 9.792063 197.659406 9.792063 C 197.882063 9.792063 198.237531 9.792063 198.456281 9.792063 C 198.678938 9.792063 199.034406 9.792063 199.253156 9.792063 C 199.475813 9.792063 199.831281 9.792063 200.050031 9.792063 C 200.272688 9.792063 200.628156 9.792063 200.846906 9.792063 C 201.069563 9.792063 201.425031 9.792063 201.643781 9.792063 C 201.866438 9.792063 202.221906 9.792063 202.444563 9.792063 C 202.663313 9.792063 203.018781 9.792063 203.241438 9.792063 C 203.460188 9.792063 203.815656 9.792063 204.038313 9.792063 C 204.257063 9.792063 204.612531 9.792063 204.835188 9.792063 C 205.053938 9.792063 205.409406 9.792063 205.632063 9.792063 C 205.850813 9.792063 206.206281 9.792063 206.428938 9.792063 C 206.647688 9.792063 207.003156 9.792063 207.225813 9.792063 C 207.444563 9.792063 207.800031 9.792063 208.022688 9.792063 C 208.241438 9.792063 208.596906 9.792063 208.819563 9.792063 C 209.038313 9.792063 209.393781 9.792063 209.616438 9.792063 C 209.835188 9.792063 210.190656 9.792063 210.413313 9.792063 C 210.635969 9.792063 210.987531 9.795969 211.210188 9.795969 C 211.432844 9.795969 211.784406 9.795969 212.007063 9.799875 C 212.229719 9.799875 212.581281 9.803781 212.803938 9.807688 C 213.026594 9.811594 213.378156 9.819406 213.600813 9.827219 C 213.823469 9.835031 214.175031 9.850656 214.397688 9.862375 C 214.620344 9.878 214.971906 9.901438 215.194563 9.924875 C 215.417219 9.944406 215.772688 9.987375 215.991438 10.018625 C 216.214094 10.049875 216.569563 10.108469 216.788313 10.151438 C 217.010969 10.194406 217.366438 10.276438 217.585188 10.331125 C 217.807844 10.389719 218.163313 10.495188 218.382063 10.5655 C 218.604719 10.639719 218.960188 10.768625 219.178938 10.858469 C 219.401594 10.944406 219.757063 11.100656 219.975813 11.206125 C 220.198469 11.311594 220.553938 11.491281 220.772688 11.612375 C 220.995344 11.733469 221.350813 11.9405 221.569563 12.077219 C 221.792219 12.213938 222.147688 12.444406 222.366438 12.592844 C 222.589094 12.745188 222.944563 12.999094 223.163313 13.163156 C 223.385969 13.323313 223.741438 13.59675 223.964094 13.772531 C 224.182844 13.948313 224.538313 14.241281 224.760969 14.428781 C 224.979719 14.612375 225.335188 14.920969 225.557844 15.116281 C 225.776594 15.311594 226.132063 15.635813 226.354719 15.838938 C 226.573469 16.042063 226.928938 16.374094 227.151594 16.581125 C 227.370344 16.792063 227.725813 17.131906 227.948469 17.34675 C 228.167219 17.561594 228.522688 17.90925 228.745344 18.128 C 228.964094 18.34675 229.319563 18.698313 229.542219 18.917063 C 229.760969 19.139719 230.116438 19.499094 230.339094 19.72175 C 230.557844 19.944406 230.913313 20.299875 231.135969 20.526438 C 231.354719 20.749094 231.710188 21.104563 231.932844 21.327219 C 232.151594 21.549875 232.507063 21.90925 232.729719 22.131906 C 232.952375 22.354563 233.303938 22.710031 233.526594 22.928781 C 233.74925 23.147531 234.100813 23.499094 234.323469 23.717844 C 234.546125 23.936594 234.897688 24.28425 235.120344 24.503 C 235.343 24.717844 235.694563 25.061594 235.917219 25.276438 C 236.139875 25.487375 236.491438 25.827219 236.714094 26.03425 C 236.93675 26.245188 237.292219 26.577219 237.510969 26.78425 C 237.733625 26.991281 238.089094 27.3155 238.307844 27.518625 C 238.5305 27.72175 238.885969 28.042063 239.104719 28.237375 C 239.327375 28.436594 239.682844 28.749094 239.901594 28.944406 C 240.12425 29.135813 240.479719 29.444406 240.698469 29.635813 C 240.921125 29.823313 241.276594 30.124094 241.495344 30.311594 C 241.718 30.495188 242.073469 30.792063 242.292219 30.97175 C 242.514875 31.151438 242.870344 31.436594 243.089094 31.612375 C 243.31175 31.788156 243.667219 32.0655 243.885969 32.241281 C 244.108625 32.413156 244.464094 32.6905 244.682844 32.858469 C 244.9055 33.026438 245.260969 33.288156 245.479719 33.448313 C 245.702375 33.612375 246.057844 33.874094 246.2805 34.03425 C 246.49925 34.1905 246.854719 34.4405 247.077375 34.59675 C 247.296125 34.753 247.651594 34.999094 247.87425 35.151438 C 248.093 35.299875 248.448469 35.538156 248.671125 35.682688 C 248.889875 35.831125 249.245344 36.057688 249.468 36.202219 C 249.68675 36.34675 250.042219 36.573313 250.264875 36.713938 C 250.483625 36.850656 250.839094 37.0655 251.06175 37.202219 C 251.2805 37.335031 251.635969 37.549875 251.858625 37.682688 C 252.077375 37.811594 252.432844 38.018625 252.6555 38.147531 C 252.87425 38.276438 253.229719 38.479563 253.452375 38.600656 C 253.671125 38.725656 254.026594 38.924875 254.24925 39.042063 C 254.471906 39.163156 254.823469 39.350656 255.046125 39.467844 C 255.268781 39.585031 255.620344 39.772531 255.843 39.885813 C 256.065656 39.999094 256.417219 40.174875 256.639875 40.288156 C 256.862531 40.397531 257.214094 40.577219 257.43675 40.682688 C 257.659406 40.792063 258.010969 40.960031 258.233625 41.0655 C 258.456281 41.170969 258.81175 41.331125 259.0305 41.432688 C 259.253156 41.53425 259.608625 41.698313 259.827375 41.795969 C 260.050031 41.893625 260.4055 42.053781 260.62425 42.147531 C 260.846906 42.245188 261.202375 42.397531 261.421125 42.491281 C 261.643781 42.585031 261.99925 42.729563 262.218 42.819406 C 262.440656 42.90925 262.796125 43.053781 263.014875 43.143625 C 263.237531 43.229563 263.593 43.370188 263.81175 43.456125 C 264.034406 43.542063 264.389875 43.682688 264.608625 43.764719 C 264.831281 43.84675 265.18675 43.979563 265.4055 44.057688 C 265.628156 44.139719 265.983625 44.268625 266.202375 44.34675 C 266.425031 44.428781 266.7805 44.553781 266.99925 44.631906 C 267.221906 44.710031 267.577375 44.831125 267.800031 44.905344 C 268.018781 44.979563 268.37425 45.09675 268.596906 45.170969 C 268.815656 45.245188 269.171125 45.358469 269.393781 45.428781 C 269.612531 45.503 269.968 45.616281 270.190656 45.686594 C 270.409406 45.753 270.764875 45.862375 270.987531 45.928781 C 271.206281 45.999094 271.56175 46.104563 271.784406 46.170969 C 272.003156 46.237375 272.358625 46.342844 272.581281 46.405344 C 272.800031 46.467844 273.1555 46.569406 273.378156 46.628 C 273.596906 46.6905 273.952375 46.788156 274.175031 46.850656 C 274.393781 46.90925 274.74925 47.006906 274.971906 47.0655 C 275.190656 47.124094 275.546125 47.225656 275.768781 47.280344 C 275.991438 47.338938 276.343 47.424875 276.565656 47.483469 C 276.788313 47.538156 277.139875 47.628 277.362531 47.682688 C 277.585188 47.737375 277.93675 47.827219 278.159406 47.878 C 278.382063 47.932688 278.733625 48.018625 278.956281 48.069406 C 279.178938 48.124094 279.5305 48.206125 279.753156 48.256906 C 279.975813 48.307688 280.331281 48.381906 280.550031 48.432688 C 280.772688 48.483469 281.128156 48.5655 281.346906 48.612375 C 281.569563 48.663156 281.925031 48.737375 282.143781 48.78425 C 282.366438 48.831125 282.721906 48.905344 282.940656 48.952219 C 283.163313 48.999094 283.518781 49.073313 283.737531 49.120188 C 283.960188 49.163156 284.315656 49.233469 284.534406 49.276438 C 284.757063 49.319406 285.112531 49.389719 285.331281 49.432688 C 285.553938 49.475656 285.909406 49.542063 286.128156 49.585031 C 286.350813 49.624094 286.706281 49.694406 286.925031 49.733469 C 287.147688 49.776438 287.503156 49.842844 287.721906 49.881906 C 287.944563 49.920969 288.300031 49.987375 288.518781 50.026438 C 288.741438 50.061594 289.096906 50.124094 289.319563 50.163156 C 289.538313 50.198313 289.893781 50.260813 290.116438 50.299875 C 290.335188 50.335031 290.690656 50.393625 290.913313 50.432688 C 291.132063 50.467844 291.487531 50.522531 291.710188 50.557688 C 291.928938 50.592844 292.284406 50.651438 292.507063 50.686594 C 292.725813 50.72175 293.081281 50.780344 293.303938 50.811594 C 293.522688 50.84675 293.878156 50.897531 294.100813 50.928781 C 294.319563 50.963938 294.675031 51.018625 294.897688 51.053781 C 295.116438 51.085031 295.471906 51.131906 295.694563 51.167063 C 295.913313 51.198313 296.268781 51.253 296.491438 51.28425 C 296.710188 51.3155 297.065656 51.366281 297.288313 51.397531 C 297.510969 51.424875 297.862531 51.475656 298.085188 51.503 C 298.307844 51.53425 298.659406 51.577219 298.882063 51.604563 C 299.104719 51.635813 299.456281 51.686594 299.678938 51.713938 C 299.901594 51.741281 300.253156 51.78425 300.475813 51.811594 C 300.698469 51.838938 301.050031 51.885813 301.272688 51.913156 C 301.495344 51.944406 301.846906 51.987375 302.069563 52.014719 C 302.292219 52.038156 302.647688 52.081125 302.866438 52.104563 C 303.089094 52.131906 303.444563 52.178781 303.663313 52.202219 C 303.885969 52.229563 304.241438 52.268625 304.460188 52.292063 C 304.682844 52.3155 305.038313 52.358469 305.257063 52.385813 C 305.479719 52.40925 305.835188 52.448313 306.053938 52.47175 C 306.276594 52.495188 306.632063 52.53425 306.850813 52.557688 C 307.073469 52.581125 307.428938 52.620188 307.647688 52.643625 C 307.870344 52.667063 308.225813 52.706125 308.444563 52.729563 C 308.667219 52.749094 309.022688 52.78425 309.241438 52.807688 C 309.464094 52.827219 309.819563 52.866281 310.038313 52.889719 C 310.260969 52.913156 310.616438 52.948313 310.839094 52.967844 C 311.057844 52.987375 311.413313 53.018625 311.635969 53.042063 C 311.854719 53.061594 312.210188 53.100656 312.432844 53.120188 C 312.651594 53.139719 313.007063 53.170969 313.229719 53.194406 C 313.448469 53.213938 313.803938 53.245188 314.026594 53.264719 C 314.245344 53.28425 314.600813 53.3155 314.823469 53.335031 C 315.042219 53.354563 315.397688 53.385813 315.620344 53.405344 C 315.839094 53.424875 316.194563 53.452219 316.417219 53.47175 C 316.635969 53.491281 316.991438 53.522531 317.214094 53.542063 C 317.432844 53.557688 317.788313 53.588938 318.010969 53.604563 C 318.229719 53.624094 318.585188 53.651438 318.807844 53.667063 C 319.026594 53.686594 319.382063 53.72175 319.604719 53.737375 C 319.827375 53.756906 320.178938 53.776438 320.401594 53.795969 C 320.62425 53.811594 320.975813 53.842844 321.198469 53.858469 C 321.421125 53.878 321.772688 53.901438 321.995344 53.917063 C 322.218 53.932688 322.569563 53.960031 322.792219 53.975656 C 323.014875 53.995188 323.366438 54.018625 323.589094 54.03425 C 323.81175 54.053781 324.167219 54.073313 324.385969 54.088938 C 324.608625 54.104563 324.964094 54.131906 325.182844 54.147531 C 325.4055 54.163156 325.760969 54.186594 325.979719 54.202219 C 326.202375 54.217844 326.557844 54.241281 326.776594 54.256906 C 326.99925 54.272531 327.354719 54.295969 327.573469 54.311594 C 327.796125 54.327219 328.151594 54.350656 328.370344 54.362375 C 328.593 54.378 328.948469 54.397531 329.167219 54.413156 C 329.389875 54.428781 329.745344 54.452219 329.964094 54.467844 C 330.18675 54.479563 330.542219 54.503 330.760969 54.514719 C 330.983625 54.530344 331.339094 54.553781 331.557844 54.5655 C 331.7805 54.577219 332.135969 54.59675 332.354719 54.608469 C 332.577375 54.620188 332.932844 54.643625 333.1555 54.65925 C 333.37425 54.670969 333.729719 54.6905 333.952375 54.702219 C 334.171125 54.713938 334.526594 54.737375 334.74925 54.753 C 334.968 54.764719 335.323469 54.78425 335.546125 54.795969 C 335.764875 54.807688 336.120344 54.827219 336.343 54.838938 C 336.56175 54.850656 336.917219 54.870188 337.139875 54.881906 C 337.358625 54.893625 337.714094 54.90925 337.93675 54.920969 C 338.1555 54.932688 338.510969 54.956125 338.733625 54.967844 C 338.952375 54.979563 339.307844 54.995188 339.5305 55.006906 C 339.74925 55.018625 340.104719 55.038156 340.327375 55.049875 C 340.546125 55.061594 340.901594 55.077219 341.12425 55.088938 C 341.346906 55.100656 341.698469 55.116281 341.921125 55.128 C 342.143781 55.139719 342.495344 55.155344 342.718 55.167063 C 342.940656 55.178781 343.292219 55.194406 343.514875 55.206125 C 343.737531 55.217844 344.089094 55.229563 344.31175 55.241281 C 344.534406 55.249094 344.885969 55.268625 345.108625 55.280344 C 345.331281 55.292063 345.68675 55.303781 345.9055 55.3155 C 346.128156 55.323313 346.483625 55.342844 346.702375 55.354563 C 346.925031 55.362375 347.2805 55.378 347.49925 55.385813 C 347.721906 55.397531 348.077375 55.413156 348.296125 55.420969 C 348.518781 55.432688 348.87425 55.448313 349.093 55.456125 C 349.315656 55.467844 349.671125 55.479563 349.889875 55.491281 C 350.112531 55.499094 350.468 55.510813 350.68675 55.518625 C 350.909406 55.530344 351.264875 55.545969 351.483625 55.553781 C 351.706281 55.5655 352.06175 55.581125 352.2805 55.588938 C 352.503156 55.59675 352.858625 55.608469 353.077375 55.616281 C 353.300031 55.628 353.6555 55.643625 353.87425 55.651438 C 354.096906 55.65925 354.452375 55.674875 354.675031 55.682688 C 354.893781 55.6905 355.24925 55.702219 355.471906 55.710031 C 355.690656 55.717844 356.046125 55.733469 356.268781 55.741281 C 356.487531 55.749094 356.843 55.760813 357.065656 55.768625 C 357.284406 55.776438 357.639875 55.792063 357.862531 55.799875 C 358.081281 55.807688 358.43675 55.819406 358.659406 55.827219 C 358.878156 55.835031 359.233625 55.850656 359.456281 55.858469 C 359.675031 55.866281 360.0305 55.874094 360.253156 55.881906 C 360.471906 55.889719 360.827375 55.901438 361.050031 55.913156 C 361.268781 55.920969 361.62425 55.932688 361.846906 55.9405 C 362.065656 55.948313 362.421125 55.960031 362.643781 55.963938 C 362.866438 55.97175 363.218 55.983469 363.440656 55.991281 C 363.663313 55.999094 364.014875 56.010813 364.237531 56.018625 C 364.460188 56.026438 364.81175 56.038156 365.034406 56.042063 C 365.257063 56.049875 365.608625 56.061594 365.831281 56.069406 C 366.053938 56.073313 366.4055 56.085031 366.628156 56.092844 C 366.850813 56.100656 367.206281 56.108469 367.425031 56.116281 C 367.647688 56.124094 368.003156 56.135813 368.221906 56.143625 C 368.444563 56.147531 368.800031 56.15925 369.018781 56.167063 C 369.241438 56.174875 369.596906 56.182688 369.815656 56.1905 C 370.038313 56.198313 370.393781 56.210031 370.612531 56.213938 C 370.835188 56.22175 371.190656 56.229563 371.409406 56.233469 C 371.632063 56.241281 371.987531 56.253 372.206281 56.260813 C 372.428938 56.264719 372.784406 56.272531 373.003156 56.280344 C 373.225813 56.28425 373.581281 56.295969 373.800031 56.303781 C 374.022688 56.311594 374.378156 56.323313 374.596906 56.327219 C 374.819563 56.335031 375.175031 56.342844 375.393781 56.34675 C 375.616438 56.354563 375.971906 56.362375 376.194563 56.366281 C 376.413313 56.374094 376.768781 56.381906 376.991438 56.385813 C 377.210188 56.393625 377.565656 56.405344 377.788313 56.413156 C 378.007063 56.417063 378.362531 56.424875 378.585188 56.428781 C 378.803938 56.436594 379.159406 56.444406 379.382063 56.448313 C 379.600813 56.456125 379.956281 56.463938 380.178938 56.47175 C 380.397688 56.475656 380.753156 56.483469 380.975813 56.491281 C 381.194563 56.495188 381.550031 56.503 381.772688 56.510813 C 381.991438 56.514719 382.346906 56.522531 382.569563 56.530344 C 382.788313 56.53425 383.143781 56.542063 383.366438 56.549875 C 383.585188 56.553781 383.940656 56.557688 384.163313 56.561594 C 384.385969 56.569406 384.737531 56.577219 384.960188 56.581125 C 385.182844 56.588938 385.534406 56.59675 385.757063 56.600656 C 385.979719 56.608469 386.331281 56.616281 386.553938 56.620188 C 386.776594 56.628 387.128156 56.631906 387.350813 56.635813 C 387.573469 56.639719 387.925031 56.651438 388.147688 56.655344 C 388.370344 56.65925 388.721906 56.667063 388.944563 56.670969 C 389.167219 56.674875 389.522688 56.686594 389.741438 56.6905 C 389.964094 56.694406 390.319563 56.698313 390.538313 56.706125 C 390.760969 56.710031 391.116438 56.717844 391.335188 56.725656 C 391.557844 56.729563 391.913313 56.733469 392.132063 56.737375 C 392.354719 56.745188 392.710188 56.753 392.928938 56.756906 C 393.151594 56.764719 393.507063 56.768625 393.725813 56.772531 C 393.948469 56.776438 394.303938 56.78425 394.522688 56.788156 C 394.745344 56.792063 395.100813 56.799875 395.319563 56.803781 C 395.542219 56.807688 395.897688 56.8155 396.116438 56.819406 C 396.339094 56.823313 396.694563 56.827219 396.913313 56.831125 C 397.135969 56.835031 397.714094 56.84675 397.714094 56.84675 " transform="matrix(1,0,0,-1,-79.343,68.753)"/>
</g>
</g>
</svg>
