<svg xmlns="http://www.w3.org/2000/svg" xmlns:xlink="http://www.w3.org/1999/xlink" width="138.864" height="125.257" viewBox="0 0 104.148 93.943"><defs><symbol overflow="visible" id="d"><path d="M4.094-3.156c0-.453-.063-.938-.47-.938-.17 0-.374.11-.374.36 0 .375.5.203.5.984 0 1.016-.766 2.594-1.547 2.594-.36 0-.5-.375-.5-.813 0-.436.422-1.796.422-2.28 0-.563-.36-.844-.734-.844-.515 0-.765.47-.765.782 0 .078.016.17.063.234h.11v-.063c0-.172.06-.547.39-.547.156 0 .25.11.25.453 0 .312-.422 1.687-.422 2.28 0 .688.61 1.063 1.187 1.063 1.094 0 1.89-2.047 1.89-3.266zm0 0"/></symbol><symbol overflow="visible" id="e"><path d="M3.703-2.313c0-1.25-.562-2.39-1.656-2.39-1.11 0-1.688 1.14-1.688 2.39C.36-1.03.905.078 2.046.078c1.047 0 1.656-1.108 1.656-2.39zm-.86 0c0 .97-.25 2.126-.812 2.126-.717 0-.81-1.157-.81-2.126 0-.812.06-2.124.827-2.124.75 0 .797 1.312.797 2.125zm0 0"/></symbol><symbol overflow="visible" id="f"><path d="M2.016-2.703c.187.312.312.672.296 1.015 0 .813-.5 1.547-.984 1.547-.25 0-.484-.313-.484-.844 0-.58.297-1.407 1.015-1.954zm.14-2.36c.235 0 .516.125.516.313 0 .203-.313.25-.313.5 0 .203.14.375.343.375.235 0 .485-.313.485-.672 0-.47-.485-.797-1.08-.797-.624 0-.952.485-.952.907 0 .468.39 1.015.578 1.328C.516-2.577.266-1.5.266-1.046c0 .78.5 1.125 1.093 1.125.734 0 1.577-.625 1.577-1.78 0-1.5-1.36-2.173-1.36-2.86 0-.33.282-.5.58-.5zm0 0"/></symbol><clipPath id="a"><path d="M10 8h86v85.94H10zm0 0"/></clipPath><clipPath id="b"><path d="M0 0h104.148v93.94H0zm0 0"/></clipPath><clipPath id="c"><path d="M1 10h2v83.94H1zm0 0"/></clipPath></defs><g clip-path="url(#a)"><path d="M95.445 51.023c0-23.484-19.035-42.52-42.52-42.52-23.484 0-42.523 19.036-42.523 42.52 0 23.485 19.04 42.52 42.524 42.52s42.52-19.035 42.52-42.52zm0 0" fill="#DFDFDF"/></g><g clip-path="url(#b)"><path d="M95.445 51.023c0-23.484-19.035-42.52-42.52-42.52-23.484 0-42.523 19.036-42.523 42.52 0 23.485 19.04 42.52 42.524 42.52s42.52-19.035 42.52-42.52zm0 0" fill="none" stroke-width=".797" stroke="#000" stroke-miterlimit="10"/></g><path d="M79.035 17.012c0-.332-.27-.602-.597-.602-.333 0-.598.27-.598.602 0 .328.265.597.597.597.33 0 .598-.27.598-.598zm0 0M65.8 34.672c0-.328-.265-.598-.597-.598-.328 0-.598.27-.598.598 0 .332.27.598.598.598.332 0 .598-.266.598-.598zm0 0" stroke-width=".399" stroke="#000" stroke-miterlimit="10"/><path d="M78.438 17.012L66.644 32.75" fill="none" stroke-width=".399" stroke="#000" stroke-dasharray="2.98883,2.98883" stroke-miterlimit="10"/><path d="M65.203 34.672c.762-.68 2.16-1.883 3.602-2.3-1.48.14-2.12-.34-2.403-1.802 0 1.5-.757 3.184-1.2 4.102zm0 0"/><path d="M1.898 68.03L76.44 18.34" fill="none" stroke-width=".399" stroke="#000" stroke-dasharray="2.98883,2.98883" stroke-miterlimit="10"/><path d="M78.438 17.012c-.946.386-2.66 1.05-4.16.968 1.44.36 1.886 1.024 1.663 2.493.5-1.41 1.775-2.743 2.498-3.46zm0 0"/><path d="M53.523 51.023c0-.328-.27-.597-.597-.597-.332 0-.598.27-.598.597 0 .332.266.598.598.598.328 0 .597-.265.597-.597zm0 0" stroke-width=".399" stroke="#000" stroke-miterlimit="10"/><path d="M.2 68.03h101.36" fill="none" stroke-width=".399" stroke="#000" stroke-miterlimit="10"/><path d="M103.95 68.03c-.997-.198-2.79-.596-3.985-1.49.996 1.093.996 1.89 0 2.987 1.195-.898 2.988-1.297 3.984-1.496zm0 0"/><g clip-path="url(#c)"><path d="M1.898 93.543V10.895" fill="none" stroke-width=".399" stroke="#000" stroke-miterlimit="10"/></g><path d="M1.898 8.504c-.2.996-.597 2.79-1.492 3.984 1.094-.996 1.89-.996 2.99 0-.9-1.195-1.298-2.988-1.498-3.984zm0 0"/><use xlink:href="#d" x="56.443" y="52.359"/><use xlink:href="#e" x="60.989" y="53.788"/><use xlink:href="#d" x="81.954" y="13.492"/><use xlink:href="#d" x="68.722" y="42.29"/><use xlink:href="#f" x="73.268" y="44.354"/></svg>