<svg xmlns="http://www.w3.org/2000/svg" xmlns:xlink="http://www.w3.org/1999/xlink" width="87.461" height="104.885" viewBox="0 0 65.596 78.664"><defs><symbol overflow="visible" id="b"><path d="M4.672-3.5c0-.39-.22-.594-.5-.594-.203 0-.344.172-.344.36 0 .453.5.328.5.625 0 .58-1.125 2.157-1.375 2.547-.094-1.812-.36-3.156-.672-3.53L.985-3.86v.157c.08-.016.204-.03.329-.03.67 0 .718.67 1.062 3.874-.125.376-.938 1.297-1.172 1.297-.156 0-.156-.296-.437-.296-.22 0-.407.204-.407.407 0 .28.28.375.406.375.61 0 1.703-1.36 2.61-2.734C4.202-2.048 4.67-2.985 4.67-3.5zm0 0"/></symbol><symbol overflow="visible" id="d"><path d="M4.875-3.797h-.86c-.452-.062-.546-.297-1.14-.297-.828 0-1.828.61-1.828 1.578 0 .39.187.83.812 1.047-.39.236-.782.486-.782.814 0 .187.14.28.234.344C.547.107.266.53.266.89c0 .532.61.97 1.562.97C3 1.86 3.78 1.296 3.78.53c0-1.186-2.046-1.046-2.046-1.483 0-.156.08-.28.454-.422h.187c.688 0 1.72-.64 1.72-1.5 0-.188-.032-.36-.08-.5h.75zm-1.5.53c0 .704-.406 1.673-1.03 1.673-.423 0-.564-.39-.564-.703 0-.47.314-1.594 1.08-1.594.36 0 .515.28.515.624zm-.14 4.08c0 .53-.657.843-1.313.843-.36 0-1.156-.156-1.156-.843 0-.438.36-.83.734-1.032.922.267 1.734.532 1.734 1.032zm0 0"/></symbol><symbol overflow="visible" id="f"><path d="M3.203 1.922v-.156C2.11 1.126 1.61-.14 1.61-2.266c0-2.11.5-3.343 1.593-4.015v-.157C1.656-5.641.75-4.11.75-2.268c0 1.876.875 3.33 2.453 4.19zm0 0"/></symbol><symbol overflow="visible" id="g"><path d="M4.64-3.766c0-.218-.202-.328-.374-.328-.454 0-1.032.672-1.47 1.375-.015 0-.077-.296-.077-.296-.142-.593-.314-.937-.626-1.078 0 0-1.016.203-1.14.25v.156c.187-.046.327-.078.42-.078.5 0 .58.485.923 1.782C1.89-1.39 1.25-.39 1-.39.797-.39.78-.61.5-.61c-.188 0-.328.14-.328.33 0 .233.172.39.422.39.64 0 1.22-1.126 1.765-1.83.03.064.234.86.234.86.22.83.39.97.61.97.28 0 .702-.282 1.124-1.063l-.125-.078c-.156.202-.406.624-.64.624-.313 0-.485-1.266-.704-2.063.046-.077.67-1.077 1-1.077.17 0 .328.14.484.14.218 0 .297-.187.297-.36zm0 0"/></symbol><symbol overflow="visible" id="h"><path d="M2.594-2.25c0-1.86-.875-3.313-2.453-4.188v.172c1.094.64 1.594 1.89 1.594 4.016 0 2.11-.5 3.36-1.593 4.016v.156C1.688 1.142 2.595-.39 2.595-2.25zm0 0"/></symbol><symbol overflow="visible" id="i"><path d="M3.61-5.516c0-.546-.47-.92-1.157-.92-.72-.002-1.094.545-1.094 1.06 0 .61.562 1.407.734 1.657C.594-3.124.28-1.796.28-1.233.28-.314.876.11 1.563.11c.86 0 1.844-.75 1.844-2.14 0-1.47-1.234-2.47-1.547-3.08-.08-.156-.094-.296-.094-.42 0-.454.39-.642.75-.642.328 0 .61.156.61.406 0 .235-.376.282-.376.625 0 .202.14.374.344.374.265 0 .515-.343.515-.75zm-.86 3.563c0 1.14-.78 1.797-1.234 1.797-.329 0-.625-.39-.625-1.032-.015-.703.407-1.765 1.33-2.36l.14.22c.265.437.39.797.39 1.375zm0 0"/></symbol><symbol overflow="visible" id="c"><path d="M6.75-2.922v-.5h-6v.5zm0 1.813v-.5h-6v.5zm0 0"/></symbol><symbol overflow="visible" id="e"><path d="M2.016-2.703c.187.312.312.672.296 1.015 0 .813-.5 1.547-.984 1.547-.25 0-.484-.313-.484-.844 0-.58.297-1.407 1.015-1.954zm.14-2.36c.235 0 .516.125.516.313 0 .203-.313.25-.313.5 0 .203.14.375.343.375.235 0 .485-.313.485-.672 0-.47-.485-.797-1.08-.797-.624 0-.952.485-.952.907 0 .468.39 1.015.578 1.328C.516-2.577.266-1.5.266-1.046c0 .78.5 1.125 1.093 1.125.734 0 1.577-.625 1.577-1.78 0-1.5-1.36-2.173-1.36-2.86 0-.33.282-.5.58-.5zm0 0"/></symbol><clipPath id="a"><path d="M0 62h65.598v1H0zm0 0"/></clipPath></defs><g clip-path="url(#a)"><path d="M.2 62.563h65.198" fill="none" stroke-width=".399" stroke="#000" stroke-miterlimit="10"/></g><path d="M3.035 65.398V.198" fill="none" stroke-width=".399" stroke="#000" stroke-miterlimit="10"/><path d="M3.035 5.867l14.172 56.696h42.52" fill="none" stroke-width="1.196" stroke="#000" stroke-miterlimit="10"/><path d="M17.207 65.398v-2.835M.2 48.387h2.835M31.38 65.398v-2.835M.2 34.215h2.835M45.555 65.398v-2.835M.2 20.043h2.835M59.727 65.398v-2.835M.2 5.867h2.835" fill="none" stroke-width=".399" stroke="#000" stroke-miterlimit="10"/><use xlink:href="#b" x="15.057" y="30.728"/><use xlink:href="#c" x="23.079" y="30.728"/><use xlink:href="#d" x="33.066" y="30.728"/><use xlink:href="#e" x="38.087" y="32.792"/><use xlink:href="#f" x="42.56" y="30.728"/><use xlink:href="#g" x="45.904" y="30.728"/><use xlink:href="#h" x="51.257" y="30.728"/><g><use xlink:href="#i" x="15.1" y="75.344"/></g></svg>