<?xml version="1.0" encoding="UTF-8"?>
<svg xmlns="http://www.w3.org/2000/svg" xmlns:xlink="http://www.w3.org/1999/xlink" width="231.25pt" height="146.75pt" viewBox="0 0 231.25 146.75" version="1.1">
<defs>
<clipPath id="clip1">
  <path d="M 226 113 L 231.25 113 L 231.25 117 L 226 117 Z M 226 113 "/>
</clipPath>
<clipPath id="clip2">
  <path d="M 0 108 L 38 108 L 38 146.75 L 0 146.75 Z M 0 108 "/>
</clipPath>
<clipPath id="clip3">
  <path d="M 0 142 L 5 142 L 5 146.75 L 0 146.75 Z M 0 142 "/>
</clipPath>
<clipPath id="clip4">
  <path d="M 102 35 L 156 35 L 156 58 L 102 58 Z M 102 35 "/>
</clipPath>
<clipPath id="clip5">
  <path d="M 107.3125 35.933594 C 104.808594 35.933594 102.777344 40.691406 102.777344 46.5625 C 102.777344 52.433594 104.808594 57.191406 107.3125 57.191406 L 155.25 57.191406 C 152.746094 57.191406 150.714844 52.433594 150.714844 46.5625 C 150.714844 40.691406 152.746094 35.933594 155.25 35.933594 Z M 107.3125 35.933594 "/>
</clipPath>
<linearGradient id="linear0" gradientUnits="userSpaceOnUse" x1="-0.0000272344" y1="0" x2="0.99998" y2="0" gradientTransform="matrix(0,-21.259842,21.259842,0,129.013534,57.192421)">
<stop offset="0" style="stop-color:rgb(35.296631%,34.118652%,34.411621%);stop-opacity:1;"/>
<stop offset="0.00390625" style="stop-color:rgb(35.932922%,34.767151%,35.055542%);stop-opacity:1;"/>
<stop offset="0.0078125" style="stop-color:rgb(36.567688%,35.414124%,35.700989%);stop-opacity:1;"/>
<stop offset="0.0117188" style="stop-color:rgb(37.199402%,36.056519%,36.340332%);stop-opacity:1;"/>
<stop offset="0.015625" style="stop-color:rgb(37.82959%,36.697388%,36.979675%);stop-opacity:1;"/>
<stop offset="0.0195312" style="stop-color:rgb(38.453674%,37.333679%,37.611389%);stop-opacity:1;"/>
<stop offset="0.0234375" style="stop-color:rgb(39.076233%,37.966919%,38.243103%);stop-opacity:1;"/>
<stop offset="0.0273438" style="stop-color:rgb(39.692688%,38.594055%,38.867188%);stop-opacity:1;"/>
<stop offset="0.03125" style="stop-color:rgb(40.307617%,39.221191%,39.491272%);stop-opacity:1;"/>
<stop offset="0.0351562" style="stop-color:rgb(40.916443%,39.840698%,40.107727%);stop-opacity:1;"/>
<stop offset="0.0390625" style="stop-color:rgb(41.525269%,40.460205%,40.724182%);stop-opacity:1;"/>
<stop offset="0.0429687" style="stop-color:rgb(42.126465%,41.073608%,41.334534%);stop-opacity:1;"/>
<stop offset="0.046875" style="stop-color:rgb(42.726135%,41.68396%,41.943359%);stop-opacity:1;"/>
<stop offset="0.0507812" style="stop-color:rgb(43.319702%,42.288208%,42.544556%);stop-opacity:1;"/>
<stop offset="0.0546875" style="stop-color:rgb(43.911743%,42.892456%,43.145752%);stop-opacity:1;"/>
<stop offset="0.0585938" style="stop-color:rgb(44.497681%,43.487549%,43.739319%);stop-opacity:1;"/>
<stop offset="0.0625" style="stop-color:rgb(45.083618%,44.084167%,44.332886%);stop-opacity:1;"/>
<stop offset="0.0664062" style="stop-color:rgb(45.663452%,44.674683%,44.920349%);stop-opacity:1;"/>
<stop offset="0.0703125" style="stop-color:rgb(46.24176%,45.262146%,45.506287%);stop-opacity:1;"/>
<stop offset="0.0742187" style="stop-color:rgb(46.812439%,45.845032%,46.084595%);stop-opacity:1;"/>
<stop offset="0.078125" style="stop-color:rgb(47.383118%,46.424866%,46.662903%);stop-opacity:1;"/>
<stop offset="0.0820312" style="stop-color:rgb(47.946167%,46.998596%,47.233582%);stop-opacity:1;"/>
<stop offset="0.0859375" style="stop-color:rgb(48.50769%,47.570801%,47.80426%);stop-opacity:1;"/>
<stop offset="0.0898437" style="stop-color:rgb(49.06311%,48.136902%,48.36731%);stop-opacity:1;"/>
<stop offset="0.09375" style="stop-color:rgb(49.617004%,48.699951%,48.928833%);stop-opacity:1;"/>
<stop offset="0.0976562" style="stop-color:rgb(50.164795%,49.258423%,49.484253%);stop-opacity:1;"/>
<stop offset="0.101562" style="stop-color:rgb(50.712585%,49.815369%,50.038147%);stop-opacity:1;"/>
<stop offset="0.105469" style="stop-color:rgb(51.252747%,50.364685%,50.585938%);stop-opacity:1;"/>
<stop offset="0.109375" style="stop-color:rgb(51.792908%,50.915527%,51.132202%);stop-opacity:1;"/>
<stop offset="0.113281" style="stop-color:rgb(52.323914%,51.455688%,51.672363%);stop-opacity:1;"/>
<stop offset="0.117188" style="stop-color:rgb(52.856445%,51.997375%,52.210999%);stop-opacity:1;"/>
<stop offset="0.121094" style="stop-color:rgb(53.379822%,52.531433%,52.742004%);stop-opacity:1;"/>
<stop offset="0.125" style="stop-color:rgb(53.903198%,53.065491%,53.27301%);stop-opacity:1;"/>
<stop offset="0.128906" style="stop-color:rgb(54.420471%,53.590393%,53.796387%);stop-opacity:1;"/>
<stop offset="0.132812" style="stop-color:rgb(54.936218%,54.115295%,54.319763%);stop-opacity:1;"/>
<stop offset="0.136719" style="stop-color:rgb(55.444336%,54.632568%,54.833984%);stop-opacity:1;"/>
<stop offset="0.140625" style="stop-color:rgb(55.952454%,55.149841%,55.349731%);stop-opacity:1;"/>
<stop offset="0.144531" style="stop-color:rgb(56.452942%,55.659485%,55.856323%);stop-opacity:1;"/>
<stop offset="0.148437" style="stop-color:rgb(56.950378%,56.167603%,56.362915%);stop-opacity:1;"/>
<stop offset="0.152344" style="stop-color:rgb(57.443237%,56.669617%,56.861877%);stop-opacity:1;"/>
<stop offset="0.15625" style="stop-color:rgb(57.936096%,57.170105%,57.36084%);stop-opacity:1;"/>
<stop offset="0.160156" style="stop-color:rgb(58.4198%,57.662964%,57.852173%);stop-opacity:1;"/>
<stop offset="0.164062" style="stop-color:rgb(58.903503%,58.155823%,58.340454%);stop-opacity:1;"/>
<stop offset="0.167969" style="stop-color:rgb(59.379578%,58.641052%,58.824158%);stop-opacity:1;"/>
<stop offset="0.171875" style="stop-color:rgb(59.855652%,59.124756%,59.306335%);stop-opacity:1;"/>
<stop offset="0.175781" style="stop-color:rgb(60.322571%,59.60083%,59.779358%);stop-opacity:1;"/>
<stop offset="0.179687" style="stop-color:rgb(60.78949%,60.075378%,60.253906%);stop-opacity:1;"/>
<stop offset="0.183594" style="stop-color:rgb(61.248779%,60.543823%,60.719299%);stop-opacity:1;"/>
<stop offset="0.1875" style="stop-color:rgb(61.708069%,61.012268%,61.184692%);stop-opacity:1;"/>
<stop offset="0.191406" style="stop-color:rgb(62.159729%,61.471558%,61.642456%);stop-opacity:1;"/>
<stop offset="0.195312" style="stop-color:rgb(62.609863%,61.929321%,62.098694%);stop-opacity:1;"/>
<stop offset="0.199219" style="stop-color:rgb(63.052368%,62.379456%,62.547302%);stop-opacity:1;"/>
<stop offset="0.203125" style="stop-color:rgb(63.494873%,62.831116%,62.995911%);stop-opacity:1;"/>
<stop offset="0.207031" style="stop-color:rgb(63.929749%,63.272095%,63.435364%);stop-opacity:1;"/>
<stop offset="0.210938" style="stop-color:rgb(64.363098%,63.7146%,63.876343%);stop-opacity:1;"/>
<stop offset="0.214844" style="stop-color:rgb(64.790344%,64.149475%,64.308167%);stop-opacity:1;"/>
<stop offset="0.21875" style="stop-color:rgb(65.216064%,64.582825%,64.73999%);stop-opacity:1;"/>
<stop offset="0.222656" style="stop-color:rgb(65.632629%,65.007019%,65.162659%);stop-opacity:1;"/>
<stop offset="0.226562" style="stop-color:rgb(66.049194%,65.431213%,65.583801%);stop-opacity:1;"/>
<stop offset="0.230469" style="stop-color:rgb(66.45813%,65.847778%,65.99884%);stop-opacity:1;"/>
<stop offset="0.234375" style="stop-color:rgb(66.86554%,66.262817%,66.412354%);stop-opacity:1;"/>
<stop offset="0.238281" style="stop-color:rgb(67.266846%,66.670227%,66.818237%);stop-opacity:1;"/>
<stop offset="0.242188" style="stop-color:rgb(67.666626%,67.077637%,67.224121%);stop-opacity:1;"/>
<stop offset="0.246094" style="stop-color:rgb(68.057251%,67.475891%,67.62085%);stop-opacity:1;"/>
<stop offset="0.25" style="stop-color:rgb(68.447876%,67.874146%,68.016052%);stop-opacity:1;"/>
<stop offset="0.253906" style="stop-color:rgb(68.829346%,68.263245%,68.403625%);stop-opacity:1;"/>
<stop offset="0.257812" style="stop-color:rgb(69.212341%,68.650818%,68.791199%);stop-opacity:1;"/>
<stop offset="0.261719" style="stop-color:rgb(69.586182%,69.032288%,69.169617%);stop-opacity:1;"/>
<stop offset="0.265625" style="stop-color:rgb(69.960022%,69.412231%,69.548035%);stop-opacity:1;"/>
<stop offset="0.269531" style="stop-color:rgb(70.324707%,69.784546%,69.918823%);stop-opacity:1;"/>
<stop offset="0.273438" style="stop-color:rgb(70.687866%,70.153809%,70.28656%);stop-opacity:1;"/>
<stop offset="0.277344" style="stop-color:rgb(71.043396%,70.515442%,70.646667%);stop-opacity:1;"/>
<stop offset="0.28125" style="stop-color:rgb(71.398926%,70.878601%,71.006775%);stop-opacity:1;"/>
<stop offset="0.285156" style="stop-color:rgb(71.7453%,71.231079%,71.357727%);stop-opacity:1;"/>
<stop offset="0.289062" style="stop-color:rgb(72.090149%,71.583557%,71.708679%);stop-opacity:1;"/>
<stop offset="0.292969" style="stop-color:rgb(72.427368%,71.925354%,72.050476%);stop-opacity:1;"/>
<stop offset="0.296875" style="stop-color:rgb(72.763062%,72.267151%,72.390747%);stop-opacity:1;"/>
<stop offset="0.300781" style="stop-color:rgb(73.091125%,72.601318%,72.723389%);stop-opacity:1;"/>
<stop offset="0.304687" style="stop-color:rgb(73.419189%,72.935486%,73.05603%);stop-opacity:1;"/>
<stop offset="0.308594" style="stop-color:rgb(73.738098%,73.258972%,73.377991%);stop-opacity:1;"/>
<stop offset="0.3125" style="stop-color:rgb(74.055481%,73.582458%,73.699951%);stop-opacity:1;"/>
<stop offset="0.316406" style="stop-color:rgb(74.363708%,73.898315%,74.012756%);stop-opacity:1;"/>
<stop offset="0.320312" style="stop-color:rgb(74.671936%,74.211121%,74.325562%);stop-opacity:1;"/>
<stop offset="0.324219" style="stop-color:rgb(74.971008%,74.514771%,74.629211%);stop-opacity:1;"/>
<stop offset="0.328125" style="stop-color:rgb(75.270081%,74.819946%,74.931335%);stop-opacity:1;"/>
<stop offset="0.332031" style="stop-color:rgb(75.559998%,75.114441%,75.22583%);stop-opacity:1;"/>
<stop offset="0.335937" style="stop-color:rgb(75.848389%,75.40741%,75.517273%);stop-opacity:1;"/>
<stop offset="0.339844" style="stop-color:rgb(76.127625%,75.694275%,75.801086%);stop-opacity:1;"/>
<stop offset="0.34375" style="stop-color:rgb(76.40686%,75.978088%,76.0849%);stop-opacity:1;"/>
<stop offset="0.347656" style="stop-color:rgb(76.676941%,76.252747%,76.358032%);stop-opacity:1;"/>
<stop offset="0.351562" style="stop-color:rgb(76.945496%,76.525879%,76.629639%);stop-opacity:1;"/>
<stop offset="0.355469" style="stop-color:rgb(77.204895%,76.789856%,76.893616%);stop-opacity:1;"/>
<stop offset="0.359375" style="stop-color:rgb(77.462769%,77.052307%,77.154541%);stop-opacity:1;"/>
<stop offset="0.363281" style="stop-color:rgb(77.711487%,77.305603%,77.406311%);stop-opacity:1;"/>
<stop offset="0.367187" style="stop-color:rgb(77.960205%,77.558899%,77.659607%);stop-opacity:1;"/>
<stop offset="0.371094" style="stop-color:rgb(78.198242%,77.801514%,77.900696%);stop-opacity:1;"/>
<stop offset="0.375" style="stop-color:rgb(78.436279%,78.044128%,78.141785%);stop-opacity:1;"/>
<stop offset="0.378906" style="stop-color:rgb(78.665161%,78.276062%,78.372192%);stop-opacity:1;"/>
<stop offset="0.382812" style="stop-color:rgb(78.892517%,78.507996%,78.604126%);stop-opacity:1;"/>
<stop offset="0.386719" style="stop-color:rgb(79.109192%,78.729248%,78.823853%);stop-opacity:1;"/>
<stop offset="0.390625" style="stop-color:rgb(79.327393%,78.9505%,79.043579%);stop-opacity:1;"/>
<stop offset="0.394531" style="stop-color:rgb(79.53186%,79.159546%,79.252625%);stop-opacity:1;"/>
<stop offset="0.398437" style="stop-color:rgb(79.737854%,79.368591%,79.460144%);stop-opacity:1;"/>
<stop offset="0.402344" style="stop-color:rgb(79.933167%,79.566956%,79.658508%);stop-opacity:1;"/>
<stop offset="0.40625" style="stop-color:rgb(80.126953%,79.76532%,79.855347%);stop-opacity:1;"/>
<stop offset="0.410156" style="stop-color:rgb(80.310059%,79.951477%,80.041504%);stop-opacity:1;"/>
<stop offset="0.414062" style="stop-color:rgb(80.493164%,80.137634%,80.226135%);stop-opacity:1;"/>
<stop offset="0.417969" style="stop-color:rgb(80.664062%,80.31311%,80.400085%);stop-opacity:1;"/>
<stop offset="0.421875" style="stop-color:rgb(80.834961%,80.487061%,80.574036%);stop-opacity:1;"/>
<stop offset="0.429687" style="stop-color:rgb(80.995178%,80.648804%,80.734253%);stop-opacity:1;"/>
<stop offset="0.4375" style="stop-color:rgb(81.30188%,80.961609%,81.045532%);stop-opacity:1;"/>
<stop offset="0.445312" style="stop-color:rgb(81.581116%,81.246948%,81.329346%);stop-opacity:1;"/>
<stop offset="0.453125" style="stop-color:rgb(81.835938%,81.504822%,81.587219%);stop-opacity:1;"/>
<stop offset="0.460937" style="stop-color:rgb(82.063293%,81.736755%,81.817627%);stop-opacity:1;"/>
<stop offset="0.46875" style="stop-color:rgb(82.261658%,81.939697%,82.019043%);stop-opacity:1;"/>
<stop offset="0.484375" style="stop-color:rgb(82.492065%,82.173157%,82.252502%);stop-opacity:1;"/>
<stop offset="0.5" style="stop-color:rgb(82.687378%,82.373047%,82.450867%);stop-opacity:1;"/>
<stop offset="0.515625" style="stop-color:rgb(82.673645%,82.357788%,82.435608%);stop-opacity:1;"/>
<stop offset="0.53125" style="stop-color:rgb(82.440186%,82.121277%,82.200623%);stop-opacity:1;"/>
<stop offset="0.539062" style="stop-color:rgb(82.176208%,81.852722%,81.933594%);stop-opacity:1;"/>
<stop offset="0.546875" style="stop-color:rgb(81.951904%,81.62384%,81.704712%);stop-opacity:1;"/>
<stop offset="0.554688" style="stop-color:rgb(81.697083%,81.364441%,81.446838%);stop-opacity:1;"/>
<stop offset="0.5625" style="stop-color:rgb(81.416321%,81.077576%,81.161499%);stop-opacity:1;"/>
<stop offset="0.570312" style="stop-color:rgb(81.108093%,80.764771%,80.85022%);stop-opacity:1;"/>
<stop offset="0.574219" style="stop-color:rgb(80.775452%,80.4245%,80.511475%);stop-opacity:1;"/>
<stop offset="0.578125" style="stop-color:rgb(80.603027%,80.249023%,80.337524%);stop-opacity:1;"/>
<stop offset="0.582031" style="stop-color:rgb(80.418396%,80.06134%,80.149841%);stop-opacity:1;"/>
<stop offset="0.585937" style="stop-color:rgb(80.232239%,79.872131%,79.962158%);stop-opacity:1;"/>
<stop offset="0.589844" style="stop-color:rgb(80.036926%,79.673767%,79.763794%);stop-opacity:1;"/>
<stop offset="0.59375" style="stop-color:rgb(79.840088%,79.473877%,79.563904%);stop-opacity:1;"/>
<stop offset="0.597656" style="stop-color:rgb(79.632568%,79.26178%,79.353333%);stop-opacity:1;"/>
<stop offset="0.601562" style="stop-color:rgb(79.423523%,79.049683%,79.142761%);stop-opacity:1;"/>
<stop offset="0.605469" style="stop-color:rgb(79.205322%,78.826904%,78.921509%);stop-opacity:1;"/>
<stop offset="0.609375" style="stop-color:rgb(78.987122%,78.604126%,78.700256%);stop-opacity:1;"/>
<stop offset="0.613281" style="stop-color:rgb(78.75824%,78.372192%,78.468323%);stop-opacity:1;"/>
<stop offset="0.617187" style="stop-color:rgb(78.529358%,78.138733%,78.234863%);stop-opacity:1;"/>
<stop offset="0.621094" style="stop-color:rgb(78.289795%,77.894592%,77.992249%);stop-opacity:1;"/>
<stop offset="0.625" style="stop-color:rgb(78.050232%,77.650452%,77.749634%);stop-opacity:1;"/>
<stop offset="0.628906" style="stop-color:rgb(77.799988%,77.39563%,77.496338%);stop-opacity:1;"/>
<stop offset="0.632812" style="stop-color:rgb(77.549744%,77.140808%,77.243042%);stop-opacity:1;"/>
<stop offset="0.636719" style="stop-color:rgb(77.290344%,76.876831%,76.980591%);stop-opacity:1;"/>
<stop offset="0.640625" style="stop-color:rgb(77.029419%,76.611328%,76.715088%);stop-opacity:1;"/>
<stop offset="0.644531" style="stop-color:rgb(76.759338%,76.33667%,76.441956%);stop-opacity:1;"/>
<stop offset="0.648437" style="stop-color:rgb(76.490784%,76.062012%,76.168823%);stop-opacity:1;"/>
<stop offset="0.652344" style="stop-color:rgb(76.211548%,75.778198%,75.88501%);stop-opacity:1;"/>
<stop offset="0.65625" style="stop-color:rgb(75.930786%,75.492859%,75.601196%);stop-opacity:1;"/>
<stop offset="0.660156" style="stop-color:rgb(75.642395%,75.198364%,75.309753%);stop-opacity:1;"/>
<stop offset="0.664062" style="stop-color:rgb(75.352478%,74.90387%,75.015259%);stop-opacity:1;"/>
<stop offset="0.667969" style="stop-color:rgb(75.054932%,74.601746%,74.714661%);stop-opacity:1;"/>
<stop offset="0.671875" style="stop-color:rgb(74.755859%,74.29657%,74.411011%);stop-opacity:1;"/>
<stop offset="0.675781" style="stop-color:rgb(74.449158%,73.985291%,74.099731%);stop-opacity:1;"/>
<stop offset="0.679687" style="stop-color:rgb(74.14093%,73.670959%,73.788452%);stop-opacity:1;"/>
<stop offset="0.683594" style="stop-color:rgb(73.825073%,73.348999%,73.468018%);stop-opacity:1;"/>
<stop offset="0.6875" style="stop-color:rgb(73.509216%,73.027039%,73.146057%);stop-opacity:1;"/>
<stop offset="0.691406" style="stop-color:rgb(73.182678%,72.695923%,72.816467%);stop-opacity:1;"/>
<stop offset="0.695312" style="stop-color:rgb(72.85614%,72.363281%,72.485352%);stop-opacity:1;"/>
<stop offset="0.699219" style="stop-color:rgb(72.521973%,72.02301%,72.146606%);stop-opacity:1;"/>
<stop offset="0.703125" style="stop-color:rgb(72.187805%,71.682739%,71.807861%);stop-opacity:1;"/>
<stop offset="0.707031" style="stop-color:rgb(71.846008%,71.333313%,71.461487%);stop-opacity:1;"/>
<stop offset="0.710937" style="stop-color:rgb(71.502686%,70.983887%,71.112061%);stop-opacity:1;"/>
<stop offset="0.714844" style="stop-color:rgb(71.150208%,70.625305%,70.756531%);stop-opacity:1;"/>
<stop offset="0.71875" style="stop-color:rgb(70.799255%,70.26825%,70.399475%);stop-opacity:1;"/>
<stop offset="0.722656" style="stop-color:rgb(70.440674%,69.902039%,70.036316%);stop-opacity:1;"/>
<stop offset="0.726562" style="stop-color:rgb(70.079041%,69.534302%,69.670105%);stop-opacity:1;"/>
<stop offset="0.730469" style="stop-color:rgb(69.711304%,69.158936%,69.296265%);stop-opacity:1;"/>
<stop offset="0.734375" style="stop-color:rgb(69.342041%,68.783569%,68.922424%);stop-opacity:1;"/>
<stop offset="0.738281" style="stop-color:rgb(68.965149%,68.400574%,68.540955%);stop-opacity:1;"/>
<stop offset="0.742187" style="stop-color:rgb(68.588257%,68.016052%,68.157959%);stop-opacity:1;"/>
<stop offset="0.746094" style="stop-color:rgb(68.203735%,67.625427%,67.76886%);stop-opacity:1;"/>
<stop offset="0.75" style="stop-color:rgb(67.817688%,67.23175%,67.378235%);stop-opacity:1;"/>
<stop offset="0.753906" style="stop-color:rgb(67.425537%,66.83197%,66.97998%);stop-opacity:1;"/>
<stop offset="0.757812" style="stop-color:rgb(67.03186%,66.43219%,66.581726%);stop-opacity:1;"/>
<stop offset="0.761719" style="stop-color:rgb(66.630554%,66.023254%,66.174316%);stop-opacity:1;"/>
<stop offset="0.765625" style="stop-color:rgb(66.229248%,65.614319%,65.766907%);stop-opacity:1;"/>
<stop offset="0.769531" style="stop-color:rgb(65.820312%,65.19928%,65.353394%);stop-opacity:1;"/>
<stop offset="0.773437" style="stop-color:rgb(65.411377%,64.782715%,64.938354%);stop-opacity:1;"/>
<stop offset="0.777344" style="stop-color:rgb(64.994812%,64.356995%,64.515686%);stop-opacity:1;"/>
<stop offset="0.78125" style="stop-color:rgb(64.576721%,63.9328%,64.093018%);stop-opacity:1;"/>
<stop offset="0.785156" style="stop-color:rgb(64.151001%,63.499451%,63.661194%);stop-opacity:1;"/>
<stop offset="0.789062" style="stop-color:rgb(63.726807%,63.066101%,63.230896%);stop-opacity:1;"/>
<stop offset="0.792969" style="stop-color:rgb(63.294983%,62.626648%,62.792969%);stop-opacity:1;"/>
<stop offset="0.796875" style="stop-color:rgb(62.861633%,62.185669%,62.353516%);stop-opacity:1;"/>
<stop offset="0.800781" style="stop-color:rgb(62.42218%,61.738586%,61.907959%);stop-opacity:1;"/>
<stop offset="0.804687" style="stop-color:rgb(61.981201%,61.288452%,61.460876%);stop-opacity:1;"/>
<stop offset="0.808594" style="stop-color:rgb(61.534119%,60.83374%,61.00769%);stop-opacity:1;"/>
<stop offset="0.8125" style="stop-color:rgb(61.08551%,60.377502%,60.552979%);stop-opacity:1;"/>
<stop offset="0.816406" style="stop-color:rgb(60.630798%,59.913635%,60.092163%);stop-opacity:1;"/>
<stop offset="0.820312" style="stop-color:rgb(60.174561%,59.449768%,59.629822%);stop-opacity:1;"/>
<stop offset="0.824219" style="stop-color:rgb(59.712219%,58.978271%,59.159851%);stop-opacity:1;"/>
<stop offset="0.828125" style="stop-color:rgb(59.248352%,58.506775%,58.691406%);stop-opacity:1;"/>
<stop offset="0.832031" style="stop-color:rgb(58.778381%,58.027649%,58.213806%);stop-opacity:1;"/>
<stop offset="0.835937" style="stop-color:rgb(58.308411%,57.550049%,57.737732%);stop-opacity:1;"/>
<stop offset="0.839844" style="stop-color:rgb(57.830811%,57.063293%,57.254028%);stop-opacity:1;"/>
<stop offset="0.84375" style="stop-color:rgb(57.35321%,56.576538%,56.768799%);stop-opacity:1;"/>
<stop offset="0.847656" style="stop-color:rgb(56.867981%,56.083679%,56.278992%);stop-opacity:1;"/>
<stop offset="0.851562" style="stop-color:rgb(56.382751%,55.589294%,55.786133%);stop-opacity:1;"/>
<stop offset="0.855469" style="stop-color:rgb(55.889893%,55.08728%,55.28717%);stop-opacity:1;"/>
<stop offset="0.859375" style="stop-color:rgb(55.397034%,54.586792%,54.788208%);stop-opacity:1;"/>
<stop offset="0.863281" style="stop-color:rgb(54.899597%,54.078674%,54.281616%);stop-opacity:1;"/>
<stop offset="0.867187" style="stop-color:rgb(54.399109%,53.569031%,53.775024%);stop-opacity:1;"/>
<stop offset="0.871094" style="stop-color:rgb(53.892517%,53.053284%,53.260803%);stop-opacity:1;"/>
<stop offset="0.875" style="stop-color:rgb(53.384399%,52.536011%,52.748108%);stop-opacity:1;"/>
<stop offset="0.878906" style="stop-color:rgb(52.871704%,52.01416%,52.227783%);stop-opacity:1;"/>
<stop offset="0.882812" style="stop-color:rgb(52.359009%,51.490784%,51.705933%);stop-opacity:1;"/>
<stop offset="0.886719" style="stop-color:rgb(51.837158%,50.959778%,51.177979%);stop-opacity:1;"/>
<stop offset="0.890625" style="stop-color:rgb(51.315308%,50.430298%,50.650024%);stop-opacity:1;"/>
<stop offset="0.894531" style="stop-color:rgb(50.787354%,49.891663%,50.114441%);stop-opacity:1;"/>
<stop offset="0.898438" style="stop-color:rgb(50.259399%,49.354553%,49.580383%);stop-opacity:1;"/>
<stop offset="0.902344" style="stop-color:rgb(49.725342%,48.81134%,49.03717%);stop-opacity:1;"/>
<stop offset="0.90625" style="stop-color:rgb(49.191284%,48.266602%,48.495483%);stop-opacity:1;"/>
<stop offset="0.910156" style="stop-color:rgb(48.649597%,47.715759%,47.947693%);stop-opacity:1;"/>
<stop offset="0.914062" style="stop-color:rgb(48.10791%,47.163391%,47.398376%);stop-opacity:1;"/>
<stop offset="0.917969" style="stop-color:rgb(47.558594%,46.604919%,46.841431%);stop-opacity:1;"/>
<stop offset="0.921875" style="stop-color:rgb(47.009277%,46.044922%,46.284485%);stop-opacity:1;"/>
<stop offset="0.925781" style="stop-color:rgb(46.455383%,45.481873%,45.722961%);stop-opacity:1;"/>
<stop offset="0.929688" style="stop-color:rgb(45.899963%,44.915771%,45.159912%);stop-opacity:1;"/>
<stop offset="0.933594" style="stop-color:rgb(45.33844%,44.343567%,44.590759%);stop-opacity:1;"/>
<stop offset="0.9375" style="stop-color:rgb(44.775391%,43.769836%,44.018555%);stop-opacity:1;"/>
<stop offset="0.941406" style="stop-color:rgb(44.206238%,43.190002%,43.443298%);stop-opacity:1;"/>
<stop offset="0.945312" style="stop-color:rgb(43.637085%,42.611694%,42.866516%);stop-opacity:1;"/>
<stop offset="0.949219" style="stop-color:rgb(43.061829%,42.025757%,42.28363%);stop-opacity:1;"/>
<stop offset="0.953125" style="stop-color:rgb(42.485046%,41.438293%,41.699219%);stop-opacity:1;"/>
<stop offset="0.957031" style="stop-color:rgb(41.903687%,40.846252%,41.108704%);stop-opacity:1;"/>
<stop offset="0.960938" style="stop-color:rgb(41.322327%,40.254211%,40.519714%);stop-opacity:1;"/>
<stop offset="0.964844" style="stop-color:rgb(40.733337%,39.654541%,39.923096%);stop-opacity:1;"/>
<stop offset="0.96875" style="stop-color:rgb(40.144348%,39.054871%,39.324951%);stop-opacity:1;"/>
<stop offset="0.972656" style="stop-color:rgb(39.549255%,38.449097%,38.722229%);stop-opacity:1;"/>
<stop offset="0.976562" style="stop-color:rgb(38.952637%,37.841797%,38.117981%);stop-opacity:1;"/>
<stop offset="0.980469" style="stop-color:rgb(38.35144%,37.228394%,37.507629%);stop-opacity:1;"/>
<stop offset="0.984375" style="stop-color:rgb(37.747192%,36.61499%,36.895752%);stop-opacity:1;"/>
<stop offset="0.988281" style="stop-color:rgb(37.139893%,35.995483%,36.279297%);stop-opacity:1;"/>
<stop offset="0.992188" style="stop-color:rgb(36.529541%,35.374451%,35.661316%);stop-opacity:1;"/>
<stop offset="0.996094" style="stop-color:rgb(35.916138%,34.74884%,35.038757%);stop-opacity:1;"/>
<stop offset="1" style="stop-color:rgb(35.301208%,34.12323%,34.416199%);stop-opacity:1;"/>
</linearGradient>
<clipPath id="clip6">
  <path d="M 195.460938 33.28125 L 202.460938 33.28125 L 202.460938 40.242188 L 195.460938 40.242188 Z M 195.460938 33.28125 "/>
</clipPath>
<clipPath id="clip7">
  <path d="M 59.066406 119 L 64 119 L 64 124 L 59.066406 124 Z M 59.066406 119 "/>
</clipPath>
<clipPath id="clip8">
  <path d="M 194.066406 118.488281 L 199 118.488281 L 199 126 L 194.066406 126 Z M 194.066406 118.488281 "/>
</clipPath>
</defs>
<g id="surface1">
<path style="fill:none;stroke-width:0.5;stroke-linecap:butt;stroke-linejoin:miter;stroke:rgb(13.729858%,12.159729%,12.548828%);stroke-opacity:1;stroke-miterlimit:10;" d="M 0 0 L 0 111.988281 " transform="matrix(1,0,0,-1,30.5,115.25)"/>
<path style=" stroke:none;fill-rule:nonzero;fill:rgb(13.729858%,12.159729%,12.548828%);fill-opacity:1;" d="M 30.5 3.980469 L 29.058594 4.855469 L 29.027344 4.804688 L 29.960938 2.457031 C 30.140625 1.636719 30.320312 0.820312 30.5 0 C 30.679688 0.820312 30.859375 1.636719 31.039062 2.457031 L 31.972656 4.804688 L 31.949219 4.855469 Z M 30.5 3.980469 "/>
<path style="fill:none;stroke-width:0.5;stroke-linecap:butt;stroke-linejoin:miter;stroke:rgb(13.729858%,12.159729%,12.548828%);stroke-opacity:1;stroke-miterlimit:10;" d="M 0 0 L 197.488281 0 " transform="matrix(1,0,0,-1,30.5,115.25)"/>
<g clip-path="url(#clip1)" clip-rule="nonzero">
<path style=" stroke:none;fill-rule:nonzero;fill:rgb(13.729858%,12.159729%,12.548828%);fill-opacity:1;" d="M 227.269531 115.25 L 226.394531 113.808594 L 226.445312 113.777344 L 228.792969 114.710938 C 229.613281 114.890625 230.429688 115.070312 231.25 115.25 C 230.429688 115.429688 229.613281 115.609375 228.792969 115.789062 L 226.445312 116.722656 L 226.394531 116.699219 Z M 227.269531 115.25 "/>
</g>
<g clip-path="url(#clip2)" clip-rule="nonzero">
<path style="fill:none;stroke-width:0.5;stroke-linecap:butt;stroke-linejoin:miter;stroke:rgb(13.729858%,12.159729%,12.548828%);stroke-opacity:1;stroke-miterlimit:10;" d="M 0 0 L -28.230469 -29.15625 " transform="matrix(1,0,0,-1,30.5,115.25)"/>
</g>
<g clip-path="url(#clip3)" clip-rule="nonzero">
<path style=" stroke:none;fill-rule:nonzero;fill:rgb(13.729858%,12.159729%,12.548828%);fill-opacity:1;" d="M 2.769531 143.890625 L 4.414062 144.265625 L 4.402344 144.324219 L 2.097656 145.363281 C 1.398438 145.824219 0.699219 146.289062 0 146.75 C 0.441406 146.035156 0.878906 145.324219 1.320312 144.609375 L 2.285156 142.273438 L 2.335938 142.253906 Z M 2.769531 143.890625 "/>
</g>
<path style="fill:none;stroke-width:0.5;stroke-linecap:butt;stroke-linejoin:miter;stroke:rgb(13.729858%,12.159729%,12.548828%);stroke-opacity:1;stroke-miterlimit:10;" d="M 0 0 C -15.589844 -3.53125 -23.148438 -36.652344 -15.75 -59.375 C -14.46875 -63.304688 -10.800781 -74.566406 -2.625 -76.625 C -1.9375 -76.796875 1.808594 -77.742188 4.75 -75.75 C 8.332031 -73.324219 8.519531 -68.035156 8.625 -65 C 8.949219 -55.785156 4.464844 -52.285156 7 -46.5 C 7.207031 -46.023438 8.800781 -42.382812 11.125 -42.375 C 12.6875 -42.367188 14.113281 -44.003906 14.75 -45.5 C 16.070312 -48.609375 13.664062 -50.425781 13.25 -56.25 C 13.074219 -58.722656 12.824219 -62.207031 15 -64.375 C 16.160156 -65.53125 18.1875 -66.488281 19.75 -66.125 C 24.9375 -64.925781 26.121094 -48.957031 25.5 -38.125 C 24.871094 -27.171875 23.808594 -8.578125 11.125 -2 C 9.496094 -1.152344 5.058594 1.144531 0 0 Z M 0 0 " transform="matrix(1,0,0,-1,194.625,17)"/>
<path style="fill:none;stroke-width:0.25;stroke-linecap:butt;stroke-linejoin:miter;stroke:rgb(13.729858%,12.159729%,12.548828%);stroke-opacity:1;stroke-miterlimit:10;" d="M -0.001825 0.00141875 C 0.478644 0.08345 0.963019 0.20845 1.447394 0.392044 " transform="matrix(1,0,0,-1,62.1737,93.8647)"/>
<path style="fill:none;stroke-width:0.25;stroke-linecap:butt;stroke-linejoin:miter;stroke:rgb(13.729858%,12.159729%,12.548828%);stroke-opacity:1;stroke-dasharray:3.036,3.036;stroke-miterlimit:10;" d="M 0.00130625 -0.0012875 C 2.513025 2.670588 2.669275 7.119806 2.766931 9.8034 C 3.09115 19.018244 -1.393225 22.514338 1.141931 28.3034 C 1.348962 28.779963 2.942712 32.420588 5.266931 32.4284 C 6.825525 32.436213 8.255212 30.799494 8.891931 29.3034 C 10.208337 26.194025 7.805994 24.377619 7.391931 18.5534 C 7.212244 16.080744 6.96615 12.596369 9.141931 10.4284 C 10.302087 9.27215 12.329431 8.315119 13.891931 8.6784 C 19.079431 9.877619 20.259119 25.846369 19.641931 36.6784 C 19.013025 47.635431 17.946619 66.225275 5.266931 72.8034 C 3.96615 73.475275 0.888025 75.072931 -2.865881 75.1159 " transform="matrix(1,0,0,-1,66.1276,91.8034)"/>
<path style="fill:none;stroke-width:0.25;stroke-linecap:butt;stroke-linejoin:miter;stroke:rgb(13.729858%,12.159729%,12.548828%);stroke-opacity:1;stroke-miterlimit:10;" d="M 0.0019 -0.0015125 C -0.486381 -0.0522937 -0.978569 -0.130419 -1.478569 -0.2437 " transform="matrix(1,0,0,-1,61.7481,16.7563)"/>
<path style="fill:none;stroke-width:0.5;stroke-linecap:butt;stroke-linejoin:miter;stroke:rgb(13.729858%,12.159729%,12.548828%);stroke-opacity:1;stroke-miterlimit:10;" d="M 0.00126875 -0.0013 L -134.51045 -0.016925 C -135.295606 -0.0403625 -136.07295 -0.0598937 -136.897169 -0.247394 C -152.490919 -3.778644 -160.049512 -36.899737 -152.647169 -59.622394 C -151.369825 -63.552081 -147.701856 -74.8138 -139.522169 -76.872394 C -139.123731 -76.973956 -137.432325 -77.3138 -135.647169 -77.266925 L -1.834669 -77.3138 " transform="matrix(1,0,0,-1,197.1667,16.6862)"/>
<path style="fill:none;stroke-width:0.25;stroke-linecap:butt;stroke-linejoin:miter;stroke:rgb(13.729858%,12.159729%,12.548828%);stroke-opacity:1;stroke-dasharray:3;stroke-miterlimit:10;" d="M -0.0005 0.00058125 L -123.168469 0.00058125 " transform="matrix(1,0,0,-1,203.188,83.1998)"/>
<path style="fill:none;stroke-width:0.5;stroke-linecap:butt;stroke-linejoin:miter;stroke:rgb(13.729858%,12.159729%,12.548828%);stroke-opacity:1;stroke-miterlimit:10;" d="M -0.00043125 0.00058125 L -10.4809 0.00058125 " transform="matrix(1,0,0,-1,213.6684,83.1998)"/>
<path style="fill:none;stroke-width:0.25;stroke-linecap:butt;stroke-linejoin:miter;stroke:rgb(13.729858%,12.159729%,12.548828%);stroke-opacity:1;stroke-dasharray:3;stroke-miterlimit:10;" d="M 0 0.000000000000014211 L -134.355469 0.000000000000014211 " transform="matrix(1,0,0,-1,205.75,59.375)"/>
<path style="fill:none;stroke-width:0.5;stroke-linecap:butt;stroke-linejoin:miter;stroke:rgb(13.729858%,12.159729%,12.548828%);stroke-opacity:1;stroke-dasharray:1.5;stroke-miterlimit:10;" d="M 0 0 L 0 58.40625 " transform="matrix(1,0,0,-1,155.25,116.5)"/>
<path style="fill:none;stroke-width:0.5;stroke-linecap:butt;stroke-linejoin:miter;stroke:rgb(13.729858%,12.159729%,12.548828%);stroke-opacity:1;stroke-dasharray:1.5;stroke-miterlimit:10;" d="M 0.00126875 0 L 0.00126875 22.5 " transform="matrix(1,0,0,-1,197.1667,116.5)"/>
<path style="fill:none;stroke-width:0.5;stroke-linecap:butt;stroke-linejoin:miter;stroke:rgb(13.729858%,12.159729%,12.548828%);stroke-opacity:1;stroke-dasharray:1.5;stroke-miterlimit:10;" d="M 0.00145 0 L 0.00145 22.5 " transform="matrix(1,0,0,-1,62.6548,116.5)"/>
<path style="fill:none;stroke-width:0.5;stroke-linecap:butt;stroke-linejoin:miter;stroke:rgb(13.729858%,12.159729%,12.548828%);stroke-opacity:1;stroke-dasharray:1.5;stroke-miterlimit:10;" d="M 0 0 L 0 58.34375 " transform="matrix(1,0,0,-1,107.3125,116.5)"/>
<path style=" stroke:none;fill-rule:nonzero;fill:rgb(65.492249%,64.863586%,65.019226%);fill-opacity:1;" d="M 159.785156 46.5625 C 159.785156 52.433594 157.753906 57.191406 155.25 57.191406 C 152.746094 57.191406 150.714844 52.433594 150.714844 46.5625 C 150.714844 40.691406 152.746094 35.933594 155.25 35.933594 C 157.753906 35.933594 159.785156 40.691406 159.785156 46.5625 "/>
<path style="fill:none;stroke-width:0.25;stroke-linecap:butt;stroke-linejoin:miter;stroke:rgb(30.984497%,29.728699%,30.039978%);stroke-opacity:1;stroke-miterlimit:10;" d="M -0.00024375 0 C -0.00024375 -5.871094 -2.031494 -10.628906 -4.5354 -10.628906 C -7.039306 -10.628906 -9.070556 -5.871094 -9.070556 0 C -9.070556 5.871094 -7.039306 10.628906 -4.5354 10.628906 C -2.031494 10.628906 -0.00024375 5.871094 -0.00024375 0 Z M -0.00024375 0 " transform="matrix(1,0,0,-1,159.7854,46.5625)"/>
<g clip-path="url(#clip4)" clip-rule="nonzero">
<g clip-path="url(#clip5)" clip-rule="nonzero">
<path style=" stroke:none;fill-rule:nonzero;fill:url(#linear0);" d="M 102.777344 57.191406 L 155.25 57.191406 L 155.25 35.933594 L 102.777344 35.933594 Z M 102.777344 57.191406 "/>
</g>
</g>
<path style="fill:none;stroke-width:0.25;stroke-linecap:butt;stroke-linejoin:miter;stroke:rgb(30.984497%,29.728699%,30.039978%);stroke-opacity:1;stroke-miterlimit:10;" d="M 0 0.00099375 L -47.9375 0.00099375 C -50.441406 0.00099375 -52.472656 4.758806 -52.472656 10.6299 C -52.472656 16.500994 -50.441406 21.258806 -47.9375 21.258806 L 0 21.258806 C -2.503906 21.258806 -4.535156 16.500994 -4.535156 10.6299 C -4.535156 4.758806 -2.503906 0.00099375 0 0.00099375 Z M 0 0.00099375 " transform="matrix(1,0,0,-1,155.25,57.1924)"/>
<path style="fill:none;stroke-width:0.25;stroke-linecap:butt;stroke-linejoin:miter;stroke:rgb(30.984497%,29.728699%,30.039978%);stroke-opacity:1;stroke-dasharray:1;stroke-miterlimit:10;" d="M 0 -0.00099375 C 2.503906 -0.00099375 4.535156 -4.758806 4.535156 -10.6299 C 4.535156 -16.500994 2.503906 -21.258806 0 -21.258806 " transform="matrix(1,0,0,-1,107.3125,35.9326)"/>
<path style=" stroke:none;fill-rule:nonzero;fill:rgb(30.984497%,29.728699%,30.039978%);fill-opacity:1;" d="M 132.183594 46.5625 C 132.183594 46.09375 131.800781 45.710938 131.332031 45.710938 C 130.863281 45.710938 130.484375 46.09375 130.484375 46.5625 C 130.484375 47.03125 130.863281 47.414062 131.332031 47.414062 C 131.800781 47.414062 132.183594 47.03125 132.183594 46.5625 "/>
<g clip-path="url(#clip6)" clip-rule="nonzero">
<path style=" stroke:none;fill-rule:nonzero;fill:rgb(13.729858%,12.159729%,12.548828%);fill-opacity:1;" d="M 202.328125 35.71875 C 202.328125 34.542969 201.210938 33.851562 199.933594 33.851562 C 197.722656 33.851562 196.390625 35.398438 196.390625 36.4375 C 196.472656 37.472656 197.507812 38.058594 197.507812 39.203125 L 197.507812 39.363281 C 196.765625 39.335938 196.152344 39.097656 196.152344 38.511719 L 196.152344 38.351562 L 196.019531 38.351562 L 195.566406 40.082031 L 197.777344 40.082031 C 197.828125 39.65625 197.988281 39.445312 197.988281 39.042969 C 197.988281 38.167969 197.242188 37.339844 197.242188 36.542969 C 197.242188 35.796875 198.070312 34.332031 199.851562 34.332031 C 200.679688 34.332031 201.449219 34.945312 201.449219 35.742188 C 201.449219 37.074219 200.09375 37.6875 199.371094 38.910156 C 199.160156 39.230469 199.054688 39.628906 199 40.082031 L 201.183594 40.082031 L 201.582031 38.351562 L 201.449219 38.351562 C 201.15625 39.285156 199.90625 39.363281 199.613281 39.363281 C 200.117188 37.953125 202.328125 37.15625 202.328125 35.71875 "/>
</g>
<g clip-path="url(#clip7)" clip-rule="nonzero">
<path style=" stroke:none;fill-rule:nonzero;fill:rgb(13.729858%,12.159729%,12.548828%);fill-opacity:1;" d="M 63.789062 122.480469 L 63.65625 122.402344 C 63.339844 122.828125 63.125 123.039062 62.992188 123.039062 C 62.910156 123.039062 62.886719 122.960938 62.886719 122.828125 C 62.886719 122.722656 62.886719 122.589844 62.9375 122.429688 L 63.765625 119.257812 L 63.125 119.367188 L 63.019531 119.84375 C 62.9375 119.5 62.617188 119.257812 62.273438 119.257812 C 61.101562 119.257812 59.691406 121.015625 59.691406 122.429688 C 59.691406 122.828125 59.824219 123.492188 60.542969 123.492188 C 61.207031 123.492188 61.925781 122.933594 62.378906 122.109375 C 62.246094 122.429688 62.167969 122.90625 62.167969 123.066406 C 62.167969 123.253906 62.273438 123.492188 62.539062 123.492188 C 62.910156 123.492188 63.339844 123.171875 63.789062 122.480469 M 62.859375 120.109375 C 62.859375 120.910156 62.007812 123.015625 60.96875 123.015625 C 60.753906 123.015625 60.4375 122.878906 60.4375 122.347656 C 60.4375 121.496094 61.316406 119.472656 62.300781 119.472656 C 62.539062 119.472656 62.859375 119.605469 62.859375 120.109375 "/>
</g>
<g clip-path="url(#clip8)" clip-rule="nonzero">
<path style=" stroke:none;fill-rule:nonzero;fill:rgb(13.729858%,12.159729%,12.548828%);fill-opacity:1;" d="M 198.816406 122.429688 C 198.816406 121.605469 198.285156 121.257812 197.726562 121.257812 C 196.980469 121.257812 196.421875 121.953125 196.15625 122.351562 L 197.113281 118.914062 C 197.113281 118.914062 195.886719 119.128906 195.648438 119.15625 L 195.648438 119.316406 C 195.996094 119.316406 196.234375 119.367188 196.234375 119.636719 C 196.234375 119.820312 196.128906 120.167969 196.074219 120.378906 L 194.769531 124.988281 C 194.875 125.148438 195.488281 125.492188 196.046875 125.492188 C 197.753906 125.492188 198.816406 123.816406 198.816406 122.429688 M 198.070312 122.671875 C 198.070312 124.242188 197.035156 125.308594 196.101562 125.308594 C 195.835938 125.308594 195.570312 125.199219 195.410156 125.039062 C 195.621094 124.214844 196.261719 121.683594 197.40625 121.683594 C 198.019531 121.683594 198.070312 122.191406 198.070312 122.671875 "/>
</g>
<path style=" stroke:none;fill-rule:nonzero;fill:rgb(13.729858%,12.159729%,12.548828%);fill-opacity:1;" d="M 99.363281 121.4375 L 98.671875 121.4375 L 98.964844 120.34375 L 98.832031 120.34375 C 98.40625 120.984375 97.898438 121.410156 97.285156 121.542969 L 97.261719 121.730469 L 97.925781 121.730469 L 97.179688 124.445312 C 97.152344 124.632812 97.046875 125.003906 97.046875 125.136719 C 97.046875 125.484375 97.285156 125.589844 97.445312 125.589844 C 97.871094 125.589844 98.300781 125.296875 98.75 124.527344 L 98.617188 124.472656 C 98.40625 124.738281 98.113281 125.136719 97.871094 125.136719 C 97.765625 125.136719 97.738281 125.058594 97.738281 125.003906 C 97.738281 124.953125 97.738281 124.898438 97.792969 124.738281 L 98.59375 121.730469 L 99.3125 121.730469 L 99.363281 121.4375 "/>
<path style=" stroke:none;fill-rule:nonzero;fill:rgb(13.729858%,12.159729%,12.548828%);fill-opacity:1;" d="M 102.640625 124.6875 C 102.640625 123.566406 102.132812 122.554688 101.148438 122.554688 C 100.136719 122.554688 99.628906 123.566406 99.628906 124.6875 C 99.628906 125.832031 100.136719 126.84375 101.148438 126.84375 C 102.105469 126.84375 102.640625 125.832031 102.640625 124.6875 M 101.867188 124.6875 C 101.867188 125.566406 101.652344 126.601562 101.121094 126.601562 C 100.480469 126.601562 100.402344 125.566406 100.402344 124.6875 C 100.402344 123.96875 100.457031 122.792969 101.148438 122.792969 C 101.8125 122.792969 101.867188 123.96875 101.867188 124.6875 "/>
<path style=" stroke:none;fill-rule:nonzero;fill:rgb(13.729858%,12.159729%,12.548828%);fill-opacity:1;" d="M 105.914062 123.433594 L 111.425781 123.433594 L 111.425781 122.980469 L 105.914062 122.980469 Z M 105.914062 123.433594 "/>
<path style=" stroke:none;fill-rule:nonzero;fill:rgb(13.729858%,12.159729%,12.548828%);fill-opacity:1;" d="M 117.550781 119.917969 C 117.550781 119.386719 117.070312 119.015625 116.378906 119.015625 C 115.660156 119.015625 115.261719 119.546875 115.261719 120.050781 C 115.261719 120.691406 115.847656 121.492188 116.007812 121.730469 C 114.515625 122.34375 114.195312 123.675781 114.195312 124.234375 C 114.195312 125.164062 114.78125 125.589844 115.472656 125.589844 C 116.351562 125.589844 117.335938 124.820312 117.335938 123.433594 C 117.335938 121.96875 116.113281 120.957031 115.792969 120.34375 C 115.714844 120.183594 115.6875 120.050781 115.6875 119.917969 C 115.6875 119.464844 116.085938 119.253906 116.433594 119.253906 C 116.777344 119.253906 117.042969 119.414062 117.042969 119.679688 C 117.042969 119.917969 116.671875 119.972656 116.671875 120.320312 C 116.671875 120.503906 116.832031 120.664062 117.015625 120.664062 C 117.285156 120.664062 117.550781 120.34375 117.550781 119.917969 M 116.671875 123.515625 C 116.671875 124.660156 115.898438 125.296875 115.421875 125.296875 C 115.101562 125.296875 114.808594 124.925781 114.808594 124.285156 C 114.78125 123.566406 115.207031 122.503906 116.140625 121.917969 L 116.273438 122.128906 C 116.566406 122.554688 116.671875 122.929688 116.671875 123.515625 "/>
<path style=" stroke:none;fill-rule:nonzero;fill:rgb(13.729858%,12.159729%,12.548828%);fill-opacity:1;" d="M 146.363281 121.4375 L 145.671875 121.4375 L 145.964844 120.34375 L 145.832031 120.34375 C 145.40625 120.984375 144.898438 121.410156 144.285156 121.542969 L 144.261719 121.730469 L 144.925781 121.730469 L 144.179688 124.445312 C 144.152344 124.632812 144.046875 125.003906 144.046875 125.136719 C 144.046875 125.484375 144.285156 125.589844 144.445312 125.589844 C 144.871094 125.589844 145.300781 125.296875 145.75 124.527344 L 145.617188 124.472656 C 145.40625 124.738281 145.113281 125.136719 144.871094 125.136719 C 144.765625 125.136719 144.738281 125.058594 144.738281 125.003906 C 144.738281 124.953125 144.738281 124.898438 144.792969 124.738281 L 145.59375 121.730469 L 146.3125 121.730469 L 146.363281 121.4375 "/>
<path style=" stroke:none;fill-rule:nonzero;fill:rgb(13.729858%,12.159729%,12.548828%);fill-opacity:1;" d="M 149.640625 124.6875 C 149.640625 123.566406 149.132812 122.554688 148.148438 122.554688 C 147.136719 122.554688 146.628906 123.566406 146.628906 124.6875 C 146.628906 125.832031 147.136719 126.84375 148.148438 126.84375 C 149.105469 126.84375 149.640625 125.832031 149.640625 124.6875 M 148.867188 124.6875 C 148.867188 125.566406 148.652344 126.601562 148.121094 126.601562 C 147.480469 126.601562 147.402344 125.566406 147.402344 124.6875 C 147.402344 123.96875 147.457031 122.792969 148.148438 122.792969 C 148.8125 122.792969 148.867188 123.96875 148.867188 124.6875 "/>
<path style=" stroke:none;fill-rule:nonzero;fill:rgb(13.729858%,12.159729%,12.548828%);fill-opacity:1;" d="M 159.199219 123.433594 L 159.199219 122.980469 L 156.402344 122.980469 L 156.402344 120.183594 L 155.949219 120.183594 L 155.949219 122.980469 L 153.179688 122.980469 L 153.179688 123.433594 L 155.949219 123.433594 L 155.949219 126.203125 L 156.402344 126.203125 L 156.402344 123.433594 Z M 159.199219 123.433594 "/>
<path style=" stroke:none;fill-rule:nonzero;fill:rgb(13.729858%,12.159729%,12.548828%);fill-opacity:1;" d="M 165.535156 119.917969 C 165.535156 119.386719 165.058594 119.015625 164.363281 119.015625 C 163.671875 119.015625 163.273438 119.546875 163.273438 120.050781 C 163.273438 120.691406 163.859375 121.492188 164.019531 121.730469 C 162.5 122.34375 162.207031 123.675781 162.207031 124.234375 C 162.207031 125.164062 162.792969 125.589844 163.484375 125.589844 C 164.335938 125.589844 165.324219 124.820312 165.324219 123.433594 C 165.324219 121.96875 164.097656 120.957031 163.777344 120.34375 C 163.699219 120.183594 163.671875 120.050781 163.671875 119.917969 C 163.671875 119.464844 164.070312 119.253906 164.445312 119.253906 C 164.765625 119.253906 165.058594 119.414062 165.058594 119.679688 C 165.058594 119.917969 164.65625 119.972656 164.65625 120.320312 C 164.65625 120.503906 164.816406 120.664062 165.03125 120.664062 C 165.269531 120.664062 165.535156 120.34375 165.535156 119.917969 M 164.65625 123.515625 C 164.65625 124.660156 163.882812 125.296875 163.433594 125.296875 C 163.113281 125.296875 162.792969 124.925781 162.792969 124.285156 C 162.792969 123.566406 163.21875 122.503906 164.152344 121.917969 L 164.285156 122.128906 C 164.550781 122.554688 164.65625 122.929688 164.65625 123.515625 "/>
</g>
</svg>
