<svg xmlns="http://www.w3.org/2000/svg" xmlns:xlink="http://www.w3.org/1999/xlink" width="267.249" height="96.752" viewBox="0 0 200.437 72.564">
  <defs>
    <symbol overflow="visible" id="b">
      <path d="M3.203 1.922v-.156C2.11 1.126 1.61-.14 1.61-2.266c0-2.11.5-3.343 1.593-4.015v-.157C1.656-5.641.75-4.11.75-2.268c0 1.876.875 3.33 2.453 4.19zm0 0"/>
    </symbol>
    <symbol overflow="visible" id="c">
      <path d="M4.234-2.953c0-1.61-.734-3.063-1.984-3.063-1.266 0-2 1.454-2 3.063C.25-1.328.938.11 2.25.11c1.203 0 1.984-1.438 1.984-3.063zm-.86 0C3.375-1.656 3.25-.14 2.25-.14c-.953 0-1.14-1.516-1.14-2.813 0-1.078.124-2.828 1.14-2.828 1 0 1.125 1.75 1.125 2.827zm0 0"/>
    </symbol>
    <symbol overflow="visible" id="d">
      <path d="M1.797-.11c0-.578-.36-.765-.563-.765-.14 0-.515.078-.515.5 0 .344.28.453.436.453.078 0 .094-.047.172-.047.047 0 .14.064.14.22 0 .125-.03.453-.593.86v.187c.47-.313.922-.797.922-1.406zm0 0"/>
    </symbol>
    <symbol overflow="visible" id="e">
      <path d="M2.594-2.25c0-1.86-.875-3.313-2.453-4.188v.172c1.094.64 1.594 1.89 1.594 4.016 0 2.11-.5 3.36-1.593 4.016v.156C1.688 1.142 2.595-.39 2.595-2.25zm0 0"/>
    </symbol>
    <symbol overflow="visible" id="j">
      <path d="M3.484 0v-.14c-.593 0-.812.015-.812-1.157v-4.75h-.125l-1.53.734.046.14c.328-.14.406-.17.53-.17.266 0 .313.234.313.546v3.5c0 1.172-.218 1.14-.812 1.156V0zm0 0"/>
    </symbol>
    <symbol overflow="visible" id="f">
      <path d="M3.422 10.344v-.14c-1.203-1.032-1.5-3.673-1.5-5.235 0-1.564.297-4.204 1.5-5.236v-.14C2.11.374.984 2.563.984 4.97c0 2.405 1.125 4.593 2.438 5.374zm0 0"/>
    </symbol>
    <symbol overflow="visible" id="i">
      <path d="M2.625 4.97C2.625 2.562 1.5.374.187-.407v.14c1.204 1.032 1.5 3.672 1.5 5.235 0 1.56-.296 4.202-1.5 5.233v.14C1.5 9.564 2.626 7.376 2.626 4.97zm0 0"/>
    </symbol>
    <symbol overflow="visible" id="g">
      <path d="M3.156 0v-.188c-.53 0-.703 0-.703-.843v-3.673H2.28L.94-4.125l.078.188c.312-.126.375-.14.468-.14.204 0 .22.17.22.374v2.672c0 .843-.157.827-.688.843V0zm0 0"/>
    </symbol>
    <symbol overflow="visible" id="h">
      <path d="M3.813-.97L3.592-1c-.234.36-.42.422-.765.422H1.172c1.187-.985 2.25-1.875 2.25-2.844 0-.734-.703-1.25-1.47-1.25-.764 0-1.374.36-1.608 1.375h.25c.22-.39.5-.78 1.078-.78.64 0 1 .42 1 .92 0 .735-.89 1.798-2.406 2.985V0H3.36zm0 0"/>
    </symbol>
    <clipPath id="a">
      <path d="M196 49h4.438v4H196zm0 0"/>
    </clipPath>
  </defs>
  <path d="M13.148 51.223h184.7" fill="none" stroke-width=".399" stroke="#000" stroke-miterlimit="10"/>
  <g clip-path="url(#a)">
    <path d="M200.238 51.223c-.996-.2-2.79-.598-3.984-1.493.996 1.094.996 1.89 0 2.99 1.195-.9 2.988-1.298 3.984-1.497zm0 0"/>
  </g>
  <path d="M13.148 51.223V2.59" fill="none" stroke-width=".399" stroke="#000" stroke-miterlimit="10"/>
  <path d="M13.148.2c-.2.995-.597 2.788-1.492 3.984 1.094-.997 1.89-.997 2.99 0-.9-1.196-1.298-2.99-1.498-3.985zm0 0"/>
  <path d="M13.148 51.223c27.07-21.258 54.004-42.52 85.043-42.52 31.037 0 57.97 21.262 85.04 42.52" fill="none" stroke-width=".797" stroke="#000" stroke-miterlimit="10"/>
  <path d="M13.148 51.223c27.07-10.63 54.004-21.258 85.043-21.258 31.037 0 57.97 10.63 85.04 21.258" fill="none" stroke-width=".797" stroke="#000" stroke-miterlimit="10"/>
  <path d="M13.148 51.223c27.07-5.313 54.004-10.63 85.043-10.63 31.037 0 57.97 5.317 85.04 10.63" fill="none" stroke-width=".797" stroke="#000" stroke-miterlimit="10"/>
  <path d="M13.148 51.223c27.07-2.657 54.004-5.313 85.043-5.313 31.037 0 57.97 2.656 85.04 5.313" fill="none" stroke-width=".797" stroke="#000" stroke-miterlimit="10"/>
  <path d="M13.148 54.21v-2.987M98.19 54.21v-2.987M183.23 54.21v-2.987" fill="none" stroke-width=".399" stroke="#000" stroke-miterlimit="10"/>
  <use xlink:href="#b" x="3.32" y="64.16"/>
  <use xlink:href="#c" x="6.664" y="64.16"/>
  <use xlink:href="#d" x="11.148" y="64.16"/>
  <use xlink:href="#c" x="15.156" y="64.16"/>
  <use xlink:href="#e" x="19.639" y="64.16"/>
  <use xlink:href="#f" x="87.093" y="58.83"/>
  <use xlink:href="#g" x="91.902" y="62.439"/>
  <path d="M91.902 63.8h4.086" fill="none" stroke-width=".412" stroke="#000" stroke-miterlimit="10"/>
  <use xlink:href="#h" x="91.902" y="69.244"/>
  <use xlink:href="#d" x="97.184" y="66.061"/>
  <use xlink:href="#c" x="101.192" y="66.061"/>
  <use xlink:href="#i" x="105.672" y="58.83"/>
  <use xlink:href="#b" x="173.398" y="64.16"/>
  <use xlink:href="#j" x="176.742" y="64.16"/>
  <use xlink:href="#d" x="181.226" y="64.16"/>
  <use xlink:href="#c" x="185.234" y="64.16"/>
  <use xlink:href="#e" x="189.717" y="64.16"/>
  <path d="M99.188 51.223c0-.55-.446-.996-.997-.996-.55 0-.995.445-.995.996 0 .55.446.996.996.996.552 0 .998-.447.998-.997zm0 0" fill="#FFF" stroke-width=".399" stroke="#000" stroke-miterlimit="10"/>
  <path d="M99.188 51.223c0-.55-.446-.996-.997-.996-.55 0-.995.445-.995.996 0 .55.446.996.996.996.552 0 .998-.447.998-.997zm0 0" fill="#FFF" stroke-width=".399" stroke="#000" stroke-miterlimit="10"/>
  <path d="M99.188 51.223c0-.55-.446-.996-.997-.996-.55 0-.995.445-.995.996 0 .55.446.996.996.996.552 0 .998-.447.998-.997zm0 0" fill="#FFF" stroke-width=".399" stroke="#000" stroke-miterlimit="10"/>
  <path d="M99.188 51.223c0-.55-.446-.996-.997-.996-.55 0-.995.445-.995.996 0 .55.446.996.996.996.552 0 .998-.447.998-.997zm0 0" fill="#FFF" stroke-width=".399" stroke="#000" stroke-miterlimit="10"/>
  <path d="M99.188 51.223c0-.55-.446-.996-.997-.996-.55 0-.995.445-.995.996 0 .55.446.996.996.996.552 0 .998-.447.998-.997zm0 0" fill="#FFF" stroke-width=".399" stroke="#000" stroke-miterlimit="10"/>
  <path d="M99.188 51.223c0-.55-.446-.996-.997-.996-.55 0-.995.445-.995.996 0 .55.446.996.996.996.552 0 .998-.447.998-.997zm0 0" fill="#FFF" stroke-width=".399" stroke="#000" stroke-miterlimit="10"/>
  <path d="M99.188 51.223c0-.55-.446-.996-.997-.996-.55 0-.995.445-.995.996 0 .55.446.996.996.996.552 0 .998-.447.998-.997zm0 0" fill="#FFF" stroke-width=".399" stroke="#000" stroke-miterlimit="10"/>
  <path d="M99.188 51.223c0-.55-.446-.996-.997-.996-.55 0-.995.445-.995.996 0 .55.446.996.996.996.552 0 .998-.447.998-.997zm0 0" fill="#FFF" stroke-width=".399" stroke="#000" stroke-miterlimit="10"/>
  <path d="M99.188 51.223c0-.55-.446-.996-.997-.996-.55 0-.995.445-.995.996 0 .55.446.996.996.996.552 0 .998-.447.998-.997zm0 0" fill="#FFF" stroke-width=".399" stroke="#000" stroke-miterlimit="10"/>
  <path d="M99.188 51.223c0-.55-.446-.996-.997-.996-.55 0-.995.445-.995.996 0 .55.446.996.996.996.552 0 .998-.447.998-.997zm0 0" fill="#FFF" stroke-width=".399" stroke="#000" stroke-miterlimit="10"/>
  <path d="M99.188 51.223c0-.55-.446-.996-.997-.996-.55 0-.995.445-.995.996 0 .55.446.996.996.996.552 0 .998-.447.998-.997zm0 0" fill="#FFF" stroke-width=".399" stroke="#000" stroke-miterlimit="10"/>
  <path d="M99.188 51.223c0-.55-.446-.996-.997-.996-.55 0-.995.445-.995.996 0 .55.446.996.996.996.552 0 .998-.447.998-.997zm0 0" fill="#FFF" stroke-width=".399" stroke="#000" stroke-miterlimit="10"/>
  <path d="M99.188 51.223c0-.55-.446-.996-.997-.996-.55 0-.995.445-.995.996 0 .55.446.996.996.996.552 0 .998-.447.998-.997zm0 0" fill="#FFF" stroke-width=".399" stroke="#000" stroke-miterlimit="10"/>
  <path d="M99.188 51.223c0-.55-.446-.996-.997-.996-.55 0-.995.445-.995.996 0 .55.446.996.996.996.552 0 .998-.447.998-.997zm0 0" fill="#FFF" stroke-width=".399" stroke="#000" stroke-miterlimit="10"/>
  <path d="M99.188 51.223c0-.55-.446-.996-.997-.996-.55 0-.995.445-.995.996 0 .55.446.996.996.996.552 0 .998-.447.998-.997zm0 0" fill="#FFF" stroke-width=".399" stroke="#000" stroke-miterlimit="10"/>
  <path d="M99.188 51.223c0-.55-.446-.996-.997-.996-.55 0-.995.445-.995.996 0 .55.446.996.996.996.552 0 .998-.447.998-.997zm0 0" fill="#FFF" stroke-width=".399" stroke="#000" stroke-miterlimit="10"/>
  <path d="M99.188 51.223c0-.55-.446-.996-.997-.996-.55 0-.995.445-.995.996 0 .55.446.996.996.996.552 0 .998-.447.998-.997zm0 0" fill="#FFF" stroke-width=".399" stroke="#000" stroke-miterlimit="10"/>
  <path d="M99.188 51.223c0-.55-.446-.996-.997-.996-.55 0-.995.445-.995.996 0 .55.446.996.996.996.552 0 .998-.447.998-.997zm0 0" fill="#FFF" stroke-width=".399" stroke="#000" stroke-miterlimit="10"/>
  <path d="M99.188 51.223c0-.55-.446-.996-.997-.996-.55 0-.995.445-.995.996 0 .55.446.996.996.996.552 0 .998-.447.998-.997zm0 0" fill="#FFF" stroke-width=".399" stroke="#000" stroke-miterlimit="10"/>
  <path d="M99.188 51.223c0-.55-.446-.996-.997-.996-.55 0-.995.445-.995.996 0 .55.446.996.996.996.552 0 .998-.447.998-.997zm0 0" fill="#FFF" stroke-width=".399" stroke="#000" stroke-miterlimit="10"/>
  <path d="M99.188 51.223c0-.55-.446-.996-.997-.996-.55 0-.995.445-.995.996 0 .55.446.996.996.996.552 0 .998-.447.998-.997zm0 0" fill="#FFF" stroke-width=".399" stroke="#000" stroke-miterlimit="10"/>
  <path d="M99.188 51.223c0-.55-.446-.996-.997-.996-.55 0-.995.445-.995.996 0 .55.446.996.996.996.552 0 .998-.447.998-.997zm0 0" fill="#FFF" stroke-width=".399" stroke="#000" stroke-miterlimit="10"/>
  <path d="M99.188 51.223c0-.55-.446-.996-.997-.996-.55 0-.995.445-.995.996 0 .55.446.996.996.996.552 0 .998-.447.998-.997zm0 0" fill="#FFF" stroke-width=".399" stroke="#000" stroke-miterlimit="10"/>
  <path d="M99.188 51.223c0-.55-.446-.996-.997-.996-.55 0-.995.445-.995.996 0 .55.446.996.996.996.552 0 .998-.447.998-.997zm0 0" fill="#FFF" stroke-width=".399" stroke="#000" stroke-miterlimit="10"/>
  <path d="M99.188 51.223c0-.55-.446-.996-.997-.996-.55 0-.995.445-.995.996 0 .55.446.996.996.996.552 0 .998-.447.998-.997zm0 0" fill="#FFF" stroke-width=".399" stroke="#000" stroke-miterlimit="10"/>
</svg>
