<svg xmlns="http://www.w3.org/2000/svg" xmlns:xlink="http://www.w3.org/1999/xlink" width="361.211" height="118.649" viewBox="0 0 270.908 88.987"><defs><symbol overflow="visible" id="b"><path d="M6.203-4.688c0-.843-.672-1.36-1.844-1.36H2.093l-.03.142c.28 0 .686.03.686.437 0 .126-.03.267-.125.595L1.562-1.047c-.25.906-.562.89-.92.89L.608 0h2.765C5 0 5.72-1.03 5.72-1.828c0-.547-.345-1.125-1.126-1.406.89-.125 1.61-.672 1.61-1.454zm-.937-.11c0 .673-.563 1.44-1.5 1.44H3.11l.656-2.408h.437c.734 0 1.063.47 1.063.97zM4.734-1.89c0 .765-.593 1.593-1.812 1.593h-.61l.704-2.765h.546c.782 0 1.172.562 1.172 1.17zm0 0"/></symbol><symbol overflow="visible" id="d"><path d="M3.203 1.922v-.156C2.11 1.126 1.61-.14 1.61-2.266c0-2.11.5-3.343 1.593-4.015v-.157C1.656-5.641.75-4.11.75-2.268c0 1.876.875 3.33 2.453 4.19zm0 0"/></symbol><symbol overflow="visible" id="e"><path d="M4.234-2.953c0-1.61-.734-3.063-1.984-3.063-1.266 0-2 1.454-2 3.063C.25-1.328.938.11 2.25.11c1.203 0 1.984-1.438 1.984-3.063zm-.86 0C3.375-1.656 3.25-.14 2.25-.14c-.953 0-1.14-1.516-1.14-2.813 0-1.078.124-2.828 1.14-2.828 1 0 1.125 1.75 1.125 2.827zm0 0"/></symbol><symbol overflow="visible" id="f"><path d="M1.797-.11c0-.578-.36-.765-.563-.765-.14 0-.515.078-.515.5 0 .344.28.453.436.453.078 0 .094-.047.172-.047.047 0 .14.064.14.22 0 .125-.03.453-.593.86v.187c.47-.313.922-.797.922-1.406zm0 0"/></symbol><symbol overflow="visible" id="g"><path d="M3.484 0v-.14c-.593 0-.812.015-.812-1.157v-4.75h-.125l-1.53.734.046.14c.328-.14.406-.17.53-.17.266 0 .313.234.313.546v3.5c0 1.172-.218 1.14-.812 1.156V0zm0 0"/></symbol><symbol overflow="visible" id="h"><path d="M2.594-2.25c0-1.86-.875-3.313-2.453-4.188v.172c1.094.64 1.594 1.89 1.594 4.016 0 2.11-.5 3.36-1.593 4.016v.156C1.688 1.142 2.595-.39 2.595-2.25zm0 0"/></symbol><symbol overflow="visible" id="c"><path d="M3.156 0v-.188c-.53 0-.703 0-.703-.843v-3.673H2.28L.94-4.125l.078.188c.312-.126.375-.14.468-.14.204 0 .22.17.22.374v2.672c0 .843-.157.827-.688.843V0zm0 0"/></symbol><symbol overflow="visible" id="i"><path d="M3.813-.97L3.592-1c-.234.36-.42.422-.765.422H1.172c1.187-.985 2.25-1.875 2.25-2.844 0-.734-.703-1.25-1.47-1.25-.764 0-1.374.36-1.608 1.375h.25c.22-.39.5-.78 1.078-.78.64 0 1 .42 1 .92 0 .735-.89 1.798-2.406 2.985V0H3.36zm0 0"/></symbol><symbol overflow="visible" id="j"><path d="M7.39-1.672c0-1.156-.765-1.75-1.562-1.75-.875 0-1.578.97-1.812 1.25-.266-.344-.922-1.25-1.985-1.25C.923-3.422.423-2.375.423-1.656.422-.766 1 .078 1.984.078c.89 0 1.5-.906 1.782-1.266C4.03-.828 4.78.08 5.75.08c.97 0 1.64-.89 1.64-1.75zm-.312 0c0 .406-.344 1.078-1.125 1.078-.875 0-1.516-1-1.687-1.25.265-.343.86-1.218 1.625-1.218.47 0 1.188.484 1.188 1.39zm-3.53.14c-.314.376-.876 1.25-1.61 1.25C1.5-.28.75-.718.75-1.64c0-.5.406-1.108 1.078-1.108.875 0 1.47.875 1.72 1.22zm0 0"/></symbol><clipPath id="a"><path d="M267 35h3.906v4H267zm0 0"/></clipPath></defs><path d="M163.094 36.95c0-15.657-12.692-28.348-28.348-28.348-15.656 0-28.348 12.69-28.348 28.347 0 15.655 12.692 28.347 28.348 28.347 15.656 0 28.348-12.692 28.348-28.348zm0 0M63.88 36.95L35.53 8.6 7.185 36.95 35.53 65.296zm0 0M205.613 8.602v56.695h56.692V8.602zm0 0" fill="#DFDFDF" stroke-width=".399" stroke="#000" stroke-dasharray="2.98883,2.98883" stroke-miterlimit="10"/><path d="M99.313 36.95h70.25" fill="none" stroke-width=".199" stroke="#000" stroke-miterlimit="10"/><path d="M171.598 36.95c-.848-.17-2.37-.51-3.39-1.27.847.93.847 1.61 0 2.54 1.02-.763 2.542-1.1 3.39-1.27zm0 0"/><path d="M134.746 72.383V2.133" fill="none" stroke-width=".199" stroke="#000" stroke-miterlimit="10"/><path d="M134.746.098c-.172.847-.508 2.37-1.27 3.39.93-.847 1.606-.847 2.54 0-.762-1.02-1.102-2.543-1.27-3.39zm0 0"/><path d="M.098 36.95h70.254" fill="none" stroke-width=".199" stroke="#000" stroke-miterlimit="10"/><path d="M72.383 36.95c-.848-.17-2.37-.51-3.387-1.27.844.93.844 1.61 0 2.54 1.016-.763 2.54-1.1 3.387-1.27zm0 0"/><path d="M35.53 72.383V2.133" fill="none" stroke-width=".199" stroke="#000" stroke-miterlimit="10"/><path d="M35.53.098c-.167.847-.507 2.37-1.268 3.39.93-.847 1.61-.847 2.54 0-.763-1.02-1.103-2.543-1.27-3.39zm0 0"/><path d="M198.523 36.95h70.254" fill="none" stroke-width=".199" stroke="#000" stroke-miterlimit="10"/><g clip-path="url(#a)"><path d="M270.81 36.95c-.845-.17-2.373-.51-3.388-1.27.848.93.848 1.61 0 2.54 1.015-.763 2.543-1.1 3.387-1.27zm0 0"/></g><path d="M233.957 72.383V2.133" fill="none" stroke-width=".199" stroke="#000" stroke-miterlimit="10"/><path d="M233.957.098c-.168.847-.508 2.37-1.27 3.39.934-.847 1.61-.847 2.543 0-.76-1.02-1.1-2.543-1.273-3.39zm0 0"/><use xlink:href="#b" x="20.209" y="83.748"/><use xlink:href="#c" x="26.611" y="85.178"/><use xlink:href="#d" x="31.196" y="83.748"/><use xlink:href="#e" x="34.54" y="83.748"/><use xlink:href="#f" x="39.024" y="83.748"/><use xlink:href="#g" x="43.032" y="83.748"/><use xlink:href="#h" x="47.515" y="83.748"/><use xlink:href="#b" x="119.422" y="83.748"/><use xlink:href="#i" x="125.824" y="85.178"/><use xlink:href="#d" x="130.408" y="83.748"/><use xlink:href="#e" x="133.752" y="83.748"/><use xlink:href="#f" x="138.236" y="83.748"/><g><use xlink:href="#g" x="142.244" y="83.748"/><use xlink:href="#h" x="146.727" y="83.748"/></g><g><use xlink:href="#b" x="216.765" y="83.748"/></g><g><use xlink:href="#j" x="223.167" y="85.093"/></g><g><use xlink:href="#d" x="231.49" y="83.748"/><use xlink:href="#e" x="234.834" y="83.748"/><use xlink:href="#f" x="239.318" y="83.748"/></g><g><use xlink:href="#g" x="243.326" y="83.748"/><use xlink:href="#h" x="247.809" y="83.748"/></g></svg>