<svg xmlns="http://www.w3.org/2000/svg" xmlns:xlink="http://www.w3.org/1999/xlink" width="269pt" height="68pt" viewBox="0 0 269 68"><defs><symbol overflow="visible" id="a"><path d="M5.063-4.094c-.5.11-.89.14-1.204.14-.61 0-.938-.14-1.438-.14C1.142-4.094.22-2.656.22-1.422c0 .875.686 1.53 1.56 1.53.97 0 2.157-.67 2.157-2.186 0-.438-.156-1.172-.546-1.47.016 0 .266.064.563.064.516 0 1.11-.204 1.11-.61zM3.266-2.25c0 .922-.672 2.156-1.47 2.156-.124 0-.905-.11-.905-1.203 0-.984.61-2.266 1.563-2.266.547 0 .813.672.813 1.313zm0 0"/></symbol><symbol overflow="visible" id="b"><path d="M3.563-1.094c0-.484-.235-.86-1.126-1.468.563-.297 1-.626 1-1.126 0-.53-.578-1.015-1.42-1.015-.75 0-1.44.437-1.44 1.11 0 .5.267.812.923 1.265-.72.47-.984.75-.984 1.25 0 .61.593 1.156 1.515 1.156 1.08 0 1.533-.656 1.533-1.172zm-.735-2.593c0 .468-.312.703-.703.937-.47-.297-.906-.64-.906-1.016 0-.343.28-.64.78-.64.53 0 .828.297.828.718zm.094 2.78c0 .423-.344.704-.813.704-.563 0-.922-.406-.922-.938 0-.485.265-.766.578-1.016.812.547 1.156.812 1.156 1.25zm0 0"/></symbol><symbol overflow="visible" id="c"><path d="M3.156 0v-.188c-.53 0-.703 0-.703-.843v-3.673H2.28L.94-4.125l.078.188c.312-.126.375-.14.468-.14.204 0 .22.17.22.374v2.672c0 .843-.157.827-.688.843V0zm0 0"/></symbol><symbol overflow="visible" id="d"><path d="M3.703-1.578c0-.78-.625-1.36-1.406-1.36-.36 0-.672.094-.97.297.345-1.14 1.314-1.844 2.267-1.844v-.22C1.156-4.703.39-2.89.39-1.858.39-.75 1.126.08 2.08.08c.906 0 1.625-.734 1.625-1.656zm-.75.344c0 .593-.297 1.03-.78 1.03-.767 0-.986-1.015-.986-1.53 0-.188.016-.344.047-.563.329-.187.58-.265.83-.265.764 0 .89.765.89 1.328zm0 0"/></symbol><symbol overflow="visible" id="e"><path d="M3.547-1.53c0-.72-.422-1.032-.875-1.204.47-.329.625-.64.625-1.016 0-.406-.375-.953-1.235-.953-.624 0-1.218.297-1.484 1.11l.203.046c.157-.28.47-.625 1-.625.517 0 .814.313.814.672 0 .516-.453.89-1.14 1.047l-.032.203c1.203-.047 1.484.64 1.484 1.047 0 .484-.39.937-.906.937-.5 0-.72-.39-1.125-.39-.172 0-.344.14-.344.328 0 .297.5.406.876.406 1.235 0 2.14-.656 2.14-1.61zm0 0"/></symbol><symbol overflow="visible" id="f"><path d="M3.813-.97L3.592-1c-.234.36-.42.422-.765.422H1.172c1.187-.985 2.25-1.875 2.25-2.844 0-.734-.703-1.25-1.47-1.25-.764 0-1.374.36-1.608 1.375h.25c.22-.39.5-.78 1.078-.78.64 0 1 .42 1 .92 0 .735-.89 1.798-2.406 2.985V0H3.36zm0 0"/></symbol></defs><path d="M2.113 57.695V1M2.113 29.348H61.64M2.113 29.348c1.13-10.024 2.25-20.043 3.543-20.043 1.293 0 2.414 10.02 3.543 20.043C10.327 39.37 11.45 49.39 12.74 49.39c1.293 0 2.418-10.02 3.543-20.042 1.13-10.024 2.25-20.043 3.543-20.043 1.293 0 2.418 10.02 3.547 20.043C24.5 39.37 25.625 49.39 26.918 49.39c1.293 0 2.414-10.02 3.543-20.042 1.126-10.024 2.25-20.043 3.544-20.043 1.293 0 2.414 10.02 3.543 20.043 1.13 10.023 2.25 20.043 3.543 20.043 1.293 0 2.414-10.02 3.543-20.042 1.13-10.024 2.25-20.043 3.543-20.043 1.293 0 2.418 10.02 3.543 20.043C52.847 39.37 53.97 49.39 55.26 49.39c1.293 0 2.418-10.02 3.543-20.042" fill="none" stroke-width=".399" stroke="#000" stroke-miterlimit="10"/><use xlink:href="#a" x="25.773" y="65.311"/><use xlink:href="#b" x="30.561" y="66.74"/><path d="M105.2 57.695V1M105.2 29.348h59.527M105.2 29.348c.566-7.086 1.124-14.172 1.773-14.172.644 0 1.207 7.086 1.77 14.172.566 7.086 1.124 14.172 1.773 14.172.644 0 1.207-7.086 1.77-14.172.566-7.086 1.124-14.172 1.773-14.172.643 0 1.206 7.086 1.768 14.172.567 7.086 1.13 14.172 1.774 14.172.648 0 1.207-7.086 1.773-14.172.563-7.086 1.125-14.172 1.77-14.172.648 0 1.207 7.086 1.773 14.172.562 7.086 1.125 14.172 1.77 14.172.648 0 1.207-7.086 1.773-14.172.563-7.086 1.126-14.172 1.77-14.172.65 0 1.21 7.086 1.774 14.172.562 7.086 1.125 14.172 1.77 14.172.648 0 1.21-7.086 1.773-14.172.562-7.086 1.125-14.172 1.773-14.172.645 0 1.207 7.086 1.77 14.172.562 7.086 1.125 14.172 1.773 14.172.645 0 1.207-7.086 1.77-14.172.566-7.086 1.125-14.172 1.773-14.172.645 0 1.207 7.086 1.77 14.172.566 7.086 1.125 14.172 1.773 14.172.644 0 1.206-7.086 1.77-14.172.565-7.086 1.124-14.172 1.772-14.172.645 0 1.207 7.086 1.77 14.172.566 7.086 1.125 14.172 1.773 14.172.65 0 1.207-7.086 1.774-14.172.56-7.086 1.124-14.172 1.768-14.172.65 0 1.207 7.086 1.774 14.172.562 7.086 1.125 14.172 1.77 14.172.648 0 1.206-7.086 1.773-14.172" fill="none" stroke-width=".399" stroke="#000" stroke-miterlimit="10"/><use xlink:href="#a" x="126.817" y="65.311"/><use xlink:href="#c" x="131.605" y="66.74"/><use xlink:href="#d" x="135.692" y="66.74"/><path d="M208.285 57.695V1M208.285 29.348h59.53" fill="none" stroke-width=".399" stroke="#000" stroke-miterlimit="10"/><path d="M208.285 29.348c.285-5.012.563-10.024.887-10.024.324 0 .605 5.012.887 10.024.28 5.01.56 10.023.885 10.023.325 0 .602-5.01.887-10.022.28-5.012.563-10.024.883-10.024.324 0 .605 5.012.887 10.024.28 5.01.562 10.023.886 10.023.325 0 .602-5.01.887-10.022.28-5.012.563-10.024.883-10.024.324 0 .605 5.012.887 10.024.28 5.01.562 10.023.886 10.023.325 0 .607-5.01.888-10.022.28-5.012.562-10.024.887-10.024.32 0 .6 5.012.882 10.024.282 5.01.563 10.023.887 10.023.324 0 .606-5.01.887-10.022.282-5.012.563-10.024.888-10.024.32 0 .6 5.012.882 10.024.286 5.01.563 10.023.887 10.023.324 0 .606-5.01.887-10.022.28-5.012.562-10.024.887-10.024.32 0 .602 5.012.887 10.024.282 5.01.563 10.023.883 10.023.324 0 .606-5.01.887-10.022.28-5.012.562-10.024.887-10.024.324 0 .6 5.012.886 10.024.282 5.01.563 10.023.883 10.023.324 0 .606-5.01.887-10.022.28-5.012.562-10.024.887-10.024.324 0 .605 5.012.886 10.024.282 5.01.563 10.023.883 10.023.324 0 .606-5.01.887-10.022.28-5.012.562-10.024.887-10.024.324 0 .605 5.012.886 10.024.28 5.01.563 10.023.887 10.023.32 0 .602-5.01.883-10.022.285-5.012.562-10.024.887-10.024.324 0 .605 5.012.886 10.024.28 5.01.562 10.023.886 10.023.32 0 .6-5.01.883-10.022.284-5.012.56-10.024.885-10.024.325 0 .606 5.012.887 10.024.28 5.01.563 10.023.887 10.023.323 0 .6-5.01.886-10.022.28-5.012.562-10.024.882-10.024.325 0 .606 5.012.887 10.024.28 5.01.563 10.023.887 10.023.324 0 .6-5.01.887-10.022.28-5.012.56-10.024.88-10.024.326 0 .607 5.012.888 10.024.28 5.01.563 10.023.887 10.023.324 0 .605-5.01.887-10.022.28-5.012.562-10.024.886-10.024.32 0 .602 5.012.883 10.024.282 5.01.564 10.023.888 10.023.324 0 .605-5.01.887-10.022.28-5.012.562-10.024.886-10.024.322 0 .603 5.012.884 10.024.285 5.01.563 10.023.887 10.023.325 0 .606-5.01.887-10.022.282-5.012.563-10.024.887-10.024.32 0 .602 5.012.883 10.024.285 5.01.563 10.023.887 10.023.324 0 .605-5.01.886-10.022" fill="none" stroke-width=".199" stroke="#000" stroke-miterlimit="10"/><use xlink:href="#a" x="229.904" y="65.311"/><g><use xlink:href="#e" x="234.692" y="66.74"/><use xlink:href="#f" x="238.779" y="66.74"/></g></svg>