<?xml version="1.0" encoding="UTF-8"?>
<svg xmlns="http://www.w3.org/2000/svg" xmlns:xlink="http://www.w3.org/1999/xlink" width="113.784pt" height="11.028pt" viewBox="0 0 113.784 11.028" version="1.1">
<defs>
<clipPath id="clip1">
  <path d="M 0 0 L 1 0 L 1 11.027344 L 0 11.027344 Z M 0 0 "/>
</clipPath>
<clipPath id="clip2">
  <path d="M 0 5 L 113.785156 5 L 113.785156 6 L 0 6 Z M 0 5 "/>
</clipPath>
<clipPath id="clip3">
  <path d="M 0 0 L 113.785156 0 L 113.785156 11.027344 L 0 11.027344 Z M 0 0 "/>
</clipPath>
</defs>
<g id="surface1">
<g clip-path="url(#clip1)" clip-rule="nonzero">
<path style="fill:none;stroke-width:0.3985;stroke-linecap:butt;stroke-linejoin:miter;stroke:rgb(0%,0%,0%);stroke-opacity:1;stroke-miterlimit:10;" d="M 0.00021875 -5.314125 L 0.00021875 5.314781 " transform="matrix(1,0,0,-1,0.199,5.514)"/>
</g>
<g clip-path="url(#clip2)" clip-rule="nonzero">
<path style="fill:none;stroke-width:0.3985;stroke-linecap:butt;stroke-linejoin:miter;stroke:rgb(0%,0%,0%);stroke-opacity:1;stroke-miterlimit:10;" d="M 0.00021875 -0.001625 L 113.386938 -0.001625 " transform="matrix(1,0,0,-1,0.199,5.514)"/>
</g>
<g clip-path="url(#clip3)" clip-rule="nonzero">
<path style="fill:none;stroke-width:0.19925;stroke-linecap:butt;stroke-linejoin:miter;stroke:rgb(0%,0%,0%);stroke-opacity:1;stroke-miterlimit:10;" d="M 0.00021875 -0.001625 C 0.562719 1.881187 1.125219 3.760094 1.76975 3.760094 C 2.418188 3.760094 2.980688 1.881187 3.543188 -0.001625 C 4.105688 -1.880531 4.668188 -3.759438 5.316625 -3.759438 C 5.961156 -3.759438 6.523656 -1.880531 7.086156 -0.001625 C 7.648656 1.881187 8.211156 3.760094 8.859594 3.760094 C 9.504125 3.760094 10.066625 1.881187 10.629125 -0.001625 C 11.195531 -1.880531 11.754125 -3.759438 12.402563 -3.759438 C 13.047094 -3.759438 13.609594 -1.880531 14.172094 -0.001625 C 14.7385 1.881187 15.297094 3.760094 15.945531 3.760094 C 16.590062 3.760094 17.152562 1.881187 17.715062 -0.001625 C 18.281469 -1.880531 18.840062 -3.759438 19.4885 -3.759438 C 20.133031 -3.759438 20.695531 -1.880531 21.261937 -0.001625 C 21.824437 1.881187 22.386937 3.760094 23.031469 3.760094 C 23.679906 3.760094 24.2385 1.881187 24.804906 -0.001625 C 25.367406 -1.880531 25.929906 -3.759438 26.574437 -3.759438 C 27.222875 -3.759438 27.781469 -1.880531 28.347875 -0.001625 C 28.910375 1.881187 29.472875 3.760094 30.117406 3.760094 C 30.765844 3.760094 31.324437 1.881187 31.890844 -0.001625 C 32.453344 -1.880531 33.015844 -3.759438 33.660375 -3.759438 C 34.308813 -3.759438 34.871313 -1.880531 35.433813 -0.001625 C 35.996313 1.881187 36.558813 3.760094 37.203344 3.760094 C 37.851781 3.760094 38.414281 1.881187 38.976781 -0.001625 C 39.539281 -1.880531 40.101781 -3.759438 40.750219 -3.759438 C 41.39475 -3.759438 41.95725 -1.880531 42.51975 -0.001625 C 43.08225 1.881187 43.64475 3.760094 44.293188 3.760094 C 44.937719 3.760094 45.500219 1.881187 46.062719 -0.001625 C 46.629125 -1.880531 47.187719 -3.759438 47.836156 -3.759438 C 48.480688 -3.759438 49.043188 -1.880531 49.605688 -0.001625 C 50.172094 1.881187 50.730688 3.760094 51.379125 3.760094 C 52.023656 3.760094 52.586156 1.881187 53.148656 -0.001625 C 53.715063 -1.880531 54.273656 -3.759438 54.922094 -3.759438 C 55.566625 -3.759438 56.129125 -1.880531 56.695531 -0.001625 C 57.258031 1.881187 57.820531 3.760094 58.465063 3.760094 C 59.1135 3.760094 59.672094 1.881187 60.2385 -0.001625 C 60.801 -1.880531 61.3635 -3.759438 62.008031 -3.759438 C 62.656469 -3.759438 63.215063 -1.880531 63.781469 -0.001625 C 64.343969 1.881187 64.906469 3.760094 65.551 3.760094 C 66.199438 3.760094 66.758031 1.881187 67.324438 -0.001625 C 67.886938 -1.880531 68.449438 -3.759438 69.093969 -3.759438 C 69.742406 -3.759438 70.304906 -1.880531 70.867406 -0.001625 C 71.429906 1.881187 71.992406 3.760094 72.636938 3.760094 C 73.285375 3.760094 73.847875 1.881187 74.410375 -0.001625 C 74.972875 -1.880531 75.535375 -3.759438 76.183813 -3.759438 C 76.828344 -3.759438 77.390844 -1.880531 77.953344 -0.001625 C 78.515844 1.881187 79.078344 3.760094 79.726781 3.760094 C 80.371313 3.760094 80.933813 1.881187 81.496313 -0.001625 C 82.062719 -1.880531 82.621313 -3.759438 83.26975 -3.759438 C 83.914281 -3.759438 84.476781 -1.880531 85.039281 -0.001625 C 85.605688 1.881187 86.164281 3.760094 86.812719 3.760094 C 87.45725 3.760094 88.01975 1.881187 88.58225 -0.001625 C 89.148656 -1.880531 89.70725 -3.759438 90.355688 -3.759438 C 91.000219 -3.759438 91.562719 -1.880531 92.125219 -0.001625 C 92.691625 1.881187 93.250219 3.760094 93.898656 3.760094 C 94.547094 3.760094 95.105688 1.881187 95.672094 -0.001625 C 96.234594 -1.880531 96.797094 -3.759438 97.441625 -3.759438 C 98.090063 -3.759438 98.648656 -1.880531 99.215063 -0.001625 C 99.777563 1.881187 100.340063 3.760094 100.984594 3.760094 C 101.633031 3.760094 102.191625 1.881187 102.758031 -0.001625 C 103.320531 -1.880531 103.883031 -3.759438 104.527563 -3.759438 C 105.176 -3.759438 105.734594 -1.880531 106.301 -0.001625 C 106.8635 1.881187 107.426 3.760094 108.070531 3.760094 C 108.718969 3.760094 109.281469 1.881187 109.843969 -0.001625 C 110.406469 -1.880531 110.968969 -3.759438 111.617406 -3.759438 C 112.261938 -3.759438 112.824438 -1.880531 113.386938 -0.001625 " transform="matrix(1,0,0,-1,0.199,5.514)"/>
</g>
</g>
</svg>
